<svg width="45" height="44" viewBox="0 0 45 44" fill="none" xmlns="http://www.w3.org/2000/svg">
<g opacity="0.6">
<rect x="0.200195" width="44" height="44" rx="22" fill="white" fill-opacity="0.05"/>
<g clip-path="url(#clip0_90_2268)">
<path d="M28.8667 19.9163V17.9997C28.8667 17.0663 28.8667 16.5995 28.685 16.243C28.5253 15.9294 28.2703 15.6745 27.9567 15.5147C27.6002 15.333 27.1334 15.333 26.2 15.333H16.5334C15.5999 15.333 15.1332 15.333 14.7767 15.5147C14.4631 15.6745 14.2081 15.9294 14.0484 16.243C13.8667 16.5995 13.8667 17.0663 13.8667 17.9997V25.9997C13.8667 26.9331 13.8667 27.3998 14.0484 27.7563C14.2081 28.0699 14.4631 28.3249 14.7767 28.4847C15.1332 28.6663 15.5999 28.6663 16.5334 28.6663L26.2 28.6663C27.1335 28.6663 27.6002 28.6663 27.9567 28.4847C28.2703 28.3249 28.5253 28.0699 28.685 27.7563C28.8667 27.3998 28.8667 26.9331 28.8667 25.9997V24.083M24.7 21.9997C24.7 21.6125 24.7 21.4189 24.7321 21.2579C24.8636 20.5967 25.3804 20.0799 26.0415 19.9484C26.2025 19.9163 26.3962 19.9163 26.7834 19.9163H28.45C28.8372 19.9163 29.0309 19.9163 29.1919 19.9484C29.853 20.0799 30.3698 20.5967 30.5013 21.2579C30.5334 21.4189 30.5334 21.6125 30.5334 21.9997C30.5334 22.3869 30.5334 22.5805 30.5013 22.7415C30.3698 23.4026 29.853 23.9195 29.1919 24.051C29.0309 24.083 28.8372 24.083 28.45 24.083H26.7834C26.3962 24.083 26.2025 24.083 26.0415 24.051C25.3804 23.9195 24.8636 23.4026 24.7321 22.7415C24.7 22.5805 24.7 22.3869 24.7 21.9997Z" stroke="white" stroke-width="2" stroke-linecap="round" stroke-linejoin="round"/>
</g>
</g>
<defs>
<clipPath id="clip0_90_2268">
<rect width="20" height="20" fill="white" transform="translate(12.2002 12)"/>
</clipPath>
</defs>
</svg>
