<svg width="63" height="62" viewBox="0 0 63 62" fill="none" xmlns="http://www.w3.org/2000/svg">
<rect x="0.75" width="62" height="62" rx="8.85714" fill="white" fill-opacity="0.22"/>
<path d="M31.7502 22.1428V45.7618M31.7502 22.1428H26.5308C25.7618 22.1428 25.0242 21.8317 24.4804 21.2781C23.9366 20.7244 23.6311 19.9734 23.6311 19.1904C23.6311 18.4074 23.9366 17.6564 24.4804 17.1028C25.0242 16.5491 25.7618 16.238 26.5308 16.238C30.5903 16.238 31.7502 22.1428 31.7502 22.1428ZM31.7502 22.1428H36.9696C37.7386 22.1428 38.4762 21.8317 39.0199 21.2781C39.5637 20.7244 39.8692 19.9734 39.8692 19.1904C39.8692 18.4074 39.5637 17.6564 39.0199 17.1028C38.4762 16.5491 37.7386 16.238 36.9696 16.238C32.9101 16.238 31.7502 22.1428 31.7502 22.1428ZM43.5597 29.5238V41.038C43.5597 42.6915 43.5597 43.5183 43.2379 44.1498C42.9549 44.7053 42.5032 45.157 41.9477 45.4401C41.3161 45.7618 40.4894 45.7618 38.8359 45.7618L24.6645 45.7618C23.011 45.7618 22.1842 45.7618 21.5527 45.4401C20.9972 45.157 20.5455 44.7053 20.2625 44.1498C19.9407 43.5183 19.9407 42.6915 19.9407 41.038V29.5238M16.9883 24.5047L16.9883 27.1618C16.9883 27.9886 16.9883 28.402 17.1492 28.7177C17.2907 28.9955 17.5165 29.2213 17.7943 29.3629C18.1101 29.5238 18.5234 29.5238 19.3502 29.5238L44.1502 29.5238C44.9769 29.5238 45.3903 29.5238 45.7061 29.3629C45.9838 29.2213 46.2097 28.9955 46.3512 28.7177C46.5121 28.402 46.5121 27.9886 46.5121 27.1618V24.5047C46.5121 23.678 46.5121 23.2646 46.3512 22.9488C46.2097 22.6711 45.9838 22.4452 45.7061 22.3037C45.3903 22.1428 44.9769 22.1428 44.1502 22.1428L19.3502 22.1428C18.5234 22.1428 18.1101 22.1428 17.7943 22.3037C17.5165 22.4452 17.2907 22.6711 17.1492 22.9488C16.9883 23.2646 16.9883 23.678 16.9883 24.5047Z" stroke="white" stroke-width="2.21429" stroke-linecap="round" stroke-linejoin="round"/>
</svg>
