<svg width="45" height="44" viewBox="0 0 45 44" fill="none" xmlns="http://www.w3.org/2000/svg">
<g opacity="0.6">
<rect x="0.600098" width="44" height="44" rx="22" fill="white" fill-opacity="0.05"/>
<path d="M30.1001 22.0003L20.1001 22.0003M30.1001 17.0003L20.1001 17.0003M30.1001 27.0003L20.1001 27.0003M16.7668 22.0003C16.7668 22.4606 16.3937 22.8337 15.9334 22.8337C15.4732 22.8337 15.1001 22.4606 15.1001 22.0003C15.1001 21.5401 15.4732 21.167 15.9334 21.167C16.3937 21.167 16.7668 21.5401 16.7668 22.0003ZM16.7668 17.0003C16.7668 17.4606 16.3937 17.8337 15.9334 17.8337C15.4732 17.8337 15.1001 17.4606 15.1001 17.0003C15.1001 16.5401 15.4732 16.167 15.9334 16.167C16.3937 16.167 16.7668 16.5401 16.7668 17.0003ZM16.7668 27.0003C16.7668 27.4606 16.3937 27.8337 15.9334 27.8337C15.4732 27.8337 15.1001 27.4606 15.1001 27.0003C15.1001 26.5401 15.4732 26.167 15.9334 26.167C16.3937 26.167 16.7668 26.5401 16.7668 27.0003Z" stroke="white" stroke-width="2" stroke-linecap="round" stroke-linejoin="round"/>
</g>
</svg>
