<svg width="44" height="44" viewBox="0 0 44 44" fill="none" xmlns="http://www.w3.org/2000/svg">
<g opacity="0.6">
<rect width="44" height="44" rx="22" fill="white" fill-opacity="0.05"/>
<path d="M21.9998 14.5003H25.4998C26.9 14.5003 27.6 14.5003 28.1348 14.7728C28.6052 15.0125 28.9877 15.3949 29.2274 15.8653C29.4998 16.4001 29.4998 17.1002 29.4998 18.5003V25.5003C29.4998 26.9005 29.4998 27.6005 29.2274 28.1353C28.9877 28.6057 28.6052 28.9882 28.1348 29.2278C27.6 29.5003 26.9 29.5003 25.4998 29.5003H18.4998C17.0997 29.5003 16.3996 29.5003 15.8649 29.2278C15.3945 28.9882 15.012 28.6057 14.7723 28.1353C14.4998 27.6005 14.4998 26.9005 14.4998 25.5003V22.0003M18.6665 22.8337V26.167M25.3332 21.167V26.167M21.9998 17.8337V26.167M16.1665 18.667V13.667M13.6665 16.167H18.6665" stroke="white" stroke-width="2" stroke-linecap="round" stroke-linejoin="round"/>
</g>
</svg>
