<svg width="63" height="62" viewBox="0 0 63 62" fill="none" xmlns="http://www.w3.org/2000/svg">
<rect x="0.5" width="62" height="62" rx="8.85714" fill="white" fill-opacity="0.22"/>
<path d="M43.3097 27.3095V23.9142C43.3097 22.2608 43.3097 21.434 42.9879 20.8025C42.7049 20.2469 42.2532 19.7953 41.6977 19.5122C41.0661 19.1904 40.2394 19.1904 38.5859 19.1904H21.4621C19.8086 19.1904 18.9819 19.1904 18.3503 19.5122C17.7948 19.7953 17.3431 20.2469 17.0601 20.8025C16.7383 21.434 16.7383 22.2608 16.7383 23.9142V38.0857C16.7383 39.7392 16.7383 40.5659 17.0601 41.1974C17.3431 41.753 17.7948 42.2046 18.3503 42.4877C18.9819 42.8095 19.8086 42.8095 21.4621 42.8095L38.5859 42.8095C40.2394 42.8095 41.0661 42.8095 41.6977 42.4877C42.2532 42.2046 42.7049 41.753 42.9879 41.1975C43.3097 40.5659 43.3097 39.7392 43.3097 38.0857V34.6904M35.9288 31C35.9288 30.314 35.9288 29.9711 35.9855 29.6859C36.2185 28.5147 37.134 27.5992 38.3052 27.3662C38.5904 27.3095 38.9333 27.3095 39.6192 27.3095H42.5716C43.2575 27.3095 43.6005 27.3095 43.8857 27.3662C45.0569 27.5992 45.9724 28.5147 46.2054 29.6859C46.2621 29.9711 46.2621 30.314 46.2621 31C46.2621 31.6859 46.2621 32.0288 46.2054 32.314C45.9724 33.4852 45.0569 34.4007 43.8857 34.6337C43.6005 34.6904 43.2575 34.6904 42.5716 34.6904H39.6192C38.9333 34.6904 38.5904 34.6904 38.3052 34.6337C37.134 34.4007 36.2184 33.4852 35.9855 32.314C35.9288 32.0288 35.9288 31.6859 35.9288 31Z" stroke="white" stroke-width="2.21429" stroke-linecap="round" stroke-linejoin="round"/>
</svg>
