<svg width="45" height="44" viewBox="0 0 45 44" fill="none" xmlns="http://www.w3.org/2000/svg">
<g opacity="0.6">
<rect x="0.800293" width="44" height="44" rx="22" fill="white" fill-opacity="0.05"/>
<g clip-path="url(#clip0_90_2291)">
<path d="M21.967 14.5003H19.3003C17.9002 14.5003 17.2001 14.5003 16.6653 14.7728C16.1949 15.0125 15.8125 15.3949 15.5728 15.8653C15.3003 16.4001 15.3003 17.1002 15.3003 18.5003V25.5003C15.3003 26.9005 15.3003 27.6005 15.5728 28.1353C15.8125 28.6057 16.1949 28.9882 16.6653 29.2278C17.2001 29.5003 17.9002 29.5003 19.3003 29.5003H26.3003C27.7004 29.5003 28.4005 29.5003 28.9353 29.2278C29.4057 28.9882 29.7881 28.6057 30.0278 28.1353C30.3003 27.6005 30.3003 26.9005 30.3003 25.5003V22.8337M22.8003 18.667H26.1336V22.0003M25.717 14.917V13.667M28.9997 15.8009L29.8836 14.917M29.8922 19.0837H31.1422M15.3003 23.1229C15.8436 23.2068 16.4002 23.2503 16.967 23.2503C20.6223 23.2503 23.8547 21.44 25.8167 18.667" stroke="white" stroke-width="2" stroke-linecap="round" stroke-linejoin="round"/>
</g>
</g>
<defs>
<clipPath id="clip0_90_2291">
<rect width="20" height="20" fill="white" transform="translate(12.8003 12)"/>
</clipPath>
</defs>
</svg>
