<svg width="227" height="248" viewBox="0 0 227 248" fill="none" xmlns="http://www.w3.org/2000/svg">
<path d="M46.3528 117.867C47.6528 81.2074 78.5122 52.8999 116.502 54.2207C131.227 54.7893 145.361 60.1574 156.751 69.5067C168.141 78.8559 176.16 91.6734 179.588 106.005C187.82 141.664 166.741 181.003 123.948 188.635C107.416 191.585 88.959 186.44 76.4751 178.125C58.1789 165.943 45.4038 144.564 46.3528 117.867ZM170.388 89.1517C165.682 81.1014 159.329 74.136 151.745 68.7118C111.279 41.118 61.7331 63.7718 50.9288 103.692C40.8837 140.802 64.1069 179.834 103.754 186.28C154.944 194.602 198.289 141.01 170.388 89.1517Z" fill="black"/>
<path d="M126.78 174.972C121.76 176.139 116.629 176.761 111.474 176.826C89.9668 175.581 73.8299 164.699 64.5089 148.267C56.0251 133.311 55.7495 114.689 64.2723 97.4996C85.0294 55.6188 147.436 56.69 164.423 104.087C174.037 130.911 161.446 164.846 126.78 174.972ZM160.32 99.9319C155.54 89.4097 147.436 80.7487 137.254 75.28C130.84 71.9936 123.841 70.0031 116.657 69.4222C102.227 68.8086 90.8092 72.3264 79.3939 81.7852C69.9461 89.6273 63.5508 100.537 61.3239 112.612C58.8936 124.93 61.0184 137.71 67.3035 148.578C73.5887 159.446 83.6065 167.662 95.4944 171.698C138.835 186.778 180.179 143.596 160.323 99.9319H160.32Z" fill="black"/>
<path d="M114.499 74.8314C125.572 88.6283 140.34 119.003 141.041 120.27C141.903 121.83 142.636 121.842 131.405 128.037C131.368 128.057 115.014 137.151 113.887 137.558C111.157 138.541 85.7233 120.556 85.6947 120.536C84.0151 119.33 84.6989 118.342 85.3619 117.176C85.7857 116.433 86.3824 115.424 87.1312 113.981C94.2536 99.9998 102.915 86.8577 112.954 74.7989C113.741 73.9214 114.243 74.5116 114.499 74.8314ZM113.185 77.5289C113.185 77.1636 113.127 76.6852 112.87 76.9452C109.928 79.9079 85.6232 118.02 87.3327 117.569C89.6727 116.957 103.628 110.397 112.484 108.395C112.678 108.351 112.795 108.217 112.856 107.851C112.917 107.486 112.91 80.8894 113.185 77.5289ZM114.192 107.455C114.145 108.287 114.618 108.547 115.362 108.826C134.039 115.883 139.092 119.766 138.533 118.612C136.384 114.169 114.295 76.3524 114.381 77.4015C114.447 78.2153 114.37 107.49 114.192 107.455ZM112.774 110.593C112.774 109.081 113.391 109.114 88.2466 118.944C85.5049 120.016 85.9066 118.164 105.036 131.164C112.867 136.485 112.753 136.149 112.685 134.767C112.471 130.34 112.774 116.015 112.774 110.593ZM114.108 134.93C114.095 135.57 114.154 136.033 115.136 135.421C136.486 122.101 140.83 121.602 139.633 121C134.555 118.446 118.691 111.494 114.969 110.15C114.418 109.951 114.266 110.171 114.251 110.474C114.235 110.776 114.14 133.452 114.108 134.93Z" fill="black"/>
<path d="M84.9588 124.734C86.5032 125.61 101.932 136.676 111.098 142.22C113.404 143.616 109.353 144.646 139.42 127.105C140.185 126.658 140.778 127.169 140.573 127.762C140.416 128.217 128.649 149.691 117.088 162.633C114.335 165.716 112.979 168.679 112.018 167.573C103.705 156.845 95.9911 145.665 88.9134 134.085C86.1041 129.234 87.8838 132.135 84.4934 126.437C83.7758 125.232 84.2412 124.664 84.9588 124.734ZM113.249 164.683C114.37 163.912 125.438 149.364 137.73 130.337C138.956 128.439 137.119 130.416 121.402 139.715C114.122 144.023 113.529 143.923 113.352 144.655C113.309 144.961 113.095 164.402 113.249 164.683ZM111.206 144.013C110.714 143.636 109.894 143.193 108.636 142.453C98.1967 136.291 87.5094 127.71 87.1259 128.009C86.9595 128.139 100.896 148.924 102.268 150.941C113.515 167.467 111.86 166.411 111.745 161.888C111.643 157.799 111.604 149.871 111.717 146.602C111.745 145.984 111.733 145.362 111.679 144.745C111.664 144.597 111.614 144.454 111.535 144.326C111.455 144.2 111.348 144.093 111.22 144.015L111.206 144.013Z" fill="black"/>
<path d="M226.058 12.7679C226.038 11.9541 224.478 12.1842 224.108 12.1842C222.925 12.2203 221.74 12.1899 220.56 12.0932C220.195 12.0386 219.958 12.2102 219.833 11.5238C219.708 10.8374 219.812 4.14886 219.611 1.30576C219.541 0.341161 217.531 0.166961 217.234 1.19136C217.042 2.82286 217.234 10.6723 217.301 11.4926C217.331 11.8826 217.171 11.9515 216.773 11.9944C215.914 12.0906 213.033 12.2544 212.448 12.2141C212.331 12.2076 211.24 12.2921 211.163 13.1124C210.732 18.094 210.513 42.0153 210.287 52.5102C210.279 52.8924 210.075 53.0393 209.704 53.0211C208.571 53.0616 207.438 53.0412 206.308 52.96C206.246 52.9617 206.184 52.9505 206.127 52.9272C206.07 52.9038 206.018 52.8687 205.975 52.8242C205.932 52.7797 205.898 52.7267 205.878 52.6686C205.856 52.6105 205.846 52.5485 205.85 52.4868C205.85 48.0148 206.151 47.1139 205.169 46.9631C203.751 46.7031 203.458 46.9995 203.458 48.2852C203.479 49.593 203.4 51.1205 203.421 52.336C203.54 52.9457 203.21 52.8989 202.544 52.869C201.155 52.8128 199.762 52.8371 198.375 52.9418C197.946 53.0211 197.79 53.5476 197.741 54.1573C197.685 54.8723 197.312 68.9604 197.295 72.5055C197.467 73.1971 196.88 73.3466 196.234 73.3349C195.588 73.3232 193.729 73.2621 193.253 73.2049C192.473 73.1139 192.684 73.7002 192.754 68.5626C192.766 67.7267 192.841 67.3601 192.624 67.1027C192.332 66.9363 192.007 66.8381 191.671 66.8156C191.336 66.7931 191 66.8468 190.688 66.9727C190.332 67.1261 190.521 67.4108 190.435 71.8724C190.412 73.1256 190.318 73.1425 189.775 73.1256C186.154 73.006 185.381 72.6784 185.015 74.6232C184.835 75.5774 184.12 94.5821 183.975 100.507C183.908 103.202 184.404 103.122 185.637 103.167C186.869 103.213 188.373 103.249 189.96 103.41C190.391 103.492 190.192 103.93 190.192 105.947C190.207 111.16 189.72 111.33 191.207 111.418C192.385 111.486 192.377 111.104 192.414 110.715C192.566 109.048 192.653 106.096 192.761 104.154C192.802 103.486 192.586 103.504 195.68 103.656C197.591 103.748 197.546 103.748 197.684 101.512C198.098 94.7056 198.854 76.7981 198.854 75.8348C198.854 74.8715 198.955 74.7168 199.54 74.8273C200.532 74.8039 202.39 74.9118 203.519 75.0002C203.519 76.4926 203.175 79.9285 203.536 81.0088C203.601 81.222 204.056 81.2571 204.478 81.3013C205.871 81.4482 205.623 81.6263 205.884 75.3382C205.908 74.7727 206.754 74.9742 208.769 74.9742C209.464 74.9742 210.445 75.1315 210.814 74.8858C210.935 74.7914 211.031 74.6691 211.095 74.5294C211.158 74.3898 211.187 74.2368 211.178 74.0837C211.26 72.6004 211.741 69.4141 211.741 56.3335C211.741 54.3835 211.665 54.3263 212.332 54.377C216.384 54.7124 217.102 54.0819 217.076 55.1388C217.029 57.4073 216.907 62.7867 217.322 63.8085C217.481 64.2206 218.697 63.9632 219.049 63.984C219.686 64.0178 219.309 55.066 219.342 54.8086C219.415 54.1378 219.944 54.3796 223.546 54.3536C225.617 54.3393 225.479 53.9857 225.549 52.8937C225.608 51.894 226.332 24.3132 226.058 12.7679Z" fill="black"/>
<path d="M46.1981 158.023C45.9238 152.266 47.4006 153.55 41.561 153.06C40.5678 152.978 40.5678 152.691 40.5678 152.334C40.534 151.218 40.6302 147.179 40.6068 145.964C40.6003 145.532 40.2467 145.444 39.2223 145.403C37.8495 145.576 38.4579 144.928 38.1823 151.467C38.168 151.791 38.1589 152.063 38.1446 152.277C38.1212 152.622 38.1095 152.782 36.9941 152.765C35.6742 152.705 34.3517 152.732 33.0356 152.848C32.396 152.997 32.3336 153.547 32.305 153.941C31.3365 176.522 32.4194 180.946 31.5458 181.382C30.0759 181.457 28.6023 181.41 27.1401 181.244C26.6201 181.306 26.8801 180.663 27.1076 174.052C27.131 173.311 25.1927 173.264 24.8976 173.831C24.5908 174.964 24.6701 180.231 24.5908 180.739C24.5414 181.045 24.4543 181.244 24.2138 181.18C19.9368 181.18 18.4548 180.721 18.2338 182.31C18.0765 183.502 17.9179 194.38 17.9621 194.798C18.0297 195.329 17.8022 195.671 17.3784 195.531C16.3407 195.364 15.2923 195.275 14.2415 195.262C12.6594 194.95 12.1433 195.435 12.1433 194.659C12.2578 192.181 12.2144 189.699 12.0133 187.226C11.7676 186.567 10.1088 186.666 10.0425 187.096C9.8466 189.514 9.81449 191.942 9.94631 194.363C9.94631 194.623 9.96971 195.026 9.59531 195.026C7.95471 194.98 5.82531 194.935 5.09861 194.98C3.20321 195.119 3.71281 198.49 3.24741 209.759C2.53501 226.853 2.89771 235.329 2.98741 236.339C3.03941 236.859 3.11741 237.319 4.32641 237.612C4.72941 237.721 8.89071 237.904 9.43931 237.904C10.1465 237.925 10.023 238.258 10.023 238.8C10.023 239.002 9.86311 244.459 9.89301 245.867C10.3155 248.134 12.4826 248.287 12.4826 245.706C12.4826 243.718 12.6425 239.951 12.6126 238.626C12.5827 237.301 15.3894 238.424 17.9829 237.729C18.1021 237.7 18.2091 237.634 18.2889 237.54C18.3686 237.447 18.4171 237.331 18.4275 237.209C18.5276 236.508 19.5585 212.017 19.162 197.663C19.1516 197.273 19.4051 197.171 19.7821 197.19C24.0955 197.39 23.7393 196.982 23.7029 198.301C23.6704 199.526 23.5248 202.104 23.6184 203.097C23.7913 203.476 24.3516 203.561 24.8391 203.58C25.3903 203.604 25.8661 203.517 25.948 203.099C26.208 201.754 26.1001 198.898 26.1846 198.211C26.2691 197.525 26.0416 197.324 26.7696 197.37C27.4976 197.417 31.2858 197.558 31.7317 197.5C32.2322 197.446 32.6079 197.209 32.6079 196.804C32.5806 195.398 33.0668 183.862 33.0668 183.724C33.0732 183.605 33.1269 183.492 33.2162 183.412C33.3054 183.332 33.4227 183.29 33.5426 183.297C33.8546 183.271 37.2892 183.365 37.531 183.41C38.0926 183.506 38.1654 183.644 38.142 184.227C38.0218 186.11 38.0578 187.999 38.2499 189.875C38.3058 190.216 40.1414 190.324 40.2935 189.875C40.4336 188.006 40.4474 186.132 40.3351 184.262C40.3195 183.702 40.3611 183.393 40.6523 183.41C41.1528 183.44 43.5877 183.329 44.0544 183.287C45.2829 183.182 45.461 183.027 45.5754 180.659C45.6664 178.944 46.3203 160.554 46.1981 158.023Z" fill="black"/>
<path d="M155.282 55.2614C154.788 55.2614 154.632 55.0885 154.72 54.718C155.979 49.2645 175.213 19.4997 176.845 19.0057C177.429 18.8289 177.907 19.2423 177.235 20.3551C177.221 20.3889 155.938 54.926 155.282 55.2614Z" fill="black"/>
<path d="M175.979 178.412C186.313 187.336 199.391 206.232 200.141 207.662C200.383 208.123 200.141 208.714 199.621 208.465C198.643 207.989 187.583 192.791 174.695 179.457C174.193 178.937 174.136 178.931 174.324 178.56C174.599 178.017 175.282 177.81 175.979 178.412Z" fill="black"/>
<path d="M106.349 42.2972C106.349 42.5728 106.495 43.6583 105.692 43.3112C103.792 42.4896 101.309 15.9475 101.961 4.22541C102.002 3.47011 102.564 3.3479 102.871 3.7704C103.538 4.7038 102.579 5.13671 106.349 42.2972Z" fill="black"/>
<path d="M51.5623 69.7149C47.063 67.6479 25.4323 40.1581 26.9507 39.1207C28.0232 38.3914 36.3666 51.5864 51.0163 67.1656C52.7219 68.9856 52.7232 68.8478 52.4359 69.2937C52.3362 69.4304 52.2042 69.5404 52.0519 69.6138C51.8995 69.6873 51.7313 69.722 51.5623 69.7149Z" fill="black"/>
<path d="M70.8355 191.063C71.6155 189.781 72.506 187.477 73.364 188.101C74.7862 189.141 63.9559 205.807 63.0251 207.285C55.7932 218.755 53.0333 223.365 52.2013 222.904C51.3693 222.442 51.0677 223.422 70.8355 191.063Z" fill="black"/>
<path d="M226.244 135.417C226.378 135.479 226.489 135.583 226.56 135.712C226.632 135.84 226.66 135.989 226.642 136.135C226.564 136.814 226.002 136.701 225.59 136.616C213.984 134.241 190.36 132.04 190.26 132.024C189.537 131.894 189.264 131.077 189.986 130.976C196.815 130.007 222.472 133.643 226.244 135.417Z" fill="black"/>
<path d="M124.529 238.558C122.328 239.375 123.229 224.211 119.919 199.903C119.724 198.473 120.768 198.591 121.07 199.502C122.998 205.339 125.365 238.249 124.529 238.558Z" fill="black"/>
<path d="M1.69968 110.449C6.93218 110.934 31.7089 113.348 36.4747 115.705C37.0597 115.995 37.0298 116.996 36.2563 116.99C35.5959 116.99 35.8884 116.632 24.4263 114.829C0.896276 111.127 0.239776 112.134 0.360676 111.229C0.452976 110.536 0.806575 110.59 1.69968 110.449Z" fill="black"/>
</svg>
