<svg width="20" height="20" viewBox="0 0 20 20" fill="none" xmlns="http://www.w3.org/2000/svg">
<g id="Group" filter="url(#filter0_d_118_4999)">
<path id="Vector" d="M7.95622 9.65018C7.97066 9.48796 8.00378 9.38774 7.98425 9.29942C7.82798 8.5928 8.18213 8.231 8.78599 7.94818C9.39833 7.66112 9.97076 7.28828 10.5517 6.93836C10.7402 6.82456 10.8753 6.82796 11.0867 6.91713C11.6736 7.16428 11.9046 7.54561 11.8443 8.19448C11.7815 8.86797 11.8197 9.55166 11.835 10.2311C11.8418 10.519 11.75 10.7042 11.4927 10.846C10.7632 11.2494 10.0395 11.6647 9.32444 12.0945C9.08494 12.2388 8.89639 12.2278 8.66199 12.0877C7.94688 11.6588 7.22327 11.2435 6.49458 10.8383C6.25422 10.7042 6.15995 10.5334 6.1642 10.26C6.17694 9.41152 6.15061 8.56137 6.18373 7.71377C6.19053 7.53117 6.33831 7.28743 6.49458 7.18806C7.15024 6.7719 7.84921 6.42369 8.50232 6.00329C8.86412 5.77058 9.16137 5.74085 9.49685 6.01008C9.62594 6.1137 9.78391 6.18079 9.99878 6.30564C9.43825 6.63092 8.93461 6.92393 8.43098 7.21693C8.26027 7.3163 8.08786 7.41482 7.91715 7.51334C7.11711 7.97536 7.02029 8.14777 7.17571 9.05821C7.24366 9.45908 7.63943 9.47182 7.95622 9.65018Z" fill="#CECECE"/>
<path id="Vector_2" d="M3.56427 8.99538C3.35365 8.99538 3.18464 8.99538 3.01562 8.99538C3.05894 8.81108 3.07168 8.6115 3.15321 8.44589C3.23814 8.27178 3.38592 8.12825 3.51162 7.97537C3.78424 7.64415 3.88106 7.6467 4.15963 7.99236C4.29297 8.15712 4.44584 8.31255 4.54436 8.49684C4.6191 8.63698 4.6225 8.81618 4.65817 8.97755C4.49171 8.98604 4.32439 8.99453 4.11886 9.00557C4.11886 10.5572 4.11886 12.1998 4.11886 13.8933C4.26325 13.9001 4.41272 13.9128 4.56135 13.9137C6.2574 13.9154 7.95345 13.9145 9.65035 13.9145C9.7633 13.9145 9.89155 13.8839 9.98582 13.9264C10.0945 13.9757 10.1735 14.0912 10.2644 14.1778C10.1701 14.2636 10.0843 14.363 9.97818 14.4309C9.92807 14.4632 9.84059 14.4385 9.7701 14.4394C7.87616 14.4394 5.98138 14.4292 4.08744 14.447C3.67128 14.4513 3.55238 14.3077 3.55748 13.9043C3.57616 12.3781 3.56512 10.8511 3.56512 9.32491C3.56427 9.18817 3.56427 9.05144 3.56427 8.99538Z" fill="#CECECE"/>
<path id="Vector_3" d="M14.4392 9.02486C14.655 9.01296 14.8146 9.00362 14.9743 8.99513C14.9471 9.16839 14.9607 9.36373 14.8834 9.5098C14.773 9.71873 14.5938 9.89114 14.4477 10.0814C14.266 10.3183 14.0876 10.3285 13.9025 10.0856C13.7658 9.90558 13.6018 9.74166 13.4923 9.54717C13.4065 9.3943 13.3844 9.20576 13.3335 9.03335C13.5144 9.03335 13.6961 9.03335 13.8898 9.03335C13.8898 7.42987 13.8898 5.78478 13.8898 4.08703C13.7165 4.08703 13.5653 4.08703 13.415 4.08703C11.7325 4.08703 10.0509 4.08703 8.36846 4.08703C8.2555 4.08703 8.12896 4.11676 8.03299 4.07599C7.92088 4.02928 7.8351 3.92057 7.73828 3.83904C7.84105 3.74731 7.93447 3.63945 8.05082 3.57066C8.11367 3.53329 8.21644 3.56301 8.30137 3.56217C10.1528 3.56217 12.0052 3.56217 13.8566 3.56217C14.4384 3.56217 14.4392 3.56301 14.4392 4.16347C14.4401 5.80346 14.4392 7.44261 14.4392 9.02486Z" fill="#CECECE"/>
<path id="Vector_4" d="M17.0018 14.1844C16.9984 15.7573 15.7406 17.0058 14.1635 16.9999C12.5897 16.9948 11.3361 15.7327 11.3438 14.1615C11.3514 12.5886 12.6152 11.3342 14.1855 11.3418C15.7593 11.3503 17.0052 12.6073 17.0018 14.1844ZM14.1601 16.6032C15.4969 16.6151 16.5958 15.5272 16.6043 14.1853C16.612 12.8485 15.5215 11.7435 14.1864 11.7359C12.8581 11.7283 11.7481 12.8256 11.737 14.159C11.726 15.4907 12.8165 16.5913 14.1601 16.6032Z" fill="#CECECE"/>
<path id="Vector_5" d="M1.00003 3.80867C1.00767 2.23407 2.26548 0.992391 3.84433 1.00004C5.41723 1.00768 6.66825 2.27313 6.65636 3.84434C6.64447 5.41979 5.38071 6.66741 3.80866 6.65637C2.23406 6.64532 0.993233 5.38751 1.00003 3.80867ZM1.3958 3.81971C1.39155 5.15565 2.48545 6.25974 3.8197 6.26484C5.14715 6.26993 6.25719 5.1667 6.26483 3.83584C6.27163 2.50414 5.17603 1.40345 3.83584 1.39581C2.49819 1.38816 1.4009 2.47866 1.3958 3.81971Z" fill="#CECECE"/>
<path id="Vector_6" d="M14.1321 16.0622C13.084 16.046 12.2662 15.1976 12.2815 14.1436C12.2976 13.0913 13.1367 12.2735 14.1907 12.2828C15.26 12.293 16.0804 13.144 16.0608 14.2234C16.0422 15.2698 15.1937 16.0783 14.1321 16.0622ZM13.834 13.5567C14.1576 13.1771 14.4234 13.155 14.8931 13.4175C15.0111 13.4837 15.1869 13.4455 15.3355 13.4557C15.288 13.3003 15.288 13.0888 15.1835 12.9988C14.6179 12.5104 13.7558 12.6709 13.2904 13.3079C13.1928 13.4412 13.0492 13.5669 12.8998 13.6332C12.4539 13.8302 13.0204 14.2302 12.7248 14.4553C12.7138 14.4638 12.8063 14.609 12.853 14.6889C12.8581 14.6982 12.8811 14.6957 12.8913 14.7041C13.0229 14.8112 13.1834 14.8986 13.2802 15.0311C13.7304 15.6503 14.5058 15.8252 15.1088 15.4184C15.2854 15.2995 15.5003 15.156 15.3364 14.9114C15.1742 14.6693 15.0001 14.8545 14.8336 14.9581C14.4302 15.2103 14.1032 15.1466 13.8204 14.7543C14.1075 14.7279 14.4514 14.7925 14.6349 14.6498C14.7818 14.536 14.8005 14.1589 14.7597 13.9185C14.6629 13.3308 14.1066 13.7844 13.834 13.5567Z" fill="#CECECE"/>
<path id="Vector_7" d="M3.83403 1.93849C4.88801 1.94188 5.71522 2.76995 5.71607 3.82393C5.71692 4.8949 4.86932 5.73146 3.79751 5.71617C2.74438 5.70173 1.93075 4.86687 1.93754 3.80864C1.94519 2.75551 2.7775 1.93509 3.83403 1.93849ZM3.76269 5.52508C3.90792 5.42061 3.9869 5.37135 4.05824 5.3119C4.16865 5.21933 4.29435 5.13355 4.37758 5.01889C4.52536 4.81506 4.75891 4.5849 4.74787 4.37767C4.73513 4.14581 4.52536 3.88678 4.33341 3.71607C4.19158 3.58952 3.93085 3.60651 3.7423 3.51818C3.63784 3.46892 3.57244 3.33558 3.49006 3.24046C3.60217 3.17422 3.71343 3.05701 3.82638 3.05447C3.94528 3.05192 4.06249 3.16997 4.18733 3.21753C4.33511 3.27443 4.48969 3.3135 4.64171 3.36106C4.62642 3.19545 4.63661 3.02219 4.58566 2.86847C4.55508 2.7759 4.43108 2.7122 4.34615 2.63831C4.17714 2.49138 4.00813 2.23659 3.83573 2.23404C3.67011 2.2315 3.51129 2.50752 3.32869 2.63067C3.05607 2.81581 2.92443 3.05362 2.95415 3.38145C2.98643 3.72456 3.20724 3.90292 3.5079 4.00398C3.65398 4.05324 3.81789 4.06004 3.95378 4.12713C4.06589 4.18318 4.14742 4.29954 4.24254 4.38871C4.12194 4.46345 3.98435 4.61718 3.88498 4.59594C3.70408 4.55688 3.54781 4.40995 3.37795 4.31483C3.27604 4.25792 3.16478 4.17129 3.06371 4.17809C2.99747 4.18233 2.87262 4.38192 2.8913 4.40825C3.16308 4.78279 3.45609 5.14034 3.76269 5.52508Z" fill="#CECECE"/>
</g>
<defs>
<filter id="filter0_d_118_4999" x="0" y="0" width="20" height="20" filterUnits="userSpaceOnUse" color-interpolation-filters="sRGB">
<feFlood flood-opacity="0" result="BackgroundImageFix"/>
<feColorMatrix in="SourceAlpha" type="matrix" values="0 0 0 0 0 0 0 0 0 0 0 0 0 0 0 0 0 0 127 0" result="hardAlpha"/>
<feOffset dx="1" dy="1"/>
<feGaussianBlur stdDeviation="1"/>
<feComposite in2="hardAlpha" operator="out"/>
<feColorMatrix type="matrix" values="0 0 0 0 0 0 0 0 0 0 0 0 0 0 0 0 0 0 0.57 0"/>
<feBlend mode="normal" in2="BackgroundImageFix" result="effect1_dropShadow_118_4999"/>
<feBlend mode="normal" in="SourceGraphic" in2="effect1_dropShadow_118_4999" result="shape"/>
</filter>
</defs>
</svg>
