<svg width="20" height="20" viewBox="0 0 20 20" fill="none" xmlns="http://www.w3.org/2000/svg">
<g id="Vector" filter="url(#filter0_d_118_4998)">
<path d="M9 1C7.41775 1 5.87103 1.46919 4.55544 2.34824C3.23985 3.22729 2.21447 4.47672 1.60897 5.93853C1.00347 7.40034 0.84504 9.00887 1.15372 10.5607C1.4624 12.1126 2.22433 13.538 3.34315 14.6569C4.46197 15.7757 5.88743 16.5376 7.43928 16.8463C8.99113 17.155 10.5997 16.9965 12.0615 16.391C13.5233 15.7855 14.7727 14.7602 15.6518 13.4446C16.5308 12.129 17 10.5822 17 9C16.9975 6.87904 16.1538 4.84566 14.6541 3.34591C13.1543 1.84616 11.121 1.0025 9 1ZM9 15.5455C7.70543 15.5455 6.43994 15.1616 5.36354 14.4423C4.28715 13.7231 3.4482 12.7009 2.95279 11.5048C2.45738 10.3088 2.32776 8.99274 2.58032 7.72304C2.83288 6.45335 3.45627 5.28706 4.37167 4.37166C5.28707 3.45627 6.45335 2.83287 7.72305 2.58031C8.99274 2.32776 10.3088 2.45738 11.5048 2.95279C12.7009 3.4482 13.7231 4.28715 14.4423 5.36354C15.1616 6.43993 15.5455 7.70543 15.5455 9C15.5433 10.7353 14.853 12.3989 13.626 13.626C12.3989 14.853 10.7353 15.5433 9 15.5455ZM9.72727 12.2727V13.7273H8.27273V12.2727H9.72727ZM11.9091 7.18182C11.9099 7.61798 11.8122 8.0487 11.6233 8.44184C11.4344 8.83499 11.1592 9.18042 10.8182 9.45236C10.2673 9.87923 9.89484 10.4956 9.77309 11.1818H8.29527C8.35958 10.6211 8.53551 10.079 8.81267 9.58733C9.08984 9.09569 9.46264 8.66454 9.90909 8.31927C10.0883 8.17588 10.231 7.99213 10.3255 7.78304C10.4201 7.57395 10.4638 7.34545 10.4532 7.11622C10.4426 6.88698 10.3778 6.66352 10.2643 6.46408C10.1508 6.26465 9.99168 6.09491 9.8 5.96873C9.58637 5.82909 9.34057 5.74643 9.08597 5.72861C8.83138 5.71079 8.57646 5.7584 8.34546 5.86691C8.09905 5.98501 7.89227 6.17216 7.75025 6.4056C7.60822 6.63903 7.53707 6.9087 7.54546 7.18182C7.54546 7.3747 7.46883 7.55969 7.33244 7.69608C7.19605 7.83247 7.01107 7.90909 6.81818 7.90909C6.6253 7.90909 6.44031 7.83247 6.30392 7.69608C6.16753 7.55969 6.09091 7.3747 6.09091 7.18182C6.08009 6.62286 6.23431 6.07312 6.53429 5.60136C6.83427 5.1296 7.26669 4.75675 7.77746 4.52945C8.23022 4.32711 8.72665 4.24203 9.22095 4.28207C9.71526 4.32211 10.1915 4.48597 10.6058 4.75855C11.0061 5.02356 11.3347 5.38353 11.5621 5.80636C11.7895 6.22918 11.9087 6.70172 11.9091 7.18182Z" fill="#CECECE"/>
</g>
<defs>
<filter id="filter0_d_118_4998" x="0" y="0" width="20" height="20" filterUnits="userSpaceOnUse" color-interpolation-filters="sRGB">
<feFlood flood-opacity="0" result="BackgroundImageFix"/>
<feColorMatrix in="SourceAlpha" type="matrix" values="0 0 0 0 0 0 0 0 0 0 0 0 0 0 0 0 0 0 127 0" result="hardAlpha"/>
<feOffset dx="1" dy="1"/>
<feGaussianBlur stdDeviation="1"/>
<feComposite in2="hardAlpha" operator="out"/>
<feColorMatrix type="matrix" values="0 0 0 0 0 0 0 0 0 0 0 0 0 0 0 0 0 0 0.57 0"/>
<feBlend mode="normal" in2="BackgroundImageFix" result="effect1_dropShadow_118_4998"/>
<feBlend mode="normal" in="SourceGraphic" in2="effect1_dropShadow_118_4998" result="shape"/>
</filter>
</defs>
</svg>
