<svg width="24" height="20" viewBox="0 0 24 20" fill="none" xmlns="http://www.w3.org/2000/svg">
<g id="Group 1171277600" filter="url(#filter0_d_118_5007)">
<path id="Vector" d="M14.5818 13.1971C13.7476 12.849 11.7646 12.165 10.5453 11.8052C10.4416 11.7726 10.4249 11.7675 10.4249 11.3345C10.4249 10.9769 10.5721 10.6171 10.7158 10.3125C10.871 9.98173 11.0552 9.42468 11.1212 8.92565C11.3062 8.71096 11.5579 8.28737 11.7203 7.48008C11.8625 6.76853 11.7958 6.50959 11.7015 6.2666C11.6921 6.24122 11.6812 6.21583 11.6739 6.19044C11.6384 6.02362 11.687 5.15685 11.8088 4.48447C11.893 4.02317 11.7871 3.0418 11.1517 2.23016C10.7506 1.71735 9.98318 1.08704 8.58112 1L7.81228 1.00073C6.43415 1.08776 5.66531 1.71735 5.2642 2.23016C4.62881 3.0418 4.52364 4.02317 4.60705 4.48447C4.72963 5.15758 4.77823 6.02434 4.74269 6.18754C4.73544 6.21583 4.72456 6.24122 4.7144 6.26733C4.62084 6.51031 4.5541 6.76926 4.69627 7.4808C4.85729 8.28809 5.10971 8.71168 5.29539 8.92638C5.36067 9.4254 5.5449 9.98246 5.70085 10.3132C5.81472 10.5555 5.86767 10.8848 5.86767 11.3511C5.86767 11.7842 5.85099 11.7892 5.7538 11.8197C4.49318 12.1918 2.4862 12.9171 1.73766 13.245C1.14434 13.4996 1 13.9558 1 14.3678C1 14.7798 1 16.0005 1 16.2703C1 16.5394 1.15957 17 1.73766 17C2.18228 17 5.74002 17 7.35604 17C7.84056 17 8.15245 17 8.15245 17H8.29172C8.29172 17 8.60869 17 9.10046 17C10.723 17 14.2757 17 14.7196 17C15.2969 17 15.4572 16.5401 15.4572 16.2703C15.4572 16.0005 15.4572 14.7798 15.4572 14.3678C15.4572 13.9558 15.1729 13.4524 14.5803 13.1978L14.5818 13.1971ZM14.6927 16.2377H1.76232V14.3671C1.76232 14.1364 1.82905 14.0334 2.04375 13.9413C2.76472 13.6258 4.7572 12.907 5.98518 12.5443C6.62999 12.3398 6.62999 11.7682 6.62999 11.3504C6.62999 10.7694 6.55311 10.3371 6.38991 9.98826C6.26515 9.72279 6.10558 9.24697 6.05046 8.82701L6.02072 8.60071L5.8713 8.42808C5.78934 8.33379 5.58407 8.03785 5.44336 7.33066C5.33238 6.78014 5.3817 6.65248 5.42087 6.55021C5.44336 6.49508 5.46294 6.43996 5.47962 6.3783L5.48325 6.36235L5.48688 6.34639C5.56304 5.98735 5.46004 4.9233 5.35559 4.34811C5.30699 4.08337 5.36792 3.33193 5.86332 2.69944C6.16651 2.31212 6.75475 1.8363 7.83766 1.76159L8.55719 1.76087C9.44136 1.82107 10.113 2.13659 10.5533 2.69944C11.048 3.33193 11.1089 4.08409 11.061 4.34956C10.9537 4.93998 10.8528 5.98663 10.9305 6.35002L10.9363 6.3783L10.9442 6.40587C10.9558 6.44503 10.9704 6.4842 10.9849 6.52264L10.9914 6.5415L10.9921 6.54295C11.0349 6.65393 11.0842 6.77941 10.9747 7.33138C10.8325 8.03785 10.6273 8.33524 10.5453 8.43025L10.3973 8.60216L10.3669 8.82701C10.3118 9.24625 10.1522 9.72424 10.0274 9.98971C9.84827 10.3705 9.66476 10.8289 9.66476 11.3359C9.66476 11.7544 9.66476 12.3274 10.3306 12.5363C11.5209 12.8881 13.4822 13.5634 14.2822 13.8978C14.5854 14.0276 14.6985 14.2554 14.6985 14.3685L14.6942 16.2391L14.6927 16.2377Z" fill="#CECECE"/>
<path id="Vector_2" d="M17.7424 7.86802V4.83252H16.9815V7.86802H13.9453V8.62888H16.9815V11.6644H17.7424V8.62888H20.7779V7.86802H17.7424Z" fill="#CECECE"/>
</g>
<defs>
<filter id="filter0_d_118_5007" x="0" y="0" width="23.7773" height="20" filterUnits="userSpaceOnUse" color-interpolation-filters="sRGB">
<feFlood flood-opacity="0" result="BackgroundImageFix"/>
<feColorMatrix in="SourceAlpha" type="matrix" values="0 0 0 0 0 0 0 0 0 0 0 0 0 0 0 0 0 0 127 0" result="hardAlpha"/>
<feOffset dx="1" dy="1"/>
<feGaussianBlur stdDeviation="1"/>
<feComposite in2="hardAlpha" operator="out"/>
<feColorMatrix type="matrix" values="0 0 0 0 0 0 0 0 0 0 0 0 0 0 0 0 0 0 0.57 0"/>
<feBlend mode="normal" in2="BackgroundImageFix" result="effect1_dropShadow_118_5007"/>
<feBlend mode="normal" in="SourceGraphic" in2="effect1_dropShadow_118_5007" result="shape"/>
</filter>
</defs>
</svg>
