<svg width="20" height="20" viewBox="0 0 20 20" fill="none" xmlns="http://www.w3.org/2000/svg">
<g id="Vector" filter="url(#filter0_d_118_4995)">
<path fill-rule="evenodd" clip-rule="evenodd" d="M15.7704 11.7784L14.8717 13.2852L12.8317 12.6169L12.6235 12.8024C12.0299 13.3322 11.3479 13.7162 10.5969 13.9421L10.3245 14.025L9.90444 16.0588H8.09555L7.67546 14.024L7.40306 13.9412C6.65208 13.7153 5.97014 13.3313 5.37645 12.8014L5.16833 12.616L3.12829 13.2842L2.22959 11.7774L3.8409 10.4071L3.77761 10.1322C3.68937 9.75106 3.64525 9.36989 3.64525 9C3.64525 8.63012 3.68936 8.24895 3.77761 7.86777L3.84091 7.59295L2.22959 6.2226L3.12829 4.71577L5.16833 5.38306L5.37645 5.19765C5.97014 4.66777 6.65208 4.28377 7.40306 4.05695L7.67546 3.97507L8.09555 1.94118H9.90444L10.3245 3.97602L10.5969 4.05789C11.3479 4.28471 12.0299 4.66777 12.6235 5.1986L12.8317 5.38401L14.8717 4.71577L15.7704 6.2226L14.1591 7.59295L14.2224 7.86778C14.3106 8.24895 14.3547 8.63012 14.3547 9C14.3547 9.36989 14.3106 9.75106 14.2224 10.1322L14.1591 10.4071L15.7704 11.7784ZM15.3139 9C15.3139 8.65177 15.2813 8.296 15.2151 7.9393L17 6.42212L15.3062 3.58166L13.0542 4.3186C12.4854 3.85554 11.8371 3.49037 11.1532 3.24848L10.689 1H7.31099L6.84678 3.24753C6.15526 3.49036 5.5184 3.84988 4.94485 4.31765L2.69381 3.58166L1 6.42212L2.78395 7.9393C2.71873 8.296 2.68612 8.65177 2.68612 9C2.68612 9.34825 2.71873 9.704 2.78395 10.0598L1.00001 11.5779L2.69381 14.4184L4.94582 13.6805C5.51457 14.1445 6.16294 14.5087 6.84679 14.7515L7.311 17H10.689L11.1532 14.7525C11.8438 14.5087 12.4816 14.1501 13.0542 13.6814L15.3062 14.4193L17 11.5788L15.2151 10.0607C15.2813 9.704 15.3139 9.34825 15.3139 9ZM8.99989 5.7058C7.14881 5.7058 5.64299 7.18345 5.64299 8.99991C5.64299 10.8164 7.14881 12.294 8.9999 12.294C10.851 12.294 12.3568 10.8164 12.3568 8.99991C12.3568 7.18345 10.851 5.7058 8.99989 5.7058ZM8.9999 11.3529C7.67824 11.3529 6.60211 10.2969 6.60211 8.99991C6.60211 7.70297 7.67824 6.64697 8.9999 6.64697C10.3216 6.64697 11.3977 7.70297 11.3977 8.99991C11.3977 10.2969 10.3216 11.3529 8.99991 11.3529" fill="white"/>
</g>
<defs>
<filter id="filter0_d_118_4995" x="0" y="0" width="20" height="20" filterUnits="userSpaceOnUse" color-interpolation-filters="sRGB">
<feFlood flood-opacity="0" result="BackgroundImageFix"/>
<feColorMatrix in="SourceAlpha" type="matrix" values="0 0 0 0 0 0 0 0 0 0 0 0 0 0 0 0 0 0 127 0" result="hardAlpha"/>
<feOffset dx="1" dy="1"/>
<feGaussianBlur stdDeviation="1"/>
<feComposite in2="hardAlpha" operator="out"/>
<feColorMatrix type="matrix" values="0 0 0 0 0 0 0 0 0 0 0 0 0 0 0 0 0 0 0.57 0"/>
<feBlend mode="normal" in2="BackgroundImageFix" result="effect1_dropShadow_118_4995"/>
<feBlend mode="normal" in="SourceGraphic" in2="effect1_dropShadow_118_4995" result="shape"/>
</filter>
</defs>
</svg>
