<svg width="48" height="47" viewBox="0 0 48 47" fill="none" xmlns="http://www.w3.org/2000/svg">
<path fill-rule="evenodd" clip-rule="evenodd" d="M18.1553 18.4442C18.1525 18.4426 18.1497 18.441 18.1469 18.4394L20.2681 14.7494C20.9176 15.1227 21.6557 15.314 22.4048 15.303C23.1539 15.2921 23.8861 15.0793 24.5244 14.6871C25.1627 14.2949 25.6834 13.7378 26.0316 13.0745C26.3799 12.4112 26.5428 11.6663 26.5032 10.9182C26.4636 10.1701 26.223 9.44653 25.8067 8.8237C25.3904 8.20088 24.8138 7.70185 24.1377 7.37921C23.4616 7.05657 22.711 6.92225 21.9649 6.9904C21.2189 7.05855 20.505 7.32665 19.8986 7.76646L17.3998 4.32092C18.626 3.43169 20.0693 2.88962 21.5777 2.75183C23.0861 2.61404 24.6038 2.88561 25.9708 3.53795C27.3378 4.19029 28.5035 5.19924 29.3452 6.45851C30.1869 7.71778 30.6734 9.18076 30.7535 10.6933C30.8335 12.2059 30.5041 13.712 29.8 15.0531C29.0959 16.3942 28.0431 17.5205 26.7526 18.3135C25.6961 18.9626 24.5123 19.3687 23.2868 19.5067C23.7853 20.6421 24.0283 21.8768 23.9942 23.1229C23.9527 24.637 23.5037 26.1119 22.6943 27.3922C21.885 28.6725 20.7453 29.7109 19.3954 30.3978C18.0454 31.0848 16.5352 31.3949 15.0238 31.2956C13.5124 31.1963 12.0557 30.6912 10.8073 29.8335C9.55885 28.9759 8.56484 27.7973 7.92997 26.4221C7.29511 25.0469 7.0429 23.526 7.1999 22.0194L11.4332 22.4606C11.3555 23.2057 11.4803 23.958 11.7943 24.6382C12.1083 25.3183 12.5999 25.9012 13.2174 26.3254C13.8349 26.7496 14.5553 26.9995 15.3029 27.0486C16.0504 27.0977 16.7973 26.9443 17.465 26.6045C18.1327 26.2648 18.6963 25.7512 19.0966 25.118C19.4969 24.4847 19.719 23.7553 19.7395 23.0064C19.7601 22.2575 19.5782 21.517 19.2132 20.8628C18.8481 20.2086 18.3134 19.665 17.6653 19.2892L18.1553 18.4442Z" fill="#F53756"/>
<path d="M17.3078 11.4819C17.2119 13.1119 16.6443 14.6789 15.6739 15.9922C14.7035 17.3054 13.3723 18.3083 11.8423 18.8786C10.3123 19.4489 8.64946 19.5621 7.05625 19.2045C5.46304 18.8468 4.00817 18.0337 2.86875 16.8641C1.72933 15.6945 0.954506 14.2189 0.638599 12.6169C0.322691 11.0148 0.479329 9.35554 1.08944 7.84095C1.69956 6.32635 2.73683 5.0218 4.07499 4.08608C5.41315 3.15037 6.99448 2.62386 8.62647 2.57065L8.76289 6.75482C7.94218 6.78158 7.14695 7.04635 6.47401 7.51691C5.80106 7.98747 5.27943 8.64351 4.97262 9.40518C4.6658 10.1669 4.58703 11.0013 4.74589 11.8069C4.90476 12.6125 5.29441 13.3546 5.86741 13.9428C6.44041 14.531 7.17204 14.9399 7.97324 15.1197C8.77444 15.2996 9.61066 15.2427 10.3801 14.9559C11.1495 14.669 11.819 14.1647 12.3069 13.5043C12.7949 12.8439 13.0804 12.0559 13.1286 11.2361L17.3078 11.4819Z" fill="#F53756"/>
<path d="M30.7482 34.8499C30.781 35.9764 30.5875 37.098 30.179 38.1483C29.7705 39.1986 29.1553 40.1562 28.3699 40.9644C27.5846 41.7726 26.645 42.415 25.6068 42.8534C24.5687 43.2919 23.4531 43.5175 22.3261 43.5169C21.1992 43.5164 20.0838 43.2896 19.0461 42.8501C18.0084 42.4106 17.0695 41.7673 16.2849 40.9583C15.5003 40.1493 14.8861 39.1911 14.4787 38.1404C14.0712 37.0897 13.8788 35.9679 13.9128 34.8415L18.0973 34.9678C18.0802 35.5342 18.177 36.0984 18.3819 36.6268C18.5868 37.1551 18.8956 37.637 19.2902 38.0439C19.6847 38.4507 20.1569 38.7742 20.6788 38.9952C21.2006 39.2162 21.7615 39.3303 22.3282 39.3305C22.895 39.3308 23.456 39.2174 23.978 38.9969C24.5001 38.7764 24.9726 38.4534 25.3676 38.0469C25.7625 37.6405 26.0719 37.1589 26.2773 36.6307C26.4828 36.1026 26.5801 35.5385 26.5636 34.972L30.7482 34.8499Z" fill="#F53756"/>
<path fill-rule="evenodd" clip-rule="evenodd" d="M37.1852 3.08047C35.7891 2.84994 34.3574 2.9749 33.0223 3.44383L34.4097 7.39365C35.0811 7.15784 35.801 7.09499 36.5031 7.21092C37.2052 7.32686 37.8668 7.61783 38.4267 8.05697C38.9866 8.49611 39.4269 9.06926 39.7068 9.72348C39.9867 10.3777 40.0972 11.0919 40.0282 11.8001C39.9592 12.5084 39.7128 13.1878 39.3118 13.7757C38.9109 14.3635 38.3682 14.8409 37.7341 15.1637C37.0999 15.4864 36.3946 15.6442 35.6833 15.6224C34.9721 15.6005 34.2778 15.3999 33.6646 15.0389L33.3092 15.6425C33.3027 15.6388 33.2963 15.6351 33.2898 15.6314L32.6027 16.8425L31.5407 18.6465C31.5503 18.6522 31.56 18.6578 31.5697 18.6635L31.2241 19.2727C31.7139 19.5505 32.1434 19.9233 32.4874 20.3692C32.8314 20.815 33.0831 21.325 33.2276 21.8693C33.3721 22.4135 33.4067 22.9812 33.3292 23.539C33.2517 24.0967 33.0637 24.6335 32.7763 25.1177C32.4889 25.602 32.1078 26.0241 31.6553 26.3593C31.2028 26.6945 30.6879 26.9361 30.1409 27.0699C29.5939 27.2037 29.0257 27.2271 28.4696 27.1387C27.9134 27.0503 27.3805 26.8519 26.9019 26.555L24.695 30.1124C25.6466 30.7028 26.7064 31.0974 27.8123 31.2732C28.9182 31.449 30.0481 31.4025 31.1358 31.1364C32.2236 30.8702 33.2473 30.3898 34.1471 29.7233C35.047 29.0567 35.8048 28.2174 36.3764 27.2544C36.9479 26.2915 37.3217 25.2242 37.4758 24.115C37.6298 23.0058 37.5612 21.8771 37.2737 20.7948C37.178 20.4343 37.0586 20.0813 36.9167 19.7381C37.8601 19.6134 38.7789 19.3293 39.6329 18.8946C40.894 18.2528 41.973 17.3036 42.7703 16.1346C43.5677 14.9656 44.0576 13.6146 44.1948 12.2062C44.3321 10.7979 44.1123 9.37768 43.5557 8.07674C42.9991 6.7758 42.1236 5.63608 41.0102 4.76285C39.8968 3.88961 38.5813 3.31101 37.1852 3.08047Z" fill="#F53756"/>
</svg>

