<svg width="56" height="55" viewBox="0 0 56 55" fill="none" xmlns="http://www.w3.org/2000/svg">
<path d="M10.4211 27.516H45.4571C46.0702 27.516 46.6581 27.2725 47.0916 26.839C47.5251 26.4055 47.7687 25.8176 47.7687 25.2045C47.7687 24.5915 47.5251 24.0035 47.0916 23.57C46.6581 23.1365 46.0702 22.893 45.4571 22.893H38.1936L34.2969 11.784C33.8349 10.4688 32.9759 9.32953 31.8386 8.52355C30.7012 7.71756 29.3417 7.28467 27.9477 7.28467C26.5537 7.28467 25.1941 7.71756 24.0568 8.52355C22.9194 9.32953 22.0604 10.4688 21.5985 11.784L17.6847 22.893H10.4211C9.80809 22.893 9.22014 23.1365 8.78665 23.57C8.35315 24.0035 8.10962 24.5915 8.10962 25.2045C8.10962 25.8176 8.35315 26.4055 8.78665 26.839C9.22014 27.2725 9.80809 27.516 10.4211 27.516ZM25.9481 13.2966C26.0931 12.8843 26.3626 12.5272 26.7192 12.2746C27.0758 12.022 27.5021 11.8864 27.9391 11.8864C28.3762 11.8864 28.8024 12.022 29.1591 12.2746C29.5157 12.5272 29.7852 12.8843 29.9302 13.2966L33.2928 22.893H22.5855L25.9481 13.2966Z" fill="white"/>
<path d="M45.4568 31.7034H10.4208C9.83315 31.7391 9.2813 31.9978 8.87785 32.4266C8.4744 32.8553 8.24976 33.4219 8.24976 34.0106C8.24976 34.5994 8.4744 35.1659 8.87785 35.5947C9.2813 36.0234 9.83315 36.2821 10.4208 36.3179H12.9844L10.173 44.3505C9.97727 44.9272 10.0171 45.5579 10.2837 46.1054C10.5504 46.6529 11.0223 47.0731 11.597 47.2746C12.1718 47.4762 12.8028 47.4427 13.353 47.1816C13.9032 46.9205 14.3281 46.4528 14.5354 45.8801L17.8809 36.3179H37.9967L41.3422 45.8716C41.5011 46.3229 41.7959 46.714 42.1861 46.9909C42.5763 47.2679 43.0428 47.4172 43.5213 47.4183C43.7819 47.4184 44.0406 47.3736 44.2861 47.2858C44.8644 47.0834 45.3387 46.6596 45.6047 46.1075C45.8707 45.5555 45.9067 44.9205 45.7046 44.342L42.8932 36.3179H45.4568C46.0698 36.3179 46.6578 36.0743 47.0913 35.6408C47.5248 35.2073 47.7683 34.6194 47.7683 34.0063C47.7683 33.3933 47.5248 32.8053 47.0913 32.3719C46.6578 31.9384 46.0698 31.6948 45.4568 31.6948V31.7034Z" fill="white"/>
</svg>
