<svg width="56" height="55" viewBox="0 0 56 55" fill="none" xmlns="http://www.w3.org/2000/svg">
<path d="M47.476 34.6087L33.9786 11.1859C32.5601 8.78461 30.3298 7.56689 28.031 7.56689C26.7946 7.61026 25.5913 7.97764 24.5415 8.63226C23.4917 9.28688 22.6323 10.2058 22.0493 11.2969C21.9297 11.5362 8.59462 34.6087 8.59462 34.6087C8.15808 35.3662 7.87502 36.2022 7.76159 37.0691C7.64816 37.936 7.70659 38.8167 7.93353 39.661C8.16048 40.5053 8.5515 41.2966 9.08426 41.9898C9.61703 42.683 10.2811 43.2644 11.0386 43.701C11.7961 44.1375 12.6321 44.4206 13.499 44.534C14.3659 44.6474 15.2466 44.589 16.0909 44.3621C16.9352 44.1351 17.7265 43.7441 18.4197 43.2113C19.1129 42.6786 19.6943 42.0145 20.1309 41.257L28.0353 27.5075L35.9611 41.2356C36.3761 42.0295 36.9472 42.7313 37.6402 43.2989C38.3331 43.8665 39.1336 44.2882 39.9937 44.5388C40.8537 44.7893 41.7554 44.8634 42.6448 44.7567C43.5342 44.6501 44.3929 44.3648 45.1692 43.918C45.9456 43.4711 46.6237 42.8721 47.1627 42.1567C47.7018 41.4413 48.0907 40.6243 48.3062 39.7548C48.5216 38.8854 48.5591 37.9813 48.4165 37.097C48.2738 36.2127 47.9539 35.3663 47.476 34.6087ZM22.6005 12.7582C23.0277 11.3269 24.9376 8.58379 28.0353 8.58379C31.2911 8.58379 33.1198 11.5747 33.4702 12.7582C33.6722 13.4712 33.7264 14.2181 33.6294 14.9528C33.5324 15.6875 33.2863 16.3947 32.9062 17.0309L28.0353 25.4694L23.1645 17.0309C22.7824 16.3955 22.5352 15.6882 22.4382 14.9532C22.3412 14.2181 22.3964 13.471 22.6005 12.7582V12.7582Z" fill="white"/>
</svg>
