<svg width="55" height="55" viewBox="0 0 55 55" fill="none" xmlns="http://www.w3.org/2000/svg">
<path d="M19.369 44.7265H8.68731C8.29183 44.7267 7.90322 44.6232 7.56014 44.4265C7.21707 44.2297 6.9315 43.9466 6.73185 43.6052C6.53221 43.2638 6.42545 42.8761 6.4222 42.4806C6.41895 42.0852 6.51932 41.6957 6.71333 41.3511L25.5473 7.94301C25.7446 7.59369 26.0311 7.30304 26.3776 7.1008C26.724 6.89856 27.118 6.79199 27.5192 6.79199C27.9203 6.79199 28.3143 6.89856 28.6608 7.1008C29.0072 7.30304 29.2937 7.59369 29.491 7.94301L35.1352 17.9069C35.3348 18.2517 35.4398 18.643 35.4398 19.0413C35.4398 19.4396 35.3348 19.8309 35.1352 20.1757L21.3302 43.6114C21.1296 43.9527 20.8429 44.2354 20.4987 44.4311C20.1545 44.6268 19.7649 44.7287 19.369 44.7265V44.7265Z" fill="white"/>
<path d="M31.5376 41.3427L37.8825 30.0244C38.0804 29.6752 38.3674 29.3847 38.7142 29.1826C39.061 28.9805 39.4551 28.874 39.8565 28.874C40.2579 28.874 40.6521 28.9805 40.9989 29.1826C41.3457 29.3847 41.6326 29.6752 41.8305 30.0244L48.2395 41.3385C48.4352 41.6833 48.537 42.0734 48.5349 42.4699C48.5328 42.8664 48.4268 43.2554 48.2276 43.5982C48.0283 43.9409 47.7427 44.2255 47.3992 44.4235C47.0557 44.6215 46.6663 44.7261 46.2698 44.7267H33.5159C33.1193 44.7271 32.7295 44.6236 32.3854 44.4264C32.0413 44.2292 31.7549 43.9453 31.5548 43.6029C31.3546 43.2606 31.2477 42.8717 31.2447 42.4751C31.2417 42.0786 31.3427 41.6881 31.5376 41.3427V41.3427Z" fill="white"/>
</svg>
