<svg width="55" height="55" viewBox="0 0 55 55" fill="none" xmlns="http://www.w3.org/2000/svg">
<path d="M44.8837 24.9053C42.8029 22.1152 38.5644 22.0127 38.5644 22.0127C38.5644 22.0127 41.7604 18.5945 39.3292 13.792C37.7697 10.7157 34.0695 8.83573 28.6475 10.3269L26.5112 3.3667L22.1231 4.69978L24.2594 11.6429L20.6191 12.7581L18.4828 5.81067L14.0862 7.16511L16.2225 14.1125L9.13843 16.2745L10.4672 20.654L14.7656 19.338L21.26 40.5476L16.9617 41.8721L18.3845 46.5379L25.4558 44.4015L27.5921 51.3575L31.9802 49.9902L29.8438 43.0343L33.4842 41.9234L35.6205 48.8793L40.0171 47.5377L37.8808 40.5775L38.8977 40.2656C47.4345 37.5054 48.4941 29.7163 44.8837 24.9053ZM22.0547 17.1162C22.0547 17.1162 23.8493 16.5565 26.4001 15.7874C28.8355 15.0568 31.5743 15.9156 32.3818 18.2997C33.1894 20.6839 31.8306 23.3586 29.1859 24.2046C26.7632 24.9822 24.6483 25.5932 24.6483 25.5932L22.0547 17.1162ZM34.3473 36.5441C31.852 37.3644 28.5364 38.3215 28.5364 38.3215L25.8489 29.5198C25.8489 29.5198 28.8398 28.6652 31.4376 27.8107C34.5566 26.7981 37.3082 27.5501 38.1884 30.2974C39.0686 33.0447 37.7269 35.4375 34.3473 36.5441Z" fill="white"/>
</svg>
