<svg width="55" height="55" viewBox="0 0 55 55" fill="none" xmlns="http://www.w3.org/2000/svg">
<path d="M9.82727 27.516H44.8633C45.4763 27.516 46.0643 27.2725 46.4978 26.839C46.9312 26.4055 47.1748 25.8176 47.1748 25.2045C47.1748 24.5915 46.9312 24.0035 46.4978 23.57C46.0643 23.1365 45.4763 22.893 44.8633 22.893H37.5997L33.703 11.784C33.2411 10.4688 32.3821 9.32953 31.2447 8.52355C30.1074 7.71756 28.7478 7.28467 27.3538 7.28467C25.9598 7.28467 24.6003 7.71756 23.4629 8.52355C22.3256 9.32953 21.4666 10.4688 21.0046 11.784L17.0908 22.893H9.82727C9.21421 22.893 8.62627 23.1365 8.19278 23.57C7.75928 24.0035 7.51575 24.5915 7.51575 25.2045C7.51575 25.8176 7.75928 26.4055 8.19278 26.839C8.62627 27.2725 9.21421 27.516 9.82727 27.516ZM25.3542 13.2966C25.4992 12.8843 25.7687 12.5272 26.1253 12.2746C26.482 12.022 26.9082 11.8864 27.3453 11.8864C27.7823 11.8864 28.2086 12.022 28.5652 12.2746C28.9218 12.5272 29.1913 12.8843 29.3363 13.2966L32.6989 22.893H21.9916L25.3542 13.2966Z" fill="white"/>
<path d="M44.8632 31.7034H9.82717C9.23952 31.7391 8.68767 31.9978 8.28422 32.4266C7.88077 32.8553 7.65613 33.4219 7.65613 34.0106C7.65613 34.5994 7.88077 35.1659 8.28422 35.5947C8.68767 36.0234 9.23952 36.2821 9.82717 36.3179H12.3908L9.57935 44.3505C9.38364 44.9272 9.42344 45.5579 9.69009 46.1054C9.95675 46.6529 10.4287 47.0731 11.0034 47.2746C11.5781 47.4762 12.2091 47.4427 12.7593 47.1816C13.3095 46.9205 13.7345 46.4528 13.9418 45.8801L17.2873 36.3179H37.4031L40.7486 45.8716C40.9075 46.3229 41.2023 46.714 41.5925 46.9909C41.9827 47.2679 42.4491 47.4172 42.9276 47.4183C43.1883 47.4184 43.447 47.3736 43.6924 47.2858C44.2708 47.0834 44.7451 46.6596 45.0111 46.1075C45.2771 45.5555 45.313 44.9205 45.111 44.342L42.2996 36.3179H44.8632C45.4762 36.3179 46.0642 36.0743 46.4977 35.6408C46.9311 35.2073 47.1747 34.6194 47.1747 34.0063C47.1747 33.3933 46.9311 32.8053 46.4977 32.3719C46.0642 31.9384 45.4762 31.6948 44.8632 31.6948V31.7034Z" fill="white"/>
</svg>
