<svg width="56" height="55" viewBox="0 0 56 55" fill="none" xmlns="http://www.w3.org/2000/svg">
<path d="M19.8951 35.7622L6.26099 43.6325C6.34558 43.6651 6.43526 43.6824 6.52589 43.6838H49.2313C49.3171 43.6828 49.4022 43.6684 49.4834 43.641L35.8194 35.7622H19.8951Z" fill="white"/>
<path d="M27.3252 5.30225C27.2623 5.35997 27.2077 5.42611 27.1629 5.49879L5.82081 42.466C5.78133 42.5354 5.75252 42.6103 5.73535 42.6882L19.4079 34.8094L27.3252 21.0556V5.30225Z" fill="white"/>
<path d="M49.9108 42.466L28.5687 5.49879C28.5268 5.42532 28.4734 5.35898 28.4106 5.30225V21.0556L36.3578 34.8265L50.0005 42.7267C49.9871 42.635 49.9567 42.5466 49.9108 42.466V42.466Z" fill="white"/>
</svg>
