<svg width="56" height="55" viewBox="0 0 56 55" fill="none" xmlns="http://www.w3.org/2000/svg">
<path d="M20.8024 33.4935L25.5835 25.2088C25.6728 25.0544 25.8012 24.9263 25.9556 24.8372C26.1101 24.7481 26.2853 24.7012 26.4637 24.7012C26.642 24.7012 26.8172 24.7481 26.9717 24.8372C27.1262 24.9263 27.2545 25.0544 27.3438 25.2088L32.6206 34.3438C32.7153 34.4988 32.7667 34.6764 32.7694 34.858C32.7722 35.0397 32.7263 35.2187 32.6365 35.3766C32.5466 35.5345 32.4161 35.6654 32.2586 35.7558C32.101 35.8462 31.9221 35.8927 31.7404 35.8905H22.6353C22.3685 35.8903 22.1063 35.9605 21.8752 36.094C21.6442 36.2276 21.4524 36.4197 21.3194 36.651L17.7645 42.808C17.6749 42.9622 17.6277 43.1374 17.6276 43.3157C17.6274 43.494 17.6744 43.6692 17.7637 43.8236C17.8531 43.978 17.9816 44.106 18.1362 44.1948C18.2909 44.2835 18.4663 44.3298 18.6447 44.3291H46.3573C46.5356 44.3298 46.711 44.2835 46.8657 44.1948C47.0204 44.106 47.1489 43.978 47.2382 43.8236C47.3275 43.6692 47.3745 43.494 47.3744 43.3157C47.3742 43.1374 47.327 42.9622 47.2374 42.808L27.3438 8.32743C27.2545 8.17307 27.1262 8.04491 26.9717 7.95582C26.8172 7.86672 26.642 7.81982 26.4637 7.81982C26.2853 7.81982 26.1101 7.86672 25.9556 7.95582C25.8012 8.04491 25.6728 8.17307 25.5835 8.32743L11.4836 32.733C11.3955 32.8874 11.3493 33.0623 11.3499 33.2401C11.3504 33.418 11.3975 33.5926 11.4866 33.7465C11.5757 33.9004 11.7035 34.0283 11.8575 34.1173C12.0114 34.2064 12.186 34.2536 12.3638 34.2541H19.4821C19.7494 34.2537 20.012 34.1833 20.2437 34.0499C20.4753 33.9164 20.6679 33.7246 20.8024 33.4935V33.4935Z" fill="white"/>
</svg>
