<svg width="56" height="55" viewBox="0 0 56 55" fill="none" xmlns="http://www.w3.org/2000/svg">
<path d="M29.4621 38.9539C29.0929 39.166 28.6745 39.2777 28.2487 39.2777C27.8228 39.2777 27.4044 39.166 27.0352 38.9539L18.8018 34.1813C18.4342 33.9681 18.1291 33.6621 17.9169 33.2939C17.7047 32.9257 17.5928 32.5083 17.5926 32.0834V22.5895C17.5958 22.1674 17.709 21.7535 17.9211 21.3886C18.1331 21.0237 18.4367 20.7204 18.8018 20.5087L27.0352 15.7361C27.4044 15.5239 27.8228 15.4123 28.2487 15.4123C28.6745 15.4123 29.0929 15.5239 29.4621 15.7361L34.0083 18.3723L23.976 24.2387C23.8043 24.3353 23.6617 24.4763 23.5632 24.647C23.4647 24.8176 23.414 25.0116 23.4163 25.2086V29.4813C23.414 29.6783 23.4647 29.8723 23.5632 30.043C23.6617 30.2136 23.8043 30.3546 23.976 30.4512L27.706 32.5876C27.8736 32.6843 28.0637 32.7352 28.2572 32.7352C28.4507 32.7352 28.6408 32.6843 28.8084 32.5876L45.4719 22.9569C46.0498 22.6228 46.5297 22.1425 46.8634 21.5643C47.1971 20.9861 47.3729 20.3303 47.3732 19.6627V18.7996C47.3735 18.0358 47.1726 17.2854 46.7909 16.6239C46.4091 15.9623 45.8599 15.413 45.1984 15.0311L30.4192 6.48574C29.7581 6.10357 29.008 5.90234 28.2444 5.90234C27.4808 5.90234 26.7307 6.10357 26.0696 6.48574L11.2904 15.0311C10.6297 15.4135 10.0813 15.9631 9.70035 16.6246C9.31935 17.2861 9.11915 18.0362 9.11987 18.7996V35.8903C9.11959 36.6541 9.32043 37.4045 9.7022 38.0661C10.084 38.7276 10.6332 39.2769 11.2947 39.6588L26.0739 48.2042C26.735 48.5864 27.4851 48.7876 28.2487 48.7876C29.0123 48.7876 29.7624 48.5864 30.4235 48.2042L45.2027 39.6588C45.8641 39.2769 46.4134 38.7276 46.7952 38.0661C47.1769 37.4045 47.3778 36.6541 47.3775 35.8903V28.6268L29.4621 38.9539Z" fill="white"/>
</svg>
