<svg width="56" height="55" viewBox="0 0 56 55" fill="none" xmlns="http://www.w3.org/2000/svg">
<path d="M38.1472 27.3456C45.0262 22.5858 49.9953 17.7577 48.6751 15.4718C47.8205 14.002 44.7698 14.2584 40.6852 15.5786C40.4 15.2988 40.0413 15.1056 39.6507 15.0216C39.26 14.9375 38.8536 14.9661 38.4786 15.1039C38.1036 15.2418 37.7754 15.4832 37.5322 15.8002C37.2889 16.1172 37.1407 16.4967 37.1046 16.8946C35.8228 17.4159 34.494 18.0055 33.1268 18.6507C32.4431 10.3104 30.7469 3.59375 28.1064 3.59375C25.4659 3.59375 23.7696 10.3104 23.086 18.6507C15.5233 15.0744 8.85794 13.1816 7.53768 15.4718C6.74296 16.869 8.27686 19.2275 11.1695 21.915C11.0661 22.1761 11.0139 22.4546 11.0156 22.7354C11.0151 23.0331 11.0732 23.328 11.1868 23.6033C11.3003 23.8785 11.4671 24.1287 11.6774 24.3394C11.8877 24.5501 12.1376 24.7173 12.4126 24.8314C12.6876 24.9454 12.9824 25.0042 13.2802 25.0042C13.6871 25.0028 14.0859 24.8905 14.4338 24.6794C15.5618 25.5596 16.7795 26.4526 18.0698 27.3456C11.1866 32.1054 6.21742 36.9335 7.53768 39.2194C7.93504 39.9073 8.81949 40.2192 10.0586 40.2192C12.9469 40.2192 17.7964 38.54 23.086 36.0405C23.2184 37.6855 23.3936 39.2664 23.6072 40.7404C23.2286 40.9835 22.931 41.3339 22.7524 41.7469C22.5737 42.1598 22.5221 42.6166 22.6042 43.059C22.6862 43.5014 22.8982 43.9093 23.2131 44.2307C23.528 44.5521 23.9314 44.7725 24.372 44.8636C25.265 48.6364 26.5084 51.0889 28.1064 51.0889C30.7469 51.0889 32.4431 44.368 33.1268 36.032C38.4164 38.5315 43.2659 40.2106 46.1542 40.2106C47.3975 40.2106 48.2905 39.8987 48.6751 39.2108C49.9953 36.9335 45.0262 32.1054 38.1472 27.3456ZM37.2926 18.0012C37.5026 18.4349 37.853 18.7848 38.2869 18.9942C38.7208 19.2036 39.2127 19.2602 39.6828 19.1548C40.153 19.0494 40.5736 18.7882 40.8766 18.4136C41.1795 18.0389 41.347 17.5729 41.3517 17.0912C41.3487 16.9075 41.3214 16.725 41.2705 16.5485C43.4496 15.8606 45.1587 15.5274 46.2824 15.5274C47.0728 15.5274 47.5642 15.6897 47.7564 16.0016C48.4572 17.2236 44.7656 21.492 37.2072 26.6833C35.9937 25.8672 34.7333 25.0554 33.4472 24.265C33.4045 22.7525 33.3319 21.2741 33.2336 19.8C34.6564 19.1207 36.0237 18.5182 37.2884 18.0012H37.2926ZM30.2427 31.0543C29.5164 31.473 28.8042 31.8746 28.1064 32.2592C27.4057 31.8746 26.6935 31.473 25.97 31.0543C25.2465 30.6356 24.5344 30.2183 23.8337 29.8024C23.8337 29.0034 23.8337 28.2001 23.8337 27.3456C23.8337 26.4911 23.8337 25.6878 23.8593 24.8888C24.543 24.4758 25.2551 24.0585 25.9957 23.6369C26.722 23.2096 27.4356 22.8208 28.132 22.4363C28.8327 22.8208 29.5463 23.2182 30.2684 23.6369C30.9904 24.0556 31.6997 24.4914 32.3833 24.8888C32.3791 25.6878 32.3791 26.4911 32.3791 27.3456C32.3791 28.2001 32.3791 29.0034 32.3534 29.8024C31.6755 30.2183 30.9719 30.6356 30.2427 31.0543ZM32.3235 31.0842C32.2851 32.2293 32.2295 33.3231 32.1611 34.3741C31.2126 33.9084 30.2384 33.4085 29.2301 32.8702C29.7514 32.5839 30.2683 32.2891 30.7853 31.99C31.3023 31.6909 31.8151 31.3918 32.3278 31.0842H32.3235ZM26.9784 32.8702C25.97 33.4085 24.993 33.9099 24.0473 34.3741C23.979 33.3231 23.9234 32.2378 23.885 31.0842C24.3977 31.3918 24.9104 31.6952 25.4231 31.99C25.9359 32.2848 26.4571 32.5839 26.9784 32.8702ZM22.757 29.1316C21.7871 28.5291 20.8685 27.9309 19.9883 27.3456C20.8642 26.7602 21.7828 26.1621 22.7527 25.5596C22.7527 26.1535 22.7527 26.7517 22.7527 27.3456C22.7527 27.9395 22.7484 28.5377 22.757 29.1316ZM23.885 23.607C23.9248 22.4676 23.979 21.3724 24.0473 20.3213C24.9959 20.787 25.97 21.2827 26.9741 21.821C26.4571 22.1116 25.9401 22.4021 25.4231 22.7012C24.9061 23.0003 24.3977 23.2994 23.885 23.607V23.607ZM29.2386 21.821C30.2427 21.2827 31.2169 20.787 32.1654 20.3213C32.2338 21.3724 32.2879 22.4676 32.3278 23.607C31.8151 23.2994 31.3023 22.996 30.7896 22.7012C30.2769 22.4064 29.7556 22.1116 29.2386 21.821V21.821ZM33.4558 25.5596C34.4257 26.1621 35.3443 26.7602 36.2245 27.3456C35.3699 27.9309 34.4299 28.5291 33.46 29.1316C33.46 28.5377 33.46 27.9395 33.46 27.3456C33.46 26.7517 33.4643 26.1535 33.4558 25.5596V25.5596ZM28.1064 4.70037C29.5121 4.70037 31.3579 10.0455 32.08 19.1719C30.7683 19.8129 29.4352 20.5008 28.1064 21.2228C26.7776 20.5008 25.4445 19.8129 24.1328 19.1719C24.8549 10.0241 26.7007 4.70037 28.1064 4.70037ZM15.2157 23.9274C15.4976 23.4687 15.6061 22.9242 15.5216 22.3924C15.4371 21.8606 15.1652 21.3765 14.755 21.0277C14.3448 20.6789 13.8233 20.4883 13.2848 20.4904C12.7464 20.4925 12.2264 20.6871 11.8189 21.0391C9.2083 18.5866 8.05468 16.7664 8.4734 16.0358C8.65712 15.7239 9.15703 15.5615 9.94747 15.5615C12.2163 15.5615 16.8649 16.9117 22.9962 19.8342C22.898 21.2912 22.8253 22.7866 22.7826 24.2992C21.5008 25.0896 20.219 25.9014 19.0227 26.7175C17.6212 25.7262 16.348 24.782 15.2157 23.9018V23.9274ZM8.4734 38.681C7.77268 37.459 11.4643 33.1906 19.0227 27.9993C20.2361 28.8154 21.4965 29.6272 22.7826 30.4176C22.8253 31.9302 22.898 33.4085 22.9962 34.8826C14.7329 38.822 9.17839 39.8987 8.4734 38.681ZM28.1277 50.0122C27.3031 50.0122 26.3247 48.1706 25.5171 44.8123C26.0366 44.6541 26.4818 44.3145 26.7718 43.8554C27.0618 43.3963 27.1772 42.8483 27.0969 42.3113C27.0166 41.7743 26.7461 41.284 26.3345 40.9297C25.923 40.5755 25.3979 40.381 24.8549 40.3815C24.7993 40.3815 24.7438 40.3815 24.6882 40.3815C24.4746 38.9117 24.2966 37.291 24.1541 35.5192C25.4659 34.8783 26.7989 34.1947 28.1277 33.4726C29.4565 34.1947 30.7896 34.8783 32.1013 35.5192C31.3579 44.6628 29.5164 50.0122 28.1064 50.0122H28.1277ZM47.7821 38.681C47.0771 39.8987 41.5226 38.822 33.255 34.8826C33.3532 33.4256 33.4259 31.9302 33.4686 30.4176C34.7504 29.6272 36.0322 28.8154 37.2286 27.9993C44.7314 33.1906 48.4401 37.459 47.7607 38.681H47.7821Z" fill="white"/>
<path d="M28.1065 29.9473C29.5435 29.9473 30.7085 28.7823 30.7085 27.3452C30.7085 25.9081 29.5435 24.7432 28.1065 24.7432C26.6694 24.7432 25.5044 25.9081 25.5044 27.3452C25.5044 28.7823 26.6694 29.9473 28.1065 29.9473Z" fill="white"/>
</svg>
