<svg width="55" height="55" viewBox="0 0 55 55" fill="none" xmlns="http://www.w3.org/2000/svg">
<path d="M31.3642 34.8737C31.1459 34.3258 31.0022 33.7509 30.9369 33.1647C30.3657 33.7701 29.6751 34.2506 28.9088 34.5756C28.1425 34.9007 27.3171 35.0633 26.4848 35.0532C23.3102 35.0532 20.7893 33.3142 20.7893 30.1738C20.7893 25.743 25.3184 24.9056 28.2323 24.9056H30.6977V23.7648C30.6977 22.4274 29.5269 21.2396 27.835 21.2396C26.425 21.2396 25.156 22.06 25.156 23.2136H21.0969C21.0536 22.355 21.3256 21.5101 21.8617 20.838C22.5078 19.9758 23.3784 19.3077 24.3784 18.9067C25.5371 18.4266 26.7816 18.1882 28.0358 18.206C30.0867 18.206 31.7131 18.7216 32.9152 19.7527C33.5266 20.2382 34.0138 20.8622 34.3362 21.5732C34.6587 22.2843 34.8072 23.0619 34.7695 23.8417V31.0497C34.7463 32.3782 35.0299 33.6941 35.5984 34.8951L31.3642 34.8737ZM27.3051 31.9555C28.6724 31.9555 30.3217 30.9984 30.7233 30.1866V27.3453H28.6596C26.4378 27.3453 24.921 28.3152 24.921 29.8576C24.921 31.4898 26.1344 31.9555 27.3051 31.9555V31.9555Z" fill="white"/>
<path d="M27.4163 49.6871C22.9975 49.6871 18.678 48.3768 15.0039 45.9219C11.3298 43.4669 8.46615 39.9776 6.77515 35.8951C5.08414 31.8127 4.6417 27.3205 5.50377 22.9866C6.36583 18.6527 8.49369 14.6718 11.6183 11.5472C14.7428 8.42264 18.7238 6.29479 23.0576 5.43272C27.3915 4.57066 31.8837 5.0131 35.9662 6.7041C40.0486 8.3951 43.5379 11.2587 45.9929 14.9328C48.4479 18.6069 49.7582 22.9265 49.7582 27.3453C49.7525 33.269 47.3968 38.9484 43.2082 43.1371C39.0195 47.3258 33.34 49.6815 27.4163 49.6871V49.6871ZM27.4163 8.35748C23.6609 8.35748 19.9898 9.4711 16.8673 11.5575C13.7447 13.6439 11.311 16.6094 9.87389 20.079C8.43675 23.5485 8.06073 27.3663 8.79337 31.0496C9.52602 34.7329 11.3344 38.1162 13.9899 40.7717C16.6454 43.4272 20.0287 45.2356 23.712 45.9682C27.3953 46.7009 31.2131 46.3249 34.6826 44.8877C38.1522 43.4506 41.1177 41.0169 43.2041 37.8943C45.2905 34.7718 46.4041 31.1007 46.4041 27.3453C46.3996 22.3108 44.3977 17.4838 40.8377 13.9239C37.2778 10.364 32.4508 8.36201 27.4163 8.35748Z" fill="white"/>
</svg>
