<svg width="56" height="55" viewBox="0 0 56 55" fill="none" xmlns="http://www.w3.org/2000/svg">
<path d="M41.3983 29.644C40.7617 29.3406 39.9969 28.9945 39.2406 28.6826C38.745 29.4688 37.2837 31.8957 36.9889 32.7502C36.8357 33.1967 36.7634 33.6669 36.7753 34.1388C36.7778 34.3378 36.7621 34.5366 36.7283 34.7327C36.6568 35.1103 36.4826 35.4608 36.2248 35.7457C35.967 36.0307 35.6356 36.239 35.267 36.3478C34.9295 36.4504 34.2416 36.57 33.4511 36.711C32.6181 36.8284 31.7943 37.004 30.9858 37.2365C30.7239 37.6347 30.389 37.9798 29.9988 38.2534C29.8444 38.3629 29.6725 38.4453 29.4904 38.497C29.4904 39.1721 29.2383 40.1206 28.4179 40.2958C28.2179 40.3292 28.0129 40.3162 27.8188 40.2577C27.6247 40.1991 27.4466 40.0967 27.2985 39.9582C27.2235 40.2082 27.0942 40.4385 26.9199 40.6328C26.7456 40.827 26.5305 40.9804 26.2901 41.0819C26.0975 41.1383 25.8957 41.156 25.6962 41.134C25.4968 41.112 25.3036 41.0507 25.128 40.9538C24.9015 41.4836 24.4529 42.2014 23.6838 42.2356C23.4627 42.2248 23.247 42.1638 23.0531 42.0572C22.8591 41.9505 22.692 41.8011 22.5644 41.6203C22.3461 41.9768 22.0431 42.2737 21.6823 42.4847C21.3215 42.6957 20.9141 42.8141 20.4964 42.8295H20.3468C19.9774 42.822 19.6251 42.6727 19.3626 42.4127C19.1002 42.1526 18.9477 41.8016 18.9368 41.4323C18.8462 41.483 18.7482 41.519 18.6463 41.5391C18.4478 41.558 18.2477 41.5256 18.0652 41.4451C18.1086 41.6407 18.1086 41.8434 18.0652 42.039C17.843 42.7184 16.0912 42.6287 14.9675 42.4022C14.594 42.3403 14.2384 42.1978 13.9256 41.9846C13.6127 41.7713 13.3501 41.4925 13.1559 41.1674C12.6261 41.6288 12.3954 41.6288 12.3014 41.6288C12.1219 41.6288 11.8271 41.6288 11.1221 40.2787C10.7162 40.3086 9.98558 40.3513 9.70785 40.3342C9.53434 40.307 9.37249 40.2299 9.24201 40.1123C9.11153 39.9947 9.01805 39.8417 8.97295 39.672C8.72659 39.6885 8.47913 39.6698 8.23805 39.6164C8.15494 39.5984 8.07452 39.5696 7.99878 39.531C8.56705 40.9281 9.28058 42.227 9.57967 42.9021C9.92342 43.6342 10.4189 44.2848 11.0333 44.8107C11.6476 45.3367 12.3668 45.726 13.1431 45.9528C15.4546 46.5681 21.6885 46.7091 23.8248 46.6407C25.0037 46.6044 26.1644 46.3403 27.2429 45.8631C28.1024 45.5449 29.0032 45.352 29.9176 45.2905C31.0499 45.2051 34.0707 45.2094 34.7543 45.1837C36.2968 45.1239 37.8648 42.7526 38.8903 40.8811C39.5962 39.7464 39.9183 38.4146 39.8089 37.0827C39.7405 36.0017 39.6551 32.3443 40.0225 31.6009C40.4126 30.903 40.8736 30.2472 41.3983 29.644V29.644Z" fill="white"/>
<path d="M8.24673 36.1812C8.12071 36.9034 8.06206 37.6357 8.07155 38.3688C8.09291 38.4628 8.17836 38.796 8.41336 38.8516C8.55389 38.8804 8.69722 38.8933 8.84063 38.89C8.73034 38.0599 8.71314 37.2201 8.78936 36.3862C8.58427 36.3179 8.41336 36.2538 8.24673 36.1812Z" fill="white"/>
<path d="M7.21708 35.6128C7.16431 36.3229 7.23368 37.0368 7.42217 37.7235C7.4552 37.1082 7.52943 36.4959 7.64435 35.8905L7.21708 35.6128Z" fill="white"/>
<path d="M19.2188 35.7026C18.8109 35.7042 18.4147 35.8392 18.0908 36.0872C17.6379 37.6168 18.2446 40.095 18.3685 40.5778C18.7558 40.1249 19.1046 39.6404 19.4111 39.1293C19.8231 38.2446 20.1328 37.3157 20.334 36.3606L20.2357 36.2752C19.9744 35.9709 19.6145 35.7683 19.2188 35.7026V35.7026Z" fill="white"/>
<path d="M22.1329 38.5785C22.1989 38.5113 22.2448 38.4269 22.2653 38.335L22.6542 36.3524C22.526 35.8825 21.3382 36.0747 21.1972 36.1474C21.0347 36.961 20.8192 37.7631 20.552 38.5486C21.0742 38.6403 21.6076 38.6503 22.1329 38.5785V38.5785Z" fill="white"/>
<path d="M20.0649 39.5911C19.9051 39.9546 19.7903 40.3362 19.7231 40.7276C19.6889 41.5522 19.7829 41.9624 20.4153 42.0094C22.15 42.1162 22.2867 39.3689 22.2867 39.3689C22.0555 39.4215 21.8188 39.4459 21.5817 39.4415C21.129 39.4314 20.6777 39.3871 20.2316 39.3091C20.1819 39.4064 20.1263 39.5006 20.0649 39.5911Z" fill="white"/>
<path d="M17.3305 35.4634C16.7024 35.7112 13.7585 40.6205 13.7585 40.6205C13.8849 40.8843 14.0741 41.1131 14.3095 41.2867C14.5449 41.4602 14.8193 41.5734 15.1087 41.616C15.8205 41.7929 16.5615 41.8176 17.2835 41.6887C17.7877 39.8771 16.7751 38.5098 17.3305 35.4634Z" fill="white"/>
<path d="M11.4299 37.2495C11.377 38.0897 11.4783 38.9325 11.729 39.7362C11.8837 40.1137 12.0908 40.4676 12.3443 40.7873C13.2287 40.3173 14.6686 37.7708 14.6686 37.7708C13.6113 37.7656 12.5605 37.6059 11.5495 37.2965L11.4299 37.2495Z" fill="white"/>
<path d="M10.3701 36.916L9.51561 36.6597C9.47496 37.5004 9.51502 38.3432 9.63524 39.1763C9.65764 39.3095 9.70551 39.4372 9.77624 39.5523C9.97278 39.5523 10.4214 39.5523 10.8359 39.5138C10.6314 38.6931 10.5678 37.8435 10.6479 37.0015L10.3701 36.916Z" fill="white"/>
<path d="M7.55029 34.8739C7.84961 35.0707 8.16727 35.2381 8.49883 35.3738C8.49883 35.3738 9.27218 34.1347 9.69518 33.434C9.65228 33.3764 9.602 33.3247 9.54564 33.2802C9.16961 33.0596 8.73775 32.9528 8.30229 32.9725C7.94847 33.5605 7.69438 34.203 7.55029 34.8739V34.8739Z" fill="white"/>
<path d="M10.4172 33.7542C10.0668 34.3396 9.41737 35.3821 9.2251 35.6897C9.51137 35.7923 9.80191 35.8863 10.0796 35.976C10.4551 35.1547 10.941 34.3885 11.5238 33.6987C11.4829 33.6622 11.4349 33.6345 11.3828 33.6175C11.0546 33.5819 10.7226 33.6289 10.4172 33.7542Z" fill="white"/>
<path d="M13.1989 34.0532C13.0206 33.9982 12.8316 33.9877 12.6483 34.0227C12.4651 34.0577 12.2932 34.1371 12.1478 34.254C11.6239 34.8424 11.1918 35.5064 10.866 36.2237C11.2249 36.3305 12.058 36.6168 12.1478 36.651L13.6518 34.4377C13.7287 34.3309 13.28 34.0788 13.1989 34.0532Z" fill="white"/>
<path d="M14.9978 34.2627C14.6389 34.4208 13.0024 36.8263 13.0024 36.8263C13.7288 36.9264 14.4611 36.9778 15.1943 36.9801L16.0489 35.6983C16.224 35.4505 15.9634 34.6857 15.848 34.5831C15.598 34.4029 15.3046 34.2923 14.9978 34.2627V34.2627Z" fill="white"/>
<path d="M27.4609 35.8223L27.4908 37.2493C27.8668 37.181 28.2215 37.1254 28.5248 37.0955C28.5761 36.5743 28.6188 36.0188 28.6146 35.7496C28.2286 35.7363 27.8422 35.7606 27.4609 35.8223V35.8223Z" fill="white"/>
<path d="M33.3273 35.9206C34.0664 35.7924 34.7629 35.6685 35.0363 35.5788C35.2674 35.5105 35.4745 35.3785 35.634 35.1979C35.7934 35.0172 35.8988 34.7953 35.9379 34.5576C35.9607 34.4164 35.9707 34.2734 35.9678 34.1303C35.9689 33.564 36.0717 33.0025 36.2711 32.4725C36.5873 31.5539 37.9546 29.2851 38.5228 28.3665C37.8661 28.0647 37.1649 27.8714 36.4463 27.7939C35.5554 27.89 34.7237 28.2863 34.0878 28.9177C34.0618 28.9801 34.0404 29.0444 34.0237 29.1099C33.8813 29.6364 33.6129 30.1203 33.2418 30.5199C32.9436 30.8183 32.6174 31.0873 32.2676 31.3232C31.5541 31.8359 31.114 32.1777 31.114 32.8571C31.114 33.1861 31.1397 33.8526 31.161 34.5405C31.1909 35.395 31.208 35.9548 31.2123 36.3265C31.6438 36.2239 32.3232 36.1 33.3273 35.9206Z" fill="white"/>
<path d="M22.9277 40.7186C22.9662 40.7699 23.1542 41.3894 23.6755 41.4108C24.8504 41.5176 24.53 38.6592 24.53 38.6592C24.3035 38.6592 23.7566 38.7147 23.1713 38.7617L22.9277 40.7186Z" fill="white"/>
<path d="M15.7624 23.5425C15.6128 23.6194 15.3907 24.0851 15.177 25.8839C15.0816 26.5666 14.8827 27.2308 14.5874 27.8537C14.4803 28.0831 14.3903 28.3202 14.3182 28.5629C14.2392 28.8461 14.2653 29.1484 14.3918 29.4138C14.5182 29.6792 14.7364 29.89 15.0061 30.0071C15.2411 30.1258 15.5105 30.1576 15.7667 30.0968C15.2625 29.8447 15.365 29.3106 15.4932 28.6954C15.5274 28.5245 15.5701 28.3236 15.6128 28.0887C15.6661 27.7125 15.794 27.3508 15.9888 27.0248C16.0957 26.8368 16.1384 26.7598 16.0786 26.3283C16.0115 25.4537 16.2304 24.581 16.7024 23.8416C16.7537 23.7391 16.8049 23.6451 16.8519 23.5468C16.8913 23.4739 16.9417 23.4076 17.0015 23.3502C16.5786 23.3001 16.1501 23.3665 15.7624 23.5425V23.5425Z" fill="white"/>
<path d="M49.1237 16.2065C49.1224 15.9026 49.0531 15.6029 48.9207 15.3293C48.7884 15.0557 48.5964 14.8153 48.3589 14.6257C47.9573 14.3308 45.3381 12.092 44.8809 11.2887C43.7828 9.37025 41.3901 8.29781 39.3264 8.07136C37.192 7.95497 35.0514 8.09845 32.9516 8.49863C31.7746 8.9566 30.6455 9.52903 29.5804 10.2077L29.4736 10.2632C31.0289 10.2632 32.5286 10.447 33.5968 11.0665C34.9854 11.8698 36.3185 13.1259 36.6859 16.8517C36.7879 18.212 36.7736 19.5785 36.6432 20.9364C36.5364 22.5344 36.4509 23.7991 36.9765 24.4485C37.1645 24.6793 37.831 24.91 38.5915 25.1749C40.4721 25.7615 42.2495 26.638 43.8598 27.7727C44.1076 27.6872 44.3725 27.6146 44.7143 27.5334C45.7397 27.2728 47.107 25.1749 47.5001 23.9016C47.6624 23.3547 47.8077 21.7653 47.9914 21.0945C48.2179 20.2912 48.6751 19.1504 48.7819 18.7958C49.0075 17.9512 49.1224 17.0808 49.1237 16.2065V16.2065Z" fill="white"/>
<path d="M38.3306 25.9395C37.3394 25.5977 36.6856 25.3712 36.3567 24.961C35.6303 24.0681 35.7243 22.6666 35.8439 20.8892C35.9661 19.5722 35.9762 18.2471 35.8738 16.9284C35.5619 13.7495 34.592 12.5617 33.182 11.7585C31.6994 10.9039 29.1572 10.9851 26.9311 11.2073C26.159 11.4562 25.3627 11.6223 24.5555 11.7029C23.6711 11.7029 22.291 11.0406 21.7954 10.7245C21.3198 10.3786 20.7648 10.1582 20.1816 10.0835C19.5984 10.0088 19.0057 10.0823 18.4584 10.2972C17.8944 10.4895 17.1381 10.8313 16.8903 11.3226C16.3481 12.5868 15.9344 13.9023 15.6555 15.2492C15.5923 15.9359 15.4489 16.6127 15.2282 17.2659C15.0445 17.7658 14.2712 20.1543 14.0575 20.5303C13.8439 20.9063 13.1987 21.748 12.4339 22.9144C12.1274 23.408 11.9578 23.9743 11.9425 24.5551C11.9895 25.0721 12.8825 26.0719 12.7672 27.452C12.6817 28.4176 11.5281 29.1611 10.242 30.4429C9.698 30.9815 9.20854 31.5726 8.78076 32.2075C9.23976 32.2582 9.67961 32.4195 10.0626 32.6775C10.1676 32.7646 10.2622 32.8636 10.3446 32.9723C10.765 32.8204 11.2203 32.7922 11.6563 32.8911C11.9285 32.9742 12.1591 33.1574 12.3015 33.4039C12.6197 33.321 12.9468 33.2765 13.2756 33.2714C13.6501 33.3584 13.9843 33.5692 14.2242 33.8696C14.4002 33.7019 14.6099 33.5737 14.8394 33.4936C15.2111 33.4081 15.9546 33.75 16.258 33.9209C16.352 33.9636 16.5955 34.0875 16.8134 34.9078C16.9223 34.7831 17.0624 34.6897 17.2193 34.6371C17.3763 34.5846 17.5444 34.5748 17.7064 34.6088C17.7918 34.6429 18.0098 34.7241 18.108 35.1941C18.4736 35.0073 18.8815 34.9189 19.2916 34.9378C19.8068 34.9919 20.2879 35.2212 20.6545 35.5872C21.1301 35.3264 21.6761 35.2232 22.2141 35.2924C22.5693 35.3288 22.9034 35.4786 23.1669 35.7197C23.4102 35.4537 23.7437 35.2877 24.1026 35.2539C24.256 35.2395 24.4105 35.2669 24.5496 35.333C24.6888 35.3992 24.8074 35.5018 24.893 35.6299C24.9746 35.5115 25.0692 35.4026 25.175 35.3052C25.4186 35.0873 25.8288 35.0916 26.3543 35.1044C26.5734 35.1179 26.7932 35.1179 27.0123 35.1044C28.5291 34.895 29.2127 34.8908 29.3794 35.3949C29.4819 35.6983 29.0888 37.0698 29.4135 37.7235C29.8235 37.4817 30.1647 37.139 30.4048 36.728C30.4048 36.587 30.3792 35.4462 30.3493 34.5917C30.3493 33.8909 30.3065 33.2159 30.3065 32.8826C30.3065 31.7674 31.097 31.1992 31.7934 30.6993C32.1002 30.4938 32.3864 30.2592 32.648 29.9985C32.9367 29.6875 33.145 29.3105 33.2547 28.9005C33.2886 28.77 33.3374 28.6438 33.4 28.5245C34.1701 27.662 35.2392 27.1244 36.3908 27.0205C37.5615 26.9222 41.3984 28.7295 42.018 29.0372C42.1376 28.9218 42.253 28.8107 42.3683 28.7167C42.5907 28.5239 42.8262 28.3468 43.0733 28.1869C41.6072 27.2163 40.0102 26.4596 38.3306 25.9395V25.9395ZM18.061 29.7379L17.9072 29.8362C16.7835 30.5454 16.1597 30.9385 15.506 30.9385C15.2193 30.9366 14.9359 30.877 14.6728 30.7633C14.2287 30.5702 13.8683 30.2245 13.6567 29.7888C13.4452 29.3532 13.3964 28.8562 13.5192 28.3877C13.6011 28.0953 13.7054 27.8096 13.8311 27.5332C14.0961 26.9812 14.2748 26.3919 14.3609 25.7857C14.5574 24.0766 14.7882 23.1238 15.3821 22.8247C16.0144 22.5042 17.1253 22.2821 18.8002 23.0255C20.3341 23.7006 21.0092 24.3073 21.1245 25.1063C21.2399 25.9053 20.6289 28.1143 18.061 29.7379ZM23.137 14.5784L23.0942 15.0057C22.8934 16.8729 22.667 19.1929 21.6202 19.8851C20.5734 20.5773 18.9967 20.7396 18.0653 20.7396H17.8987C16.5827 20.7012 15.8948 19.8039 15.8948 18.9366C15.8948 18.3768 16.258 17.8043 16.681 17.142C16.9497 16.7304 17.1923 16.3023 17.4073 15.8602C17.5907 15.4598 17.7421 15.0455 17.8602 14.6212C17.9995 14.0697 18.2245 13.5434 18.5268 13.0616C19.0181 12.2626 20.3854 11.6388 21.4023 12.0234L21.5988 12.096C22.2824 12.3353 23.3463 12.7155 23.137 14.5784ZM33.3914 18.0308C33.0026 19.0947 31.802 21.4489 30.5757 22.03C29.9552 22.2954 29.285 22.425 28.6103 22.4103C27.4137 22.4254 26.2374 22.1009 25.2178 21.4745C24.4658 20.9533 24.4658 19.6971 24.4701 18.4837V18.0564C24.5264 17.3109 24.6934 16.5779 24.9657 15.8816C25.0089 15.7857 25.086 15.7092 25.1822 15.6666C25.2784 15.624 25.3869 15.6184 25.4869 15.6509C25.5361 15.6702 25.5809 15.699 25.6189 15.7357C25.6568 15.7724 25.6872 15.8162 25.7082 15.8646C25.7293 15.913 25.7405 15.9651 25.7414 16.0178C25.7423 16.0706 25.7328 16.123 25.7134 16.1721C25.4814 16.775 25.3375 17.4082 25.2861 18.0521V18.4794C25.2861 19.3339 25.2861 20.526 25.7134 20.808C26.0316 21.0149 26.3766 21.1774 26.7388 21.2908C26.5148 20.2008 26.4387 19.0856 26.5124 17.9752C26.6192 17.1207 28.2471 14.2922 29.2341 13.2753C28.5031 13.3988 27.811 13.6914 27.2131 14.1298C27.1282 14.1864 27.025 14.2087 26.9243 14.1919C26.8237 14.1752 26.7332 14.1208 26.6712 14.0398C26.6092 13.9588 26.5803 13.8572 26.5905 13.7556C26.6007 13.6541 26.6492 13.5603 26.726 13.4932C27.2558 13.0915 28.4351 12.4549 29.3623 12.4549C29.983 12.4697 30.5921 12.6269 31.1425 12.9143C31.6929 13.2017 32.17 13.6117 32.5369 14.1127C33.5153 15.4501 33.8358 16.8387 33.3957 18.0308H33.3914Z" fill="white"/>
<path d="M19.1807 13.4722C18.9161 13.8924 18.7213 14.3527 18.6039 14.8352C18.4762 15.2995 18.3104 15.7525 18.1082 16.1896C17.8783 16.656 17.6186 17.1069 17.3306 17.5398C17.0151 17.9427 16.7906 18.4091 16.6726 18.9071C16.6726 19.4753 17.1768 19.8898 17.8989 19.9069H18.0655C17.9528 19.2484 18.0162 18.5718 18.2492 17.9457C18.484 17.3098 18.7969 16.7056 19.1807 16.1469C19.5117 15.6432 19.7976 15.1114 20.0352 14.5575C20.1777 14.1321 20.2723 13.6921 20.3172 13.2458C20.3428 13.0449 20.3642 12.8826 20.3898 12.7373C19.9094 12.8233 19.4782 13.0853 19.1807 13.4722V13.4722Z" fill="white"/>
<path d="M24.5512 36.4075C24.5512 36.2408 24.2436 36.0571 24.1239 36.0486C24.0043 36.04 23.4745 36.2665 23.436 36.4758L23.2566 37.9499L24.5384 37.8559L24.5512 36.4075Z" fill="white"/>
<path d="M25.312 40.1119C25.4122 40.2058 25.5342 40.2732 25.6669 40.3083C25.7997 40.3433 25.9391 40.3449 26.0726 40.3127C26.3802 40.223 26.6365 39.5394 26.722 39.0865V38.2319C26.2691 38.3259 25.8333 38.4242 25.4829 38.5011L25.3462 38.531L25.312 40.1119Z" fill="white"/>
<path d="M26.6619 35.8907C26.6619 35.801 25.9783 35.7711 25.6536 35.9164C25.5721 35.9571 25.5021 36.0175 25.4498 36.0921C25.3976 36.1667 25.3648 36.2532 25.3545 36.3436V37.681L26.7089 37.3905L26.6619 35.8907Z" fill="white"/>
<path d="M28.606 37.8901C28.2898 37.9243 27.9053 37.9841 27.5037 38.061L27.525 39.0053C27.6618 39.2147 27.9523 39.5736 28.2685 39.5095C28.6786 39.424 29.0076 38.3516 28.606 37.8901Z" fill="white"/>
</svg>
