<svg width="56" height="55" viewBox="0 0 56 55" fill="none" xmlns="http://www.w3.org/2000/svg">
<path d="M23.6315 21.2139C25.3406 22.124 25.6867 23.2348 25.127 24.1065C24.6497 24.8125 24.0742 25.447 23.4179 25.9907C23.1573 26.1873 22.7257 26.23 22.5634 25.948C22.1703 25.2943 21.0252 24.3372 20.3587 23.8117C20.2264 23.7056 20.0597 23.6518 19.8904 23.6605C19.7211 23.6692 19.5608 23.7397 19.44 23.8587C18.1582 25.1063 14.4282 28.7509 13.5694 29.379C13.2105 29.6481 12.4286 30.0711 12.0868 29.2978C11.574 28.1356 11.8774 26.6359 12.4029 26.042C12.8302 25.572 15.8809 22.9614 17.1285 21.9018C17.1849 21.8549 17.2283 21.7943 17.2544 21.7258C17.2806 21.6573 17.2887 21.5832 17.278 21.5107C17.2673 21.4382 17.2381 21.3696 17.1932 21.3117C17.1483 21.2537 17.0892 21.2082 17.0217 21.1797C15.8339 20.6627 13.3515 19.6031 12.8772 19.5475C12.2448 19.4792 11.2749 19.3638 10.9075 20.8293C10.053 24.2475 10.2666 30.3104 11.7364 34.9805C12.1295 36.2323 13.0182 38.0995 14.5564 37.1852C20.7347 33.5277 35.2618 19.4578 36.941 17.706C38.6201 15.9542 43.0252 11.6217 44.0721 11.0235C45.1189 10.4253 47.1441 10.4681 47.9944 12.0062C51.2843 17.9581 50.934 36.8519 50.3144 39.5095C49.994 40.8768 48.7079 41.6757 46.9348 41.2827C43.0893 40.4281 35.5053 34.8993 31.818 32.6775C31.6551 32.5781 31.5164 32.4436 31.412 32.2837C31.3077 32.1239 31.2404 31.9428 31.215 31.7536C31.1896 31.5645 31.2068 31.372 31.2653 31.1903C31.3238 31.0087 31.4221 30.8423 31.5531 30.7035L32.8776 29.3106C32.9824 29.1992 33.1235 29.129 33.2755 29.1125C33.4275 29.0961 33.5804 29.1345 33.7065 29.2209C35.4925 30.4429 42.0083 34.8779 42.8501 35.2026C43.82 35.5914 45.0548 35.4804 45.4393 33.5918C45.7982 31.8229 46.046 20.7524 43.7302 17.8385C42.8501 16.7361 40.2651 17.2787 36.8341 21.0601C34.8644 23.2306 16.0518 42.0902 11.903 43.7053C10.194 44.3761 8.64725 43.9702 7.8098 41.7142C4.81892 33.6858 5.57946 17.1976 6.25882 14.6724C6.93817 12.1472 8.90361 12.9633 10.7836 14.0059" fill="white"/>
</svg>
