<svg width="121" height="36" viewBox="0 0 121 36" fill="none" xmlns="http://www.w3.org/2000/svg">
<g clip-path="url(#clip0_34_10600)">
<path d="M118.07 0.493164H2.47877C1.38781 0.493164 0.503418 1.37652 0.503418 2.4662V33.0482C0.503418 34.1379 1.38781 35.0212 2.47877 35.0212H118.07C119.161 35.0212 120.046 34.1379 120.046 33.0482V2.4662C120.046 1.37652 119.161 0.493164 118.07 0.493164Z" stroke="white" stroke-width="1.20388"/>
<path d="M28.5562 16.9262C28.5334 14.195 30.796 12.8637 30.9014 12.8042C29.6189 10.9376 27.631 10.6814 26.9302 10.6631C25.2584 10.4893 23.6416 11.6605 22.7896 11.6605C21.9239 11.6605 20.6139 10.6814 19.1986 10.7089C17.3802 10.7363 15.6809 11.7886 14.7511 13.4173C12.8274 16.7432 14.2611 21.6293 16.1069 24.3193C17.0275 25.6369 18.104 27.1055 19.5147 27.0551C20.8934 27.0002 21.4109 26.1768 23.0736 26.1768C24.7225 26.1768 25.208 27.0551 26.6463 27.0231C28.1257 27.0002 29.0601 25.701 29.9487 24.3742C31.0159 22.8645 31.4419 21.3777 31.4602 21.3045C31.4236 21.2816 28.5837 20.1973 28.5562 16.9262ZM25.8401 8.8926C26.5821 7.9639 27.0905 6.7058 26.9485 5.4248C25.8768 5.47053 24.5301 6.16592 23.7606 7.07179C23.0782 7.8724 22.4644 9.18081 22.6247 10.4115C23.8248 10.4984 25.066 9.80301 25.8401 8.8926Z" fill="white"/>
<path d="M48.5354 26.8586H46.6071L45.5491 23.5463H41.8802L40.8725 26.8586H38.9946L42.6314 15.5768H44.8757L48.5354 26.8586ZM45.233 22.1555L44.2757 19.2093C44.175 18.9073 43.9826 18.1982 43.7078 17.0819H43.6757C43.5658 17.5623 43.3826 18.2714 43.1398 19.2093L42.2009 22.1555H45.233ZM57.8704 22.6908C57.8704 24.0725 57.4946 25.1659 56.7435 25.9711C56.0699 26.6848 55.2318 27.0416 54.2333 27.0416C53.1523 27.0416 52.3784 26.6573 51.9068 25.8887V30.1572H50.0974V21.3961C50.0974 20.5269 50.0747 19.6347 50.0287 18.7243H51.6224L51.7236 20.0145H51.7552C52.3602 19.0446 53.2762 18.555 54.5034 18.555C55.4654 18.555 56.2669 18.9348 56.9084 19.6942C57.5494 20.4537 57.8704 21.4556 57.8704 22.6908ZM56.0289 22.7594C56.0289 21.968 55.8501 21.3138 55.4931 20.8014C55.1034 20.2661 54.577 20.0007 53.9172 20.0007C53.4733 20.0007 53.0654 20.1517 52.7034 20.4445C52.3419 20.7419 52.1034 21.1308 51.9937 21.6065C51.9434 21.785 51.9157 21.9725 51.9113 22.1555V23.5143C51.9113 24.1045 52.0945 24.6031 52.4565 25.0149C52.8179 25.4221 53.2901 25.6279 53.8713 25.6279C54.5538 25.6279 55.0852 25.3626 55.4654 24.8411C55.8363 24.3104 56.0289 23.6195 56.0289 22.7594ZM67.2415 22.6908C67.2415 24.0725 66.8661 25.1659 66.1145 25.9711C65.4414 26.6848 64.6034 27.0416 63.6048 27.0416C62.5238 27.0416 61.7495 26.6573 61.2779 25.8887V30.1572H59.4685V21.3961C59.4685 20.5269 59.4457 19.6347 59.3998 18.7243H60.9939L61.0947 20.0145H61.1268C61.7312 19.0446 62.6473 18.555 63.875 18.555C64.837 18.555 65.6385 18.9348 66.2795 19.6942C66.9165 20.4537 67.2415 21.4556 67.2415 22.6908ZM65.3955 22.7594C65.3955 21.968 65.2172 21.3138 64.8597 20.8014C64.4705 20.2661 63.9436 20.0007 63.2843 20.0007C62.8399 20.0007 62.432 20.1517 62.0656 20.4445C61.7041 20.7419 61.4655 21.1308 61.3559 21.6065C61.3006 21.8307 61.269 22.0137 61.269 22.1555V23.5143C61.269 24.1045 61.4522 24.6031 61.8137 25.0149C62.1757 25.4221 62.6473 25.6279 63.234 25.6279C63.916 25.6279 64.4473 25.3626 64.8276 24.8411C65.2078 24.3104 65.3955 23.6195 65.3955 22.7594ZM77.7168 23.6973C77.7168 24.6581 77.3824 25.4404 76.7138 26.0397C75.9809 26.6985 74.9503 27.0279 73.6357 27.0279C72.4218 27.0279 71.4465 26.7946 70.7087 26.3233L71.1255 24.8182C71.9181 25.2894 72.7927 25.5227 73.7409 25.5227C74.4234 25.5227 74.9547 25.3672 75.335 25.0606C75.7152 24.7541 75.9073 24.3424 75.9073 23.83C75.9073 23.3725 75.7473 22.9882 75.4357 22.6725C75.1241 22.3614 74.6066 22.0686 73.8786 21.8033C71.8998 21.0667 70.9102 19.987 70.9102 18.5734C70.9102 17.6492 71.2583 16.8898 71.9591 16.2996C72.6554 15.7094 73.5809 15.4121 74.735 15.4121C75.7612 15.4121 76.6175 15.5905 77.3 15.9473L76.8466 17.4205C76.2051 17.0728 75.4861 16.9035 74.6752 16.9035C74.0387 16.9035 73.5349 17.059 73.1774 17.3701C72.8752 17.6492 72.7241 17.9878 72.7241 18.3904C72.7241 18.8341 72.8984 19.2047 73.2465 19.4929C73.5488 19.7583 74.0935 20.0511 74.8861 20.3622C75.857 20.7556 76.5715 21.2085 77.0298 21.7347C77.4876 22.2608 77.7168 22.915 77.7168 23.6973ZM83.7169 20.0831H81.7198V24.0313C81.7198 25.0378 82.0724 25.5364 82.7781 25.5364C83.1031 25.5364 83.3687 25.509 83.584 25.4541L83.6344 26.8266C83.2774 26.9593 82.8102 27.0279 82.2285 27.0279C81.5139 27.0279 80.9548 26.8083 80.5519 26.3737C80.1489 25.939 79.9474 25.207 79.9474 24.1823V20.0831H78.7612V18.7289H79.9474V17.2375L81.7247 16.7022V18.7289H83.7213L83.7169 20.0831ZM92.6988 22.7274C92.6988 23.9764 92.3418 25.0058 91.6272 25.8064C90.8805 26.6344 89.8869 27.0462 88.6454 27.0462C87.4498 27.0462 86.4972 26.6482 85.7871 25.8613C85.0774 25.0698 84.7248 24.0679 84.7248 22.8647C84.7248 21.602 85.0912 20.5726 85.8241 19.7674C86.557 18.9622 87.5417 18.5642 88.7827 18.5642C89.9783 18.5642 90.9403 18.9622 91.6637 19.7537C92.3507 20.5177 92.6988 21.5105 92.6988 22.7274ZM90.8212 22.7686C90.8212 22.0229 90.6607 21.3824 90.3353 20.8517C89.9555 20.2066 89.4148 19.8818 88.7096 19.8818C87.9856 19.8818 87.4271 20.2066 87.0513 20.8517C86.7263 21.3869 86.5658 22.0366 86.5658 22.8052C86.5658 23.5509 86.7263 24.1914 87.0513 24.7267C87.4409 25.3717 87.9906 25.6966 88.6958 25.6966C89.3876 25.6966 89.9279 25.3672 90.322 24.713C90.6563 24.1594 90.8212 23.5143 90.8212 22.7686ZM98.5849 20.3164C98.3967 20.2844 98.2046 20.2661 98.012 20.2661C97.3755 20.2661 96.8856 20.504 96.5374 20.9844C96.2352 21.4098 96.0841 21.9451 96.0841 22.5902V26.8586H94.2747V21.2863C94.2747 20.4308 94.2608 19.5798 94.2243 18.7243H95.8001L95.8638 20.2798H95.9142C96.1068 19.7445 96.4046 19.3145 96.8214 18.9897C97.1967 18.706 97.6594 18.555 98.131 18.555C98.3009 18.555 98.4471 18.5688 98.5849 18.5871V20.3164ZM106.678 22.4072C106.683 22.6817 106.66 22.9562 106.614 23.2261H101.182C101.2 24.0313 101.466 24.6443 101.97 25.0698C102.427 25.4495 103.019 25.6371 103.747 25.6371C104.553 25.6371 105.286 25.509 105.946 25.2528L106.229 26.5063C105.46 26.8403 104.548 27.0096 103.5 27.0096C102.235 27.0096 101.246 26.639 100.522 25.8979C99.8032 25.1567 99.4412 24.1594 99.4412 22.9104C99.4412 21.6843 99.7755 20.6641 100.449 19.8498C101.15 18.9805 102.102 18.5459 103.298 18.5459C104.47 18.5459 105.359 18.9805 105.964 19.8498C106.435 20.5406 106.678 21.3915 106.678 22.4072ZM104.951 21.9405C104.965 21.4053 104.846 20.9432 104.599 20.5497C104.287 20.0465 103.802 19.7949 103.156 19.7949C102.565 19.7949 102.084 20.0419 101.713 20.5314C101.411 20.9203 101.232 21.3915 101.177 21.936L104.951 21.9405Z" fill="white"/>
<path d="M41.3579 11.5924C40.8541 11.5924 40.419 11.5695 40.0571 11.5283V6.07044C40.5656 5.99266 41.0786 5.95147 41.5916 5.95606C43.6664 5.95606 44.6237 6.97626 44.6237 8.63696C44.6192 10.5539 43.4924 11.5924 41.3579 11.5924ZM41.6648 6.65604C41.3855 6.65604 41.1473 6.67434 40.9503 6.71548V10.8604C41.0557 10.8787 41.2618 10.8833 41.5503 10.8833C42.9107 10.8833 43.6848 10.1101 43.6848 8.66444C43.6802 7.36973 42.9794 6.65604 41.6648 6.65604ZM47.6009 11.6336C46.433 11.6336 45.6726 10.7597 45.6726 9.57484C45.6726 8.33958 46.4467 7.46123 47.6651 7.46123C48.8193 7.46123 49.5935 8.29385 49.5935 9.51077C49.5935 10.7597 48.7964 11.6336 47.6009 11.6336ZM47.633 8.11085C46.9917 8.11085 46.5795 8.71016 46.5795 9.55196C46.5795 10.3755 47.0009 10.9748 47.6239 10.9748C48.2514 10.9748 48.6682 10.3343 48.6682 9.53366C48.6727 8.71934 48.2605 8.11085 47.633 8.11085ZM56.2623 7.54356L55.0119 11.5421H54.1966L53.6791 9.80816C53.5507 9.38267 53.441 8.95265 53.3586 8.51804H53.3403C53.2761 8.95265 53.1521 9.39185 53.0193 9.80816L52.4696 11.5421H51.6454L50.4681 7.54356H51.3842L51.8375 9.44216C51.9432 9.89507 52.0346 10.3206 52.1082 10.7277H52.1264C52.1906 10.3892 52.3003 9.97285 52.4563 9.45133L53.0242 7.54356H53.7477L54.2929 9.41015C54.4257 9.86305 54.5309 10.3068 54.6134 10.7277H54.6361C54.6959 10.316 54.7828 9.88135 54.9067 9.41015L55.3922 7.54356H56.2623ZM60.8748 11.5421H59.9864V9.24545C59.9864 8.53634 59.7157 8.18405 59.1799 8.18405C58.6535 8.18405 58.2915 8.63696 58.2915 9.16307V11.5421H57.4031V8.68728C57.4031 8.33504 57.3937 7.95533 57.371 7.54356H58.1542L58.1952 8.16117H58.2179C58.4564 7.73573 58.9419 7.46123 59.4871 7.46123C60.3251 7.46123 60.8792 8.10173 60.8792 9.14936L60.8748 11.5421ZM63.3252 11.5421H62.4368V5.70898H63.3252V11.5421ZM66.5727 11.6336C65.4047 11.6336 64.6442 10.7597 64.6442 9.57484C64.6442 8.33958 65.4186 7.46123 66.6369 7.46123C67.791 7.46123 68.5653 8.29385 68.5653 9.51077C68.5653 10.7597 67.7638 11.6336 66.5727 11.6336ZM66.6048 8.11085C65.9633 8.11085 65.5514 8.71016 65.5514 9.55196C65.5514 10.3755 65.9727 10.9748 66.5954 10.9748C67.223 10.9748 67.6399 10.3343 67.6399 9.53366C67.6399 8.71934 67.2324 8.11085 66.6048 8.11085ZM72.0735 11.5421L72.0093 11.08H71.9866C71.7165 11.4506 71.318 11.629 70.8142 11.629C70.0947 11.629 69.5866 11.1257 69.5866 10.4532C69.5866 9.46504 70.4429 8.95724 71.9269 8.95724V8.88404C71.9269 8.35788 71.6478 8.09255 71.0982 8.09255C70.7041 8.09255 70.356 8.19323 70.0537 8.38994L69.875 7.80434C70.2463 7.57557 70.7086 7.45665 71.2493 7.45665C72.2933 7.45665 72.8247 8.00564 72.8247 9.10817V10.5813C72.8247 10.9839 72.8429 11.2996 72.8844 11.5375L72.0735 11.5421ZM71.9501 9.55196C70.9604 9.55196 70.4661 9.78985 70.4661 10.3572C70.4661 10.778 70.7224 10.9839 71.075 10.9839C71.5288 10.9839 71.9501 10.6408 71.9501 10.1696V9.55196ZM77.1349 11.5421L77.0939 10.9016H77.0707C76.8144 11.3865 76.3837 11.6336 75.7837 11.6336C74.8173 11.6336 74.1027 10.7872 74.1027 9.59314C74.1027 8.34416 74.8449 7.46123 75.8568 7.46123C76.3931 7.46123 76.7729 7.63965 76.9838 8.00564H77.002V5.70898H77.8904V10.4624C77.8904 10.8467 77.8998 11.2127 77.9225 11.5375H77.1349V11.5421ZM77.0065 9.19055C77.0065 8.63238 76.6356 8.15204 76.0677 8.15204C75.4079 8.15204 75.005 8.73764 75.005 9.55654C75.005 10.3617 75.4218 10.9153 76.0494 10.9153C76.608 10.9153 77.0065 10.4304 77.0065 9.85393V9.19055ZM83.5429 11.6336C82.375 11.6336 81.6145 10.7597 81.6145 9.57484C81.6145 8.33958 82.3883 7.46123 83.6071 7.46123C84.7612 7.46123 85.5351 8.29385 85.5351 9.51077C85.5351 10.7597 84.7385 11.6336 83.5429 11.6336ZM83.575 8.11085C82.9335 8.11085 82.5212 8.71016 82.5212 9.55196C82.5212 10.3755 82.9429 10.9748 83.5656 10.9748C84.1933 10.9748 84.6101 10.3343 84.6101 9.53366C84.6145 8.71934 84.2022 8.11085 83.575 8.11085ZM90.3218 11.5421H89.4329V9.24545C89.4329 8.53634 89.1628 8.18405 88.627 8.18405C88.1 8.18405 87.7386 8.63696 87.7386 9.16307V11.5421H86.8497V8.68728C86.8497 8.33504 86.8408 7.95533 86.8176 7.54356H87.6008L87.6423 8.16117H87.665C87.9035 7.73573 88.3889 7.46123 88.9336 7.46123C89.7722 7.46123 90.3263 8.10173 90.3263 9.14936V11.5421H90.3218ZM96.3037 8.21148H95.3234V10.1513C95.3234 10.6454 95.4928 10.8924 95.841 10.8924C95.9965 10.8924 96.1294 10.8741 96.235 10.8512L96.2578 11.5238C96.0839 11.5878 95.8548 11.6244 95.5664 11.6244C94.8651 11.6244 94.4439 11.2401 94.4439 10.2245V8.20694H93.8577V7.53897H94.4439V6.80698L95.319 6.54165V7.53897H96.2992L96.3037 8.21148ZM101.017 11.5421H100.128V9.26375C100.128 8.55005 99.8578 8.18864 99.322 8.18864C98.8593 8.18864 98.4336 8.49974 98.4336 9.13565V11.5466H97.5447V5.70898H98.4336V8.11085H98.4519C98.7314 7.67625 99.1388 7.46123 99.6563 7.46123C100.504 7.46123 101.021 8.11998 101.021 9.16307L101.017 11.5421ZM105.84 9.75784H103.17C103.188 10.5127 103.687 10.9427 104.429 10.9427C104.823 10.9427 105.189 10.8787 105.51 10.7552L105.648 11.3728C105.267 11.5375 104.823 11.6198 104.305 11.6198C103.055 11.6198 102.313 10.8284 102.313 9.60686C102.313 8.38077 103.073 7.46123 104.205 7.46123C105.226 7.46123 105.867 8.21607 105.867 9.35983C105.876 9.48793 105.867 9.62516 105.84 9.75784ZM105.024 9.12193C105.024 8.50428 104.713 8.06967 104.145 8.06967C103.632 8.06967 103.229 8.51345 103.174 9.12193H105.024Z" fill="white"/>
</g>
<defs>
<clipPath id="clip0_34_10600">
<rect width="120.99" height="35.5146" fill="white" transform="translate(0.00976562)"/>
</clipPath>
</defs>
</svg>
