<svg width="1440" height="694" viewBox="0 0 1440 694" fill="none" xmlns="http://www.w3.org/2000/svg">
<path d="M991.349 467.376C986.323 467.376 981.523 466.502 977.942 464.716L802.457 377.22C798.939 375.467 797 373.024 797 370.345C797 367.13 799.785 363.897 804.644 361.475L1139.32 194.603C1148.42 190.066 1162.25 189.576 1170.14 193.513L1345.63 281.009C1349.15 282.763 1351.09 285.205 1351.09 287.885C1351.09 291.099 1348.3 294.332 1343.44 296.754L1008.76 463.625C1003.79 466.104 997.405 467.376 991.349 467.376ZM978.319 464.15C986.008 467.982 999.494 467.496 1008.38 463.06L1343.07 296.188C1347.68 293.888 1350.33 290.861 1350.33 287.885C1350.33 285.45 1348.53 283.208 1345.25 281.575L1169.77 194.079C1162.08 190.25 1148.6 190.736 1139.7 195.169L805.021 362.04C800.404 364.341 797.757 367.367 797.755 370.343C797.755 372.779 799.558 375.02 802.835 376.653L978.319 464.15Z" fill="#497D22"/>
<path d="M1381.35 276.521C1376.32 276.521 1371.52 275.647 1367.94 273.86L1192.46 186.365C1188.94 184.612 1187 182.169 1187 179.489C1187 176.274 1189.78 173.041 1194.64 170.62L1529.32 3.7474C1538.42 -0.789353 1552.25 -1.27991 1560.14 2.65765L1735.63 90.1532C1739.15 91.908 1741.09 94.3492 1741.09 97.0291C1741.09 100.244 1738.3 103.477 1733.44 105.898L1398.76 272.769C1393.79 275.248 1387.41 276.521 1381.35 276.521ZM1368.32 273.294C1376.01 277.126 1389.49 276.641 1398.38 272.205L1733.07 105.332C1737.68 103.033 1740.33 100.005 1740.33 97.0291C1740.33 94.5945 1738.53 92.3524 1735.25 90.7194L1559.77 3.22393C1552.08 -0.604987 1538.6 -0.119385 1529.7 4.31366L1195.02 171.184C1190.4 173.486 1187.76 176.511 1187.75 179.487C1187.75 181.924 1189.56 184.164 1192.83 185.797L1368.32 273.294Z" fill="#497D22"/>
<path d="M-27.6506 659.095C-32.677 659.095 -37.4767 658.221 -41.0583 656.435L-216.543 568.94C-220.061 567.187 -222 564.744 -222 562.064C-222 558.849 -219.215 555.616 -214.356 553.194L120.325 386.322C129.423 381.785 143.25 381.295 151.145 385.232L326.629 472.728C330.148 474.483 332.087 476.924 332.087 479.604C332.087 482.819 329.302 486.052 324.445 488.473L-10.238 655.344C-15.2092 657.823 -21.5948 659.095 -27.6506 659.095ZM-40.6809 655.869C-32.9915 659.701 -19.5056 659.216 -10.6154 654.779L324.067 487.907C328.684 485.607 331.332 482.58 331.332 479.604C331.332 477.169 329.529 474.927 326.254 473.294L150.769 385.799C143.082 381.97 129.596 382.455 120.704 386.888L-213.979 553.759C-218.596 556.06 -221.243 559.086 -221.245 562.062C-221.245 564.498 -219.442 566.739 -216.165 568.372L-40.6809 655.869Z" fill="#497D22"/>
<path d="M610.349 656.542C605.323 656.542 600.523 655.668 596.942 653.882L421.457 566.386C417.939 564.633 416 562.19 416 559.511C416 556.296 418.785 553.063 423.644 550.641L758.325 383.769C767.423 379.232 781.25 378.742 789.145 382.679L964.629 470.175C968.148 471.929 970.087 474.371 970.087 477.051C970.087 480.265 967.302 483.498 962.445 485.92L627.762 652.791C622.791 655.27 616.405 656.542 610.349 656.542ZM597.319 653.316C605.008 657.148 618.494 656.662 627.385 652.226L962.067 485.354C966.684 483.054 969.332 480.027 969.332 477.051C969.332 474.616 967.529 472.374 964.254 470.741L788.769 383.245C781.082 379.416 767.596 379.902 758.704 384.335L424.021 551.206C419.404 553.507 416.757 556.533 416.755 559.509C416.755 561.945 418.558 564.186 421.835 565.819L597.319 653.316Z" fill="#497D22"/>
<path d="M969.709 436.635L944.502 440.383L788.958 362.829C781.154 358.937 767.525 359.426 758.515 363.918L460.942 512.288L416.383 518.914L416.379 532.557L416.4 532.554C416.379 535.041 418.091 537.42 421.647 539.193L597.13 626.688C604.934 630.58 618.563 630.091 627.573 625.598L962.254 458.726C967.105 456.308 969.604 453.223 969.682 450.281L969.707 450.278V436.635H969.709Z" fill="url(#paint0_linear_2006_2661)"/>
<path d="M597.13 612.954L421.647 525.459C413.844 521.567 414.823 514.772 423.834 510.28L758.513 343.408C767.523 338.915 781.154 338.426 788.955 342.318L964.44 429.813C972.244 433.705 971.264 440.5 962.254 444.992L627.573 611.865C618.562 616.357 604.934 616.844 597.13 612.954Z" fill="#168306"/>
<path d="M962.254 444.992L627.573 611.865C618.563 616.357 604.932 616.846 597.13 612.955L421.648 525.459C418.518 523.898 416.825 521.869 416.472 519.711C415.988 522.512 417.673 525.248 421.648 527.23L597.13 614.726C604.934 618.617 618.563 618.128 627.573 613.636L962.254 446.764C967.65 444.072 970.142 440.558 969.615 437.333C969.15 440.029 966.676 442.788 962.254 444.992Z" fill="white"/>
<path opacity="0.51" d="M597.475 609.563L428.247 525.163C420.697 521.398 421.642 514.822 430.363 510.474L758.835 346.741C767.554 342.394 780.742 341.921 788.295 345.686L957.523 430.087C965.073 433.851 964.128 440.428 955.407 444.775L626.935 608.508C618.216 612.856 605.027 613.328 597.475 609.563Z" fill="#061414"/>
<g opacity="0.1">
<path opacity="0.5" d="M597.475 605.795L428.246 521.394C420.696 517.629 421.642 511.053 430.362 506.706L758.835 342.973C767.554 338.625 780.742 338.153 788.294 341.917L957.523 426.318C965.073 430.083 964.128 436.659 955.407 441.007L626.934 604.74C618.216 609.087 605.027 609.56 597.475 605.795Z" fill="url(#paint1_radial_2006_2661)"/>
<mask id="mask0_2006_2661" style="mask-type:luminance" maskUnits="userSpaceOnUse" x="423" y="339" width="540" height="270">
<path d="M597.475 605.795L428.246 521.394C420.696 517.629 421.642 511.053 430.362 506.706L758.835 342.973C767.554 338.625 780.742 338.153 788.294 341.917L957.523 426.318C965.073 430.083 964.128 436.659 955.407 441.007L626.934 604.74C618.216 609.087 605.027 609.56 597.475 605.795Z" fill="white"/>
</mask>
<g mask="url(#mask0_2006_2661)">
<path d="M784.398 574.103C784.398 555.747 769.475 533.426 751.067 524.248C741.846 519.651 733.5 519.224 727.466 522.25L721.164 525.432L722.994 525.58C719.672 529.093 717.737 534.27 717.737 540.866C717.737 559.222 732.66 581.544 751.067 590.721C757.392 593.875 763.307 595.067 768.345 594.527L768.204 595.986L774.601 592.753C774.627 592.739 774.652 592.726 774.679 592.713L774.938 592.583L774.925 592.58C780.782 589.511 784.398 583.131 784.398 574.103Z" fill="#6CFF00"/>
<path d="M768.242 595.971C781.258 589.481 781.257 568.437 768.241 548.967C755.224 529.498 734.121 518.976 721.105 525.466C708.09 531.956 708.09 553 721.106 572.469C734.123 591.939 755.226 602.461 768.242 595.971Z" fill="#87BC5F"/>
</g>
</g>
<path opacity="0.4" d="M921.381 440.329C918.799 441.616 914.611 441.616 912.028 440.329C909.445 439.041 909.445 436.952 912.028 435.665C914.611 434.378 918.799 434.378 921.381 435.665C923.964 436.952 923.964 439.041 921.381 440.329Z" fill="#168306"/>
<path opacity="0.4" d="M885.675 417.862L903.986 426.991C906.223 428.108 905.941 430.055 903.359 431.344C900.776 432.631 896.868 432.771 894.63 431.657L876.318 422.527C874.08 421.411 874.362 419.464 876.945 418.176C879.53 416.887 883.437 416.748 885.675 417.862Z" fill="#168306"/>
<path opacity="0.4" d="M781.219 363.102L799.532 372.231C801.769 373.346 801.487 375.295 798.904 376.582C796.322 377.869 792.414 378.009 790.176 376.895L771.866 367.765C769.628 366.649 769.91 364.702 772.493 363.413C775.074 362.126 778.982 361.986 781.219 363.102Z" fill="#168306"/>
<path d="M921.381 434.661C918.799 435.948 914.611 435.948 912.028 434.661C909.445 433.374 909.445 431.285 912.028 429.998C914.611 428.71 918.799 428.71 921.381 429.998C923.964 431.285 923.964 433.372 921.381 434.661Z" fill="#CDFFA9"/>
<path d="M885.675 412.193L903.986 421.322C906.223 422.439 905.941 424.386 903.359 425.675C900.776 426.962 896.868 427.102 894.63 425.988L876.318 416.858C874.08 415.742 874.362 413.795 876.945 412.507C879.53 411.219 883.437 411.079 885.675 412.193Z" fill="#CDFFA9"/>
<path d="M781.219 357.433L799.532 366.562C801.769 367.678 801.487 369.626 798.904 370.915C796.322 372.202 792.414 372.342 790.176 371.227L771.866 362.098C769.628 360.982 769.91 359.034 772.493 357.745C775.074 356.457 778.982 356.317 781.219 357.433Z" fill="#CDFFA9"/>
<g opacity="0.3">
<path d="M1024 633.981V626.603L1021.64 625.468C1020.97 628.95 1016.22 631.245 1012.26 631.72L985.239 645.365L973.447 649.043L935.813 632.27L936.682 631.837C933.466 630.54 931.734 627.572 929.993 624.864L927.46 626.17L925.954 626.535V634.101C925.954 635.546 927.058 636.991 929.265 638.093L966.97 656.892C971.385 659.092 978.569 659.092 982.984 656.892L1020.69 638.093C1022.86 637.009 1023.96 635.594 1024 634.172C1024 634.107 1023.99 634.045 1023.99 633.981H1024Z" fill="url(#paint2_linear_2006_2661)"/>
<path opacity="0.3" d="M1012.26 631.72L985.239 645.365L974.976 648.565V658.541C977.876 658.541 980.777 657.991 982.984 656.89L1020.69 638.091C1022.86 637.008 1023.96 635.592 1024 634.17C1024 634.106 1023.99 634.043 1023.99 633.979L1024 633.98V626.603L1021.84 625.565H1021.61C1020.88 628.993 1016.19 631.248 1012.26 631.72Z" fill="#7EE92F"/>
<path d="M966.973 649.393L929.267 630.594C924.853 628.394 924.853 624.812 929.267 622.611L966.971 603.812C971.385 601.611 978.568 601.611 982.984 603.812L1020.69 622.611C1025.1 624.812 1025.1 628.394 1020.69 630.594L982.986 649.393C978.571 651.594 971.387 651.594 966.973 649.393Z" fill="url(#paint3_linear_2006_2661)"/>
<g opacity="0.3">
<path d="M966.973 649.393L929.267 630.594C924.853 628.394 924.853 624.812 929.267 622.611L966.971 603.812C971.385 601.611 978.568 601.611 982.984 603.812L1020.69 622.611C1025.1 624.812 1025.1 628.394 1020.69 630.594L982.986 649.393C978.571 651.594 971.387 651.594 966.973 649.393Z" fill="#7EE92F"/>
</g>
</g>
<path d="M974.978 625.631C972.405 625.631 969.831 625.142 967.872 624.166L930.167 605.367C928.207 604.39 927.13 603.074 927.13 601.657C927.13 600.243 928.209 598.926 930.167 597.95L967.868 579.149C971.787 577.199 978.163 577.195 982.082 579.149L1019.79 597.95C1021.74 598.926 1022.82 600.245 1022.82 601.659C1022.82 603.073 1021.75 604.391 1019.79 605.367L982.084 624.166C980.125 625.142 977.551 625.631 974.978 625.631ZM974.978 578.249C972.523 578.249 970.07 578.713 968.2 579.646L930.496 598.447C928.752 599.316 927.792 600.457 927.792 601.659C927.792 602.86 928.752 604.004 930.498 604.873L968.202 623.672C971.94 625.537 978.016 625.537 981.754 623.672L1019.46 604.873C1021.2 604.004 1022.16 602.862 1022.16 601.66C1022.16 600.459 1021.2 599.316 1019.46 598.447L981.752 579.646C979.886 578.713 977.431 578.249 974.978 578.249Z" fill="#7EE92F"/>
<path opacity="0.4" d="M1024 594.444V583.295L1021.64 582.16C1020.97 585.642 1016.22 587.937 1012.26 588.414L985.239 602.057L973.447 605.735L935.813 588.962L936.682 588.528C933.466 587.231 931.734 584.263 929.993 581.555L927.46 582.86L925.954 583.226V594.564C925.954 596.009 927.058 597.455 929.265 598.556L966.97 617.357C971.385 619.557 978.569 619.557 982.984 617.357L1020.69 598.558C1022.86 597.475 1023.96 596.059 1024 594.637C1024 594.574 1023.99 594.51 1023.99 594.446L1024 594.444Z" fill="#BCFF8A"/>
<path d="M1024 584.533V577.155L1021.64 576.02C1020.97 579.502 1016.22 581.797 1012.26 582.272L985.239 595.916L973.447 599.593L935.813 582.821L936.682 582.388C933.466 581.09 931.734 578.122 929.993 575.415L927.46 576.72L925.954 577.085V584.651C925.954 586.096 927.058 587.542 929.265 588.643L966.97 607.443C971.385 609.644 978.569 609.644 982.984 607.443L1020.69 588.645C1022.86 587.561 1023.96 586.146 1024 584.723C1024 584.661 1023.99 584.597 1023.99 584.533H1024Z" fill="url(#paint4_linear_2006_2661)"/>
<path opacity="0.3" d="M1012.26 582.274L985.239 595.917L974.976 599.117V609.093C977.876 609.093 980.777 608.543 982.984 607.442L1020.69 588.643C1022.86 587.559 1023.96 586.144 1024 584.722C1024 584.659 1023.99 584.595 1023.99 584.531L1024 584.532V577.154L1021.84 576.117H1021.61C1020.88 579.544 1016.19 581.801 1012.26 582.274Z" fill="#7EE92F"/>
<path d="M966.973 599.947L929.267 581.148C924.853 578.947 924.853 575.365 929.267 573.164L966.971 554.365C971.385 552.164 978.568 552.164 982.984 554.365L1020.69 573.166C1025.1 575.366 1025.1 578.948 1020.69 581.149L982.986 599.948C978.571 602.147 971.387 602.147 966.973 599.947Z" fill="url(#paint5_linear_2006_2661)"/>
<g clip-path="url(#clip0_2006_2661)">
<path fill-rule="evenodd" clip-rule="evenodd" d="M966.666 567.289L984.143 578.173C984.362 578.309 984.491 578.548 984.527 578.857L985.068 584.161C985.164 585.144 984.1 586.041 983.371 585.587L965.893 574.704C965.674 574.568 965.545 574.328 965.51 574.02L964.968 568.716C964.872 567.733 965.937 566.836 966.666 567.289ZM969.04 562.177L974.038 560.323C974.313 560.207 974.603 560.229 974.822 560.365L992.281 571.237C993.01 571.691 992.675 573.042 991.75 573.39L986.769 575.255C986.495 575.371 986.205 575.349 985.986 575.213L968.508 564.33C967.779 563.876 968.115 562.525 969.04 562.177ZM980.993 590.665L975.994 592.519C975.701 592.624 975.43 592.614 975.211 592.477L957.751 581.606C957.022 581.152 957.358 579.8 958.282 579.453L963.281 577.599C963.555 577.483 963.846 577.505 964.064 577.641L981.524 588.513C982.253 588.967 981.917 590.318 980.993 590.665Z" fill="#CDFFA9"/>
</g>
<path d="M1020.69 581.148L982.986 599.947C978.571 602.148 971.387 602.148 966.972 599.947L929.267 581.148C927.294 580.163 926.206 578.904 925.996 577.615C925.737 579.21 926.825 580.85 929.267 582.066L966.972 600.867C971.387 603.068 978.571 603.068 982.986 600.867L1020.69 582.068C1023.13 580.85 1024.22 579.212 1023.96 577.617C1023.75 578.904 1022.66 580.163 1020.69 581.148Z" fill="white"/>
<g opacity="0.3">
<path d="M833.046 668.511V661.133L830.682 659.999C830.015 663.48 825.271 665.775 821.302 666.251L794.285 679.896L782.493 683.573L744.859 666.8L745.728 666.368C742.512 665.07 740.779 662.102 739.039 659.395L736.506 660.7L735 661.065V668.631C735 670.076 736.104 671.522 738.311 672.623L776.016 691.422C780.431 693.623 787.615 693.623 792.03 691.422L829.733 672.623C831.904 671.54 833.008 670.124 833.042 668.702C833.044 668.638 833.04 668.575 833.038 668.511H833.046Z" fill="url(#paint6_linear_2006_2661)"/>
<path opacity="0.3" d="M821.302 666.251L794.285 679.895L784.022 683.096V693.071C786.921 693.071 789.823 692.521 792.03 691.42L829.733 672.621C831.904 671.538 833.008 670.122 833.042 668.7C833.044 668.636 833.04 668.573 833.038 668.509L833.044 668.511V661.133L830.884 660.096H830.66C829.924 663.523 825.233 665.778 821.302 666.251Z" fill="#7EE92F"/>
<path d="M776.018 683.924L738.313 665.125C733.899 662.924 733.899 659.342 738.313 657.141L776.017 638.342C780.431 636.141 787.613 636.141 792.03 638.342L829.735 657.141C834.15 659.342 834.15 662.924 829.735 665.125L792.032 683.924C787.617 686.125 780.433 686.125 776.018 683.924Z" fill="url(#paint7_linear_2006_2661)"/>
<g opacity="0.3">
<path d="M776.018 683.924L738.313 665.125C733.899 662.924 733.899 659.342 738.313 657.141L776.017 638.342C780.431 636.141 787.613 636.141 792.03 638.342L829.735 657.141C834.15 659.342 834.15 662.924 829.735 665.125L792.032 683.924C787.617 686.125 780.433 686.125 776.018 683.924Z" fill="#7EE92F"/>
</g>
</g>
<path d="M784.024 660.162C781.451 660.162 778.877 659.673 776.918 658.697L739.213 639.898C737.253 638.92 736.176 637.605 736.176 636.187C736.176 634.773 737.255 633.456 739.213 632.48L776.914 613.68C780.833 611.729 787.209 611.726 791.128 613.68L828.833 632.48C830.791 633.456 831.87 634.775 831.87 636.189C831.87 637.603 830.793 638.921 828.833 639.898L791.13 658.697C789.17 659.673 786.597 660.162 784.024 660.162ZM784.024 612.779C781.569 612.779 779.116 613.243 777.246 614.177L739.542 632.977C737.798 633.846 736.837 634.987 736.837 636.189C736.837 637.391 737.798 638.535 739.544 639.404L777.247 658.203C780.985 660.068 787.062 660.068 790.8 658.203L828.503 639.404C830.248 638.535 831.208 637.392 831.208 636.191C831.208 634.989 830.248 633.846 828.503 632.977L790.798 614.177C788.932 613.243 786.477 612.779 784.024 612.779Z" fill="#7EE92F"/>
<path opacity="0.4" d="M833.046 628.974V617.824L830.682 616.69C830.015 620.172 825.271 622.467 821.302 622.944L794.285 636.587L782.493 640.265L744.859 623.492L745.728 623.058C742.512 621.76 740.779 618.792 739.039 616.084L736.506 617.39L735 617.755V629.094C735 630.539 736.104 631.985 738.311 633.086L776.016 651.886C780.431 654.087 787.615 654.087 792.03 651.886L829.733 633.087C831.904 632.004 833.008 630.589 833.042 629.166C833.044 629.104 833.04 629.04 833.038 628.975L833.046 628.974Z" fill="#BCFF8A"/>
<path d="M833.046 619.063V611.685L830.682 610.551C830.015 614.032 825.271 616.327 821.302 616.803L794.285 630.446L782.493 634.123L744.859 617.351L745.728 616.918C742.512 615.621 740.779 612.653 739.039 609.945L736.506 611.25L735 611.616V619.181C735 620.627 736.104 622.072 738.311 623.173L776.016 641.974C780.431 644.175 787.615 644.175 792.03 641.974L829.733 623.175C831.904 622.092 833.008 620.676 833.042 619.254C833.044 619.191 833.04 619.127 833.038 619.063H833.046Z" fill="url(#paint8_linear_2006_2661)"/>
<path opacity="0.3" d="M821.302 616.804L794.285 630.447L784.022 633.647V643.623C786.921 643.623 789.823 643.073 792.03 641.972L829.733 623.173C831.904 622.09 833.008 620.674 833.042 619.252C833.044 619.189 833.04 619.125 833.038 619.061L833.044 619.063V611.685L830.884 610.647H830.66C829.924 614.075 825.233 616.332 821.302 616.804Z" fill="#7EE92F"/>
<path d="M776.018 634.477L738.313 615.678C733.899 613.477 733.899 609.895 738.313 607.694L776.017 588.895C780.431 586.694 787.613 586.694 792.03 588.895L829.735 607.696C834.15 609.897 834.15 613.479 829.735 615.68L792.032 634.478C787.617 636.678 780.433 636.678 776.018 634.477Z" fill="url(#paint9_linear_2006_2661)"/>
<g clip-path="url(#clip1_2006_2661)">
<path d="M802.17 601.092L780.036 603.19L777.404 614.01L787.784 618.043L802.17 601.092ZM766.307 619.799L777.949 604.279L775.273 615.122L785.696 619.132L766.307 619.799Z" fill="#CDFFA9"/>
</g>
<path d="M829.735 615.678L792.032 634.477C787.617 636.678 780.433 636.678 776.018 634.477L738.313 615.678C736.34 614.694 735.252 613.434 735.042 612.146C734.783 613.741 735.871 615.38 738.313 616.597L776.018 635.397C780.433 637.598 787.617 637.598 792.032 635.397L829.735 616.598C832.177 615.38 833.265 613.742 833.006 612.147C832.796 613.434 831.708 614.694 829.735 615.678Z" fill="white"/>
<g opacity="0.3">
<path d="M509.046 399.931V392.553L506.682 391.419C506.015 394.901 501.271 397.195 497.302 397.671L470.285 411.316L458.493 414.993L420.859 398.221L421.728 397.788C418.512 396.491 416.779 393.523 415.039 390.815L412.506 392.12L411 392.486V400.051C411 401.497 412.104 402.942 414.311 404.043L452.016 422.842C456.431 425.043 463.615 425.043 468.03 422.842L505.733 404.043C507.904 402.96 509.008 401.544 509.042 400.122C509.044 400.058 509.04 399.995 509.038 399.931H509.046Z" fill="url(#paint10_linear_2006_2661)"/>
<path opacity="0.3" d="M497.302 397.671L470.285 411.316L460.022 414.516V424.492C462.921 424.492 465.823 423.942 468.03 422.841L505.733 404.042C507.904 402.958 509.008 401.543 509.042 400.121C509.044 400.056 509.04 399.994 509.038 399.93L509.044 399.931V392.553L506.884 391.516H506.66C505.924 394.943 501.233 397.199 497.302 397.671Z" fill="#7EE92F"/>
<path d="M452.018 415.344L414.313 396.545C409.899 394.344 409.899 390.762 414.313 388.561L452.017 369.762C456.431 367.562 463.613 367.562 468.03 369.762L505.735 388.561C510.15 390.762 510.15 394.344 505.735 396.545L468.032 415.344C463.617 417.545 456.433 417.545 452.018 415.344Z" fill="url(#paint11_linear_2006_2661)"/>
<g opacity="0.3">
<path d="M452.018 415.344L414.313 396.545C409.899 394.344 409.899 390.762 414.313 388.561L452.017 369.762C456.431 367.562 463.613 367.562 468.03 369.762L505.735 388.561C510.15 390.762 510.15 394.344 505.735 396.545L468.032 415.344C463.617 417.545 456.433 417.545 452.018 415.344Z" fill="#7EE92F"/>
</g>
</g>
<path d="M460.024 391.582C457.451 391.582 454.877 391.093 452.918 390.117L415.213 371.318C413.253 370.34 412.176 369.025 412.176 367.608C412.176 366.194 413.255 364.877 415.213 363.901L452.914 345.1C456.833 343.149 463.209 343.146 467.128 345.1L504.833 363.901C506.791 364.877 507.87 366.195 507.87 367.609C507.87 369.023 506.793 370.342 504.833 371.318L467.13 390.117C465.17 391.093 462.597 391.582 460.024 391.582ZM460.024 344.2C457.569 344.2 455.116 344.664 453.246 345.597L415.542 364.398C413.798 365.267 412.837 366.408 412.837 367.609C412.837 368.811 413.798 369.955 415.544 370.824L453.247 389.623C456.985 391.488 463.062 391.488 466.8 389.623L504.503 370.824C506.248 369.955 507.208 368.813 507.208 367.611C507.208 366.409 506.248 365.267 504.503 364.398L466.798 345.597C464.932 344.664 462.477 344.2 460.024 344.2Z" fill="#7EE92F"/>
<path opacity="0.4" d="M509.046 360.394V349.245L506.682 348.111C506.015 351.592 501.271 353.887 497.302 354.364L470.285 368.008L458.493 371.685L420.859 354.913L421.728 354.478C418.512 353.181 416.779 350.213 415.039 347.505L412.506 348.81L411 349.176V360.514C411 361.96 412.104 363.405 414.311 364.506L452.016 383.307C456.431 385.508 463.615 385.508 468.03 383.307L505.733 364.508C507.904 363.425 509.008 362.009 509.042 360.587C509.044 360.524 509.04 360.46 509.038 360.396L509.046 360.394Z" fill="#BCFF8A"/>
<path d="M509.046 350.483V343.105L506.682 341.971C506.015 345.453 501.271 347.747 497.302 348.223L470.285 361.866L458.493 365.544L420.859 348.771L421.728 348.338C418.512 347.041 416.779 344.073 415.039 341.365L412.506 342.671L411 343.036V350.602C411 352.047 412.104 353.492 414.311 354.594L452.016 373.394C456.431 375.595 463.615 375.595 468.03 373.394L505.733 354.595C507.904 353.512 509.008 352.096 509.042 350.674C509.044 350.612 509.04 350.547 509.038 350.483H509.046Z" fill="url(#paint12_linear_2006_2661)"/>
<path opacity="0.3" d="M497.302 348.224L470.285 361.868L460.022 365.068V375.043C462.921 375.043 465.823 374.493 468.03 373.392L505.733 354.593C507.904 353.51 509.008 352.094 509.042 350.672C509.044 350.61 509.04 350.545 509.038 350.481L509.044 350.483V343.105L506.884 342.068H506.66C505.924 345.495 501.233 347.752 497.302 348.224Z" fill="#7EE92F"/>
<path d="M452.018 365.897L414.313 347.098C409.899 344.897 409.899 341.315 414.313 339.115L452.017 320.316C456.431 318.115 463.613 318.115 468.03 320.316L505.735 339.116C510.15 341.317 510.15 344.899 505.735 347.1L468.032 365.899C463.617 368.098 456.433 368.098 452.018 365.897Z" fill="url(#paint13_linear_2006_2661)"/>
<path d="M505.735 347.099L468.032 365.897C463.617 368.098 456.433 368.098 452.018 365.897L414.313 347.099C412.34 346.114 411.252 344.855 411.042 343.566C410.783 345.161 411.871 346.801 414.313 348.017L452.018 366.818C456.433 369.019 463.617 369.019 468.032 366.818L505.735 348.019C508.177 346.801 509.265 345.163 509.006 343.568C508.796 344.855 507.708 346.114 505.735 347.099Z" fill="white"/>
<path d="M784.399 453.005C784.399 434.649 769.475 412.328 751.068 403.15C741.846 398.553 733.501 398.126 727.466 401.152L721.164 404.334L722.994 404.482C719.672 407.995 717.737 413.172 717.737 419.768C717.737 438.124 732.66 460.446 751.068 469.623C757.393 472.777 763.307 473.969 768.345 473.429L768.204 474.887L774.601 471.654C774.628 471.641 774.653 471.628 774.679 471.615L774.938 471.485L774.925 471.482C780.783 468.413 784.399 462.034 784.399 453.005Z" fill="#CDFFA9"/>
<path d="M768.246 474.872C781.262 468.382 781.261 447.338 768.245 427.868C755.228 408.399 734.125 397.877 721.109 404.367C708.093 410.857 708.094 431.901 721.11 451.37C734.127 470.84 755.23 481.362 768.246 474.872Z" fill="#7EE92F"/>
<path d="M706.528 373.673C718.868 358.728 721.721 333.071 712.904 316.368C708.485 308 701.978 303.469 695.03 302.907L695.032 302.906L687.76 302.339L689.151 303.378C684.085 304.572 679.03 307.818 674.594 313.187C662.254 328.133 659.4 353.789 668.218 370.493C671.249 376.233 675.263 380.167 679.727 382.254L678.631 383.372L686.014 383.947C686.044 383.948 686.075 383.952 686.105 383.953L686.404 383.976L686.395 383.966C693.227 384.406 700.458 381.025 706.528 373.673Z" fill="#CDFFA9"/>
<path d="M710.274 345.112C712.762 322.733 702.652 303.586 687.691 302.345C672.731 301.104 658.585 318.239 656.096 340.618C653.608 362.997 663.718 382.144 678.679 383.385C693.639 384.626 707.785 367.49 710.274 345.112Z" fill="#7EE92F"/>
<g opacity="0.1">
<path d="M717.735 494.512C717.735 476.156 702.812 453.834 684.404 444.657C675.182 440.059 666.837 439.633 660.802 442.658L654.501 445.84L656.331 445.988C653.008 449.501 651.073 454.678 651.073 461.274C651.073 479.631 665.997 501.952 684.404 511.129C690.731 514.283 696.643 515.475 701.681 514.935L701.54 516.394L707.937 513.161C707.964 513.148 707.991 513.134 708.015 513.121L708.275 512.991L708.259 512.988C714.121 509.919 717.735 503.539 717.735 494.512Z" fill="#9FFFF8"/>
<path d="M701.583 516.373C714.599 509.883 714.599 488.839 701.582 469.369C688.566 449.9 667.462 439.378 654.447 445.868C641.431 452.358 641.431 473.402 654.448 492.871C667.464 512.341 688.568 522.863 701.583 516.373Z" fill="#42E8E0"/>
</g>
<path opacity="0.4" d="M680.186 524.466C657.193 524.466 634.199 520.103 616.693 511.375C599.669 502.887 590.295 491.585 590.295 479.55C590.295 467.517 599.669 456.216 616.691 447.73C651.699 430.273 708.664 430.274 743.676 447.73C760.7 456.218 770.074 467.518 770.074 479.553C770.074 491.588 760.701 502.889 743.678 511.375C726.174 520.103 703.182 524.466 680.186 524.466ZM680.184 435.201C657.311 435.201 634.437 439.542 617.023 448.226C600.214 456.606 590.958 467.731 590.958 479.55C590.958 491.372 600.214 502.499 617.025 510.879C651.854 528.249 708.521 528.249 743.35 510.879C760.158 502.499 769.414 491.374 769.414 479.553C769.414 467.732 760.156 456.604 743.348 448.226C725.933 439.542 703.06 435.201 680.184 435.201Z" fill="#80E832"/>
<path opacity="0.2" d="M680.188 536.505C651.005 536.505 621.83 530.969 599.614 519.89C578.029 509.128 566.142 494.803 566.142 479.551C566.142 464.3 578.029 449.974 599.612 439.213C644.04 417.061 716.329 417.062 760.757 439.214C782.342 449.977 794.228 464.302 794.228 479.553C794.228 494.805 782.342 509.131 760.759 519.892C738.548 530.967 709.365 536.505 680.188 536.505ZM680.182 423.163C651.122 423.163 622.066 428.678 599.942 439.708C578.572 450.364 566.802 464.512 566.804 479.551C566.804 494.591 578.572 508.739 599.944 519.395C644.191 541.458 716.182 541.459 760.429 519.396C781.798 508.741 793.567 494.592 793.567 479.553C793.567 464.514 781.799 450.364 760.427 439.71C738.304 428.679 709.241 423.163 680.182 423.163Z" fill="#80E832"/>
<path d="M680.186 514.984C662.066 514.984 643.945 511.545 630.15 504.666C616.721 497.971 609.326 489.053 609.326 479.551C609.326 470.053 616.72 461.134 630.148 454.438C657.74 440.684 702.633 440.684 730.222 454.438C743.651 461.133 751.047 470.051 751.047 479.553C751.047 489.051 743.653 497.97 730.224 504.666C716.429 511.545 698.308 514.984 680.186 514.984ZM680.184 444.683C662.183 444.683 644.181 448.098 630.476 454.933C617.263 461.521 609.985 470.264 609.985 479.551C609.985 488.839 617.263 497.581 630.478 504.171C657.888 517.84 702.484 517.837 729.892 504.171C743.108 497.583 750.383 488.84 750.383 479.553C750.383 470.265 743.106 461.523 729.891 454.933C716.187 448.1 698.186 444.683 680.184 444.683Z" fill="#80E832"/>
<mask id="mask1_2006_2661" style="mask-type:luminance" maskUnits="userSpaceOnUse" x="627" y="376" width="106" height="122">
<path d="M732.374 487.236L711.424 497.664L627.996 456.066V376.07L732.374 428.113V487.236Z" fill="white"/>
</mask>
<g mask="url(#mask1_2006_2661)">
<path d="M717.735 494.512C717.735 476.156 702.812 453.834 684.404 444.657C675.182 440.06 666.837 439.633 660.802 442.659L654.501 445.841L656.331 445.989C653.008 449.502 651.073 454.679 651.073 461.275C651.073 479.631 665.997 501.953 684.404 511.13C690.731 514.284 696.643 515.476 701.681 514.936L701.54 516.394L707.937 513.161C707.964 513.148 707.991 513.135 708.015 513.122L708.275 512.992L708.259 512.988C714.121 509.92 717.735 503.54 717.735 494.512Z" fill="#CDFFA9"/>
<path d="M701.583 516.373C714.599 509.883 714.599 488.839 701.582 469.37C688.566 449.9 667.462 439.378 654.447 445.868C641.431 452.358 641.431 473.402 654.448 492.872C667.464 512.341 688.568 522.863 701.583 516.373Z" fill="#7EE92F"/>
</g>
<path opacity="0.4" d="M590.666 573.923L485.983 521.729C482.895 520.19 482.895 516.341 485.983 514.8L501.964 506.764C507.305 504.1 513.887 504.1 519.23 506.764L623.911 558.958C626.999 560.497 626.999 564.346 623.911 565.886L607.93 573.923C602.591 576.586 596.009 576.586 590.666 573.923Z" fill="#CDFFA9"/>
<path d="M538.263 520.575L521.508 512.221L524.84 510.558L541.595 518.912L538.263 520.575Z" fill="#CDFFA9"/>
<path d="M585.495 544.711L580.349 542.144L583.681 540.483L588.827 543.05L585.495 544.711Z" fill="#CDFFA9"/>
<path d="M547.967 525.54L542.821 522.975L546.153 521.312L551.299 523.879L547.967 525.54Z" fill="#CDFFA9"/>
<path d="M599.299 563.528C596.249 563.528 593.198 562.849 590.478 561.493L485.795 509.299C484.226 508.515 483.29 507.116 483.29 505.552C483.29 503.988 484.226 502.588 485.795 501.806L501.776 493.768C507.218 491.055 513.979 491.055 519.421 493.768L624.102 545.963C625.671 546.745 626.607 548.144 626.607 549.71C626.607 551.274 625.671 552.675 624.102 553.455L608.121 561.493C605.403 562.849 602.349 563.528 599.299 563.528ZM510.599 492.383C507.679 492.383 504.759 493.033 502.155 494.332L486.174 502.37C484.842 503.034 484.047 504.224 484.047 505.552C484.047 506.881 484.842 508.069 486.174 508.734L590.857 560.928C596.065 563.526 602.536 563.526 607.743 560.928L623.724 552.89C625.057 552.227 625.852 551.038 625.852 549.71C625.852 548.38 625.057 547.193 623.724 546.528L519.043 494.332C516.44 493.033 513.519 492.383 510.599 492.383Z" fill="#CDFFA9"/>
<g clip-path="url(#clip2_2006_2661)">
<path d="M478.17 333.092L456.036 335.19L453.404 346.011L463.784 350.044L478.17 333.092ZM442.307 351.799L453.949 336.279L451.273 347.122L461.696 351.133L442.307 351.799Z" fill="#CDFFA9"/>
</g>
<path d="M696.215 338.671C697.245 333.739 694.191 330.856 689.824 328.805L691.831 322.139L688.366 320.906L686.423 327.399C685.507 327.08 684.565 326.76 683.621 326.468L685.566 319.946L682.101 318.712L680.122 325.35C679.353 325.099 678.609 324.849 677.891 324.601L677.893 324.571L673.09 322.876L671.804 327.206C671.804 327.206 674.382 328.064 674.329 328.09C675.741 328.585 675.905 329.711 675.785 330.585L673.5 338.174C673.599 338.209 673.724 338.246 673.869 338.342C673.745 338.306 673.62 338.269 673.498 338.203L670.311 348.822C670.094 349.308 669.577 350.041 668.612 349.69C668.633 349.75 666.087 348.806 666.087 348.806L663.939 353.407L668.467 355.027C669.308 355.341 670.125 355.625 670.94 355.938L668.928 362.662L672.393 363.895L674.4 357.23C675.34 357.58 676.279 357.929 677.17 358.246L675.191 364.884L678.656 366.118L680.668 359.394C686.643 361.071 691.244 360.815 693.65 354.585C695.6 349.59 694.214 346.541 691.176 344.422C693.581 343.948 695.471 342.269 696.215 338.671ZM687.036 351.343C685.541 356.365 678.312 353.174 675.962 352.33L678.632 343.413C680.983 344.257 688.625 346.092 687.036 351.343ZM689.205 338.167C687.822 342.755 681.829 340.019 679.874 339.316L682.3 331.236C684.254 331.94 690.628 333.405 689.205 338.167Z" fill="#CDFFA9"/>
<defs>
<linearGradient id="paint0_linear_2006_2661" x1="416.378" y1="494.76" x2="969.708" y2="494.76" gradientUnits="userSpaceOnUse">
<stop stop-color="#7EE92F"/>
<stop offset="0.151" stop-color="#60C218"/>
<stop offset="0.3866" stop-color="#58AD1A"/>
<stop offset="0.6124" stop-color="#7EE92F"/>
<stop offset="0.8221" stop-color="#66CD1A"/>
<stop offset="1" stop-color="#429B00"/>
</linearGradient>
<radialGradient id="paint1_radial_2006_2661" cx="0" cy="0" r="1" gradientUnits="userSpaceOnUse" gradientTransform="translate(679.311 478.376) scale(433.094 374.02)">
<stop stop-color="#42E8E0"/>
<stop offset="0.1055" stop-color="#37B6BF"/>
<stop offset="0.2197" stop-color="#2C87A1"/>
<stop offset="0.338" stop-color="#235F87"/>
<stop offset="0.4587" stop-color="#1C3F72"/>
<stop offset="0.5824" stop-color="#162561"/>
<stop offset="0.7105" stop-color="#121355"/>
<stop offset="0.8458" stop-color="#10084E"/>
<stop offset="1" stop-color="#0F054C"/>
</radialGradient>
<linearGradient id="paint2_linear_2006_2661" x1="935.71" y1="611.942" x2="1007.39" y2="659.863" gradientUnits="userSpaceOnUse">
<stop stop-color="#9ADF66"/>
<stop offset="1" stop-color="#55A918"/>
</linearGradient>
<linearGradient id="paint3_linear_2006_2661" x1="925.956" y1="626.603" x2="1024" y2="626.603" gradientUnits="userSpaceOnUse">
<stop stop-color="#B2DC93"/>
<stop offset="1" stop-color="#6CFF00"/>
</linearGradient>
<linearGradient id="paint4_linear_2006_2661" x1="935.71" y1="562.495" x2="1007.39" y2="610.417" gradientUnits="userSpaceOnUse">
<stop stop-color="#7EE92F"/>
<stop offset="1" stop-color="#317301"/>
</linearGradient>
<linearGradient id="paint5_linear_2006_2661" x1="925.956" y1="577.155" x2="1024" y2="577.155" gradientUnits="userSpaceOnUse">
<stop stop-color="#9CF25D"/>
<stop offset="1" stop-color="#7EE92F"/>
</linearGradient>
<linearGradient id="paint6_linear_2006_2661" x1="744.756" y1="646.472" x2="816.437" y2="694.394" gradientUnits="userSpaceOnUse">
<stop stop-color="#9ADF66"/>
<stop offset="1" stop-color="#55A918"/>
</linearGradient>
<linearGradient id="paint7_linear_2006_2661" x1="735.002" y1="661.133" x2="833.046" y2="661.133" gradientUnits="userSpaceOnUse">
<stop stop-color="#B2DC93"/>
<stop offset="1" stop-color="#6CFF00"/>
</linearGradient>
<linearGradient id="paint8_linear_2006_2661" x1="744.756" y1="597.025" x2="816.437" y2="644.947" gradientUnits="userSpaceOnUse">
<stop stop-color="#7EE92F"/>
<stop offset="1" stop-color="#317301"/>
</linearGradient>
<linearGradient id="paint9_linear_2006_2661" x1="735.002" y1="611.686" x2="833.046" y2="611.686" gradientUnits="userSpaceOnUse">
<stop stop-color="#9CF25D"/>
<stop offset="1" stop-color="#7EE92F"/>
</linearGradient>
<linearGradient id="paint10_linear_2006_2661" x1="420.756" y1="377.892" x2="492.437" y2="425.814" gradientUnits="userSpaceOnUse">
<stop stop-color="#9ADF66"/>
<stop offset="1" stop-color="#55A918"/>
</linearGradient>
<linearGradient id="paint11_linear_2006_2661" x1="411.002" y1="392.553" x2="509.046" y2="392.553" gradientUnits="userSpaceOnUse">
<stop stop-color="#B2DC93"/>
<stop offset="1" stop-color="#6CFF00"/>
</linearGradient>
<linearGradient id="paint12_linear_2006_2661" x1="420.756" y1="328.446" x2="492.437" y2="376.367" gradientUnits="userSpaceOnUse">
<stop stop-color="#7EE92F"/>
<stop offset="1" stop-color="#317301"/>
</linearGradient>
<linearGradient id="paint13_linear_2006_2661" x1="411.002" y1="343.106" x2="509.046" y2="343.106" gradientUnits="userSpaceOnUse">
<stop stop-color="#9CF25D"/>
<stop offset="1" stop-color="#7EE92F"/>
</linearGradient>
<clipPath id="clip0_2006_2661">
<rect width="34.3513" height="43.2426" fill="white" transform="translate(971.858 549) rotate(31.9098)"/>
</clipPath>
<clipPath id="clip1_2006_2661">
<rect width="27.2769" height="40.4484" fill="white" transform="translate(795.863 589) rotate(62.4522)"/>
</clipPath>
<clipPath id="clip2_2006_2661">
<rect width="27.2769" height="40.4484" fill="white" transform="translate(471.863 321) rotate(62.4522)"/>
</clipPath>
</defs>
</svg>
