<svg width="613" height="394" viewBox="0 0 613 394" fill="none" xmlns="http://www.w3.org/2000/svg">
<path d="M199.349 356.542C194.323 356.542 189.523 355.668 185.942 353.882L10.4573 266.386C6.93855 264.633 5 262.19 5 259.511C5 256.296 7.78488 253.063 12.6436 250.641L347.325 83.7689C356.423 79.2321 370.25 78.7416 378.145 82.6791L553.629 170.175C557.148 171.929 559.087 174.371 559.087 177.051C559.087 180.265 556.302 183.498 551.445 185.92L216.762 352.791C211.791 355.27 205.405 356.542 199.349 356.542ZM186.319 353.316C194.008 357.148 207.494 356.662 216.385 352.226L551.067 185.354C555.684 183.054 558.332 180.027 558.332 177.051C558.332 174.616 556.529 172.374 553.254 170.741L377.769 83.2454C370.082 79.4165 356.596 79.9021 347.704 84.3351L13.021 251.206C8.40437 253.507 5.75676 256.533 5.75485 259.509C5.75485 261.945 7.55804 264.186 10.8347 265.819L186.319 353.316Z" fill="#497D22"/>
<path d="M558.709 136.635L533.502 140.383L377.958 62.8285C370.154 58.9371 356.525 59.426 347.515 63.9183L49.9424 212.288L5.38272 218.914L5.37891 232.557L5.39988 232.554C5.37891 235.041 7.09063 237.42 10.6475 239.193L186.13 326.688C193.934 330.58 207.563 330.091 216.573 325.598L551.254 158.726C556.105 156.308 558.604 153.223 558.682 150.281L558.707 150.278V136.635H558.709Z" fill="url(#paint0_linear_2005_2658)"/>
<path d="M186.13 312.954L10.6473 225.459C2.84359 221.567 3.82332 214.772 12.8336 210.28L347.513 43.4075C356.523 38.9152 370.154 38.4263 377.955 42.3178L553.44 129.813C561.244 133.705 560.264 140.5 551.254 144.992L216.573 311.865C207.562 316.357 193.934 316.844 186.13 312.954Z" fill="#168306"/>
<path d="M551.254 144.992L216.573 311.865C207.563 316.357 193.932 316.846 186.13 312.955L10.6477 225.459C7.51779 223.898 5.82512 221.869 5.47248 219.711C4.98832 222.512 6.67337 225.248 10.6477 227.23L186.13 314.726C193.934 318.617 207.563 318.128 216.573 313.636L551.254 146.764C556.65 144.072 559.142 140.558 558.615 137.333C558.15 140.029 555.676 142.788 551.254 144.992Z" fill="white"/>
<path opacity="0.51" d="M186.475 309.563L17.2467 225.163C9.69652 221.398 10.642 214.822 19.3625 210.474L347.835 46.7411C356.554 42.3937 369.742 41.9212 377.295 45.6859L546.523 130.087C554.073 133.851 553.128 140.428 544.407 144.775L215.935 308.508C207.216 312.856 194.027 313.328 186.475 309.563Z" fill="#061414"/>
<g opacity="0.1">
<path opacity="0.5" d="M186.475 305.795L17.2465 221.394C9.69628 217.629 10.6417 211.053 19.3623 206.706L347.835 42.9726C356.554 38.6251 369.742 38.1527 377.294 41.9174L546.523 126.318C554.073 130.083 553.128 136.659 544.407 141.007L215.934 304.74C207.216 309.087 194.027 309.56 186.475 305.795Z" fill="url(#paint1_radial_2005_2658)"/>
<mask id="mask0_2005_2658" style="mask-type:luminance" maskUnits="userSpaceOnUse" x="12" y="39" width="540" height="270">
<path d="M186.475 305.795L17.2465 221.394C9.69628 217.629 10.6417 211.053 19.3623 206.706L347.835 42.9726C356.554 38.6251 369.742 38.1527 377.294 41.9174L546.523 126.318C554.073 130.083 553.128 136.659 544.407 141.007L215.934 304.74C207.216 309.087 194.027 309.56 186.475 305.795Z" fill="white"/>
</mask>
<g mask="url(#mask0_2005_2658)">
<path d="M373.398 274.103C373.398 255.747 358.475 233.426 340.067 224.248C330.846 219.651 322.5 219.224 316.466 222.25L310.164 225.432L311.994 225.58C308.672 229.093 306.737 234.27 306.737 240.866C306.737 259.222 321.66 281.544 340.067 290.721C346.392 293.875 352.307 295.067 357.345 294.527L357.204 295.986L363.601 292.753C363.627 292.739 363.652 292.726 363.679 292.713L363.938 292.583L363.925 292.58C369.782 289.511 373.398 283.131 373.398 274.103Z" fill="#6CFF00"/>
<path d="M357.242 295.971C370.258 289.481 370.257 268.437 357.241 248.967C344.224 229.498 323.121 218.976 310.105 225.466C297.09 231.956 297.09 253 310.106 272.469C323.123 291.939 344.226 302.461 357.242 295.971Z" fill="#87BC5F"/>
</g>
</g>
<path opacity="0.4" d="M510.381 140.329C507.799 141.616 503.611 141.616 501.028 140.329C498.445 139.041 498.445 136.952 501.028 135.665C503.611 134.378 507.799 134.378 510.381 135.665C512.964 136.952 512.964 139.041 510.381 140.329Z" fill="#168306"/>
<path opacity="0.4" d="M474.675 117.862L492.986 126.991C495.223 128.108 494.941 130.055 492.359 131.344C489.776 132.631 485.868 132.771 483.63 131.657L465.318 122.527C463.08 121.411 463.362 119.464 465.945 118.176C468.53 116.887 472.437 116.748 474.675 117.862Z" fill="#168306"/>
<path opacity="0.4" d="M370.219 63.1018L388.532 72.2313C390.769 73.3457 390.487 75.2947 387.904 76.582C385.322 77.8693 381.414 78.0092 379.176 76.8948L360.866 67.7653C358.628 66.6492 358.91 64.7018 361.493 63.4129C364.074 62.1256 367.982 61.9857 370.219 63.1018Z" fill="#168306"/>
<path d="M510.381 134.661C507.799 135.948 503.611 135.948 501.028 134.661C498.445 133.374 498.445 131.285 501.028 129.998C503.611 128.71 507.799 128.71 510.381 129.998C512.964 131.285 512.964 133.372 510.381 134.661Z" fill="#CDFFA9"/>
<path d="M474.675 112.193L492.986 121.322C495.223 122.439 494.941 124.386 492.359 125.675C489.776 126.962 485.868 127.102 483.63 125.988L465.318 116.858C463.08 115.742 463.362 113.795 465.945 112.507C468.53 111.219 472.437 111.079 474.675 112.193Z" fill="#CDFFA9"/>
<path d="M370.219 57.4327L388.532 66.5622C390.769 67.6782 390.487 69.6256 387.904 70.9145C385.322 72.2018 381.414 72.3417 379.176 71.2273L360.866 62.0978C358.628 60.9817 358.91 59.0344 361.493 57.7454C364.074 56.4565 367.982 56.3166 370.219 57.4327Z" fill="#CDFFA9"/>
<g opacity="0.3">
<path d="M613 333.981V326.603L610.636 325.468C609.969 328.95 605.225 331.245 601.256 331.72L574.239 345.365L562.447 349.043L524.813 332.27L525.682 331.837C522.466 330.54 520.734 327.572 518.993 324.864L516.46 326.17L514.954 326.535V334.101C514.954 335.546 516.058 336.991 518.265 338.093L555.97 356.892C560.385 359.092 567.569 359.092 571.984 356.892L609.687 338.093C611.858 337.009 612.962 335.594 612.996 334.172C612.998 334.107 612.994 334.045 612.992 333.981H613Z" fill="url(#paint2_linear_2005_2658)"/>
<path opacity="0.3" d="M601.256 331.72L574.239 345.365L563.976 348.565V358.541C566.876 358.541 569.777 357.991 571.984 356.89L609.687 338.091C611.858 337.008 612.962 335.592 612.996 334.17C612.998 334.106 612.994 334.043 612.992 333.979L612.998 333.98V326.603L610.839 325.565H610.614C609.878 328.993 605.187 331.248 601.256 331.72Z" fill="#7EE92F"/>
<path d="M555.973 349.393L518.267 330.594C513.853 328.394 513.853 324.812 518.267 322.611L555.971 303.812C560.385 301.611 567.568 301.611 571.984 303.812L609.689 322.611C614.104 324.812 614.104 328.394 609.689 330.594L571.986 349.393C567.571 351.594 560.387 351.594 555.973 349.393Z" fill="url(#paint3_linear_2005_2658)"/>
<g opacity="0.3">
<path d="M555.973 349.393L518.267 330.594C513.853 328.394 513.853 324.812 518.267 322.611L555.971 303.812C560.385 301.611 567.568 301.611 571.984 303.812L609.689 322.611C614.104 324.812 614.104 328.394 609.689 330.594L571.986 349.393C567.571 351.594 560.387 351.594 555.973 349.393Z" fill="#7EE92F"/>
</g>
</g>
<path d="M563.978 325.631C561.405 325.631 558.831 325.142 556.872 324.166L519.167 305.367C517.207 304.39 516.13 303.074 516.13 301.657C516.13 300.243 517.209 298.926 519.167 297.95L556.868 279.149C560.787 277.199 567.163 277.195 571.082 279.149L608.787 297.95C610.745 298.926 611.824 300.245 611.824 301.659C611.824 303.073 610.747 304.391 608.787 305.367L571.084 324.166C569.125 325.142 566.551 325.631 563.978 325.631ZM563.978 278.249C561.523 278.249 559.07 278.713 557.2 279.646L519.496 298.447C517.752 299.316 516.792 300.457 516.792 301.659C516.792 302.86 517.752 304.004 519.498 304.873L557.202 323.672C560.94 325.537 567.016 325.537 570.754 323.672L608.458 304.873C610.202 304.004 611.162 302.862 611.162 301.66C611.162 300.459 610.202 299.316 608.458 298.447L570.752 279.646C568.886 278.713 566.431 278.249 563.978 278.249Z" fill="#7EE92F"/>
<path opacity="0.4" d="M613 294.444V283.295L610.636 282.16C609.969 285.642 605.225 287.937 601.256 288.414L574.239 302.057L562.447 305.735L524.813 288.962L525.682 288.528C522.466 287.231 520.734 284.263 518.993 281.555L516.46 282.86L514.954 283.226V294.564C514.954 296.009 516.058 297.455 518.265 298.556L555.97 317.357C560.385 319.557 567.569 319.557 571.984 317.357L609.687 298.558C611.858 297.475 612.962 296.059 612.996 294.637C612.998 294.574 612.994 294.51 612.992 294.446L613 294.444Z" fill="#BCFF8A"/>
<path d="M613 284.533V277.155L610.636 276.02C609.969 279.502 605.225 281.797 601.256 282.272L574.239 295.916L562.447 299.593L524.813 282.821L525.682 282.388C522.466 281.09 520.734 278.122 518.993 275.415L516.46 276.72L514.954 277.085V284.651C514.954 286.096 516.058 287.542 518.265 288.643L555.97 307.443C560.385 309.644 567.569 309.644 571.984 307.443L609.687 288.645C611.858 287.561 612.962 286.146 612.996 284.723C612.998 284.661 612.994 284.597 612.992 284.533H613Z" fill="url(#paint4_linear_2005_2658)"/>
<path opacity="0.3" d="M601.256 282.274L574.239 295.917L563.976 299.117V309.093C566.876 309.093 569.777 308.543 571.984 307.442L609.687 288.643C611.858 287.559 612.962 286.144 612.996 284.722C612.998 284.659 612.994 284.595 612.992 284.531L612.998 284.532V277.154L610.839 276.117H610.614C609.878 279.544 605.187 281.801 601.256 282.274Z" fill="#7EE92F"/>
<path d="M555.973 299.947L518.267 281.148C513.853 278.947 513.853 275.365 518.267 273.164L555.971 254.365C560.385 252.164 567.568 252.164 571.984 254.365L609.689 273.166C614.104 275.366 614.104 278.948 609.689 281.149L571.986 299.948C567.571 302.147 560.387 302.147 555.973 299.947Z" fill="url(#paint5_linear_2005_2658)"/>
<g clip-path="url(#clip0_2005_2658)">
<path fill-rule="evenodd" clip-rule="evenodd" d="M555.666 267.289L573.143 278.173C573.362 278.309 573.491 278.548 573.527 278.857L574.068 284.161C574.164 285.144 573.1 286.041 572.371 285.587L554.893 274.704C554.674 274.568 554.545 274.328 554.51 274.02L553.968 268.716C553.872 267.733 554.937 266.836 555.666 267.289ZM558.04 262.177L563.038 260.323C563.313 260.207 563.603 260.229 563.822 260.365L581.281 271.237C582.01 271.691 581.675 273.042 580.75 273.39L575.769 275.255C575.495 275.371 575.205 275.349 574.986 275.213L557.508 264.33C556.779 263.876 557.115 262.525 558.04 262.177ZM569.993 290.665L564.994 292.519C564.701 292.624 564.43 292.614 564.211 292.477L546.751 281.606C546.022 281.152 546.358 279.8 547.282 279.453L552.281 277.599C552.555 277.483 552.846 277.505 553.064 277.641L570.524 288.513C571.253 288.967 570.917 290.318 569.993 290.665Z" fill="#CDFFA9"/>
</g>
<path d="M609.689 281.148L571.986 299.947C567.571 302.148 560.387 302.148 555.972 299.947L518.267 281.148C516.294 280.163 515.206 278.904 514.996 277.615C514.737 279.21 515.825 280.85 518.267 282.066L555.972 300.867C560.387 303.068 567.571 303.068 571.986 300.867L609.689 282.068C612.131 280.85 613.219 279.212 612.96 277.617C612.75 278.904 611.662 280.163 609.689 281.148Z" fill="white"/>
<g opacity="0.3">
<path d="M422.046 368.511V361.133L419.682 359.999C419.015 363.48 414.271 365.775 410.302 366.251L383.285 379.896L371.493 383.573L333.859 366.8L334.728 366.368C331.512 365.07 329.779 362.102 328.039 359.395L325.506 360.7L324 361.065V368.631C324 370.076 325.104 371.522 327.311 372.623L365.016 391.422C369.431 393.623 376.615 393.623 381.03 391.422L418.733 372.623C420.904 371.54 422.008 370.124 422.042 368.702C422.044 368.638 422.04 368.575 422.038 368.511H422.046Z" fill="url(#paint6_linear_2005_2658)"/>
<path opacity="0.3" d="M410.302 366.251L383.285 379.895L373.022 383.096V393.071C375.921 393.071 378.823 392.521 381.03 391.42L418.733 372.621C420.904 371.538 422.008 370.122 422.042 368.7C422.044 368.636 422.04 368.573 422.038 368.509L422.044 368.511V361.133L419.884 360.096H419.66C418.924 363.523 414.233 365.778 410.302 366.251Z" fill="#7EE92F"/>
<path d="M365.018 383.924L327.313 365.125C322.899 362.924 322.899 359.342 327.313 357.141L365.017 338.342C369.431 336.141 376.613 336.141 381.03 338.342L418.735 357.141C423.15 359.342 423.15 362.924 418.735 365.125L381.032 383.924C376.617 386.125 369.433 386.125 365.018 383.924Z" fill="url(#paint7_linear_2005_2658)"/>
<g opacity="0.3">
<path d="M365.018 383.924L327.313 365.125C322.899 362.924 322.899 359.342 327.313 357.141L365.017 338.342C369.431 336.141 376.613 336.141 381.03 338.342L418.735 357.141C423.15 359.342 423.15 362.924 418.735 365.125L381.032 383.924C376.617 386.125 369.433 386.125 365.018 383.924Z" fill="#7EE92F"/>
</g>
</g>
<path d="M373.024 360.162C370.451 360.162 367.877 359.673 365.918 358.697L328.213 339.898C326.253 338.92 325.176 337.605 325.176 336.187C325.176 334.773 326.255 333.456 328.213 332.48L365.914 313.68C369.833 311.729 376.209 311.726 380.128 313.68L417.833 332.48C419.791 333.456 420.87 334.775 420.87 336.189C420.87 337.603 419.793 338.921 417.833 339.898L380.13 358.697C378.17 359.673 375.597 360.162 373.024 360.162ZM373.024 312.779C370.569 312.779 368.116 313.243 366.246 314.177L328.542 332.977C326.798 333.846 325.837 334.987 325.837 336.189C325.837 337.391 326.798 338.535 328.544 339.404L366.247 358.203C369.985 360.068 376.062 360.068 379.8 358.203L417.503 339.404C419.248 338.535 420.208 337.392 420.208 336.191C420.208 334.989 419.248 333.846 417.503 332.977L379.798 314.177C377.932 313.243 375.477 312.779 373.024 312.779Z" fill="#7EE92F"/>
<path opacity="0.4" d="M422.046 328.974V317.824L419.682 316.69C419.015 320.172 414.271 322.467 410.302 322.944L383.285 336.587L371.493 340.265L333.859 323.492L334.728 323.058C331.512 321.76 329.779 318.792 328.039 316.084L325.506 317.39L324 317.755V329.094C324 330.539 325.104 331.985 327.311 333.086L365.016 351.886C369.431 354.087 376.615 354.087 381.03 351.886L418.733 333.087C420.904 332.004 422.008 330.589 422.042 329.166C422.044 329.104 422.04 329.04 422.038 328.975L422.046 328.974Z" fill="#BCFF8A"/>
<path d="M422.046 319.063V311.685L419.682 310.551C419.015 314.032 414.271 316.327 410.302 316.803L383.285 330.446L371.493 334.123L333.859 317.351L334.728 316.918C331.512 315.621 329.779 312.653 328.039 309.945L325.506 311.25L324 311.616V319.181C324 320.627 325.104 322.072 327.311 323.173L365.016 341.974C369.431 344.175 376.615 344.175 381.03 341.974L418.733 323.175C420.904 322.092 422.008 320.676 422.042 319.254C422.044 319.191 422.04 319.127 422.038 319.063H422.046Z" fill="url(#paint8_linear_2005_2658)"/>
<path opacity="0.3" d="M410.302 316.804L383.285 330.447L373.022 333.647V343.623C375.921 343.623 378.823 343.073 381.03 341.972L418.733 323.173C420.904 322.09 422.008 320.674 422.042 319.252C422.044 319.189 422.04 319.125 422.038 319.061L422.044 319.063V311.685L419.884 310.647H419.66C418.924 314.075 414.233 316.332 410.302 316.804Z" fill="#7EE92F"/>
<path d="M365.018 334.477L327.313 315.678C322.899 313.477 322.899 309.895 327.313 307.694L365.017 288.895C369.431 286.694 376.613 286.694 381.03 288.895L418.735 307.696C423.15 309.897 423.15 313.479 418.735 315.68L381.032 334.478C376.617 336.678 369.433 336.678 365.018 334.477Z" fill="url(#paint9_linear_2005_2658)"/>
<g clip-path="url(#clip1_2005_2658)">
<path d="M391.17 301.092L369.036 303.19L366.404 314.01L376.784 318.043L391.17 301.092ZM355.307 319.799L366.949 304.279L364.273 315.122L374.696 319.132L355.307 319.799Z" fill="#CDFFA9"/>
</g>
<path d="M418.735 315.678L381.032 334.477C376.617 336.678 369.433 336.678 365.018 334.477L327.313 315.678C325.34 314.694 324.252 313.434 324.042 312.146C323.783 313.741 324.871 315.38 327.313 316.597L365.018 335.397C369.433 337.598 376.617 337.598 381.032 335.397L418.735 316.598C421.177 315.38 422.265 313.742 422.006 312.147C421.796 313.434 420.708 314.694 418.735 315.678Z" fill="white"/>
<g opacity="0.3">
<path d="M98.0458 99.9312V92.5533L95.6823 91.4191C95.0151 94.9007 90.2707 97.1954 86.3021 97.6711L59.2846 111.316L47.4933 114.993L9.85852 98.2209L10.7277 97.788C7.51206 96.4908 5.77943 93.5228 4.03913 90.8149L1.5058 92.1203L0 92.4858V100.051C0 101.497 1.10365 102.942 3.31095 104.043L41.0162 122.842C45.4308 125.043 52.615 125.043 57.0296 122.842L94.7329 104.043C96.904 102.96 98.0077 101.544 98.042 100.122C98.0439 100.058 98.0401 99.9954 98.0382 99.9312H98.0458Z" fill="url(#paint10_linear_2005_2658)"/>
<path opacity="0.3" d="M86.3024 97.671L59.2848 111.316L49.0222 114.516V124.492C51.9214 124.492 54.8226 123.942 57.0299 122.841L94.7331 104.042C96.9042 102.958 98.0079 101.543 98.0422 100.121C98.0441 100.056 98.0403 99.9938 98.0384 99.9296L98.0441 99.9312V92.5532L95.8844 91.5161H95.6596C94.9238 94.9434 90.2328 97.1986 86.3024 97.671Z" fill="#7EE92F"/>
<path d="M41.0184 115.344L3.31315 96.5452C-1.10145 94.3443 -1.10145 90.7623 3.31315 88.5614L41.0165 69.7625C45.4311 67.5616 52.6135 67.5616 57.03 69.7625L94.7352 88.5614C99.1498 90.7623 99.1498 94.3443 94.7352 96.5452L57.0318 115.344C52.6172 117.545 45.433 117.545 41.0184 115.344Z" fill="url(#paint11_linear_2005_2658)"/>
<g opacity="0.3">
<path d="M41.0184 115.344L3.31315 96.5452C-1.10145 94.3443 -1.10145 90.7623 3.31315 88.5614L41.0165 69.7625C45.4311 67.5616 52.6135 67.5616 57.03 69.7625L94.7352 88.5614C99.1498 90.7623 99.1498 94.3443 94.7352 96.5452L57.0318 115.344C52.6172 117.545 45.433 117.545 41.0184 115.344Z" fill="#7EE92F"/>
</g>
</g>
<path d="M49.0238 91.582C46.4505 91.582 43.8773 91.0931 41.9178 90.1169L4.21253 71.318C2.25302 70.3402 1.17603 69.025 1.17603 67.6076C1.17603 66.1936 2.25493 64.8767 4.21253 63.9005L41.9139 45.1C45.833 43.1493 52.2089 43.146 56.1279 45.1L93.8332 63.9005C95.7908 64.8767 96.8697 66.1952 96.8697 67.6093C96.8697 69.0233 95.7927 70.3419 93.8332 71.318L56.1299 90.1169C54.1704 91.0931 51.5971 91.582 49.0238 91.582ZM49.0238 44.1995C46.5687 44.1995 44.1155 44.6638 42.2456 45.5971L4.54224 64.3977C2.79813 65.2668 1.83743 66.4076 1.83743 67.6093C1.83743 68.8109 2.79808 69.955 4.5441 70.8242L42.2475 89.6231C45.9854 91.4881 52.0621 91.4881 55.8001 89.6231L93.5035 70.8242C95.2476 69.955 96.2083 68.8126 96.2083 67.6109C96.2083 66.4092 95.2476 65.2668 93.5035 64.3977L55.7982 45.5971C53.9321 44.6638 51.477 44.1995 49.0238 44.1995Z" fill="#7EE92F"/>
<path opacity="0.4" d="M98.0458 60.3941V49.2449L95.6823 48.1107C95.0151 51.5922 90.2707 53.887 86.3021 54.3644L59.2846 68.0075L47.4933 71.685L9.85852 54.9125L10.7277 54.4779C7.51206 53.1808 5.77943 50.2128 4.03913 47.5049L1.5058 48.8103L0 49.1757V60.5143C0 61.9596 1.10365 63.4049 3.31095 64.5062L41.0162 83.3067C45.4308 85.5076 52.615 85.5076 57.0296 83.3067L94.7329 64.5079C96.904 63.4247 98.0077 62.009 98.042 60.5868C98.0439 60.5242 98.0401 60.46 98.0382 60.3958L98.0458 60.3941Z" fill="#BCFF8A"/>
<path d="M98.0458 50.4832V43.1052L95.6823 41.971C95.0151 45.4526 90.2707 47.7473 86.3021 48.223L59.2846 61.8662L47.4933 65.5437L9.85852 48.7712L10.7277 48.3383C7.51206 47.0411 5.77943 44.0731 4.03913 41.3652L1.5058 42.6706L0 43.0361V50.6017C0 52.047 1.10365 53.4923 3.31095 54.5936L41.0162 73.3941C45.4308 75.595 52.615 75.595 57.0296 73.3941L94.7329 54.5952C96.904 53.5121 98.0077 52.0964 98.042 50.6741C98.0439 50.6116 98.0401 50.5474 98.0382 50.4832H98.0458Z" fill="url(#paint12_linear_2005_2658)"/>
<path opacity="0.3" d="M86.3024 48.2244L59.2848 61.8676L49.0222 65.0677V75.0433C51.9214 75.0433 54.8226 74.4935 57.0299 73.3922L94.7331 54.5933C96.9042 53.5102 98.0079 52.0945 98.0422 50.6722C98.0441 50.6097 98.0403 50.5455 98.0384 50.4813L98.0441 50.4829V43.1049L95.8844 42.0679H95.6596C94.9238 45.4951 90.2328 47.752 86.3024 48.2244Z" fill="#7EE92F"/>
<path d="M41.0184 65.8973L3.31315 47.0984C-1.10145 44.8975 -1.10145 41.3155 3.31315 39.1146L41.0165 20.3157C45.4311 18.1148 52.6135 18.1148 57.03 20.3157L94.7352 39.1163C99.1498 41.3171 99.1498 44.8991 94.7352 47.1L57.0318 65.8989C52.6172 68.0981 45.433 68.0981 41.0184 65.8973Z" fill="url(#paint13_linear_2005_2658)"/>
<path d="M94.735 47.0985L57.0316 65.8974C52.617 68.0983 45.4328 68.0983 41.0182 65.8974L3.31297 47.0985C1.34012 46.1141 0.251708 44.8548 0.0420335 43.5659C-0.217201 45.161 0.871208 46.8006 3.31297 48.0171L41.0182 66.8176C45.4328 69.0185 52.617 69.0185 57.0316 66.8176L94.735 48.0187C97.1768 46.8006 98.2652 45.1627 98.006 43.5676C97.7963 44.8548 96.7079 46.1141 94.735 47.0985Z" fill="white"/>
<path d="M373.399 153.005C373.399 134.649 358.475 112.328 340.068 103.15C330.846 98.5527 322.501 98.1263 316.466 101.152L310.164 104.334L311.994 104.482C308.672 107.995 306.737 113.172 306.737 119.768C306.737 138.124 321.66 160.446 340.068 169.623C346.393 172.777 352.307 173.969 357.345 173.429L357.204 174.887L363.601 171.654C363.628 171.641 363.653 171.628 363.679 171.615L363.938 171.485L363.925 171.482C369.783 168.413 373.399 162.034 373.399 153.005Z" fill="#CDFFA9"/>
<path d="M357.246 174.872C370.262 168.382 370.261 147.338 357.245 127.868C344.228 108.399 323.125 97.8768 310.109 104.367C297.093 110.857 297.094 131.901 310.11 151.37C323.127 170.84 344.23 181.362 357.246 174.872Z" fill="#7EE92F"/>
<path d="M295.528 73.6731C307.868 58.7278 310.721 33.0711 301.904 16.3678C297.485 8.00043 290.978 3.46861 284.03 2.90728L284.032 2.90563L276.76 2.33936L278.151 3.37806C273.085 4.57151 268.03 7.8177 263.594 13.1874C251.254 28.1327 248.4 53.7894 257.218 70.4928C260.249 76.2329 264.263 80.1671 268.727 82.2544L267.631 83.3722L275.014 83.9467C275.044 83.9483 275.075 83.9516 275.105 83.9532L275.404 83.9763L275.395 83.9664C282.227 84.4059 289.458 81.0248 295.528 73.6731Z" fill="#CDFFA9"/>
<path d="M299.274 45.1116C301.762 22.733 291.652 3.58563 276.691 2.34476C261.731 1.1039 247.585 18.2395 245.096 40.6181C242.608 62.9967 252.718 82.1441 267.679 83.385C282.639 84.6258 296.785 67.4903 299.274 45.1116Z" fill="#7EE92F"/>
<g opacity="0.1">
<path d="M306.735 194.512C306.735 176.156 291.812 153.834 273.404 144.657C264.182 140.059 255.837 139.633 249.802 142.658L243.501 145.84L245.331 145.988C242.008 149.501 240.073 154.678 240.073 161.274C240.073 179.631 254.997 201.952 273.404 211.129C279.731 214.283 285.643 215.475 290.681 214.935L290.54 216.394L296.937 213.161C296.964 213.148 296.991 213.134 297.015 213.121L297.275 212.991L297.259 212.988C303.121 209.919 306.735 203.539 306.735 194.512Z" fill="#9FFFF8"/>
<path d="M290.583 216.373C303.599 209.883 303.599 188.839 290.582 169.369C277.566 149.9 256.462 139.378 243.447 145.868C230.431 152.358 230.431 173.402 243.448 192.871C256.464 212.341 277.568 222.863 290.583 216.373Z" fill="#42E8E0"/>
</g>
<path opacity="0.4" d="M269.186 224.466C246.193 224.466 223.199 220.103 205.693 211.375C188.669 202.887 179.295 191.585 179.295 179.55C179.295 167.517 188.669 156.216 205.691 147.73C240.699 130.273 297.664 130.274 332.676 147.73C349.7 156.218 359.074 167.518 359.074 179.553C359.074 191.588 349.701 202.889 332.678 211.375C315.174 220.103 292.182 224.466 269.186 224.466ZM269.184 135.201C246.311 135.201 223.437 139.542 206.023 148.226C189.214 156.606 179.958 167.731 179.958 179.55C179.958 191.372 189.214 202.499 206.025 210.879C240.854 228.249 297.521 228.249 332.35 210.879C349.158 202.499 358.414 191.374 358.414 179.553C358.414 167.732 349.156 156.604 332.348 148.226C314.933 139.542 292.06 135.201 269.184 135.201Z" fill="#80E832"/>
<path opacity="0.2" d="M269.188 236.505C240.005 236.505 210.83 230.969 188.614 219.89C167.029 209.128 155.142 194.803 155.142 179.551C155.142 164.3 167.029 149.974 188.612 139.213C233.04 117.061 305.329 117.062 349.757 139.214C371.342 149.977 383.228 164.302 383.228 179.553C383.228 194.805 371.342 209.131 349.759 219.892C327.548 230.967 298.365 236.505 269.188 236.505ZM269.182 123.163C240.122 123.163 211.066 128.678 188.942 139.708C167.572 150.364 155.802 164.512 155.804 179.551C155.804 194.591 167.572 208.739 188.944 219.395C233.191 241.458 305.182 241.459 349.429 219.396C370.798 208.741 382.567 194.592 382.567 179.553C382.567 164.514 370.799 150.364 349.427 139.71C327.304 128.679 298.241 123.163 269.182 123.163Z" fill="#80E832"/>
<path d="M269.186 214.984C251.066 214.984 232.945 211.545 219.15 204.666C205.721 197.971 198.326 189.053 198.326 179.551C198.326 170.053 205.72 161.134 219.148 154.438C246.74 140.684 291.633 140.684 319.222 154.438C332.651 161.133 340.047 170.051 340.047 179.553C340.047 189.051 332.653 197.97 319.224 204.666C305.429 211.545 287.308 214.984 269.186 214.984ZM269.184 144.683C251.183 144.683 233.181 148.098 219.476 154.933C206.263 161.521 198.985 170.264 198.985 179.551C198.985 188.839 206.263 197.581 219.478 204.171C246.888 217.84 291.484 217.837 318.892 204.171C332.108 197.583 339.383 188.84 339.383 179.553C339.383 170.265 332.106 161.523 318.891 154.933C305.187 148.1 287.186 144.683 269.184 144.683Z" fill="#80E832"/>
<mask id="mask1_2005_2658" style="mask-type:luminance" maskUnits="userSpaceOnUse" x="216" y="76" width="106" height="122">
<path d="M321.374 187.236L300.424 197.664L216.996 156.066V76.0703L321.374 128.113V187.236Z" fill="white"/>
</mask>
<g mask="url(#mask1_2005_2658)">
<path d="M306.735 194.512C306.735 176.156 291.812 153.834 273.404 144.657C264.182 140.06 255.837 139.633 249.802 142.659L243.501 145.841L245.331 145.989C242.008 149.502 240.073 154.679 240.073 161.275C240.073 179.631 254.997 201.953 273.404 211.13C279.731 214.284 285.643 215.476 290.681 214.936L290.54 216.394L296.937 213.161C296.964 213.148 296.991 213.135 297.015 213.122L297.275 212.992L297.259 212.988C303.121 209.92 306.735 203.54 306.735 194.512Z" fill="#CDFFA9"/>
<path d="M290.583 216.373C303.599 209.883 303.599 188.839 290.582 169.37C277.566 149.9 256.462 139.378 243.447 145.868C230.431 152.358 230.431 173.402 243.448 192.872C256.464 212.341 277.568 222.863 290.583 216.373Z" fill="#7EE92F"/>
</g>
<path opacity="0.4" d="M179.666 273.923L74.9834 221.729C71.8955 220.19 71.8955 216.341 74.9834 214.8L90.9645 206.764C96.3055 204.1 102.887 204.1 108.23 206.764L212.911 258.958C215.999 260.497 215.999 264.346 212.911 265.886L196.93 273.923C191.591 276.586 185.009 276.586 179.666 273.923Z" fill="#CDFFA9"/>
<path d="M127.263 220.575L110.508 212.221L113.84 210.558L130.595 218.912L127.263 220.575Z" fill="#CDFFA9"/>
<path d="M174.495 244.711L169.349 242.144L172.681 240.483L177.827 243.05L174.495 244.711Z" fill="#CDFFA9"/>
<path d="M136.967 225.54L131.821 222.975L135.153 221.312L140.299 223.879L136.967 225.54Z" fill="#CDFFA9"/>
<path d="M188.299 263.528C185.249 263.528 182.198 262.849 179.478 261.493L74.7947 209.299C73.2259 208.515 72.29 207.116 72.29 205.552C72.29 203.988 73.2259 202.588 74.7947 201.806L90.7757 193.768C96.2177 191.055 102.979 191.055 108.421 193.768L213.102 245.963C214.671 246.745 215.607 248.144 215.607 249.71C215.607 251.274 214.671 252.675 213.102 253.455L197.121 261.493C194.403 262.849 191.349 263.528 188.299 263.528ZM99.5992 192.383C96.679 192.383 93.7588 193.033 91.1551 194.332L75.174 202.37C73.8416 203.034 73.0468 204.224 73.0468 205.552C73.0468 206.881 73.8416 208.069 75.174 208.734L179.857 260.928C185.065 263.526 191.536 263.526 196.743 260.928L212.724 252.89C214.057 252.227 214.852 251.038 214.852 249.71C214.852 248.38 214.057 247.193 212.724 246.528L108.043 194.332C105.44 193.033 102.519 192.383 99.5992 192.383Z" fill="#CDFFA9"/>
<g clip-path="url(#clip2_2005_2658)">
<path d="M67.1701 33.0922L45.0361 35.1905L42.404 46.0108L52.784 50.0437L67.1701 33.0922ZM31.3075 51.799L42.9486 36.2793L40.2731 47.1223L50.6965 51.1326L31.3075 51.799Z" fill="#CDFFA9"/>
</g>
<path d="M285.215 38.6714C286.245 33.7394 283.191 30.8559 278.824 28.8048L280.831 22.1394L277.366 20.9055L275.423 27.3986C274.507 27.0798 273.565 26.7595 272.621 26.4684L274.566 19.9462L271.101 18.7123L269.122 25.35C268.353 25.0987 267.609 24.849 266.891 24.6007L266.893 24.5715L262.09 22.8763L260.804 27.2055C260.804 27.2055 263.382 28.0636 263.329 28.0898C264.741 28.5849 264.905 29.7108 264.785 30.5847L262.5 38.1736C262.599 38.2088 262.724 38.2456 262.869 38.3423C262.745 38.3056 262.62 38.2688 262.498 38.2028L259.311 48.8219C259.094 49.3084 258.577 50.0413 257.612 49.6903C257.633 49.7503 255.087 48.8059 255.087 48.8059L252.939 53.407L257.467 55.0272C258.308 55.3414 259.125 55.625 259.94 55.9377L257.928 62.6616L261.393 63.8955L263.4 57.23C264.34 57.5796 265.279 57.9291 266.17 58.2463L264.191 64.8841L267.656 66.1179L269.668 59.394C275.643 61.0707 280.244 60.8154 282.65 54.5848C284.6 49.5902 283.214 46.5413 280.176 44.4224C282.581 43.9484 284.471 42.2691 285.215 38.6714ZM276.036 51.3429C274.541 56.3646 267.312 53.1743 264.962 52.3297L267.632 43.4128C269.983 44.2573 277.625 46.0918 276.036 51.3429ZM278.205 38.1668C276.822 42.7545 270.829 40.0195 268.874 39.3159L271.3 31.2361C273.254 31.9397 279.628 33.4051 278.205 38.1668Z" fill="#CDFFA9"/>
<defs>
<linearGradient id="paint0_linear_2005_2658" x1="5.37833" y1="194.76" x2="558.708" y2="194.76" gradientUnits="userSpaceOnUse">
<stop stop-color="#7EE92F"/>
<stop offset="0.151" stop-color="#60C218"/>
<stop offset="0.3866" stop-color="#58AD1A"/>
<stop offset="0.6124" stop-color="#7EE92F"/>
<stop offset="0.8221" stop-color="#66CD1A"/>
<stop offset="1" stop-color="#429B00"/>
</linearGradient>
<radialGradient id="paint1_radial_2005_2658" cx="0" cy="0" r="1" gradientUnits="userSpaceOnUse" gradientTransform="translate(268.311 178.376) scale(433.094 374.02)">
<stop stop-color="#42E8E0"/>
<stop offset="0.1055" stop-color="#37B6BF"/>
<stop offset="0.2197" stop-color="#2C87A1"/>
<stop offset="0.338" stop-color="#235F87"/>
<stop offset="0.4587" stop-color="#1C3F72"/>
<stop offset="0.5824" stop-color="#162561"/>
<stop offset="0.7105" stop-color="#121355"/>
<stop offset="0.8458" stop-color="#10084E"/>
<stop offset="1" stop-color="#0F054C"/>
</radialGradient>
<linearGradient id="paint2_linear_2005_2658" x1="524.71" y1="311.942" x2="596.391" y2="359.863" gradientUnits="userSpaceOnUse">
<stop stop-color="#9ADF66"/>
<stop offset="1" stop-color="#55A918"/>
</linearGradient>
<linearGradient id="paint3_linear_2005_2658" x1="514.956" y1="326.603" x2="613" y2="326.603" gradientUnits="userSpaceOnUse">
<stop stop-color="#B2DC93"/>
<stop offset="1" stop-color="#6CFF00"/>
</linearGradient>
<linearGradient id="paint4_linear_2005_2658" x1="524.71" y1="262.495" x2="596.391" y2="310.417" gradientUnits="userSpaceOnUse">
<stop stop-color="#7EE92F"/>
<stop offset="1" stop-color="#317301"/>
</linearGradient>
<linearGradient id="paint5_linear_2005_2658" x1="514.956" y1="277.155" x2="613" y2="277.155" gradientUnits="userSpaceOnUse">
<stop stop-color="#9CF25D"/>
<stop offset="1" stop-color="#7EE92F"/>
</linearGradient>
<linearGradient id="paint6_linear_2005_2658" x1="333.756" y1="346.472" x2="405.437" y2="394.394" gradientUnits="userSpaceOnUse">
<stop stop-color="#9ADF66"/>
<stop offset="1" stop-color="#55A918"/>
</linearGradient>
<linearGradient id="paint7_linear_2005_2658" x1="324.002" y1="361.133" x2="422.046" y2="361.133" gradientUnits="userSpaceOnUse">
<stop stop-color="#B2DC93"/>
<stop offset="1" stop-color="#6CFF00"/>
</linearGradient>
<linearGradient id="paint8_linear_2005_2658" x1="333.756" y1="297.025" x2="405.437" y2="344.947" gradientUnits="userSpaceOnUse">
<stop stop-color="#7EE92F"/>
<stop offset="1" stop-color="#317301"/>
</linearGradient>
<linearGradient id="paint9_linear_2005_2658" x1="324.002" y1="311.686" x2="422.046" y2="311.686" gradientUnits="userSpaceOnUse">
<stop stop-color="#9CF25D"/>
<stop offset="1" stop-color="#7EE92F"/>
</linearGradient>
<linearGradient id="paint10_linear_2005_2658" x1="9.75598" y1="77.8924" x2="81.4369" y2="125.814" gradientUnits="userSpaceOnUse">
<stop stop-color="#9ADF66"/>
<stop offset="1" stop-color="#55A918"/>
</linearGradient>
<linearGradient id="paint11_linear_2005_2658" x1="0.00219727" y1="92.5533" x2="98.0456" y2="92.5533" gradientUnits="userSpaceOnUse">
<stop stop-color="#B2DC93"/>
<stop offset="1" stop-color="#6CFF00"/>
</linearGradient>
<linearGradient id="paint12_linear_2005_2658" x1="9.75598" y1="28.4457" x2="81.4371" y2="76.3672" gradientUnits="userSpaceOnUse">
<stop stop-color="#7EE92F"/>
<stop offset="1" stop-color="#317301"/>
</linearGradient>
<linearGradient id="paint13_linear_2005_2658" x1="0.00238788" y1="43.1062" x2="98.0456" y2="43.1062" gradientUnits="userSpaceOnUse">
<stop stop-color="#9CF25D"/>
<stop offset="1" stop-color="#7EE92F"/>
</linearGradient>
<clipPath id="clip0_2005_2658">
<rect width="34.3513" height="43.2426" fill="white" transform="translate(560.858 249) rotate(31.9098)"/>
</clipPath>
<clipPath id="clip1_2005_2658">
<rect width="27.2769" height="40.4484" fill="white" transform="translate(384.863 289) rotate(62.4522)"/>
</clipPath>
<clipPath id="clip2_2005_2658">
<rect width="27.2769" height="40.4484" fill="white" transform="translate(60.8625 21) rotate(62.4522)"/>
</clipPath>
</defs>
</svg>
