<svg width="24" height="25" viewBox="0 0 24 25" fill="none" xmlns="http://www.w3.org/2000/svg">
<path d="M16.624 14.4197L19.342 17.1357L11.989 24.4887L4.636 17.1367L7.353 14.4197L11.989 19.0797L16.624 14.4197ZM21.261 9.78372L24 12.4997L21.285 15.2157L18.568 12.4997L21.261 9.78372ZM11.989 9.78372L14.705 12.4757L11.988 15.1927L9.272 12.4997L11.989 9.78372ZM2.716 9.78372L5.41 12.4997L2.718 15.1917L0 12.4997L2.716 9.78372ZM11.99 0.511719L19.34 7.83972L16.623 10.5547L11.99 5.91972L7.354 10.5797L4.637 7.86372L11.99 0.511719Z" fill="white"/>
</svg>
