<svg width="16" height="16" viewBox="0 0 16 16" fill="none" xmlns="http://www.w3.org/2000/svg">
<g clip-path="url(#clip0_209_4156)">
<path d="M11.0827 9.2803L12.8947 11.091L7.99267 15.993L3.09067 11.0916L4.902 9.2803L7.99267 12.387L11.0827 9.2803ZM14.174 6.18963L16 8.0003L14.19 9.81097L12.3787 8.0003L14.174 6.18963ZM7.99267 6.18963L9.80333 7.9843L7.992 9.79563L6.18133 8.0003L7.99267 6.18963ZM1.81067 6.18963L3.60667 8.0003L1.812 9.79497L0 8.0003L1.81067 6.18963ZM7.99333 0.00830078L12.8933 4.89363L11.082 6.70363L7.99333 3.61363L4.90267 6.7203L3.09133 4.90963L7.99333 0.00830078Z" fill="white" fill-opacity="0.6"/>
</g>
<defs>
<clipPath id="clip0_209_4156">
<rect width="16" height="16" fill="white"/>
</clipPath>
</defs>
</svg>
