<svg width="47" height="46" viewBox="0 0 47 46" fill="none" xmlns="http://www.w3.org/2000/svg">
<path d="M45.4732 28.5638C42.4014 40.8854 29.9217 48.384 17.5987 45.3114C5.28081 42.2396 -2.21784 29.7591 0.85532 17.4385C3.92579 5.11564 16.4055 -2.38358 28.7247 0.688239C41.0468 3.76005 48.545 16.2419 45.4729 28.564L45.4731 28.5638H45.4732Z" fill="#F3BA2F"/>
<path fill-rule="evenodd" clip-rule="evenodd" d="M23.1662 14.5974L17.2105 20.5531L17.2106 20.5529L13.7454 17.0875L23.1662 7.66675L32.5901 17.0904L29.1247 20.5557L23.1662 14.5974ZM11.2985 19.5342L7.83301 23.0001L11.2982 26.4648L14.7637 22.9994L11.2985 19.5342ZM17.2106 25.4474L23.1663 31.4028L29.1247 25.4446L32.5919 28.9081L32.5902 28.91L23.1663 38.3335L13.7455 28.9127L13.7406 28.9078L17.2106 25.4474ZM35.0342 19.5361L31.5688 23.0015L35.0341 26.4667L38.4995 23.0013L35.0342 19.5361Z" fill="white"/>
<path d="M26.6813 22.9981H26.6828L23.1666 19.4817L20.5677 22.0799V22.0799L20.2691 22.3786L19.6533 22.9945L19.6484 22.9993L19.6533 23.0043L23.1666 26.5181L26.683 23.0017L26.6847 22.9998L26.6815 22.9981" fill="white"/>
</svg>
