<svg xmlns="http://www.w3.org/2000/svg" width="76" height="36" viewBox="0 0 76 36" fill="none">
  <path d="M23.5 18.0158L23.9654 18.1985L23.5 18.0158ZM52.5 25.0162L52.6804 24.5498L52.5 25.0162ZM75.3002 9.97434C75.5533 10.0847 75.848 9.96893 75.9583 9.7158C76.0687 9.46266 75.9529 9.168 75.6998 9.05765L75.3002 9.97434ZM0.506309 5.59472C1.2147 10.0118 2.09571 15.2648 3.24024 20.0936C4.38076 24.9056 5.79718 29.3621 7.60177 32.1465C8.50294 33.537 9.54607 34.5821 10.7676 34.9941C12.0265 35.4187 13.3593 35.1348 14.7284 34.1178C16.0815 33.1127 17.5077 31.3687 19.0294 28.7804C20.5552 26.185 22.1962 22.7072 23.9654 18.1985L23.0346 17.8332C21.2764 22.3137 19.6572 25.7393 18.1673 28.2736C16.6734 30.8147 15.3285 32.4264 14.1321 33.3151C12.9518 34.1919 11.957 34.3399 11.0872 34.0466C10.18 33.7406 9.29333 32.9179 8.44094 31.6027C6.73841 28.9757 5.35249 24.6694 4.21328 19.863C3.07807 15.0735 2.20197 9.85266 1.49369 5.43637L0.506309 5.59472ZM23.9654 18.1985C25.8975 13.2749 27.6382 9.65225 29.2204 7.08257C30.8088 4.50276 32.2082 3.03305 33.4363 2.3498C34.622 1.69009 35.6634 1.75241 36.6612 2.31007C37.7005 2.89086 38.7131 4.0238 39.7224 5.55786C41.7457 8.63316 43.5775 13.0229 45.5701 16.9939C46.5569 18.9604 47.5807 20.8158 48.6752 22.304C49.7635 23.7837 50.9624 24.9575 52.3196 25.4825L52.6804 24.5498C51.5894 24.1279 50.5302 23.1384 49.4808 21.7115C48.4376 20.2931 47.444 18.4988 46.4639 16.5455C44.5228 12.6769 42.6229 8.14705 40.5578 5.00823C39.5229 3.43522 38.4022 2.13747 37.1491 1.43714C35.8546 0.713682 34.4446 0.644445 32.9501 1.47594C31.4979 2.2839 29.9882 3.92815 28.3689 6.55827C26.7432 9.19851 24.9775 12.8817 23.0346 17.8332L23.9654 18.1985ZM52.3196 25.4825C53.6926 26.0136 54.855 26.0378 55.8464 25.6032C56.823 25.1751 57.5467 24.3386 58.1297 23.3297C58.7133 22.3198 59.1863 21.0832 59.6347 19.7843C60.0894 18.4669 60.5142 17.1005 61.0185 15.7469C62.028 13.0371 63.2795 10.6103 65.3863 9.34019C67.4559 8.09245 70.4995 7.88159 75.3002 9.97434L75.6998 9.05765C70.7505 6.90017 67.3316 6.99969 64.8699 8.48379C62.4454 9.94552 61.0969 12.672 60.0814 15.3978C59.5731 16.762 59.1292 18.1839 58.6894 19.458C58.2432 20.7507 57.7959 21.9088 57.2639 22.8294C56.7313 23.7511 56.144 24.3809 55.4449 24.6874C54.7605 24.9874 53.8824 25.0148 52.6804 24.5498L52.3196 25.4825Z" fill="#00D1FF"/>
</svg>