<svg width="654" height="966" viewBox="0 0 654 966" fill="none" xmlns="http://www.w3.org/2000/svg">
<g filter="url(#filter0_ddddii_1_248)">
<g clip-path="url(#clip0_1_248)">
<rect x="524.245" y="215.877" width="174.006" height="174.006" rx="87.003" fill="black"/>
<g clip-path="url(#clip1_1_248)">
<path d="M592.201 266.429V277.998H598.968V273.697H639.571V317.305H598.968V293.871H592.201V324.573H646.329V266.429H592.201ZM578.148 282.781V340.927H632.283V328.89H625.519V333.66H584.913V290.049H625.519V313.016H632.283V282.781H578.148Z" fill="#CFC9FE"/>
<path d="M592.201 266.429V277.998H598.968V273.697H639.571V317.305H598.968V293.871H592.201V324.573H646.329V266.429H592.201ZM578.148 282.781V340.927H632.283V328.89H625.519V333.66H584.913V290.049H625.519V313.016H632.283V282.781H578.148Z" fill="url(#paint0_linear_1_248)"/>
</g>
<g filter="url(#filter1_f_1_248)">
<ellipse cx="619.773" cy="408.725" rx="122.084" ry="54.8425" fill="#584BFF"/>
</g>
<g filter="url(#filter2_f_1_248)">
<ellipse cx="619.773" cy="424.279" rx="58.1808" ry="39.582" fill="#584BFF"/>
</g>
<g style="mix-blend-mode:plus-lighter" filter="url(#filter3_f_1_248)">
<ellipse cx="669.124" cy="423.802" rx="63.9035" ry="39.1051" fill="#FBE2FF"/>
</g>
</g>
<rect x="525.281" y="216.913" width="171.934" height="171.934" rx="85.9668" stroke="url(#paint1_linear_1_248)" stroke-width="2.0725"/>
</g>
<g filter="url(#filter4_ddddii_1_248)">
<g clip-path="url(#clip2_1_248)">
<rect x="384.177" y="164" width="103.754" height="103.754" rx="51.8772" fill="black"/>
<g clip-path="url(#clip3_1_248)">
<path d="M424.696 194.143V201.04H428.731V198.476H452.942V224.478H428.731V210.506H424.696V228.812H456.971V194.143H424.696ZM416.317 203.893V238.564H448.596V231.386H444.563V234.23H420.351V208.227H444.563V221.921H448.596V203.893H416.317Z" fill="#CFC9FE"/>
<path d="M424.696 194.143V201.04H428.731V198.476H452.942V224.478H428.731V210.506H424.696V228.812H456.971V194.143H424.696ZM416.317 203.893V238.564H448.596V231.386H444.563V234.23H420.351V208.227H444.563V221.921H448.596V203.893H416.317Z" fill="url(#paint2_linear_1_248)"/>
</g>
<g filter="url(#filter5_f_1_248)">
<ellipse cx="441.137" cy="278.989" rx="72.7951" ry="32.7009" fill="#584BFF"/>
</g>
<g filter="url(#filter6_f_1_248)">
<ellipse cx="441.137" cy="288.263" rx="34.6914" ry="23.6015" fill="#584BFF"/>
</g>
<g style="mix-blend-mode:plus-lighter" filter="url(#filter7_f_1_248)">
<ellipse cx="470.563" cy="287.979" rx="38.1037" ry="23.3172" fill="#FBE2FF"/>
</g>
</g>
<rect x="384.795" y="164.618" width="102.519" height="102.519" rx="51.2593" stroke="url(#paint3_linear_1_248)" stroke-width="1.23577"/>
</g>
<g filter="url(#filter8_ddddii_1_248)">
<g clip-path="url(#clip4_1_248)">
<rect x="518.193" y="528.87" width="174.006" height="174.006" rx="87.003" fill="black"/>
<g filter="url(#filter9_f_1_248)">
<ellipse cx="613.721" cy="721.717" rx="122.084" ry="54.8425" fill="#584BFF"/>
</g>
<g filter="url(#filter10_f_1_248)">
<ellipse cx="613.721" cy="737.271" rx="58.1808" ry="39.582" fill="#584BFF"/>
</g>
<g style="mix-blend-mode:plus-lighter" filter="url(#filter11_f_1_248)">
<ellipse cx="663.071" cy="736.794" rx="63.9035" ry="39.1051" fill="#FBE2FF"/>
</g>
<path d="M596.532 603.923C600.074 605.809 600.791 608.111 599.631 609.918C598.642 611.381 597.449 612.696 596.089 613.823C595.549 614.23 594.655 614.319 594.318 613.735C593.504 612.38 591.13 610.396 589.749 609.307C589.475 609.087 589.13 608.976 588.779 608.994C588.428 609.012 588.095 609.158 587.845 609.404C585.189 611.99 577.458 619.543 575.678 620.845C574.934 621.403 573.314 622.28 572.605 620.677C571.543 618.268 572.172 615.16 573.261 613.929C574.146 612.955 580.469 607.545 583.055 605.349C583.171 605.252 583.261 605.126 583.316 604.984C583.37 604.842 583.387 604.689 583.364 604.538C583.342 604.388 583.282 604.246 583.189 604.126C583.096 604.006 582.973 603.911 582.833 603.852C580.371 602.781 575.227 600.585 574.244 600.47C572.933 600.328 570.923 600.089 570.161 603.126C568.39 610.21 568.833 622.776 571.879 632.454C572.694 635.049 574.536 638.919 577.724 637.024C590.528 629.444 620.636 600.284 624.116 596.653C627.596 593.022 636.726 584.043 638.895 582.804C641.065 581.564 645.262 581.652 647.024 584.84C653.843 597.175 653.116 636.333 651.832 641.841C651.168 644.674 648.503 646.33 644.828 645.516C636.858 643.745 621.14 632.286 613.498 627.681C613.161 627.475 612.873 627.197 612.657 626.865C612.441 626.534 612.301 626.159 612.249 625.767C612.196 625.375 612.232 624.976 612.353 624.599C612.474 624.223 612.678 623.878 612.949 623.59L615.695 620.703C615.912 620.473 616.204 620.327 616.519 620.293C616.834 620.259 617.151 620.339 617.412 620.518C621.114 623.05 634.618 632.242 636.362 632.915C638.373 633.721 640.932 633.49 641.729 629.576C642.473 625.91 642.986 602.967 638.187 596.927C636.362 594.643 631.005 595.767 623.894 603.604C619.812 608.103 580.823 647.189 572.225 650.536C568.683 651.927 565.477 651.085 563.741 646.41C557.543 629.771 559.119 595.599 560.527 590.366C561.935 585.132 566.008 586.824 569.905 588.984" fill="white"/>
<path d="M596.532 603.923C600.074 605.809 600.791 608.111 599.631 609.918C598.642 611.381 597.449 612.696 596.089 613.823C595.549 614.23 594.655 614.319 594.318 613.735C593.504 612.38 591.13 610.396 589.749 609.307C589.475 609.087 589.13 608.976 588.779 608.994C588.428 609.012 588.095 609.158 587.845 609.404C585.189 611.99 577.458 619.543 575.678 620.845C574.934 621.403 573.314 622.28 572.605 620.677C571.543 618.268 572.172 615.16 573.261 613.929C574.146 612.955 580.469 607.545 583.055 605.349C583.171 605.252 583.261 605.126 583.316 604.984C583.37 604.842 583.387 604.689 583.364 604.538C583.342 604.388 583.282 604.246 583.189 604.126C583.096 604.006 582.973 603.911 582.833 603.852C580.371 602.781 575.227 600.585 574.244 600.47C572.933 600.328 570.923 600.089 570.161 603.126C568.39 610.21 568.833 622.776 571.879 632.454C572.694 635.049 574.536 638.919 577.724 637.024C590.528 629.444 620.636 600.284 624.116 596.653C627.596 593.022 636.726 584.043 638.895 582.804C641.065 581.564 645.262 581.652 647.024 584.84C653.843 597.175 653.116 636.333 651.832 641.841C651.168 644.674 648.503 646.33 644.828 645.516C636.858 643.745 621.14 632.286 613.498 627.681C613.161 627.475 612.873 627.197 612.657 626.865C612.441 626.534 612.301 626.159 612.249 625.767C612.196 625.375 612.232 624.976 612.353 624.599C612.474 624.223 612.678 623.878 612.949 623.59L615.695 620.703C615.912 620.473 616.204 620.327 616.519 620.293C616.834 620.259 617.151 620.339 617.412 620.518C621.114 623.05 634.618 632.242 636.362 632.915C638.373 633.721 640.932 633.49 641.729 629.576C642.473 625.91 642.986 602.967 638.187 596.927C636.362 594.643 631.005 595.767 623.894 603.604C619.812 608.103 580.823 647.189 572.225 650.536C568.683 651.927 565.477 651.085 563.741 646.41C557.543 629.771 559.119 595.599 560.527 590.366C561.935 585.132 566.008 586.824 569.905 588.984" fill="url(#paint4_linear_1_248)"/>
</g>
<rect x="519.229" y="529.906" width="171.934" height="171.934" rx="85.9668" stroke="url(#paint5_linear_1_248)" stroke-width="2.0725"/>
</g>
<g filter="url(#filter12_ddddii_1_248)">
<g clip-path="url(#clip5_1_248)">
<rect x="275.234" y="297.152" width="174.006" height="174.006" rx="87.003" fill="black"/>
<g filter="url(#filter13_f_1_248)">
<ellipse cx="370.763" cy="489.999" rx="122.084" ry="54.8425" fill="#584BFF"/>
</g>
<g filter="url(#filter14_f_1_248)">
<ellipse cx="370.763" cy="505.553" rx="58.1808" ry="39.582" fill="#584BFF"/>
</g>
<g style="mix-blend-mode:plus-lighter" filter="url(#filter15_f_1_248)">
<ellipse cx="420.113" cy="505.076" rx="63.9035" ry="39.1051" fill="#FBE2FF"/>
</g>
<path d="M348.498 397.655L358.407 380.484C358.592 380.165 358.858 379.899 359.178 379.714C359.498 379.53 359.861 379.432 360.231 379.432C360.601 379.432 360.964 379.53 361.284 379.714C361.604 379.899 361.87 380.165 362.055 380.484L372.991 399.417C373.187 399.738 373.294 400.106 373.3 400.483C373.306 400.859 373.21 401.23 373.024 401.557C372.838 401.885 372.568 402.156 372.241 402.343C371.914 402.53 371.544 402.627 371.167 402.622H352.297C351.744 402.622 351.2 402.767 350.721 403.044C350.243 403.321 349.845 403.719 349.569 404.199L342.202 416.959C342.016 417.278 341.918 417.641 341.918 418.011C341.918 418.381 342.015 418.744 342.2 419.064C342.385 419.384 342.652 419.649 342.972 419.833C343.293 420.017 343.656 420.113 344.026 420.111H401.461C401.83 420.113 402.194 420.017 402.514 419.833C402.835 419.649 403.101 419.384 403.286 419.064C403.471 418.744 403.569 418.381 403.568 418.011C403.568 417.641 403.47 417.278 403.285 416.959L362.055 345.498C361.87 345.178 361.604 344.912 361.284 344.728C360.964 344.543 360.601 344.446 360.231 344.446C359.861 344.446 359.498 344.543 359.178 344.728C358.858 344.912 358.592 345.178 358.407 345.498L329.185 396.078C329.002 396.398 328.907 396.761 328.908 397.129C328.909 397.498 329.006 397.86 329.191 398.179C329.376 398.498 329.641 398.763 329.96 398.947C330.279 399.132 330.64 399.23 331.009 399.231H345.762C346.316 399.23 346.86 399.084 347.34 398.808C347.82 398.531 348.219 398.134 348.498 397.655Z" fill="white"/>
<path d="M348.498 397.655L358.407 380.484C358.592 380.165 358.858 379.899 359.178 379.714C359.498 379.53 359.861 379.432 360.231 379.432C360.601 379.432 360.964 379.53 361.284 379.714C361.604 379.899 361.87 380.165 362.055 380.484L372.991 399.417C373.187 399.738 373.294 400.106 373.3 400.483C373.306 400.859 373.21 401.23 373.024 401.557C372.838 401.885 372.568 402.156 372.241 402.343C371.914 402.53 371.544 402.627 371.167 402.622H352.297C351.744 402.622 351.2 402.767 350.721 403.044C350.243 403.321 349.845 403.719 349.569 404.199L342.202 416.959C342.016 417.278 341.918 417.641 341.918 418.011C341.918 418.381 342.015 418.744 342.2 419.064C342.385 419.384 342.652 419.649 342.972 419.833C343.293 420.017 343.656 420.113 344.026 420.111H401.461C401.83 420.113 402.194 420.017 402.514 419.833C402.835 419.649 403.101 419.384 403.286 419.064C403.471 418.744 403.569 418.381 403.568 418.011C403.568 417.641 403.47 417.278 403.285 416.959L362.055 345.498C361.87 345.178 361.604 344.912 361.284 344.728C360.964 344.543 360.601 344.446 360.231 344.446C359.861 344.446 359.498 344.543 359.178 344.728C358.858 344.912 358.592 345.178 358.407 345.498L329.185 396.078C329.002 396.398 328.907 396.761 328.908 397.129C328.909 397.498 329.006 397.86 329.191 398.179C329.376 398.498 329.641 398.763 329.96 398.947C330.279 399.132 330.64 399.23 331.009 399.231H345.762C346.316 399.23 346.86 399.084 347.34 398.808C347.82 398.531 348.219 398.134 348.498 397.655Z" fill="url(#paint6_linear_1_248)"/>
</g>
<rect x="276.271" y="298.188" width="171.934" height="171.934" rx="85.9668" stroke="url(#paint7_linear_1_248)" stroke-width="2.0725"/>
</g>
<g filter="url(#filter16_ddddii_1_248)">
<g clip-path="url(#clip6_1_248)">
<rect x="149" y="224.611" width="91.6498" height="91.6498" rx="45.8249" fill="black"/>
<g filter="url(#filter17_f_1_248)">
<ellipse cx="199.315" cy="326.185" rx="64.3023" ry="28.8858" fill="#584BFF"/>
</g>
<g filter="url(#filter18_f_1_248)">
<ellipse cx="199.315" cy="334.377" rx="30.6441" ry="20.848" fill="#584BFF"/>
</g>
<g style="mix-blend-mode:plus-lighter" filter="url(#filter19_f_1_248)">
<ellipse cx="225.308" cy="334.126" rx="33.6583" ry="20.5968" fill="#FBE2FF"/>
</g>
<path d="M187.588 277.546L192.807 268.503C192.905 268.334 193.045 268.194 193.214 268.097C193.382 268 193.574 267.949 193.768 267.949C193.963 267.949 194.154 268 194.323 268.097C194.491 268.194 194.632 268.334 194.729 268.503L200.489 278.475C200.592 278.644 200.649 278.838 200.652 279.036C200.655 279.234 200.605 279.43 200.506 279.602C200.408 279.774 200.266 279.917 200.094 280.016C199.922 280.115 199.727 280.165 199.528 280.163H189.589C189.298 280.163 189.012 280.239 188.76 280.385C188.507 280.531 188.298 280.741 188.153 280.993L184.272 287.714C184.175 287.882 184.123 288.074 184.123 288.268C184.123 288.463 184.174 288.654 184.271 288.823C184.369 288.991 184.509 289.131 184.678 289.228C184.847 289.325 185.038 289.375 185.233 289.374H215.484C215.679 289.375 215.87 289.325 216.039 289.228C216.208 289.131 216.348 288.991 216.446 288.823C216.543 288.654 216.594 288.463 216.594 288.268C216.594 288.074 216.543 287.882 216.445 287.714L194.729 250.075C194.632 249.907 194.491 249.767 194.323 249.67C194.154 249.572 193.963 249.521 193.768 249.521C193.574 249.521 193.382 249.572 193.214 249.67C193.045 249.767 192.905 249.907 192.807 250.075L177.416 276.716C177.32 276.885 177.27 277.076 177.27 277.27C177.271 277.464 177.322 277.655 177.419 277.823C177.517 277.991 177.656 278.13 177.824 278.227C177.992 278.325 178.183 278.376 178.377 278.377H186.147C186.439 278.376 186.726 278.299 186.979 278.154C187.231 278.008 187.442 277.799 187.588 277.546Z" fill="white"/>
<path d="M187.588 277.546L192.807 268.503C192.905 268.334 193.045 268.194 193.214 268.097C193.382 268 193.574 267.949 193.768 267.949C193.963 267.949 194.154 268 194.323 268.097C194.491 268.194 194.632 268.334 194.729 268.503L200.489 278.475C200.592 278.644 200.649 278.838 200.652 279.036C200.655 279.234 200.605 279.43 200.506 279.602C200.408 279.774 200.266 279.917 200.094 280.016C199.922 280.115 199.727 280.165 199.528 280.163H189.589C189.298 280.163 189.012 280.239 188.76 280.385C188.507 280.531 188.298 280.741 188.153 280.993L184.272 287.714C184.175 287.882 184.123 288.074 184.123 288.268C184.123 288.463 184.174 288.654 184.271 288.823C184.369 288.991 184.509 289.131 184.678 289.228C184.847 289.325 185.038 289.375 185.233 289.374H215.484C215.679 289.375 215.87 289.325 216.039 289.228C216.208 289.131 216.348 288.991 216.446 288.823C216.543 288.654 216.594 288.463 216.594 288.268C216.594 288.074 216.543 287.882 216.445 287.714L194.729 250.075C194.632 249.907 194.491 249.767 194.323 249.67C194.154 249.572 193.963 249.521 193.768 249.521C193.574 249.521 193.382 249.572 193.214 249.67C193.045 249.767 192.905 249.907 192.807 250.075L177.416 276.716C177.32 276.885 177.27 277.076 177.27 277.27C177.271 277.464 177.322 277.655 177.419 277.823C177.517 277.991 177.656 278.13 177.824 278.227C177.992 278.325 178.183 278.376 178.377 278.377H186.147C186.439 278.376 186.726 278.299 186.979 278.154C187.231 278.008 187.442 277.799 187.588 277.546Z" fill="url(#paint8_linear_1_248)"/>
</g>
<rect x="149.546" y="225.157" width="90.5582" height="90.5582" rx="45.2791" stroke="url(#paint9_linear_1_248)" stroke-width="1.0916"/>
</g>
<g filter="url(#filter20_ddddii_1_248)">
<g clip-path="url(#clip7_1_248)">
<rect x="222.493" y="566.049" width="174.006" height="174.006" rx="87.003" fill="black"/>
<g clip-path="url(#clip8_1_248)">
<path d="M290.448 616.601V628.169H297.215V623.869H337.818V667.476H297.215V644.043H290.448V674.744H344.577V616.601H290.448ZM276.396 632.953V691.099H330.53V679.061H323.766V683.831H283.16V640.221H323.766V663.187H330.53V632.953H276.396Z" fill="#CFC9FE"/>
<path d="M290.448 616.601V628.169H297.215V623.869H337.818V667.476H297.215V644.043H290.448V674.744H344.577V616.601H290.448ZM276.396 632.953V691.099H330.53V679.061H323.766V683.831H283.16V640.221H323.766V663.187H330.53V632.953H276.396Z" fill="url(#paint10_linear_1_248)"/>
</g>
<g filter="url(#filter21_f_1_248)">
<ellipse cx="318.021" cy="758.896" rx="122.084" ry="54.8425" fill="#584BFF"/>
</g>
<g filter="url(#filter22_f_1_248)">
<ellipse cx="318.021" cy="774.45" rx="58.1808" ry="39.582" fill="#584BFF"/>
</g>
<g style="mix-blend-mode:plus-lighter" filter="url(#filter23_f_1_248)">
<ellipse cx="367.371" cy="773.973" rx="63.9035" ry="39.1051" fill="#FBE2FF"/>
</g>
</g>
<rect x="223.529" y="567.085" width="171.934" height="171.934" rx="85.9668" stroke="url(#paint11_linear_1_248)" stroke-width="2.0725"/>
</g>
<g filter="url(#filter24_ddddii_1_248)">
<g clip-path="url(#clip9_1_248)">
<rect x="404.928" y="489.097" width="85.5974" height="85.5974" rx="42.7987" fill="black"/>
<g clip-path="url(#clip10_1_248)">
<path d="M438.356 513.965V519.656H441.685V517.54H461.659V538.992H441.685V527.464H438.356V542.567H464.983V513.965H438.356ZM431.444 522.009V550.612H458.074V544.691H454.746V547.037H434.771V525.584H454.746V536.882H458.074V522.009H431.444Z" fill="#CFC9FE"/>
<path d="M438.356 513.965V519.656H441.685V517.54H461.659V538.992H441.685V527.464H438.356V542.567H464.983V513.965H438.356ZM431.444 522.009V550.612H458.074V544.691H454.746V547.037H434.771V525.584H454.746V536.882H458.074V522.009H431.444Z" fill="url(#paint12_linear_1_248)"/>
</g>
<g filter="url(#filter25_f_1_248)">
<ellipse cx="451.92" cy="583.963" rx="60.056" ry="26.9783" fill="#584BFF"/>
</g>
<g filter="url(#filter26_f_1_248)">
<ellipse cx="451.92" cy="591.615" rx="28.6204" ry="19.4713" fill="#584BFF"/>
</g>
<g style="mix-blend-mode:plus-lighter" filter="url(#filter27_f_1_248)">
<ellipse cx="476.197" cy="591.38" rx="31.4355" ry="19.2367" fill="#FBE2FF"/>
</g>
</g>
<rect x="405.437" y="489.607" width="84.5779" height="84.5779" rx="42.289" stroke="url(#paint13_linear_1_248)" stroke-width="1.01951"/>
</g>
<defs>
<filter id="filter0_ddddii_1_248" x="301.891" y="-2.91881" width="618.713" height="618.713" filterUnits="userSpaceOnUse" color-interpolation-filters="sRGB">
<feFlood flood-opacity="0" result="BackgroundImageFix"/>
<feColorMatrix in="SourceAlpha" type="matrix" values="0 0 0 0 0 0 0 0 0 0 0 0 0 0 0 0 0 0 127 0" result="hardAlpha"/>
<feOffset dy="3.55766"/>
<feGaussianBlur stdDeviation="111.177"/>
<feComposite in2="hardAlpha" operator="out"/>
<feColorMatrix type="matrix" values="0 0 0 0 0.344507 0 0 0 0 0.295589 0 0 0 0 1 0 0 0 0.74 0"/>
<feBlend mode="normal" in2="BackgroundImageFix" result="effect1_dropShadow_1_248"/>
<feColorMatrix in="SourceAlpha" type="matrix" values="0 0 0 0 0 0 0 0 0 0 0 0 0 0 0 0 0 0 127 0" result="hardAlpha"/>
<feOffset dy="3.55766"/>
<feGaussianBlur stdDeviation="8.71627"/>
<feComposite in2="hardAlpha" operator="out"/>
<feColorMatrix type="matrix" values="0 0 0 0 0.328079 0 0 0 0 0.224707 0 0 0 0 1 0 0 0 0.25 0"/>
<feBlend mode="normal" in2="effect1_dropShadow_1_248" result="effect2_dropShadow_1_248"/>
<feColorMatrix in="SourceAlpha" type="matrix" values="0 0 0 0 0 0 0 0 0 0 0 0 0 0 0 0 0 0 127 0" result="hardAlpha"/>
<feOffset dy="3.55766"/>
<feGaussianBlur stdDeviation="13.7415"/>
<feComposite in2="hardAlpha" operator="out"/>
<feColorMatrix type="matrix" values="0 0 0 0 0.198014 0 0 0 0 0.278213 0 0 0 0 1 0 0 0 0.46 0"/>
<feBlend mode="normal" in2="effect2_dropShadow_1_248" result="effect3_dropShadow_1_248"/>
<feColorMatrix in="SourceAlpha" type="matrix" values="0 0 0 0 0 0 0 0 0 0 0 0 0 0 0 0 0 0 127 0" result="hardAlpha"/>
<feOffset dy="1.77883"/>
<feGaussianBlur stdDeviation="1.77883"/>
<feComposite in2="hardAlpha" operator="out"/>
<feColorMatrix type="matrix" values="0 0 0 0 0.867259 0 0 0 0 0.336296 0 0 0 0 1 0 0 0 0.25 0"/>
<feBlend mode="normal" in2="effect3_dropShadow_1_248" result="effect4_dropShadow_1_248"/>
<feBlend mode="normal" in="SourceGraphic" in2="effect4_dropShadow_1_248" result="shape"/>
<feColorMatrix in="SourceAlpha" type="matrix" values="0 0 0 0 0 0 0 0 0 0 0 0 0 0 0 0 0 0 127 0" result="hardAlpha"/>
<feOffset dy="-4.44707"/>
<feGaussianBlur stdDeviation="12.2295"/>
<feComposite in2="hardAlpha" operator="arithmetic" k2="-1" k3="1"/>
<feColorMatrix type="matrix" values="0 0 0 0 0.151221 0 0 0 0 0.519025 0 0 0 0 1 0 0 0 0.55 0"/>
<feBlend mode="normal" in2="shape" result="effect5_innerShadow_1_248"/>
<feColorMatrix in="SourceAlpha" type="matrix" values="0 0 0 0 0 0 0 0 0 0 0 0 0 0 0 0 0 0 127 0" result="hardAlpha"/>
<feOffset dy="-4.44707"/>
<feGaussianBlur stdDeviation="2.22354"/>
<feComposite in2="hardAlpha" operator="arithmetic" k2="-1" k3="1"/>
<feColorMatrix type="matrix" values="0 0 0 0 0.790449 0 0 0 0 0.301497 0 0 0 0 1 0 0 0 0.25 0"/>
<feBlend mode="normal" in2="effect5_innerShadow_1_248" result="effect6_innerShadow_1_248"/>
</filter>
<filter id="filter1_f_1_248" x="354.622" y="210.815" width="530.303" height="395.82" filterUnits="userSpaceOnUse" color-interpolation-filters="sRGB">
<feFlood flood-opacity="0" result="BackgroundImageFix"/>
<feBlend mode="normal" in="SourceGraphic" in2="BackgroundImageFix" result="shape"/>
<feGaussianBlur stdDeviation="71.5337" result="effect1_foregroundBlur_1_248"/>
</filter>
<filter id="filter2_f_1_248" x="513.903" y="337.008" width="211.74" height="174.542" filterUnits="userSpaceOnUse" color-interpolation-filters="sRGB">
<feFlood flood-opacity="0" result="BackgroundImageFix"/>
<feBlend mode="normal" in="SourceGraphic" in2="BackgroundImageFix" result="shape"/>
<feGaussianBlur stdDeviation="23.8446" result="effect1_foregroundBlur_1_248"/>
</filter>
<filter id="filter3_f_1_248" x="557.531" y="337.008" width="223.185" height="173.589" filterUnits="userSpaceOnUse" color-interpolation-filters="sRGB">
<feFlood flood-opacity="0" result="BackgroundImageFix"/>
<feBlend mode="normal" in="SourceGraphic" in2="BackgroundImageFix" result="shape"/>
<feGaussianBlur stdDeviation="23.8446" result="effect1_foregroundBlur_1_248"/>
</filter>
<filter id="filter4_ddddii_1_248" x="251.594" y="33.5386" width="368.92" height="368.92" filterUnits="userSpaceOnUse" color-interpolation-filters="sRGB">
<feFlood flood-opacity="0" result="BackgroundImageFix"/>
<feColorMatrix in="SourceAlpha" type="matrix" values="0 0 0 0 0 0 0 0 0 0 0 0 0 0 0 0 0 0 127 0" result="hardAlpha"/>
<feOffset dy="2.12132"/>
<feGaussianBlur stdDeviation="66.2913"/>
<feComposite in2="hardAlpha" operator="out"/>
<feColorMatrix type="matrix" values="0 0 0 0 0.344507 0 0 0 0 0.295589 0 0 0 0 1 0 0 0 0.74 0"/>
<feBlend mode="normal" in2="BackgroundImageFix" result="effect1_dropShadow_1_248"/>
<feColorMatrix in="SourceAlpha" type="matrix" values="0 0 0 0 0 0 0 0 0 0 0 0 0 0 0 0 0 0 127 0" result="hardAlpha"/>
<feOffset dy="2.12132"/>
<feGaussianBlur stdDeviation="5.19724"/>
<feComposite in2="hardAlpha" operator="out"/>
<feColorMatrix type="matrix" values="0 0 0 0 0.328079 0 0 0 0 0.224707 0 0 0 0 1 0 0 0 0.25 0"/>
<feBlend mode="normal" in2="effect1_dropShadow_1_248" result="effect2_dropShadow_1_248"/>
<feColorMatrix in="SourceAlpha" type="matrix" values="0 0 0 0 0 0 0 0 0 0 0 0 0 0 0 0 0 0 127 0" result="hardAlpha"/>
<feOffset dy="2.12132"/>
<feGaussianBlur stdDeviation="8.19361"/>
<feComposite in2="hardAlpha" operator="out"/>
<feColorMatrix type="matrix" values="0 0 0 0 0.198014 0 0 0 0 0.278213 0 0 0 0 1 0 0 0 0.46 0"/>
<feBlend mode="normal" in2="effect2_dropShadow_1_248" result="effect3_dropShadow_1_248"/>
<feColorMatrix in="SourceAlpha" type="matrix" values="0 0 0 0 0 0 0 0 0 0 0 0 0 0 0 0 0 0 127 0" result="hardAlpha"/>
<feOffset dy="1.06066"/>
<feGaussianBlur stdDeviation="1.06066"/>
<feComposite in2="hardAlpha" operator="out"/>
<feColorMatrix type="matrix" values="0 0 0 0 0.867259 0 0 0 0 0.336296 0 0 0 0 1 0 0 0 0.25 0"/>
<feBlend mode="normal" in2="effect3_dropShadow_1_248" result="effect4_dropShadow_1_248"/>
<feBlend mode="normal" in="SourceGraphic" in2="effect4_dropShadow_1_248" result="shape"/>
<feColorMatrix in="SourceAlpha" type="matrix" values="0 0 0 0 0 0 0 0 0 0 0 0 0 0 0 0 0 0 127 0" result="hardAlpha"/>
<feOffset dy="-2.65165"/>
<feGaussianBlur stdDeviation="7.29205"/>
<feComposite in2="hardAlpha" operator="arithmetic" k2="-1" k3="1"/>
<feColorMatrix type="matrix" values="0 0 0 0 0.151221 0 0 0 0 0.519025 0 0 0 0 1 0 0 0 0.55 0"/>
<feBlend mode="normal" in2="shape" result="effect5_innerShadow_1_248"/>
<feColorMatrix in="SourceAlpha" type="matrix" values="0 0 0 0 0 0 0 0 0 0 0 0 0 0 0 0 0 0 127 0" result="hardAlpha"/>
<feOffset dy="-2.65165"/>
<feGaussianBlur stdDeviation="1.32583"/>
<feComposite in2="hardAlpha" operator="arithmetic" k2="-1" k3="1"/>
<feColorMatrix type="matrix" values="0 0 0 0 0.790449 0 0 0 0 0.301497 0 0 0 0 1 0 0 0 0.25 0"/>
<feBlend mode="normal" in2="effect5_innerShadow_1_248" result="effect6_innerShadow_1_248"/>
</filter>
<filter id="filter5_f_1_248" x="283.035" y="160.981" width="316.204" height="236.015" filterUnits="userSpaceOnUse" color-interpolation-filters="sRGB">
<feFlood flood-opacity="0" result="BackgroundImageFix"/>
<feBlend mode="normal" in="SourceGraphic" in2="BackgroundImageFix" result="shape"/>
<feGaussianBlur stdDeviation="42.6534" result="effect1_foregroundBlur_1_248"/>
</filter>
<filter id="filter6_f_1_248" x="378.01" y="236.226" width="126.254" height="104.074" filterUnits="userSpaceOnUse" color-interpolation-filters="sRGB">
<feFlood flood-opacity="0" result="BackgroundImageFix"/>
<feBlend mode="normal" in="SourceGraphic" in2="BackgroundImageFix" result="shape"/>
<feGaussianBlur stdDeviation="14.2178" result="effect1_foregroundBlur_1_248"/>
</filter>
<filter id="filter7_f_1_248" x="404.024" y="236.226" width="133.079" height="103.506" filterUnits="userSpaceOnUse" color-interpolation-filters="sRGB">
<feFlood flood-opacity="0" result="BackgroundImageFix"/>
<feBlend mode="normal" in="SourceGraphic" in2="BackgroundImageFix" result="shape"/>
<feGaussianBlur stdDeviation="14.2178" result="effect1_foregroundBlur_1_248"/>
</filter>
<filter id="filter8_ddddii_1_248" x="295.839" y="310.074" width="618.713" height="618.713" filterUnits="userSpaceOnUse" color-interpolation-filters="sRGB">
<feFlood flood-opacity="0" result="BackgroundImageFix"/>
<feColorMatrix in="SourceAlpha" type="matrix" values="0 0 0 0 0 0 0 0 0 0 0 0 0 0 0 0 0 0 127 0" result="hardAlpha"/>
<feOffset dy="3.55766"/>
<feGaussianBlur stdDeviation="111.177"/>
<feComposite in2="hardAlpha" operator="out"/>
<feColorMatrix type="matrix" values="0 0 0 0 0.344507 0 0 0 0 0.295589 0 0 0 0 1 0 0 0 0.74 0"/>
<feBlend mode="normal" in2="BackgroundImageFix" result="effect1_dropShadow_1_248"/>
<feColorMatrix in="SourceAlpha" type="matrix" values="0 0 0 0 0 0 0 0 0 0 0 0 0 0 0 0 0 0 127 0" result="hardAlpha"/>
<feOffset dy="3.55766"/>
<feGaussianBlur stdDeviation="8.71627"/>
<feComposite in2="hardAlpha" operator="out"/>
<feColorMatrix type="matrix" values="0 0 0 0 0.328079 0 0 0 0 0.224707 0 0 0 0 1 0 0 0 0.25 0"/>
<feBlend mode="normal" in2="effect1_dropShadow_1_248" result="effect2_dropShadow_1_248"/>
<feColorMatrix in="SourceAlpha" type="matrix" values="0 0 0 0 0 0 0 0 0 0 0 0 0 0 0 0 0 0 127 0" result="hardAlpha"/>
<feOffset dy="3.55766"/>
<feGaussianBlur stdDeviation="13.7415"/>
<feComposite in2="hardAlpha" operator="out"/>
<feColorMatrix type="matrix" values="0 0 0 0 0.198014 0 0 0 0 0.278213 0 0 0 0 1 0 0 0 0.46 0"/>
<feBlend mode="normal" in2="effect2_dropShadow_1_248" result="effect3_dropShadow_1_248"/>
<feColorMatrix in="SourceAlpha" type="matrix" values="0 0 0 0 0 0 0 0 0 0 0 0 0 0 0 0 0 0 127 0" result="hardAlpha"/>
<feOffset dy="1.77883"/>
<feGaussianBlur stdDeviation="1.77883"/>
<feComposite in2="hardAlpha" operator="out"/>
<feColorMatrix type="matrix" values="0 0 0 0 0.867259 0 0 0 0 0.336296 0 0 0 0 1 0 0 0 0.25 0"/>
<feBlend mode="normal" in2="effect3_dropShadow_1_248" result="effect4_dropShadow_1_248"/>
<feBlend mode="normal" in="SourceGraphic" in2="effect4_dropShadow_1_248" result="shape"/>
<feColorMatrix in="SourceAlpha" type="matrix" values="0 0 0 0 0 0 0 0 0 0 0 0 0 0 0 0 0 0 127 0" result="hardAlpha"/>
<feOffset dy="-4.44707"/>
<feGaussianBlur stdDeviation="12.2295"/>
<feComposite in2="hardAlpha" operator="arithmetic" k2="-1" k3="1"/>
<feColorMatrix type="matrix" values="0 0 0 0 0.151221 0 0 0 0 0.519025 0 0 0 0 1 0 0 0 0.55 0"/>
<feBlend mode="normal" in2="shape" result="effect5_innerShadow_1_248"/>
<feColorMatrix in="SourceAlpha" type="matrix" values="0 0 0 0 0 0 0 0 0 0 0 0 0 0 0 0 0 0 127 0" result="hardAlpha"/>
<feOffset dy="-4.44707"/>
<feGaussianBlur stdDeviation="2.22354"/>
<feComposite in2="hardAlpha" operator="arithmetic" k2="-1" k3="1"/>
<feColorMatrix type="matrix" values="0 0 0 0 0.790449 0 0 0 0 0.301497 0 0 0 0 1 0 0 0 0.25 0"/>
<feBlend mode="normal" in2="effect5_innerShadow_1_248" result="effect6_innerShadow_1_248"/>
</filter>
<filter id="filter9_f_1_248" x="348.57" y="523.807" width="530.303" height="395.82" filterUnits="userSpaceOnUse" color-interpolation-filters="sRGB">
<feFlood flood-opacity="0" result="BackgroundImageFix"/>
<feBlend mode="normal" in="SourceGraphic" in2="BackgroundImageFix" result="shape"/>
<feGaussianBlur stdDeviation="71.5337" result="effect1_foregroundBlur_1_248"/>
</filter>
<filter id="filter10_f_1_248" x="507.851" y="650" width="211.74" height="174.542" filterUnits="userSpaceOnUse" color-interpolation-filters="sRGB">
<feFlood flood-opacity="0" result="BackgroundImageFix"/>
<feBlend mode="normal" in="SourceGraphic" in2="BackgroundImageFix" result="shape"/>
<feGaussianBlur stdDeviation="23.8446" result="effect1_foregroundBlur_1_248"/>
</filter>
<filter id="filter11_f_1_248" x="551.479" y="650" width="223.185" height="173.589" filterUnits="userSpaceOnUse" color-interpolation-filters="sRGB">
<feFlood flood-opacity="0" result="BackgroundImageFix"/>
<feBlend mode="normal" in="SourceGraphic" in2="BackgroundImageFix" result="shape"/>
<feGaussianBlur stdDeviation="23.8446" result="effect1_foregroundBlur_1_248"/>
</filter>
<filter id="filter12_ddddii_1_248" x="52.8807" y="78.3555" width="618.713" height="618.713" filterUnits="userSpaceOnUse" color-interpolation-filters="sRGB">
<feFlood flood-opacity="0" result="BackgroundImageFix"/>
<feColorMatrix in="SourceAlpha" type="matrix" values="0 0 0 0 0 0 0 0 0 0 0 0 0 0 0 0 0 0 127 0" result="hardAlpha"/>
<feOffset dy="3.55766"/>
<feGaussianBlur stdDeviation="111.177"/>
<feComposite in2="hardAlpha" operator="out"/>
<feColorMatrix type="matrix" values="0 0 0 0 0.344507 0 0 0 0 0.295589 0 0 0 0 1 0 0 0 0.74 0"/>
<feBlend mode="normal" in2="BackgroundImageFix" result="effect1_dropShadow_1_248"/>
<feColorMatrix in="SourceAlpha" type="matrix" values="0 0 0 0 0 0 0 0 0 0 0 0 0 0 0 0 0 0 127 0" result="hardAlpha"/>
<feOffset dy="3.55766"/>
<feGaussianBlur stdDeviation="8.71627"/>
<feComposite in2="hardAlpha" operator="out"/>
<feColorMatrix type="matrix" values="0 0 0 0 0.328079 0 0 0 0 0.224707 0 0 0 0 1 0 0 0 0.25 0"/>
<feBlend mode="normal" in2="effect1_dropShadow_1_248" result="effect2_dropShadow_1_248"/>
<feColorMatrix in="SourceAlpha" type="matrix" values="0 0 0 0 0 0 0 0 0 0 0 0 0 0 0 0 0 0 127 0" result="hardAlpha"/>
<feOffset dy="3.55766"/>
<feGaussianBlur stdDeviation="13.7415"/>
<feComposite in2="hardAlpha" operator="out"/>
<feColorMatrix type="matrix" values="0 0 0 0 0.198014 0 0 0 0 0.278213 0 0 0 0 1 0 0 0 0.46 0"/>
<feBlend mode="normal" in2="effect2_dropShadow_1_248" result="effect3_dropShadow_1_248"/>
<feColorMatrix in="SourceAlpha" type="matrix" values="0 0 0 0 0 0 0 0 0 0 0 0 0 0 0 0 0 0 127 0" result="hardAlpha"/>
<feOffset dy="1.77883"/>
<feGaussianBlur stdDeviation="1.77883"/>
<feComposite in2="hardAlpha" operator="out"/>
<feColorMatrix type="matrix" values="0 0 0 0 0.867259 0 0 0 0 0.336296 0 0 0 0 1 0 0 0 0.25 0"/>
<feBlend mode="normal" in2="effect3_dropShadow_1_248" result="effect4_dropShadow_1_248"/>
<feBlend mode="normal" in="SourceGraphic" in2="effect4_dropShadow_1_248" result="shape"/>
<feColorMatrix in="SourceAlpha" type="matrix" values="0 0 0 0 0 0 0 0 0 0 0 0 0 0 0 0 0 0 127 0" result="hardAlpha"/>
<feOffset dy="-4.44707"/>
<feGaussianBlur stdDeviation="12.2295"/>
<feComposite in2="hardAlpha" operator="arithmetic" k2="-1" k3="1"/>
<feColorMatrix type="matrix" values="0 0 0 0 0.151221 0 0 0 0 0.519025 0 0 0 0 1 0 0 0 0.55 0"/>
<feBlend mode="normal" in2="shape" result="effect5_innerShadow_1_248"/>
<feColorMatrix in="SourceAlpha" type="matrix" values="0 0 0 0 0 0 0 0 0 0 0 0 0 0 0 0 0 0 127 0" result="hardAlpha"/>
<feOffset dy="-4.44707"/>
<feGaussianBlur stdDeviation="2.22354"/>
<feComposite in2="hardAlpha" operator="arithmetic" k2="-1" k3="1"/>
<feColorMatrix type="matrix" values="0 0 0 0 0.790449 0 0 0 0 0.301497 0 0 0 0 1 0 0 0 0.25 0"/>
<feBlend mode="normal" in2="effect5_innerShadow_1_248" result="effect6_innerShadow_1_248"/>
</filter>
<filter id="filter13_f_1_248" x="105.611" y="292.089" width="530.304" height="395.82" filterUnits="userSpaceOnUse" color-interpolation-filters="sRGB">
<feFlood flood-opacity="0" result="BackgroundImageFix"/>
<feBlend mode="normal" in="SourceGraphic" in2="BackgroundImageFix" result="shape"/>
<feGaussianBlur stdDeviation="71.5337" result="effect1_foregroundBlur_1_248"/>
</filter>
<filter id="filter14_f_1_248" x="264.893" y="418.282" width="211.74" height="174.542" filterUnits="userSpaceOnUse" color-interpolation-filters="sRGB">
<feFlood flood-opacity="0" result="BackgroundImageFix"/>
<feBlend mode="normal" in="SourceGraphic" in2="BackgroundImageFix" result="shape"/>
<feGaussianBlur stdDeviation="23.8446" result="effect1_foregroundBlur_1_248"/>
</filter>
<filter id="filter15_f_1_248" x="308.52" y="418.282" width="223.185" height="173.589" filterUnits="userSpaceOnUse" color-interpolation-filters="sRGB">
<feFlood flood-opacity="0" result="BackgroundImageFix"/>
<feBlend mode="normal" in="SourceGraphic" in2="BackgroundImageFix" result="shape"/>
<feGaussianBlur stdDeviation="23.8446" result="effect1_foregroundBlur_1_248"/>
</filter>
<filter id="filter16_ddddii_1_248" x="31.8853" y="109.37" width="325.879" height="325.879" filterUnits="userSpaceOnUse" color-interpolation-filters="sRGB">
<feFlood flood-opacity="0" result="BackgroundImageFix"/>
<feColorMatrix in="SourceAlpha" type="matrix" values="0 0 0 0 0 0 0 0 0 0 0 0 0 0 0 0 0 0 127 0" result="hardAlpha"/>
<feOffset dy="1.87384"/>
<feGaussianBlur stdDeviation="58.5574"/>
<feComposite in2="hardAlpha" operator="out"/>
<feColorMatrix type="matrix" values="0 0 0 0 0.344507 0 0 0 0 0.295589 0 0 0 0 1 0 0 0 0.74 0"/>
<feBlend mode="normal" in2="BackgroundImageFix" result="effect1_dropShadow_1_248"/>
<feColorMatrix in="SourceAlpha" type="matrix" values="0 0 0 0 0 0 0 0 0 0 0 0 0 0 0 0 0 0 127 0" result="hardAlpha"/>
<feOffset dy="1.87384"/>
<feGaussianBlur stdDeviation="4.5909"/>
<feComposite in2="hardAlpha" operator="out"/>
<feColorMatrix type="matrix" values="0 0 0 0 0.328079 0 0 0 0 0.224707 0 0 0 0 1 0 0 0 0.25 0"/>
<feBlend mode="normal" in2="effect1_dropShadow_1_248" result="effect2_dropShadow_1_248"/>
<feColorMatrix in="SourceAlpha" type="matrix" values="0 0 0 0 0 0 0 0 0 0 0 0 0 0 0 0 0 0 127 0" result="hardAlpha"/>
<feOffset dy="1.87384"/>
<feGaussianBlur stdDeviation="7.23769"/>
<feComposite in2="hardAlpha" operator="out"/>
<feColorMatrix type="matrix" values="0 0 0 0 0.198014 0 0 0 0 0.278213 0 0 0 0 1 0 0 0 0.46 0"/>
<feBlend mode="normal" in2="effect2_dropShadow_1_248" result="effect3_dropShadow_1_248"/>
<feColorMatrix in="SourceAlpha" type="matrix" values="0 0 0 0 0 0 0 0 0 0 0 0 0 0 0 0 0 0 127 0" result="hardAlpha"/>
<feOffset dy="0.936918"/>
<feGaussianBlur stdDeviation="0.936918"/>
<feComposite in2="hardAlpha" operator="out"/>
<feColorMatrix type="matrix" values="0 0 0 0 0.867259 0 0 0 0 0.336296 0 0 0 0 1 0 0 0 0.25 0"/>
<feBlend mode="normal" in2="effect3_dropShadow_1_248" result="effect4_dropShadow_1_248"/>
<feBlend mode="normal" in="SourceGraphic" in2="effect4_dropShadow_1_248" result="shape"/>
<feColorMatrix in="SourceAlpha" type="matrix" values="0 0 0 0 0 0 0 0 0 0 0 0 0 0 0 0 0 0 127 0" result="hardAlpha"/>
<feOffset dy="-2.34229"/>
<feGaussianBlur stdDeviation="6.44131"/>
<feComposite in2="hardAlpha" operator="arithmetic" k2="-1" k3="1"/>
<feColorMatrix type="matrix" values="0 0 0 0 0.151221 0 0 0 0 0.519025 0 0 0 0 1 0 0 0 0.55 0"/>
<feBlend mode="normal" in2="shape" result="effect5_innerShadow_1_248"/>
<feColorMatrix in="SourceAlpha" type="matrix" values="0 0 0 0 0 0 0 0 0 0 0 0 0 0 0 0 0 0 127 0" result="hardAlpha"/>
<feOffset dy="-2.34229"/>
<feGaussianBlur stdDeviation="1.17115"/>
<feComposite in2="hardAlpha" operator="arithmetic" k2="-1" k3="1"/>
<feColorMatrix type="matrix" values="0 0 0 0 0.790449 0 0 0 0 0.301497 0 0 0 0 1 0 0 0 0.25 0"/>
<feBlend mode="normal" in2="effect5_innerShadow_1_248" result="effect6_innerShadow_1_248"/>
</filter>
<filter id="filter17_f_1_248" x="59.6585" y="221.945" width="279.313" height="208.48" filterUnits="userSpaceOnUse" color-interpolation-filters="sRGB">
<feFlood flood-opacity="0" result="BackgroundImageFix"/>
<feBlend mode="normal" in="SourceGraphic" in2="BackgroundImageFix" result="shape"/>
<feGaussianBlur stdDeviation="37.6771" result="effect1_foregroundBlur_1_248"/>
</filter>
<filter id="filter18_f_1_248" x="143.553" y="288.411" width="111.524" height="91.9323" filterUnits="userSpaceOnUse" color-interpolation-filters="sRGB">
<feFlood flood-opacity="0" result="BackgroundImageFix"/>
<feBlend mode="normal" in="SourceGraphic" in2="BackgroundImageFix" result="shape"/>
<feGaussianBlur stdDeviation="12.5591" result="effect1_foregroundBlur_1_248"/>
</filter>
<filter id="filter19_f_1_248" x="166.532" y="288.411" width="117.553" height="91.4299" filterUnits="userSpaceOnUse" color-interpolation-filters="sRGB">
<feFlood flood-opacity="0" result="BackgroundImageFix"/>
<feBlend mode="normal" in="SourceGraphic" in2="BackgroundImageFix" result="shape"/>
<feGaussianBlur stdDeviation="12.5591" result="effect1_foregroundBlur_1_248"/>
</filter>
<filter id="filter20_ddddii_1_248" x="0.138977" y="347.252" width="618.713" height="618.713" filterUnits="userSpaceOnUse" color-interpolation-filters="sRGB">
<feFlood flood-opacity="0" result="BackgroundImageFix"/>
<feColorMatrix in="SourceAlpha" type="matrix" values="0 0 0 0 0 0 0 0 0 0 0 0 0 0 0 0 0 0 127 0" result="hardAlpha"/>
<feOffset dy="3.55766"/>
<feGaussianBlur stdDeviation="111.177"/>
<feComposite in2="hardAlpha" operator="out"/>
<feColorMatrix type="matrix" values="0 0 0 0 0.344507 0 0 0 0 0.295589 0 0 0 0 1 0 0 0 0.74 0"/>
<feBlend mode="normal" in2="BackgroundImageFix" result="effect1_dropShadow_1_248"/>
<feColorMatrix in="SourceAlpha" type="matrix" values="0 0 0 0 0 0 0 0 0 0 0 0 0 0 0 0 0 0 127 0" result="hardAlpha"/>
<feOffset dy="3.55766"/>
<feGaussianBlur stdDeviation="8.71627"/>
<feComposite in2="hardAlpha" operator="out"/>
<feColorMatrix type="matrix" values="0 0 0 0 0.328079 0 0 0 0 0.224707 0 0 0 0 1 0 0 0 0.25 0"/>
<feBlend mode="normal" in2="effect1_dropShadow_1_248" result="effect2_dropShadow_1_248"/>
<feColorMatrix in="SourceAlpha" type="matrix" values="0 0 0 0 0 0 0 0 0 0 0 0 0 0 0 0 0 0 127 0" result="hardAlpha"/>
<feOffset dy="3.55766"/>
<feGaussianBlur stdDeviation="13.7415"/>
<feComposite in2="hardAlpha" operator="out"/>
<feColorMatrix type="matrix" values="0 0 0 0 0.198014 0 0 0 0 0.278213 0 0 0 0 1 0 0 0 0.46 0"/>
<feBlend mode="normal" in2="effect2_dropShadow_1_248" result="effect3_dropShadow_1_248"/>
<feColorMatrix in="SourceAlpha" type="matrix" values="0 0 0 0 0 0 0 0 0 0 0 0 0 0 0 0 0 0 127 0" result="hardAlpha"/>
<feOffset dy="1.77883"/>
<feGaussianBlur stdDeviation="1.77883"/>
<feComposite in2="hardAlpha" operator="out"/>
<feColorMatrix type="matrix" values="0 0 0 0 0.867259 0 0 0 0 0.336296 0 0 0 0 1 0 0 0 0.25 0"/>
<feBlend mode="normal" in2="effect3_dropShadow_1_248" result="effect4_dropShadow_1_248"/>
<feBlend mode="normal" in="SourceGraphic" in2="effect4_dropShadow_1_248" result="shape"/>
<feColorMatrix in="SourceAlpha" type="matrix" values="0 0 0 0 0 0 0 0 0 0 0 0 0 0 0 0 0 0 127 0" result="hardAlpha"/>
<feOffset dy="-4.44707"/>
<feGaussianBlur stdDeviation="12.2295"/>
<feComposite in2="hardAlpha" operator="arithmetic" k2="-1" k3="1"/>
<feColorMatrix type="matrix" values="0 0 0 0 0.151221 0 0 0 0 0.519025 0 0 0 0 1 0 0 0 0.55 0"/>
<feBlend mode="normal" in2="shape" result="effect5_innerShadow_1_248"/>
<feColorMatrix in="SourceAlpha" type="matrix" values="0 0 0 0 0 0 0 0 0 0 0 0 0 0 0 0 0 0 127 0" result="hardAlpha"/>
<feOffset dy="-4.44707"/>
<feGaussianBlur stdDeviation="2.22354"/>
<feComposite in2="hardAlpha" operator="arithmetic" k2="-1" k3="1"/>
<feColorMatrix type="matrix" values="0 0 0 0 0.790449 0 0 0 0 0.301497 0 0 0 0 1 0 0 0 0.25 0"/>
<feBlend mode="normal" in2="effect5_innerShadow_1_248" result="effect6_innerShadow_1_248"/>
</filter>
<filter id="filter21_f_1_248" x="52.8694" y="560.986" width="530.303" height="395.82" filterUnits="userSpaceOnUse" color-interpolation-filters="sRGB">
<feFlood flood-opacity="0" result="BackgroundImageFix"/>
<feBlend mode="normal" in="SourceGraphic" in2="BackgroundImageFix" result="shape"/>
<feGaussianBlur stdDeviation="71.5337" result="effect1_foregroundBlur_1_248"/>
</filter>
<filter id="filter22_f_1_248" x="212.151" y="687.179" width="211.74" height="174.542" filterUnits="userSpaceOnUse" color-interpolation-filters="sRGB">
<feFlood flood-opacity="0" result="BackgroundImageFix"/>
<feBlend mode="normal" in="SourceGraphic" in2="BackgroundImageFix" result="shape"/>
<feGaussianBlur stdDeviation="23.8446" result="effect1_foregroundBlur_1_248"/>
</filter>
<filter id="filter23_f_1_248" x="255.779" y="687.179" width="223.185" height="173.589" filterUnits="userSpaceOnUse" color-interpolation-filters="sRGB">
<feFlood flood-opacity="0" result="BackgroundImageFix"/>
<feBlend mode="normal" in="SourceGraphic" in2="BackgroundImageFix" result="shape"/>
<feGaussianBlur stdDeviation="23.8446" result="effect1_foregroundBlur_1_248"/>
</filter>
<filter id="filter24_ddddii_1_248" x="295.547" y="381.467" width="304.359" height="304.359" filterUnits="userSpaceOnUse" color-interpolation-filters="sRGB">
<feFlood flood-opacity="0" result="BackgroundImageFix"/>
<feColorMatrix in="SourceAlpha" type="matrix" values="0 0 0 0 0 0 0 0 0 0 0 0 0 0 0 0 0 0 127 0" result="hardAlpha"/>
<feOffset dy="1.75009"/>
<feGaussianBlur stdDeviation="54.6904"/>
<feComposite in2="hardAlpha" operator="out"/>
<feColorMatrix type="matrix" values="0 0 0 0 0.344507 0 0 0 0 0.295589 0 0 0 0 1 0 0 0 0.74 0"/>
<feBlend mode="normal" in2="BackgroundImageFix" result="effect1_dropShadow_1_248"/>
<feColorMatrix in="SourceAlpha" type="matrix" values="0 0 0 0 0 0 0 0 0 0 0 0 0 0 0 0 0 0 127 0" result="hardAlpha"/>
<feOffset dy="1.75009"/>
<feGaussianBlur stdDeviation="4.28772"/>
<feComposite in2="hardAlpha" operator="out"/>
<feColorMatrix type="matrix" values="0 0 0 0 0.328079 0 0 0 0 0.224707 0 0 0 0 1 0 0 0 0.25 0"/>
<feBlend mode="normal" in2="effect1_dropShadow_1_248" result="effect2_dropShadow_1_248"/>
<feColorMatrix in="SourceAlpha" type="matrix" values="0 0 0 0 0 0 0 0 0 0 0 0 0 0 0 0 0 0 127 0" result="hardAlpha"/>
<feOffset dy="1.75009"/>
<feGaussianBlur stdDeviation="6.75973"/>
<feComposite in2="hardAlpha" operator="out"/>
<feColorMatrix type="matrix" values="0 0 0 0 0.198014 0 0 0 0 0.278213 0 0 0 0 1 0 0 0 0.46 0"/>
<feBlend mode="normal" in2="effect2_dropShadow_1_248" result="effect3_dropShadow_1_248"/>
<feColorMatrix in="SourceAlpha" type="matrix" values="0 0 0 0 0 0 0 0 0 0 0 0 0 0 0 0 0 0 127 0" result="hardAlpha"/>
<feOffset dy="0.875046"/>
<feGaussianBlur stdDeviation="0.875046"/>
<feComposite in2="hardAlpha" operator="out"/>
<feColorMatrix type="matrix" values="0 0 0 0 0.867259 0 0 0 0 0.336296 0 0 0 0 1 0 0 0 0.25 0"/>
<feBlend mode="normal" in2="effect3_dropShadow_1_248" result="effect4_dropShadow_1_248"/>
<feBlend mode="normal" in="SourceGraphic" in2="effect4_dropShadow_1_248" result="shape"/>
<feColorMatrix in="SourceAlpha" type="matrix" values="0 0 0 0 0 0 0 0 0 0 0 0 0 0 0 0 0 0 127 0" result="hardAlpha"/>
<feOffset dy="-2.18761"/>
<feGaussianBlur stdDeviation="6.01594"/>
<feComposite in2="hardAlpha" operator="arithmetic" k2="-1" k3="1"/>
<feColorMatrix type="matrix" values="0 0 0 0 0.151221 0 0 0 0 0.519025 0 0 0 0 1 0 0 0 0.55 0"/>
<feBlend mode="normal" in2="shape" result="effect5_innerShadow_1_248"/>
<feColorMatrix in="SourceAlpha" type="matrix" values="0 0 0 0 0 0 0 0 0 0 0 0 0 0 0 0 0 0 127 0" result="hardAlpha"/>
<feOffset dy="-2.18761"/>
<feGaussianBlur stdDeviation="1.09381"/>
<feComposite in2="hardAlpha" operator="arithmetic" k2="-1" k3="1"/>
<feColorMatrix type="matrix" values="0 0 0 0 0.790449 0 0 0 0 0.301497 0 0 0 0 1 0 0 0 0.25 0"/>
<feBlend mode="normal" in2="effect5_innerShadow_1_248" result="effect6_innerShadow_1_248"/>
</filter>
<filter id="filter25_f_1_248" x="321.486" y="486.607" width="260.868" height="194.713" filterUnits="userSpaceOnUse" color-interpolation-filters="sRGB">
<feFlood flood-opacity="0" result="BackgroundImageFix"/>
<feBlend mode="normal" in="SourceGraphic" in2="BackgroundImageFix" result="shape"/>
<feGaussianBlur stdDeviation="35.189" result="effect1_foregroundBlur_1_248"/>
</filter>
<filter id="filter26_f_1_248" x="399.84" y="548.684" width="104.16" height="85.8613" filterUnits="userSpaceOnUse" color-interpolation-filters="sRGB">
<feFlood flood-opacity="0" result="BackgroundImageFix"/>
<feBlend mode="normal" in="SourceGraphic" in2="BackgroundImageFix" result="shape"/>
<feGaussianBlur stdDeviation="11.7297" result="effect1_foregroundBlur_1_248"/>
</filter>
<filter id="filter27_f_1_248" x="421.302" y="548.684" width="109.79" height="85.3921" filterUnits="userSpaceOnUse" color-interpolation-filters="sRGB">
<feFlood flood-opacity="0" result="BackgroundImageFix"/>
<feBlend mode="normal" in="SourceGraphic" in2="BackgroundImageFix" result="shape"/>
<feGaussianBlur stdDeviation="11.7297" result="effect1_foregroundBlur_1_248"/>
</filter>
<linearGradient id="paint0_linear_1_248" x1="590.83" y1="272.679" x2="613.651" y2="336.77" gradientUnits="userSpaceOnUse">
<stop stop-color="#E1C3FF"/>
<stop offset="0.205" stop-color="#8B79FF"/>
<stop offset="1" stop-color="#4830FF"/>
</linearGradient>
<linearGradient id="paint1_linear_1_248" x1="610.597" y1="190.309" x2="620.074" y2="389.463" gradientUnits="userSpaceOnUse">
<stop stop-color="#EDEDED" stop-opacity="0"/>
<stop offset="1" stop-color="#EDEDED"/>
</linearGradient>
<linearGradient id="paint2_linear_1_248" x1="423.879" y1="197.869" x2="437.486" y2="236.085" gradientUnits="userSpaceOnUse">
<stop stop-color="#E1C3FF"/>
<stop offset="0.205" stop-color="#8B79FF"/>
<stop offset="1" stop-color="#4830FF"/>
</linearGradient>
<linearGradient id="paint3_linear_1_248" x1="435.666" y1="148.754" x2="441.317" y2="267.504" gradientUnits="userSpaceOnUse">
<stop stop-color="#EDEDED" stop-opacity="0"/>
<stop offset="1" stop-color="#EDEDED"/>
</linearGradient>
<linearGradient id="paint4_linear_1_248" x1="576.625" y1="587.858" x2="591.876" y2="651.149" gradientUnits="userSpaceOnUse">
<stop stop-color="#E1C3FF"/>
<stop offset="0.205" stop-color="#8B79FF"/>
<stop offset="1" stop-color="#4830FF"/>
</linearGradient>
<linearGradient id="paint5_linear_1_248" x1="604.545" y1="503.302" x2="614.022" y2="702.456" gradientUnits="userSpaceOnUse">
<stop stop-color="#EDEDED" stop-opacity="0"/>
<stop offset="1" stop-color="#EDEDED"/>
</linearGradient>
<linearGradient id="paint6_linear_1_248" x1="342.795" y1="350.794" x2="364.636" y2="416.928" gradientUnits="userSpaceOnUse">
<stop stop-color="#E1C3FF"/>
<stop offset="0.205" stop-color="#8B79FF"/>
<stop offset="1" stop-color="#4830FF"/>
</linearGradient>
<linearGradient id="paint7_linear_1_248" x1="361.587" y1="271.583" x2="371.064" y2="470.738" gradientUnits="userSpaceOnUse">
<stop stop-color="#EDEDED" stop-opacity="0"/>
<stop offset="1" stop-color="#EDEDED"/>
</linearGradient>
<linearGradient id="paint8_linear_1_248" x1="184.584" y1="252.865" x2="196.089" y2="287.698" gradientUnits="userSpaceOnUse">
<stop stop-color="#E1C3FF"/>
<stop offset="0.205" stop-color="#8B79FF"/>
<stop offset="1" stop-color="#4830FF"/>
</linearGradient>
<linearGradient id="paint9_linear_1_248" x1="194.482" y1="211.144" x2="199.474" y2="316.04" gradientUnits="userSpaceOnUse">
<stop stop-color="#EDEDED" stop-opacity="0"/>
<stop offset="1" stop-color="#EDEDED"/>
</linearGradient>
<linearGradient id="paint10_linear_1_248" x1="289.078" y1="622.851" x2="311.898" y2="686.941" gradientUnits="userSpaceOnUse">
<stop stop-color="#E1C3FF"/>
<stop offset="0.205" stop-color="#8B79FF"/>
<stop offset="1" stop-color="#4830FF"/>
</linearGradient>
<linearGradient id="paint11_linear_1_248" x1="308.845" y1="540.48" x2="318.322" y2="739.635" gradientUnits="userSpaceOnUse">
<stop stop-color="#EDEDED" stop-opacity="0"/>
<stop offset="1" stop-color="#EDEDED"/>
</linearGradient>
<linearGradient id="paint12_linear_1_248" x1="437.682" y1="517.039" x2="448.908" y2="548.567" gradientUnits="userSpaceOnUse">
<stop stop-color="#E1C3FF"/>
<stop offset="0.205" stop-color="#8B79FF"/>
<stop offset="1" stop-color="#4830FF"/>
</linearGradient>
<linearGradient id="paint13_linear_1_248" x1="447.406" y1="476.52" x2="452.068" y2="574.488" gradientUnits="userSpaceOnUse">
<stop stop-color="#EDEDED" stop-opacity="0"/>
<stop offset="1" stop-color="#EDEDED"/>
</linearGradient>
<clipPath id="clip0_1_248">
<rect x="524.245" y="215.877" width="174.006" height="174.006" rx="87.003" fill="white"/>
</clipPath>
<clipPath id="clip1_1_248">
<rect width="68.1892" height="74.498" fill="white" transform="translate(578.148 266.429)"/>
</clipPath>
<clipPath id="clip2_1_248">
<rect x="384.177" y="164" width="103.754" height="103.754" rx="51.8772" fill="white"/>
</clipPath>
<clipPath id="clip3_1_248">
<rect width="40.6591" height="44.4209" fill="white" transform="translate(416.317 194.143)"/>
</clipPath>
<clipPath id="clip4_1_248">
<rect x="518.193" y="528.87" width="174.006" height="174.006" rx="87.003" fill="white"/>
</clipPath>
<clipPath id="clip5_1_248">
<rect x="275.234" y="297.152" width="174.006" height="174.006" rx="87.003" fill="white"/>
</clipPath>
<clipPath id="clip6_1_248">
<rect x="149" y="224.611" width="91.6498" height="91.6498" rx="45.8249" fill="white"/>
</clipPath>
<clipPath id="clip7_1_248">
<rect x="222.493" y="566.049" width="174.006" height="174.006" rx="87.003" fill="white"/>
</clipPath>
<clipPath id="clip8_1_248">
<rect width="68.1892" height="74.498" fill="white" transform="translate(276.396 616.601)"/>
</clipPath>
<clipPath id="clip9_1_248">
<rect x="404.928" y="489.097" width="85.5974" height="85.5974" rx="42.7987" fill="white"/>
</clipPath>
<clipPath id="clip10_1_248">
<rect width="33.5438" height="36.6472" fill="white" transform="translate(431.444 513.965)"/>
</clipPath>
</defs>
</svg>
