<svg width="464" height="442" viewBox="0 0 464 442" fill="none" xmlns="http://www.w3.org/2000/svg">
<path d="M213.774 75.1588C213.774 75.1588 151.323 77.9084 118.239 143.209C85.1551 208.509 50.9963 188.127 30.8228 247.032C10.6494 305.937 51.3292 372.922 78.5976 380.179C105.866 387.437 417.336 380.179 417.336 380.179C417.336 380.179 458.489 352.043 461.716 278.961C464.943 205.88 403.618 181.472 378.2 171.082C352.783 160.691 313.613 73.5452 213.774 75.1588Z" fill="white" fill-opacity="0.1"/>
<path d="M303.258 253.748C375.198 205.344 389.148 180.489 424.656 175.868C511.143 164.612 447.775 388.173 249.726 435.946C155.629 458.643 39.0695 396.736 22.3998 348.637C6.28429 302.134 49.6727 284.69 113.74 309.632C177.809 334.573 266.604 278.41 303.258 253.748Z" stroke="#717C31" stroke-width="1.106" stroke-miterlimit="10"/>
<path d="M387.687 205.932C391.77 201.469 391.462 194.54 386.999 190.457C382.535 186.373 375.607 186.681 371.523 191.145C367.44 195.608 367.748 202.537 372.211 206.62C376.675 210.704 383.603 210.396 387.687 205.932Z" fill="#3D492B"/>
<path d="M382.939 421.524C387.217 417.246 387.217 410.311 382.939 406.033C378.662 401.755 371.726 401.755 367.449 406.033C363.171 410.311 363.171 417.246 367.449 421.524C371.726 425.801 378.662 425.801 382.939 421.524Z" stroke="#717C31" stroke-width="1.106" stroke-miterlimit="10"/>
<path d="M232.53 175.566C238.58 175.566 243.484 170.662 243.484 164.612C243.484 158.562 238.58 153.658 232.53 153.658C226.481 153.658 221.577 158.562 221.577 164.612C221.577 170.662 226.481 175.566 232.53 175.566Z" stroke="#717C31" stroke-width="1.106" stroke-miterlimit="10"/>
<path d="M201.533 208.373L190.422 223.839H211.538L201.533 208.373Z" stroke="#717C31" stroke-width="1.106" stroke-miterlimit="10" stroke-linecap="round" stroke-linejoin="round"/>
<path d="M149.32 404.845L142.335 418.293H163.45L149.32 404.845Z" fill="#3D492B"/>
<path d="M45.7597 239.493C48.4118 228.261 41.4567 217.006 30.2251 214.354C18.9934 211.702 7.73837 218.657 5.08626 229.889C2.43414 241.121 9.38926 252.376 20.6209 255.028C31.8526 257.68 43.1076 250.725 45.7597 239.493Z" stroke="#717C31" stroke-width="1.106" stroke-miterlimit="10" stroke-linecap="round" stroke-linejoin="round"/>
<path d="M22.191 239.941C22.0071 238.982 21.9152 238.128 21.9152 237.38C21.9152 236.237 22.0728 235.285 22.388 234.524C22.7031 233.749 23.0905 233.132 23.5501 232.672C24.0098 232.199 24.6073 231.694 25.3427 231.155C25.973 230.696 26.472 230.295 26.8397 229.954C27.2074 229.599 27.516 229.166 27.7656 228.654C28.0151 228.128 28.1398 227.505 28.1398 226.782C28.1398 225.692 27.8115 224.852 27.1549 224.261C26.4983 223.657 25.6316 223.355 24.5548 223.355C23.4254 223.355 22.4405 223.657 21.6 224.261C20.7596 224.852 20.1424 225.535 19.7484 226.31L16.9513 222.488C17.726 221.529 18.7897 220.709 20.1424 220.026C21.495 219.33 23.0052 218.982 24.6729 218.982C27.5357 218.982 29.6828 219.612 31.1143 220.873C32.5457 222.12 33.2614 223.919 33.2614 226.27C33.2614 227.216 33.1169 228.03 32.828 228.713C32.5391 229.382 32.178 229.947 31.7446 230.407C31.3112 230.853 30.7269 231.379 29.9915 231.983C29.1904 232.626 28.5404 233.21 28.0413 233.736C27.5554 234.261 27.1418 234.937 26.8003 235.765C26.4589 236.592 26.2882 237.59 26.2882 238.759V239.941H22.191ZM22.1516 243.723H26.6034V249.593H22.1516V243.723Z" fill="#739C3F"/>
<path d="M255.393 96.6872C263.554 88.5266 263.554 75.2957 255.393 67.135C247.233 58.9744 234.002 58.9744 225.841 67.135C217.68 75.2956 217.68 88.5266 225.841 96.6872C234.002 104.848 247.233 104.848 255.393 96.6872Z" fill="#739C3F"/>
<path d="M237.376 87.178C237.192 86.2193 237.1 85.3657 237.1 84.6172C237.1 83.4747 237.258 82.5226 237.573 81.761C237.888 80.9862 238.276 80.369 238.735 79.9093C239.195 79.4366 239.792 78.931 240.528 78.3926C241.158 77.9329 241.657 77.5324 242.025 77.191C242.393 76.8364 242.701 76.4031 242.951 75.8909C243.2 75.3656 243.325 74.7418 243.325 74.0196C243.325 72.9296 242.997 72.0891 242.34 71.4982C241.683 70.8941 240.817 70.5921 239.74 70.5921C238.61 70.5921 237.626 70.8941 236.785 71.4982C235.945 72.0891 235.327 72.772 234.933 73.5468L232.136 69.7254C232.911 68.7667 233.975 67.946 235.327 67.2631C236.68 66.5671 238.19 66.2191 239.858 66.2191C242.721 66.2191 244.868 66.8494 246.299 68.1101C247.731 69.3577 248.446 71.1568 248.446 73.5074C248.446 74.4529 248.302 75.2671 248.013 75.95C247.724 76.6197 247.363 77.1844 246.93 77.644C246.496 78.0905 245.912 78.6158 245.177 79.2199C244.375 79.8634 243.725 80.4477 243.226 80.973C242.741 81.4983 242.327 82.1746 241.985 83.0019C241.644 83.8293 241.473 84.8273 241.473 85.9961V87.178H237.376ZM237.337 90.96H241.788V96.8301H237.337V90.96Z" fill="white"/>
<path d="M90.0173 245.814C91.3472 240.156 87.8382 234.491 82.1796 233.161C76.521 231.831 70.8557 235.34 69.5257 240.998C68.1958 246.657 71.7049 252.322 77.3635 253.652C83.0221 254.982 88.6874 251.473 90.0173 245.814Z" fill="#3D492B"/>
<path d="M452.596 55.3203H358.414C353.038 55.3203 348.68 59.678 348.68 65.0542V121.738C348.68 127.114 353.038 131.472 358.414 131.472H377.584L373.783 141.294C372.683 144.139 375.976 146.658 378.434 144.852L396.639 131.471H452.597C457.973 131.471 462.331 127.113 462.331 121.737V65.0531C462.329 59.6779 457.971 55.3203 452.596 55.3203Z" fill="#92A855"/>
<path d="M359.79 71.21H449.88" stroke="white" stroke-width="1.106" stroke-miterlimit="10" stroke-linecap="round" stroke-linejoin="round"/>
<path d="M359.79 79.3916H449.88" stroke="white" stroke-width="1.106" stroke-miterlimit="10" stroke-linecap="round" stroke-linejoin="round"/>
<path d="M359.79 87.5762H449.88" stroke="white" stroke-width="1.106" stroke-miterlimit="10" stroke-linecap="round" stroke-linejoin="round"/>
<path d="M359.79 95.7598H449.88" stroke="white" stroke-width="1.106" stroke-miterlimit="10" stroke-linecap="round" stroke-linejoin="round"/>
<path d="M359.79 103.941H449.88" stroke="white" stroke-width="1.106" stroke-miterlimit="10" stroke-linecap="round" stroke-linejoin="round"/>
<path d="M359.79 112.126H449.88" stroke="white" stroke-width="1.106" stroke-miterlimit="10" stroke-linecap="round" stroke-linejoin="round"/>
<path d="M158.117 235.512C158.117 235.512 157.158 227.461 155.913 223.627C154.667 219.793 149.395 212.509 149.395 212.509C149.395 212.509 147.287 217.014 150.354 220.751C150.354 220.751 150.163 226.693 150.451 228.802C150.451 228.802 140.487 220.291 138.57 219.428C137.354 218.458 135.871 217.276 134.061 215.833C127.448 210.561 123.039 212.191 123.613 212.574C124.009 212.838 131.572 218.954 136.254 222.745L135.641 223.622C134.219 222.487 131.954 220.679 128.597 218.004C121.984 212.732 117.575 214.362 118.15 214.745C118.631 215.066 129.701 224.032 133.311 226.958L132.246 228.484C130.846 227.367 128.516 225.508 124.954 222.669C118.341 217.398 113.933 219.027 114.507 219.41C114.999 219.739 126.597 229.136 129.914 231.823L128.785 233.441C127.554 232.323 124.134 229.286 120.833 226.982C116.712 224.107 113.74 225.448 113.74 225.448C113.74 225.448 113.74 225.448 115.561 227.077C117.381 228.706 126.87 236.183 126.87 236.183C126.87 236.183 141.356 249.122 144.991 250.367L148.536 253.75L161.579 239.631L158.117 235.512Z" fill="#FF996A"/>
<path d="M262.403 324.882C254.625 336.097 243.746 343.024 229.283 340.081C190.552 332.208 144.82 257.027 144.82 257.027L147.122 254.536L164.191 236.069L223.596 290.052L242.147 263.197L260.268 236.973L269.223 224.014C269.223 224.014 274.468 232.306 277.768 258.667C279.829 275.187 275.478 306.068 262.403 324.882Z" fill="#D3DC6F"/>
<path d="M262.403 324.882C254.625 336.097 243.746 343.024 229.283 340.081C190.552 332.208 144.82 257.027 144.82 257.027L147.122 254.536L148.541 253.747C148.541 253.747 203.038 328.719 226.004 317.567C240.204 310.672 242.485 283.187 242.148 263.196L260.269 236.972L262.403 324.882Z" fill="#B0BB3E"/>
<path d="M407.878 317.567L404.349 379.71H390.664L396.043 317.567H407.878Z" fill="#8CB040"/>
<path d="M324.115 317.567L320.586 379.71H306.901L312.281 317.567H324.115Z" fill="#8CB040"/>
<path d="M409.278 328.323H300.855C290.079 328.323 281.342 319.587 281.342 308.81V248.162C281.342 237.385 290.079 228.648 300.855 228.648H409.278C420.055 228.648 428.791 237.385 428.791 248.162V308.81C428.791 319.587 420.055 328.323 409.278 328.323Z" fill="#8CB040"/>
<path d="M400.134 328.323H291.711C280.935 328.323 272.198 319.587 272.198 308.81V248.162C272.198 237.385 280.935 228.648 291.711 228.648H400.134C410.911 228.648 419.647 237.385 419.647 248.162V308.81C419.646 319.587 410.909 328.323 400.134 328.323Z" fill="#A4DB5D"/>
<path d="M318.41 200.669C318.41 200.669 339.793 197.235 368.561 226.996L375.197 379.71H254.966C254.966 379.71 241.838 276.683 257.141 240.045C272.444 203.405 299.93 199.031 318.41 200.669Z" fill="#F6FF94"/>
<path d="M276.465 117.847L281.744 110.619L326.748 125.687L326.358 142.591H329.33C335.365 142.591 340.259 147.484 340.259 153.521C340.259 159.557 335.366 164.45 329.33 164.45H325.853L325.323 187.394V207.557L292.74 212.037L291.941 198.552L291.519 191.467L286.791 189.209C273.258 182.751 264.638 169.09 264.638 154.094C264.638 141.058 268.782 128.367 276.465 117.847Z" fill="#FF996A"/>
<path d="M291.519 191.465L291.941 198.55C293.139 198.407 294.393 198.222 295.695 197.985C315.818 194.316 323.697 176.127 322.879 166.756C322.879 166.756 316.095 189.294 291.519 191.465Z" fill="#D37A57"/>
<path d="M329.665 150.389C328.823 151.027 328.046 151.871 327.769 152.926C327.769 152.926 329.449 153.486 329.601 155.371C329.754 157.254 327.769 158.069 327.769 158.069C327.769 158.069 329.296 160.615 331.842 159.24C334.388 157.866 333.965 153.067 331.435 152.061C331.435 152.061 335.457 151.603 336.933 153.08C336.933 153.08 337.27 151.599 335.589 150.29C333.856 148.937 331.416 149.063 329.665 150.389Z" fill="#D37A57"/>
<path d="M276.464 117.846C276.464 117.846 282.558 128.336 290.433 131.73C298.307 135.124 306.724 130.184 314.599 134.691C322.474 139.198 317.45 147.644 319.215 151.703C320.98 155.761 322.938 156.304 322.938 156.304C322.938 156.304 323.996 144.764 326.358 142.592C326.358 142.592 333.428 142.532 335.629 144.593C335.629 144.593 339.58 136.619 340.259 130.373C340.938 124.127 334.014 122.091 334.014 122.091C334.014 122.091 332.384 107.157 314.056 101.59C295.727 96.0239 281.744 104.849 274.412 101.59C267.081 98.3322 260.428 103.221 260.021 110.62C259.614 118.018 264.637 120.734 264.637 120.734C264.637 120.734 261.243 123.595 262.601 128.003C263.959 132.41 268.22 133.428 268.22 133.428C268.22 133.428 273.234 122.252 276.464 117.846Z" fill="#3F2D1F"/>
<path d="M280.115 171.524L298.777 170.607C298.777 170.607 294.457 177.329 288.307 177.264C282.645 177.205 280.115 171.524 280.115 171.524Z" fill="white"/>
<path d="M301.562 141.13C301.328 141.13 301.091 141.051 300.895 140.89C296.957 137.645 293.084 140.401 293.044 140.431C292.575 140.775 291.917 140.671 291.575 140.202C291.233 139.733 291.335 139.076 291.804 138.733C293.596 137.424 298.083 135.849 302.231 139.267C302.679 139.636 302.744 140.299 302.374 140.747C302.167 140.999 301.866 141.13 301.562 141.13Z" fill="#3F2D1F"/>
<path d="M278.357 141.13C278.122 141.13 277.886 141.051 277.69 140.89C273.752 137.645 269.878 140.401 269.839 140.431C269.37 140.775 268.712 140.671 268.37 140.202C268.028 139.733 268.13 139.076 268.599 138.733C270.392 137.424 274.878 135.849 279.026 139.267C279.475 139.636 279.538 140.299 279.169 140.747C278.962 140.999 278.661 141.13 278.357 141.13Z" fill="#3F2D1F"/>
<path d="M331.297 202.263L325.391 194.581L301.934 202.847L298.136 209.438L295.566 203.518L292.004 199.628L288.307 206.757C288.307 206.757 288.418 213.906 297.467 215.805C306.514 217.704 326.284 210.332 331.297 202.263Z" fill="#86AE3F"/>
<path d="M335.628 144.592C335.628 144.592 331.982 143.199 328.52 146.382C325.058 149.565 326.231 152.693 326.231 152.693C326.231 152.693 327.83 148.922 331.257 149.333C334.685 149.745 337.178 159.004 332.598 160.736C328.018 162.467 322.173 159.829 322.377 152.693C322.582 145.558 325.199 141.523 329.512 140.909C333.825 140.294 335.532 143.918 335.628 144.592Z" fill="#698C31"/>
<path d="M303.245 180.458C302.802 180.458 302.408 180.145 302.321 179.695C302.224 179.184 302.558 178.69 303.069 178.592C320.81 175.18 326.82 158.473 326.879 158.305C327.049 157.815 327.583 157.555 328.076 157.725C328.568 157.895 328.827 158.431 328.657 158.922C328.594 159.101 322.254 176.819 303.423 180.44C303.364 180.452 303.304 180.458 303.245 180.458Z" fill="#698C31"/>
<path d="M299.289 179.84C299.289 182.032 301.066 183.809 303.26 183.809C305.453 183.809 307.229 182.032 307.229 179.84C307.229 177.648 305.452 175.869 303.26 175.869C301.068 175.869 299.289 177.646 299.289 179.84Z" fill="#8CB040"/>
<path d="M330.809 151.045C330.809 151.045 330.307 155.43 331.27 157.777C332.234 160.123 333.742 158.909 334.035 156.06C334.327 153.211 331.479 149.215 330.809 151.045Z" fill="#8CB040"/>
<path d="M293.061 149.572C293.061 149.572 293.069 153.665 298.426 154.344C303.785 155.023 304.76 149.572 304.76 149.572C304.76 149.572 301.718 146.72 297.784 146.636C293.851 146.55 293.061 149.572 293.061 149.572Z" fill="white"/>
<path d="M268.582 149.572C268.582 149.572 268.589 153.665 273.832 154.344C279.075 155.023 279.777 149.576 279.777 149.576C279.777 149.576 277.052 146.72 273.203 146.636C269.354 146.55 268.582 149.572 268.582 149.572Z" fill="white"/>
<path d="M279.776 149.576C279.776 149.576 276.968 146.492 273.963 145.937C270.958 145.383 268.895 146.847 268.582 149.576C268.582 149.576 269.178 147.322 272.183 147.046C275.189 146.768 279.776 149.576 279.776 149.576Z" fill="#3F2D1F"/>
<path d="M304.76 149.572C304.76 149.572 301.826 146.348 298.685 145.77C295.544 145.191 293.388 146.72 293.061 149.572C293.061 149.572 293.684 147.216 296.825 146.927C299.966 146.638 304.76 149.572 304.76 149.572Z" fill="#3F2D1F"/>
<path d="M284.924 149.689L282.453 164.606C282.453 164.606 280.487 164.758 277.763 163.648C277.763 163.648 284.218 151.365 284.924 149.689Z" fill="#D37A57"/>
<path d="M211.393 379.709C211.393 379.709 210.992 367.798 224.405 364.066C237.82 360.333 254.16 371.246 256.783 379.709H211.393Z" fill="#8CB040"/>
<path d="M298.204 154.873C300.061 154.873 301.566 152.969 301.566 150.621C301.566 148.272 300.061 146.368 298.204 146.368C296.348 146.368 294.843 148.272 294.843 150.621C294.843 152.969 296.348 154.873 298.204 154.873Z" fill="#3F2D1F"/>
<path d="M277.999 150.754C277.999 153.029 276.531 154.873 274.721 154.873C272.91 154.873 271.442 153.029 271.442 150.754C271.442 148.479 272.91 146.634 274.721 146.634C276.531 146.634 277.999 148.477 277.999 150.754Z" fill="#3F2D1F"/>
<path d="M313.065 161.256C313.065 163.111 310.869 164.614 308.161 164.614C305.452 164.614 303.257 163.111 303.257 161.256C303.257 159.402 305.452 157.899 308.161 157.899C310.869 157.898 313.065 159.401 313.065 161.256Z" fill="#D37A57"/>
<path d="M273.022 159.647C273.022 161.501 270.827 163.004 268.118 163.004C265.41 163.004 263.214 161.501 263.214 159.647C263.214 157.792 265.41 156.289 268.118 156.289C270.827 156.289 273.022 157.792 273.022 159.647Z" fill="#D37A57"/>
<path d="M401.603 341.793C398.207 352.009 391.996 359.734 384.639 365.2C379.625 368.911 374.086 371.57 368.557 373.241C345.476 380.241 259.994 379.704 259.994 379.704L263.21 353.88L358.93 332.365C358.93 332.365 346.548 293.088 347.094 261.356C347.589 231.821 356.396 219.65 366.318 225.4C367.064 225.841 367.81 226.366 368.556 226.997C368.556 226.997 383.671 249.52 399.268 295.778C405.649 314.697 405.533 329.917 401.603 341.793Z" fill="#E1EB73"/>
<path d="M253.489 357.31L233.181 353.609C233.181 353.609 229.45 352.97 225.717 354.585C221.985 356.198 217.748 364.066 217.748 364.066C217.748 364.066 221.178 364.117 223.497 362.025C225.818 359.931 226.119 358.116 226.119 358.116L233.572 358.697L233.704 360.426C231.216 360.97 224.131 362.586 220.673 364.068C216.438 365.884 214.218 371.43 214.218 371.43C214.218 371.43 219.765 370.624 222.589 367.194L234.125 365.886L234.208 366.963C231.83 367.125 227.584 367.658 223.599 369.414C217.647 372.036 215.833 375.567 215.833 375.567C215.833 375.567 221.784 375.567 225.969 372.339L228.787 372.106C226.002 373.891 223.599 378.19 223.599 378.19C223.599 378.19 224.809 378.493 227.533 377.282C230.256 376.072 230.963 374.692 230.963 374.692L238.899 375.286C243.02 375.874 249.255 376.453 252.817 375.265L260.407 376.433L262.789 357.314H253.489V357.31Z" fill="#FF996A"/>
<path d="M422.543 392.206H40.6918C37.2411 392.206 34.4429 389.408 34.4429 385.957C34.4429 382.506 37.2411 379.708 40.6918 379.708H422.544C425.995 379.708 428.793 382.506 428.793 385.957C428.792 389.409 425.995 392.206 422.543 392.206Z" fill="#8CB040"/>
<path d="M276.166 392.206H38.1922C36.1218 392.206 34.4429 389.408 34.4429 385.957C34.4429 382.506 36.1218 379.708 38.1922 379.708H157.179H276.166C278.236 379.708 279.915 382.506 279.915 385.957C279.915 389.409 278.236 392.206 276.166 392.206Z" fill="#A4DB5D"/>
<path d="M204.204 355.626H72.7011C68.266 355.626 64.4271 352.54 63.4726 348.209L46.4745 271.01C45.6406 267.224 48.5239 263.638 52.4004 263.638H185.387C189.318 263.638 192.72 266.372 193.565 270.211L210.616 347.649C211.517 351.746 208.398 355.626 204.204 355.626Z" fill="#A4DB5D"/>
<path d="M94.264 342.551C93.1658 348.083 86.71 351.463 79.844 350.099C72.9779 348.737 68.3029 343.147 69.4011 337.615C70.4994 332.083 76.9551 328.704 83.8212 330.067C90.6872 331.43 95.3623 337.019 94.264 342.551Z" fill="#739C3F"/>
<path d="M210.614 347.65L193.563 270.21C192.718 266.371 189.316 263.637 185.385 263.637H177.72C181.65 263.637 185.053 266.371 185.897 270.21L202.949 347.65C203.851 351.746 200.732 355.626 196.537 355.626H204.203C208.398 355.626 211.517 351.746 210.614 347.65Z" fill="#8CB040"/>
<path d="M187.857 376.607C187.857 378.32 186.474 379.704 184.761 379.704H75.5952C73.8444 379.704 72.2528 378.988 71.1048 377.84C69.9468 376.692 69.2412 375.11 69.2412 373.35C69.2412 372.098 69.6173 370.873 70.314 369.829L97.3325 329.348C98.1045 328.209 99.3852 327.522 100.759 327.522H147.998C149.693 327.522 150.757 329.358 149.9 330.827L127.089 370.234C126.242 371.693 127.296 373.51 128.972 373.51H184.76C185.617 373.51 186.389 373.858 186.953 374.424C187.509 374.979 187.857 375.751 187.857 376.607Z" fill="#8CB040"/>
<path d="M155.446 309.094H88.4719C87.6922 309.094 87.0596 308.462 87.0596 307.682C87.0596 306.902 87.6922 306.27 88.4719 306.27H155.446C156.225 306.27 156.858 306.902 156.858 307.682C156.858 308.463 156.225 309.094 155.446 309.094Z" fill="#8CB040"/>
<path d="M158.674 317.566H91.6995C90.9197 317.566 90.2871 316.933 90.2871 316.154C90.2871 315.374 90.9197 314.741 91.6995 314.741H158.673C159.453 314.741 160.086 315.374 160.086 316.154C160.086 316.934 159.454 317.566 158.674 317.566Z" fill="#8CB040"/>
<path d="M47.8608 268.21H189.685C190.839 268.21 191.947 268.423 192.97 268.804C191.694 265.721 188.667 263.638 185.236 263.638H52.2494C49.2975 263.638 46.9273 265.718 46.3301 268.381C46.8189 268.271 47.331 268.21 47.8608 268.21Z" fill="#739C3F"/>
<path d="M193.562 342.551C192.464 348.083 186.008 351.463 179.142 350.099C172.276 348.737 167.601 343.147 168.699 337.615C169.797 332.083 176.253 328.704 183.119 330.067C189.984 331.43 194.659 337.019 193.562 342.551Z" fill="#739C3F"/>
<path d="M187.85 376.833C187.733 378.482 186.248 379.705 184.595 379.705H122.469C119.96 379.705 117.926 377.672 117.926 375.164C117.926 374.306 118.17 373.465 118.627 372.74L147.17 327.524H147.998C149.693 327.524 150.757 329.36 149.9 330.829L127.089 370.236C126.242 371.695 127.296 373.512 128.972 373.512H184.76C185.617 373.512 186.389 373.86 186.953 374.425C187.558 375.027 187.916 375.888 187.85 376.833Z" fill="#527A62"/>
<path d="M368.558 373.242C345.476 380.242 259.994 379.705 259.994 379.705L370.44 350.317C381.989 347.243 389.344 335.942 387.466 324.14C382.611 293.629 373.216 238.882 366.318 225.399C367.064 225.841 367.81 226.366 368.556 226.996C368.556 226.996 383.671 249.52 399.268 295.778C414.867 342.046 391.65 366.252 368.558 373.242Z" fill="#CFD95D"/>
<path d="M362.043 333.449C362.043 333.449 377.836 333.226 390.661 344.937" stroke="#B1BB4A" stroke-width="1.106" stroke-miterlimit="10" stroke-linecap="round" stroke-linejoin="round"/>
<path d="M329 205.019C329 205.019 349.781 212.085 360.014 224.2" stroke="#CFD95B" stroke-width="1.106" stroke-miterlimit="10" stroke-linecap="round" stroke-linejoin="round"/>
<path d="M225.559 293.582C225.559 293.582 237.034 308.447 238.503 325.564" stroke="#B1BB4A" stroke-width="1.106" stroke-miterlimit="10" stroke-linecap="round" stroke-linejoin="round"/>
<path d="M284.917 206.866C284.917 206.866 280.554 219.107 298.776 220.609C317 222.111 336.973 204.233 336.973 204.233" stroke="#CFD95B" stroke-width="1.106" stroke-miterlimit="10" stroke-linecap="round" stroke-linejoin="round"/>
<path d="M259.994 357.31L255.727 375.709L260.405 376.429L262.787 357.31H259.994Z" fill="#D37A57"/>
<path d="M297.467 215.806C297.467 215.806 292.064 231.201 288.307 271.017" stroke="#CFD95B" stroke-width="1.106" stroke-miterlimit="10" stroke-linecap="round" stroke-linejoin="round"/>
<path d="M332.363 122.26C332.363 122.26 323.851 120.246 316.149 123.207" stroke="#543E2F" stroke-width="1.106" stroke-miterlimit="10" stroke-linecap="round" stroke-linejoin="round"/>
<path d="M276.464 117.847C276.464 117.847 275.606 130.311 291.375 132.092" stroke="#543E2F" stroke-width="1.106" stroke-miterlimit="10" stroke-linecap="round" stroke-linejoin="round"/>
<path d="M333.767 114.044C333.767 114.044 335.602 118.998 334.014 122.09" stroke="#543E2F" stroke-width="1.106" stroke-miterlimit="10" stroke-linecap="round" stroke-linejoin="round"/>
<path d="M262.35 108.989C262.35 108.989 261.639 116.644 269.459 119.654" stroke="#543E2F" stroke-width="1.106" stroke-miterlimit="10" stroke-linecap="round" stroke-linejoin="round"/>
<path d="M265.195 123.208C265.195 123.208 263.743 128.937 269.149 131.405" stroke="#543E2F" stroke-width="1.106" stroke-miterlimit="10" stroke-linecap="round" stroke-linejoin="round"/>
<path d="M290.435 103.656C290.435 103.656 300.52 99.2327 314.845 105.67C327.767 111.476 328.999 118.705 328.999 118.705" stroke="#543E2F" stroke-width="1.106" stroke-miterlimit="10" stroke-linecap="round" stroke-linejoin="round"/>
<path d="M333.767 125.34C333.767 125.34 336.611 126.683 336.611 130.712C336.611 134.741 334.661 138.849 334.661 138.849" stroke="#543E2F" stroke-width="1.106" stroke-miterlimit="10" stroke-linecap="round" stroke-linejoin="round"/>
<path d="M286.405 123.92C286.405 123.92 288.417 129.252 300.15 129.845C311.882 130.438 315.674 130.438 318.874 134.229C322.074 138.021 321.008 142.169 321.008 142.169" stroke="#543E2F" stroke-width="1.106" stroke-miterlimit="10" stroke-linecap="round" stroke-linejoin="round"/>
<path d="M282.014 0.21582H175.237C169.053 0.21582 164.041 5.22932 164.041 11.413V29.6951C164.041 35.8788 169.053 40.8912 175.237 40.8912H189.379L186.089 52.2542C185.476 54.37 187.807 56.1186 189.667 54.9385L211.809 40.8912H282.014C288.198 40.8912 293.21 35.8788 293.21 29.6951V11.413C293.211 5.22932 288.198 0.21582 282.014 0.21582Z" fill="#3D492B"/>
<path d="M178.563 11.1592H279.315" stroke="white" stroke-width="1.106" stroke-miterlimit="10" stroke-linecap="round" stroke-linejoin="round"/>
<path d="M178.563 19.708H279.315" stroke="white" stroke-width="1.106" stroke-miterlimit="10" stroke-linecap="round" stroke-linejoin="round"/>
<path d="M178.563 28.2559H279.315" stroke="white" stroke-width="1.106" stroke-miterlimit="10" stroke-linecap="round" stroke-linejoin="round"/>
<path d="M108.054 201.986C158.263 201.986 198.965 161.284 198.965 111.075C198.965 60.8663 158.263 20.1641 108.054 20.1641C57.8453 20.1641 17.1431 60.8663 17.1431 111.075C17.1431 161.284 57.8453 201.986 108.054 201.986Z" stroke="#717C31" stroke-width="1.106" stroke-miterlimit="10"/>
<path d="M193.195 111.067C193.195 142.84 175.79 170.547 149.997 185.177C147.107 186.816 144.111 188.299 141.032 189.591C130.889 193.858 119.748 196.213 108.061 196.213C107.283 196.213 106.516 196.201 105.748 196.18C105.275 196.169 104.802 196.148 104.329 196.117C103.993 196.117 103.667 196.107 103.33 196.075C102.826 196.054 102.322 196.022 101.827 195.981C101.617 195.97 101.407 195.96 101.197 195.928C100.597 195.896 100.009 195.834 99.4206 195.781C98.7371 195.708 98.0647 195.634 97.3922 195.55L118.445 165.101L62.5178 104.465L26.0254 133.948C25.6471 132.582 25.2998 131.215 24.9846 129.817C24.8696 129.292 24.7535 128.755 24.6484 128.23C24.5013 127.537 24.3642 126.832 24.2491 126.139C24.1651 125.676 24.081 125.214 24.018 124.752C23.9018 124.089 23.8078 123.417 23.7127 122.744C23.6596 122.366 23.6076 121.998 23.5656 121.619C23.4915 121.041 23.4185 120.453 23.3654 119.864L23.3334 119.517C23.2703 118.887 23.2073 118.256 23.1653 117.615C23.1122 116.91 23.0602 116.207 23.0281 115.491V115.449C22.9861 114.724 22.954 113.999 22.9441 113.263C22.923 112.537 22.9131 111.801 22.9131 111.066C22.9131 96.9291 26.3605 83.6018 32.4568 71.8716C45.1227 47.4887 69.2445 30.0095 97.6964 26.5521C101.092 26.1418 104.549 25.9316 108.06 25.9316C122.354 25.9316 135.839 29.4631 147.663 35.6954L110.582 65.6404L135.335 140.696L183.336 71.2843C189.632 83.1517 193.195 96.699 193.195 111.067Z" fill="#739C3F"/>
<path d="M32.2317 71.7979L62.2916 104.391L25.7992 133.873C25.4209 132.507 25.0736 131.14 24.7584 129.742C24.6434 129.217 24.5273 128.681 24.4222 128.155C24.2751 127.462 24.138 126.757 24.0229 126.064C23.9389 125.601 23.8548 125.139 23.7918 124.677C23.6768 124.014 23.5816 123.342 23.4865 122.669C23.4334 122.291 23.3815 121.923 23.3394 121.545C23.2653 120.966 23.1923 120.378 23.1392 119.789L23.1083 119.442C23.0452 118.812 22.9822 118.181 22.9402 117.54C22.8882 116.835 22.8351 116.132 22.803 115.416V115.374C22.761 114.649 22.73 113.924 22.719 113.188C22.6979 112.462 22.688 111.727 22.688 110.991C22.688 96.8543 26.1354 83.527 32.2317 71.7979Z" fill="#A4DB5D"/>
<path d="M140.807 189.517C130.663 193.784 119.523 196.139 107.834 196.139C107.057 196.139 106.289 196.128 105.522 196.107C105.048 196.096 104.576 196.075 104.103 196.044C103.767 196.044 103.44 196.033 103.104 196.002C102.6 195.981 102.095 195.949 101.601 195.908C101.391 195.897 101.181 195.887 100.971 195.855C100.371 195.824 99.7828 195.761 99.1944 195.708C98.5109 195.635 97.8385 195.561 97.166 195.477L118.219 165.027L140.807 189.517Z" fill="#A4DB5D"/>
<path d="M147.44 35.6212L110.359 65.5661L97.4727 26.4779C100.868 26.0676 104.325 25.8574 107.836 25.8574C122.13 25.8563 135.614 29.3878 147.44 35.6212Z" fill="#A4DB5D"/>
<path d="M192.97 110.993C192.97 142.766 175.565 170.472 149.772 185.102L135.109 140.622L183.111 71.2109C189.407 83.0772 192.97 96.6246 192.97 110.993Z" fill="#A4DB5D"/>
<path d="M118.219 165.027L97.1665 195.477C96.6301 195.414 96.0948 195.341 95.5584 195.255C95.1171 195.192 94.6758 195.129 94.2345 195.056C93.7402 194.983 93.2568 194.898 92.7625 194.804C92.111 194.689 91.4596 194.573 90.807 194.436C90.2496 194.321 89.6933 194.205 89.1458 194.079C88.7985 194.005 88.4524 193.92 88.1051 193.836C87.6428 193.731 87.1904 193.615 86.7281 193.5C85.2251 193.122 83.743 192.691 82.272 192.228C81.7356 192.06 81.2003 191.892 80.675 191.713C79.9605 191.471 79.256 191.23 78.5625 190.966C77.9111 190.735 77.2596 190.483 76.6182 190.231C75.9667 189.979 75.3253 189.715 74.6948 189.442C74.0644 189.179 73.434 188.906 72.8135 188.623C72.8135 188.623 72.8036 188.623 72.7925 188.612C72.1621 188.327 71.5416 188.033 70.9212 187.739C69.0288 186.835 67.1895 185.858 65.3823 184.817C64.8149 184.481 64.2476 184.145 63.6901 183.808C62.5133 183.104 61.3565 182.358 60.2317 181.591C59.6643 181.213 59.1069 180.823 58.5505 180.424C57.9931 180.035 57.4368 179.625 56.8893 179.215C56.8683 179.204 56.8473 179.183 56.8163 179.162C56.3009 178.773 55.7756 178.373 55.2713 177.974C54.8189 177.617 54.3776 177.27 53.9363 176.902C53.2849 176.377 52.6434 175.831 52.013 175.283C51.5297 174.863 51.0563 174.443 50.584 174.011C50.1107 173.58 49.6384 173.139 49.165 172.697C49.1119 172.644 49.06 172.602 49.0179 172.56C48.5556 172.108 48.0933 171.657 47.631 171.194C47.2317 170.795 46.8325 170.385 46.4332 169.976C45.8868 169.408 45.3405 168.83 44.814 168.241C44.3517 167.737 43.8994 167.222 43.4581 166.706C43.1008 166.307 42.7646 165.897 42.4284 165.487C42.2182 165.256 42.0291 165.025 41.84 164.783C41.5038 164.373 41.1775 163.963 40.8523 163.553C40.484 163.091 40.1268 162.628 39.7806 162.155C39.3073 161.535 38.8449 160.915 38.4036 160.274C38.0044 159.716 37.6151 159.16 37.2368 158.592C36.9636 158.192 36.7004 157.793 36.4383 157.383C36.2702 157.14 36.112 156.888 35.955 156.636C35.2405 155.522 34.547 154.377 33.8845 153.22C33.5793 152.673 33.2751 152.127 32.9699 151.57C32.2764 150.298 31.6139 149.005 30.9935 147.691C30.7203 147.144 30.4681 146.587 30.2159 146.031C29.9527 145.442 29.6906 144.854 29.4384 144.265C29.4174 144.223 29.4074 144.17 29.3864 144.128C29.1232 143.508 28.8611 142.877 28.6089 142.247C28.6089 142.226 28.5979 142.205 28.5879 142.174C28.3357 141.544 28.0935 140.902 27.8624 140.262C27.6312 139.652 27.41 139.032 27.1999 138.401C27.0107 137.844 26.8216 137.277 26.6424 136.709C26.5164 136.289 26.3792 135.858 26.2531 135.437C26.2432 135.405 26.2321 135.384 26.2321 135.353C26.085 134.859 25.9379 134.366 25.8008 133.871L62.2932 104.389L118.219 165.027Z" fill="#8CB040"/>
<path d="M183.11 71.21L135.108 140.621L110.356 65.5661L147.437 35.6211C162.626 43.6086 175.091 56.0423 183.11 71.21Z" fill="#8CB040"/>
<path d="M135.109 140.622L118.22 165.027L62.2925 104.392L110.357 65.5654L135.109 140.622Z" fill="#A4DB5D"/>
<path d="M123.596 99.1492L123.864 94.6666L126.856 93.2387C135.418 89.152 140.873 80.5087 140.873 71.0192C140.873 62.7717 138.252 54.7411 133.39 48.0841L130.05 43.5107L101.574 53.0445L101.821 63.7406H99.9412C96.1221 63.7406 93.0253 66.8363 93.0253 70.6564C93.0253 74.4754 96.121 77.5722 99.9412 77.5722H102.141L102.476 92.0907V97.1871C102.476 97.1871 97.3332 102.142 87.5728 106.346C87.5728 106.346 98.4547 120.009 116.437 120.911C134.42 121.812 135.112 110.999 135.112 110.999C135.112 110.999 127.655 106.535 123.38 102.838L123.596 99.1492Z" fill="#FF996A"/>
<path d="M123.862 94.6668L123.594 99.1494C122.837 99.0598 122.043 98.9415 121.219 98.791C108.485 96.4696 103.501 84.9605 104.017 79.0312C104.017 79.0312 108.312 93.2931 123.862 94.6668Z" fill="#D37A57"/>
<path d="M99.7256 68.675C100.259 69.0787 100.75 69.6129 100.926 70.2798C100.926 70.2798 99.8628 70.6337 99.7654 71.826C99.6692 73.0183 100.926 73.5337 100.926 73.5337C100.926 73.5337 99.959 75.144 98.3487 74.2747C96.7383 73.4054 97.0049 70.3683 98.6064 69.7324C98.6064 69.7324 96.0614 69.4426 95.1269 70.3772C95.1269 70.3772 94.9134 69.4404 95.9774 68.6109C97.0745 67.757 98.6174 67.8356 99.7256 68.675Z" fill="#D37A57"/>
<path d="M123.251 60.2522C123.103 60.2567 122.955 60.3109 122.833 60.4159C120.402 62.5417 117.901 60.8694 117.876 60.8517C117.573 60.6438 117.159 60.7212 116.951 61.0242C116.743 61.3273 116.821 61.7409 117.123 61.9488C118.281 62.7429 121.147 63.6565 123.708 61.418C123.984 61.1769 124.013 60.7566 123.771 60.4801C123.636 60.323 123.442 60.2467 123.251 60.2522Z" fill="#3F2D1F"/>
<path d="M138.213 61.8848C138.082 61.8129 137.927 61.7841 137.77 61.814C134.596 62.4079 133.292 59.6971 133.28 59.6695C133.125 59.3354 132.729 59.1928 132.396 59.3476C132.063 59.5025 131.92 59.8984 132.074 60.2313C132.668 61.5043 134.672 63.7473 138.015 63.1224C138.376 63.0549 138.614 62.7076 138.546 62.346C138.507 62.1414 138.381 61.9777 138.213 61.8848Z" fill="#3F2D1F"/>
<path d="M122.886 68.158C122.886 68.158 122.882 70.7482 119.491 71.1774C116.1 71.6065 115.482 68.158 115.482 68.158C115.482 68.158 117.408 66.353 119.898 66.2999C122.386 66.2468 122.886 68.158 122.886 68.158Z" fill="white"/>
<path d="M138.377 68.1581C138.377 68.1581 138.373 70.7483 135.056 71.1775C131.739 71.6077 131.294 68.1603 131.294 68.1603C131.294 68.1603 133.019 66.352 135.454 66.2989C137.888 66.2469 138.377 68.1581 138.377 68.1581Z" fill="white"/>
<path d="M131.292 68.1614C131.292 68.1614 133.068 66.2093 134.971 65.8587C136.872 65.5081 138.177 66.4338 138.376 68.1614C138.376 68.1614 137.999 66.7346 136.096 66.5599C134.195 66.3851 131.292 68.1614 131.292 68.1614Z" fill="#3F2D1F"/>
<path d="M115.482 68.158C115.482 68.158 117.339 66.1186 119.327 65.7525C121.314 65.3864 122.678 66.3541 122.885 68.158C122.885 68.158 122.491 66.6671 120.504 66.4847C118.516 66.3022 115.482 68.158 115.482 68.158Z" fill="#3F2D1F"/>
<path d="M128.035 68.2314L129.599 77.6701C129.599 77.6701 130.843 77.7663 132.566 77.064C132.566 77.064 128.481 69.2921 128.035 68.2314Z" fill="#D37A57"/>
<path d="M117.506 68.8208C117.506 70.3072 118.458 71.5117 119.633 71.5117C120.807 71.5117 121.76 70.3072 121.76 68.8208C121.76 67.3354 120.807 66.1299 119.633 66.1299C118.458 66.1299 117.506 67.3354 117.506 68.8208Z" fill="#3F2D1F"/>
<path d="M132.417 68.9057C132.417 70.3457 133.347 71.5125 134.492 71.5125C135.638 71.5125 136.566 70.3457 136.566 68.9057C136.566 67.4657 135.637 66.2988 134.492 66.2988C133.345 66.2988 132.417 67.4657 132.417 68.9057Z" fill="#3F2D1F"/>
<path d="M113.331 77.676C115.044 77.676 116.433 76.7248 116.433 75.5514C116.433 74.378 115.044 73.4268 113.331 73.4268C111.617 73.4268 110.229 74.378 110.229 75.5514C110.229 76.7248 111.617 77.676 113.331 77.676Z" fill="#D37A57"/>
<path d="M138.668 76.6575C140.382 76.6575 141.772 75.7062 141.772 74.5328C141.772 73.3594 140.382 72.4082 138.668 72.4082C136.954 72.4082 135.565 73.3594 135.565 74.5328C135.565 75.7062 136.954 76.6575 138.668 76.6575Z" fill="#D37A57"/>
<path d="M129.163 81.3071C129.163 81.3071 124.152 81.4763 122.124 83.3344C120.097 85.1925 127.586 85.7554 129.163 85.0233C130.739 84.2922 131.44 81.0726 129.163 81.3071Z" fill="white"/>
<path d="M116.947 67.1426C116.947 67.1426 115.948 67.616 114.86 66.917C114.86 66.917 114.962 67.9411 115.484 68.1579L116.947 67.1426Z" fill="#3F2D1F"/>
<path d="M137.229 66.4473C137.229 66.4473 138.408 67.4228 139.303 67.123C139.633 67.0124 138.38 68.1605 138.38 68.1605C138.081 67.0722 137.229 66.4473 137.229 66.4473Z" fill="#3F2D1F"/>
<path d="M144.071 116.46C144.071 116.46 160.018 145.605 166.098 170.046L149.657 179.62C149.657 179.62 143.121 166.557 140.871 146.512C138.621 126.466 144.071 116.46 144.071 116.46Z" fill="#847062"/>
<path d="M135.109 50.6503C135.109 50.6503 119.176 65.7295 104.612 64.0783C104.612 64.0783 103.035 74.6638 105.663 78.7184C105.663 78.7184 104.537 79.8343 102.96 75.5973C101.383 71.3602 102.628 65.5072 101.818 63.742C101.818 63.742 96.9578 62.5907 93.7648 67.5389C90.5718 72.4872 97.5606 78.5293 102.137 77.5726L102.347 86.6716C102.347 86.6716 97.1038 88.6282 92.6743 84.8744C88.2448 81.1206 90.4225 77.2916 90.4225 77.2916C90.4225 77.2916 83.7412 70.6966 83.4403 61.5378C83.1395 52.379 90.7598 46.6234 90.7598 46.6234C90.7598 46.6234 93.2749 33.0727 110.016 32.9223C126.758 32.7718 131.638 37.8019 131.638 37.8019C131.638 37.8019 142.444 39.6412 145.489 51.1281C148.534 62.615 140.87 68.7578 140.87 68.7578C140.87 68.7578 138.655 54.0402 135.109 50.6503Z" fill="#3F2D1F"/>
<path d="M93.5772 45.0466C93.5772 45.0466 92.772 35.2054 83.4329 35.6212C74.095 36.0371 72.2933 46.7354 76.3468 51.6903C80.4014 56.6452 85.6936 55.5193 89.6354 51.6903C93.5772 47.8624 93.5772 45.0466 93.5772 45.0466Z" fill="#3F2D1F"/>
<path d="M105.764 83.7694L99.8782 96.025C99.6681 96.4663 99.1106 96.5923 98.7224 96.2982L98.4802 96.109L79.1938 81.2046C78.8996 80.9734 78.8045 80.5631 78.9837 80.2269L85.6362 68.0454L85.7944 67.7611C86.0156 67.3409 86.5719 67.2358 86.9402 67.5399L105.565 82.8536C105.827 83.0759 105.911 83.4542 105.764 83.7694Z" fill="white"/>
<path d="M146.356 187.046C134.847 192.858 121.835 196.127 108.056 196.127C96.7146 196.127 85.8891 193.91 75.9981 189.874L69.7017 117.761C69.7017 117.761 70.9946 112.789 78.7089 109.951C87.4751 106.714 87.5691 106.346 87.5691 106.346C120.982 123.162 135.108 110.991 135.108 110.991L142.465 114.733C143.191 115.101 143.758 115.71 144.074 116.457C145.808 120.609 151.557 135.008 152.135 144.93C152.589 152.835 148.847 174.076 146.356 187.046Z" fill="#9C897A"/>
<path d="M73.3901 112.87C73.3901 112.87 65.2422 116.105 62.2925 137.427C59.3417 158.748 62.4916 170.045 62.4916 170.045L78.7111 150.79C78.7111 150.79 84.2632 121.274 73.3901 112.87Z" fill="#9C897A"/>
<path d="M97.6083 81.6849C96.0533 82.583 92.0054 85.4143 91.282 86.6066C90.9347 87.1806 90.7899 87.8342 90.7301 88.3629L89.7126 87.8553C90.2258 85.661 91.1736 83.4678 91.1736 83.4678C91.1736 83.4678 92.7873 82.604 93.6887 81.3277C94.5901 80.0513 94.2516 79.0316 94.2516 79.0316C93.6367 79.3866 92.6468 80.0336 91.6149 80.7658C91.6293 80.7459 91.647 80.7282 91.6614 80.7072C92.5617 79.4309 92.2243 78.4111 92.2243 78.4111C90.6096 79.3435 86.4068 82.2832 85.6558 83.522C85.251 84.19 85.1117 84.9598 85.0652 85.5338L84.781 85.3922C85.2632 83.0707 86.3316 80.5944 86.3316 80.5944C86.3316 80.5944 87.9452 79.7306 88.8466 78.4543C89.7469 77.1779 89.4096 76.1582 89.4096 76.1582C87.7948 77.0906 83.592 80.0303 82.841 81.269C82.0901 82.5078 82.2405 84.1214 82.2405 84.1214L82.841 94.7069L83.4328 106.343C83.4328 106.343 62.0449 155.293 62.2927 167.23C62.5404 179.167 69.7029 183.896 69.7029 183.896C69.7029 183.896 77.3608 182.994 82.2405 175.456C87.1202 167.917 91.6249 110.472 91.6249 110.472C91.6249 110.472 94.1775 106.568 94.6277 102.834C95.0778 99.1 93.3635 89.6757 93.3635 89.6757C93.8723 87.7436 94.6443 85.954 94.6443 85.954C94.6443 85.954 96.1993 85.1223 97.0664 83.8936C97.9335 82.6659 97.6083 81.6849 97.6083 81.6849Z" fill="#FF996A"/>
<path d="M105.763 83.7702L99.8772 96.0258C99.6671 96.4671 99.1096 96.5932 98.7214 96.299L98.4792 96.1099L104.428 83.319L85.6353 68.0473L85.7934 67.7631C86.0146 67.3428 86.5709 67.2377 86.9392 67.5419L105.564 82.8556C105.826 83.0768 105.91 83.455 105.763 83.7702Z" fill="#3D492B"/>
<path d="M85.637 70.4971L84.8208 72.1019L88.8754 75.3668L89.8044 73.8184L85.637 70.4971Z" fill="#3D492B"/>
<path d="M202.886 118.817L198.343 119.662L198.22 119.259C199.534 118.81 202.621 117.596 203.871 115.722C205.476 113.314 206.039 110.984 206.039 110.984C206.039 110.984 203.256 112.441 202.184 115.221L200.032 115.622C200.894 115.088 201.694 114.441 202.196 113.687C203.802 111.277 204.365 108.949 204.365 108.949C204.365 108.949 201.581 110.406 200.509 113.186L197.795 113.691C198.921 112.807 200.1 111.655 200.592 110.408C201.656 107.715 201.716 105.319 201.716 105.319C201.716 105.319 199.302 107.329 198.838 110.272L195.854 111.518L182.795 115.597L182.893 113.712C182.893 113.712 183.385 113.416 184.764 112.332C186.144 111.249 187.864 106.75 187.864 106.75C187.864 106.75 181.021 109.968 179.353 113.514C177.685 117.06 176.096 125.827 176.096 125.827C176.096 125.827 160.4 163.596 157.613 174.001C157.613 174.001 152.223 176.086 149.658 179.617C149.658 179.617 155.138 189.677 159.492 190.728C159.492 190.728 172.105 188.326 178.111 173.61C184.116 158.895 186.536 129.174 186.536 129.174L199.143 122.279C199.143 122.279 202.953 121.195 204.265 119.225C205.579 117.255 206.038 115.351 206.038 115.351C206.038 115.351 203.762 116.544 202.886 118.817Z" fill="#FF996A"/>
<path d="M146.734 161.681C146.734 161.681 139.349 160.259 126.71 160.259C114.071 160.259 101.43 162.629 101.43 162.629" stroke="#847062" stroke-width="1.106" stroke-miterlimit="10" stroke-linecap="round" stroke-linejoin="round"/>
<path d="M133.424 41.7598C133.424 41.7598 135.458 45.5091 135.284 48.0794" stroke="#543E2F" stroke-width="1.106" stroke-miterlimit="10" stroke-linecap="round" stroke-linejoin="round"/>
<path d="M130.301 38.915C130.301 38.915 122.048 41.6015 117.506 48.0794" stroke="#543E2F" stroke-width="1.106" stroke-miterlimit="10" stroke-linecap="round" stroke-linejoin="round"/>
<path d="M92.0279 43.1025C92.0279 43.1025 90.6853 46.1042 90.6056 47.2102C90.6056 47.2102 86.1949 51.3179 85.6353 53.6881" stroke="#543E2F" stroke-width="1.106" stroke-miterlimit="10" stroke-linecap="round" stroke-linejoin="round"/>
<path d="M75.437 54.2402C75.7533 54.4769 80.1154 57.7816 84.5903 54.9967" stroke="#543E2F" stroke-width="1.106" stroke-miterlimit="10" stroke-linecap="round" stroke-linejoin="round"/>
<path d="M97.4707 41.7595C97.4707 41.7595 107.709 32.3187 124.655 37.2957" stroke="#543E2F" stroke-width="1.106" stroke-miterlimit="10" stroke-linecap="round" stroke-linejoin="round"/>
<path d="M99.5332 61.2571C99.5332 61.2571 103.931 63.03 113.332 61.2571C122.733 59.4842 131.292 49.8564 131.292 49.8564" stroke="#543E2F" stroke-width="1.106" stroke-miterlimit="10" stroke-linecap="round" stroke-linejoin="round"/>
<path d="M95.7358 112.87C95.7358 112.87 108.592 118.232 121.759 117.442C134.926 116.653 136.566 114.282 136.566 114.282" stroke="#847062" stroke-width="1.106" stroke-miterlimit="10" stroke-linecap="round" stroke-linejoin="round"/>
</svg>
