<svg width="254" height="34" viewBox="0 0 254 34" fill="none" xmlns="http://www.w3.org/2000/svg">
<rect x="0.5" y="0.5" width="253" height="33" rx="16" fill="black"/>
<rect x="4.5" y="4.5" width="49" height="25" rx="12.5" fill="#C3F53C"/>
<path d="M15.659 21.5V11.7H17.143L22.057 19.078V11.7H23.541V21.5H22.057L17.143 14.122V21.5H15.659ZM28.7221 21.668C28.0408 21.668 27.4341 21.5187 26.9021 21.22C26.3795 20.912 25.9688 20.4873 25.6701 19.946C25.3715 19.4047 25.2221 18.7747 25.2221 18.056C25.2221 17.328 25.3668 16.6887 25.6561 16.138C25.9548 15.5873 26.3655 15.158 26.8881 14.85C27.4201 14.542 28.0361 14.388 28.7361 14.388C29.4175 14.388 30.0101 14.542 30.5141 14.85C31.0181 15.1487 31.4101 15.55 31.6901 16.054C31.9701 16.558 32.1101 17.1133 32.1101 17.72C32.1101 17.8133 32.1055 17.916 32.0961 18.028C32.0961 18.1307 32.0915 18.2473 32.0821 18.378H26.6781C26.7248 19.05 26.9441 19.5633 27.3361 19.918C27.7375 20.2633 28.1995 20.436 28.7221 20.436C29.1421 20.436 29.4921 20.3427 29.7721 20.156C30.0615 19.96 30.2761 19.6987 30.4161 19.372H31.9001C31.7135 20.0253 31.3401 20.5713 30.7801 21.01C30.2295 21.4487 29.5435 21.668 28.7221 21.668ZM28.7221 15.606C28.2275 15.606 27.7888 15.7553 27.4061 16.054C27.0235 16.3433 26.7901 16.782 26.7061 17.37H30.6261C30.5981 16.8287 30.4068 16.3993 30.0521 16.082C29.6975 15.7647 29.2541 15.606 28.7221 15.606ZM34.7625 21.5L32.7185 14.556H34.2025L35.5465 19.792L37.0585 14.556H38.7105L40.2225 19.792L41.5665 14.556H43.0505L41.0065 21.5H39.4805L37.8845 16.04L36.2885 21.5H34.7625Z" fill="#002C15"/>
<path d="M66.522 21.5V11.7H68.174L71.492 18.322L74.796 11.7H76.462V21.5H75.062V14.15L72.024 20.128H70.946L67.922 14.164V21.5H66.522ZM81.0186 21.668C80.4679 21.668 79.9872 21.556 79.5766 21.332C79.1752 21.108 78.8626 20.772 78.6386 20.324C78.4239 19.876 78.3166 19.3113 78.3166 18.63V14.444H79.7166V18.476C79.7166 19.1387 79.8612 19.638 80.1506 19.974C80.4399 20.31 80.8552 20.478 81.3966 20.478C81.7606 20.478 82.0872 20.3893 82.3766 20.212C82.6752 20.0347 82.9086 19.778 83.0766 19.442C83.2446 19.106 83.3286 18.6953 83.3286 18.21V14.444H84.7286V21.5H83.4826L83.3846 20.296C83.1699 20.7253 82.8572 21.0613 82.4466 21.304C82.0359 21.5467 81.5599 21.668 81.0186 21.668ZM86.6454 21.5V11.42H88.0454V21.5H86.6454ZM92.8796 21.5C92.4316 21.5 92.0443 21.43 91.7176 21.29C91.391 21.15 91.139 20.9167 90.9616 20.59C90.7843 20.2633 90.6956 19.82 90.6956 19.26V15.634H89.4776V14.444H90.6956L90.8636 12.68H92.0956V14.444H94.0976V15.634H92.0956V19.274C92.0956 19.6753 92.1796 19.9507 92.3476 20.1C92.5156 20.24 92.805 20.31 93.2156 20.31H94.0276V21.5H92.8796ZM95.7395 21.5V14.444H97.1395V21.5H95.7395ZM96.4535 13.114C96.1828 13.114 95.9588 13.03 95.7815 12.862C95.6135 12.694 95.5295 12.4793 95.5295 12.218C95.5295 11.966 95.6135 11.7607 95.7815 11.602C95.9588 11.434 96.1828 11.35 96.4535 11.35C96.7148 11.35 96.9341 11.434 97.1115 11.602C97.2888 11.7607 97.3775 11.966 97.3775 12.218C97.3775 12.4793 97.2888 12.694 97.1115 12.862C96.9341 13.03 96.7148 13.114 96.4535 13.114ZM99.2255 17.958V16.782H104.881V17.958H99.2255ZM110.128 21.668C109.447 21.668 108.84 21.514 108.308 21.206C107.776 20.8887 107.356 20.4547 107.048 19.904C106.749 19.3533 106.6 18.714 106.6 17.986C106.6 17.2487 106.749 16.6047 107.048 16.054C107.356 15.494 107.776 15.06 108.308 14.752C108.84 14.4347 109.447 14.276 110.128 14.276C110.987 14.276 111.705 14.5 112.284 14.948C112.863 15.396 113.231 16.0027 113.39 16.768H111.934C111.841 16.3573 111.626 16.04 111.29 15.816C110.963 15.592 110.571 15.48 110.114 15.48C109.741 15.48 109.395 15.578 109.078 15.774C108.761 15.9607 108.504 16.2407 108.308 16.614C108.121 16.978 108.028 17.4307 108.028 17.972C108.028 18.3733 108.084 18.7327 108.196 19.05C108.308 19.358 108.457 19.6193 108.644 19.834C108.84 20.0487 109.064 20.212 109.316 20.324C109.568 20.4267 109.834 20.478 110.114 20.478C110.422 20.478 110.697 20.4313 110.94 20.338C111.192 20.2353 111.402 20.086 111.57 19.89C111.747 19.694 111.869 19.4607 111.934 19.19H113.39C113.231 19.9367 112.863 20.5387 112.284 20.996C111.705 21.444 110.987 21.668 110.128 21.668ZM117.618 21.668C117.068 21.668 116.587 21.556 116.176 21.332C115.775 21.108 115.462 20.772 115.238 20.324C115.024 19.876 114.916 19.3113 114.916 18.63V14.444H116.316V18.476C116.316 19.1387 116.461 19.638 116.75 19.974C117.04 20.31 117.455 20.478 117.996 20.478C118.36 20.478 118.687 20.3893 118.976 20.212C119.275 20.0347 119.508 19.778 119.676 19.442C119.844 19.106 119.928 18.6953 119.928 18.21V14.444H121.328V21.5H120.082L119.984 20.296C119.77 20.7253 119.457 21.0613 119.046 21.304C118.636 21.5467 118.16 21.668 117.618 21.668ZM123.245 21.5V14.444H124.505L124.631 15.774C124.79 15.4567 124.995 15.1907 125.247 14.976C125.499 14.752 125.793 14.5793 126.129 14.458C126.474 14.3367 126.866 14.276 127.305 14.276V15.76H126.801C126.512 15.76 126.236 15.7973 125.975 15.872C125.714 15.9373 125.48 16.054 125.275 16.222C125.079 16.39 124.925 16.6187 124.813 16.908C124.701 17.1973 124.645 17.5567 124.645 17.986V21.5H123.245ZM128.591 21.5V14.444H129.851L129.977 15.774C130.135 15.4567 130.341 15.1907 130.593 14.976C130.845 14.752 131.139 14.5793 131.475 14.458C131.82 14.3367 132.212 14.276 132.651 14.276V15.76H132.147C131.857 15.76 131.582 15.7973 131.321 15.872C131.059 15.9373 130.826 16.054 130.621 16.222C130.425 16.39 130.271 16.6187 130.159 16.908C130.047 17.1973 129.991 17.5567 129.991 17.986V21.5H128.591ZM136.923 21.668C136.251 21.668 135.654 21.514 135.131 21.206C134.609 20.898 134.198 20.4687 133.899 19.918C133.61 19.3673 133.465 18.728 133.465 18C133.465 17.2533 133.61 16.6047 133.899 16.054C134.198 15.494 134.609 15.06 135.131 14.752C135.654 14.4347 136.261 14.276 136.951 14.276C137.642 14.276 138.235 14.43 138.729 14.738C139.224 15.046 139.607 15.4567 139.877 15.97C140.148 16.474 140.283 17.034 140.283 17.65C140.283 17.7433 140.279 17.846 140.269 17.958C140.269 18.0607 140.265 18.1773 140.255 18.308H134.487V17.314H138.883C138.855 16.726 138.659 16.2687 138.295 15.942C137.931 15.606 137.479 15.438 136.937 15.438C136.555 15.438 136.205 15.5267 135.887 15.704C135.57 15.872 135.313 16.124 135.117 16.46C134.931 16.7867 134.837 17.202 134.837 17.706V18.098C134.837 18.6207 134.931 19.064 135.117 19.428C135.313 19.7827 135.57 20.0533 135.887 20.24C136.205 20.4173 136.55 20.506 136.923 20.506C137.371 20.506 137.74 20.408 138.029 20.212C138.319 20.016 138.533 19.75 138.673 19.414H140.073C139.952 19.8433 139.747 20.2307 139.457 20.576C139.168 20.912 138.809 21.178 138.379 21.374C137.959 21.57 137.474 21.668 136.923 21.668ZM141.839 21.5V14.444H143.099L143.183 15.648C143.407 15.228 143.724 14.8967 144.135 14.654C144.545 14.402 145.017 14.276 145.549 14.276C146.109 14.276 146.589 14.388 146.991 14.612C147.392 14.836 147.705 15.1767 147.929 15.634C148.153 16.082 148.265 16.6467 148.265 17.328V21.5H146.865V17.468C146.865 16.8147 146.72 16.32 146.431 15.984C146.141 15.648 145.721 15.48 145.171 15.48C144.807 15.48 144.48 15.5687 144.191 15.746C143.901 15.914 143.668 16.166 143.491 16.502C143.323 16.838 143.239 17.2487 143.239 17.734V21.5H141.839ZM153.318 21.668C152.636 21.668 152.03 21.514 151.498 21.206C150.966 20.8887 150.546 20.4547 150.238 19.904C149.939 19.3533 149.79 18.714 149.79 17.986C149.79 17.2487 149.939 16.6047 150.238 16.054C150.546 15.494 150.966 15.06 151.498 14.752C152.03 14.4347 152.636 14.276 153.318 14.276C154.176 14.276 154.895 14.5 155.474 14.948C156.052 15.396 156.421 16.0027 156.58 16.768H155.124C155.03 16.3573 154.816 16.04 154.48 15.816C154.153 15.592 153.761 15.48 153.304 15.48C152.93 15.48 152.585 15.578 152.268 15.774C151.95 15.9607 151.694 16.2407 151.498 16.614C151.311 16.978 151.218 17.4307 151.218 17.972C151.218 18.3733 151.274 18.7327 151.386 19.05C151.498 19.358 151.647 19.6193 151.834 19.834C152.03 20.0487 152.254 20.212 152.506 20.324C152.758 20.4267 153.024 20.478 153.304 20.478C153.612 20.478 153.887 20.4313 154.13 20.338C154.382 20.2353 154.592 20.086 154.76 19.89C154.937 19.694 155.058 19.4607 155.124 19.19H156.58C156.421 19.9367 156.052 20.5387 155.474 20.996C154.895 21.444 154.176 21.668 153.318 21.668ZM159.03 24.58L160.752 20.716H160.346L157.56 14.444H159.072L161.284 19.568L163.51 14.444H164.98L160.5 24.58H159.03ZM172.136 21.668C171.557 21.668 171.076 21.57 170.694 21.374C170.311 21.178 170.026 20.9167 169.84 20.59C169.653 20.254 169.56 19.8947 169.56 19.512C169.56 19.0453 169.681 18.6487 169.924 18.322C170.166 17.986 170.512 17.7293 170.96 17.552C171.408 17.3747 171.944 17.286 172.57 17.286H174.404C174.404 16.8753 174.343 16.5347 174.222 16.264C174.1 15.9933 173.918 15.7927 173.676 15.662C173.442 15.522 173.144 15.452 172.78 15.452C172.36 15.452 172 15.5547 171.702 15.76C171.403 15.956 171.216 16.25 171.142 16.642H169.742C169.798 16.1473 169.966 15.7273 170.246 15.382C170.535 15.0273 170.904 14.7567 171.352 14.57C171.8 14.374 172.276 14.276 172.78 14.276C173.442 14.276 173.998 14.3927 174.446 14.626C174.894 14.8593 175.23 15.1907 175.454 15.62C175.687 16.04 175.804 16.544 175.804 17.132V21.5H174.586L174.474 20.31C174.371 20.4967 174.25 20.674 174.11 20.842C173.97 21.01 173.802 21.1547 173.606 21.276C173.419 21.3973 173.2 21.4907 172.948 21.556C172.705 21.6307 172.434 21.668 172.136 21.668ZM172.402 20.534C172.7 20.534 172.971 20.4733 173.214 20.352C173.456 20.2307 173.662 20.0673 173.83 19.862C174.007 19.6473 174.138 19.4093 174.222 19.148C174.315 18.8773 174.366 18.602 174.376 18.322V18.28H172.71C172.308 18.28 171.982 18.3313 171.73 18.434C171.487 18.5273 171.31 18.658 171.198 18.826C171.086 18.994 171.03 19.19 171.03 19.414C171.03 19.6473 171.081 19.848 171.184 20.016C171.296 20.1747 171.454 20.3007 171.66 20.394C171.865 20.4873 172.112 20.534 172.402 20.534ZM180.853 21.668C180.171 21.668 179.565 21.514 179.033 21.206C178.501 20.8887 178.081 20.4547 177.773 19.904C177.474 19.3533 177.325 18.714 177.325 17.986C177.325 17.2487 177.474 16.6047 177.773 16.054C178.081 15.494 178.501 15.06 179.033 14.752C179.565 14.4347 180.171 14.276 180.853 14.276C181.711 14.276 182.43 14.5 183.009 14.948C183.587 15.396 183.956 16.0027 184.115 16.768H182.659C182.565 16.3573 182.351 16.04 182.015 15.816C181.688 15.592 181.296 15.48 180.839 15.48C180.465 15.48 180.12 15.578 179.803 15.774C179.485 15.9607 179.229 16.2407 179.033 16.614C178.846 16.978 178.753 17.4307 178.753 17.972C178.753 18.3733 178.809 18.7327 178.921 19.05C179.033 19.358 179.182 19.6193 179.369 19.834C179.565 20.0487 179.789 20.212 180.041 20.324C180.293 20.4267 180.559 20.478 180.839 20.478C181.147 20.478 181.422 20.4313 181.665 20.338C181.917 20.2353 182.127 20.086 182.295 19.89C182.472 19.694 182.593 19.4607 182.659 19.19H184.115C183.956 19.9367 183.587 20.5387 183.009 20.996C182.43 21.444 181.711 21.668 180.853 21.668ZM189.015 21.668C188.333 21.668 187.727 21.514 187.195 21.206C186.663 20.8887 186.243 20.4547 185.935 19.904C185.636 19.3533 185.487 18.714 185.487 17.986C185.487 17.2487 185.636 16.6047 185.935 16.054C186.243 15.494 186.663 15.06 187.195 14.752C187.727 14.4347 188.333 14.276 189.015 14.276C189.873 14.276 190.592 14.5 191.171 14.948C191.749 15.396 192.118 16.0027 192.277 16.768H190.821C190.727 16.3573 190.513 16.04 190.177 15.816C189.85 15.592 189.458 15.48 189.001 15.48C188.627 15.48 188.282 15.578 187.965 15.774C187.647 15.9607 187.391 16.2407 187.195 16.614C187.008 16.978 186.915 17.4307 186.915 17.972C186.915 18.3733 186.971 18.7327 187.083 19.05C187.195 19.358 187.344 19.6193 187.531 19.834C187.727 20.0487 187.951 20.212 188.203 20.324C188.455 20.4267 188.721 20.478 189.001 20.478C189.309 20.478 189.584 20.4313 189.827 20.338C190.079 20.2353 190.289 20.086 190.457 19.89C190.634 19.694 190.755 19.4607 190.821 19.19H192.277C192.118 19.9367 191.749 20.5387 191.171 20.996C190.592 21.444 189.873 21.668 189.015 21.668ZM197.135 21.668C196.472 21.668 195.875 21.514 195.343 21.206C194.82 20.898 194.405 20.4687 194.097 19.918C193.798 19.358 193.649 18.714 193.649 17.986C193.649 17.2393 193.803 16.5907 194.111 16.04C194.419 15.48 194.839 15.046 195.371 14.738C195.903 14.43 196.5 14.276 197.163 14.276C197.835 14.276 198.432 14.43 198.955 14.738C199.478 15.046 199.888 15.4753 200.187 16.026C200.495 16.5767 200.649 17.2253 200.649 17.972C200.649 18.7187 200.495 19.3673 200.187 19.918C199.888 20.4687 199.473 20.898 198.941 21.206C198.409 21.514 197.807 21.668 197.135 21.668ZM197.135 20.464C197.518 20.464 197.863 20.3707 198.171 20.184C198.488 19.9973 198.74 19.722 198.927 19.358C199.123 18.9847 199.221 18.5227 199.221 17.972C199.221 17.4213 199.128 16.964 198.941 16.6C198.754 16.2267 198.502 15.9467 198.185 15.76C197.877 15.5733 197.536 15.48 197.163 15.48C196.79 15.48 196.444 15.5733 196.127 15.76C195.81 15.9467 195.553 16.2267 195.357 16.6C195.17 16.964 195.077 17.4213 195.077 17.972C195.077 18.5227 195.17 18.9847 195.357 19.358C195.553 19.722 195.805 19.9973 196.113 20.184C196.43 20.3707 196.771 20.464 197.135 20.464ZM204.886 21.668C204.335 21.668 203.854 21.556 203.444 21.332C203.042 21.108 202.73 20.772 202.506 20.324C202.291 19.876 202.184 19.3113 202.184 18.63V14.444H203.584V18.476C203.584 19.1387 203.728 19.638 204.018 19.974C204.307 20.31 204.722 20.478 205.264 20.478C205.628 20.478 205.954 20.3893 206.244 20.212C206.542 20.0347 206.776 19.778 206.944 19.442C207.112 19.106 207.196 18.6953 207.196 18.21V14.444H208.596V21.5H207.35L207.252 20.296C207.037 20.7253 206.724 21.0613 206.314 21.304C205.903 21.5467 205.427 21.668 204.886 21.668ZM210.513 21.5V14.444H211.773L211.857 15.648C212.081 15.228 212.398 14.8967 212.809 14.654C213.219 14.402 213.691 14.276 214.223 14.276C214.783 14.276 215.263 14.388 215.665 14.612C216.066 14.836 216.379 15.1767 216.603 15.634C216.827 16.082 216.939 16.6467 216.939 17.328V21.5H215.539V17.468C215.539 16.8147 215.394 16.32 215.105 15.984C214.815 15.648 214.395 15.48 213.845 15.48C213.481 15.48 213.154 15.5687 212.865 15.746C212.575 15.914 212.342 16.166 212.165 16.502C211.997 16.838 211.913 17.2487 211.913 17.734V21.5H210.513ZM221.641 21.5C221.193 21.5 220.806 21.43 220.479 21.29C220.153 21.15 219.901 20.9167 219.723 20.59C219.546 20.2633 219.457 19.82 219.457 19.26V15.634H218.239V14.444H219.457L219.625 12.68H220.857V14.444H222.859V15.634H220.857V19.274C220.857 19.6753 220.941 19.9507 221.109 20.1C221.277 20.24 221.567 20.31 221.977 20.31H222.789V21.5H221.641Z" fill="white"/>
<path d="M230.833 17H240.167M240.167 17L235.5 12.3334M240.167 17L235.5 21.6667" stroke="white" stroke-width="1.3333" stroke-linecap="round" stroke-linejoin="round"/>
</svg>
