<svg width="47" height="46" viewBox="0 0 47 46" fill="none" xmlns="http://www.w3.org/2000/svg">
<circle cx="23.1665" cy="23" r="23" fill="#988430"/>
<circle cx="23.1666" cy="23.0001" r="22.2633" fill="#7A6A2A"/>
<circle cx="23.1663" cy="23" r="21.7942" fill="#BA9F33"/>
<path fill-rule="evenodd" clip-rule="evenodd" d="M10.2222 20.5437C10.0919 20.4247 9.95426 20.3054 9.82766 20.1864C9.70107 20.0675 9.57105 19.9482 9.44077 19.8292L9.05364 19.4612C8.99034 19.3979 8.92337 19.3423 8.86007 19.2787C8.79677 19.223 8.72244 19.1597 8.65914 19.1038C8.14541 18.6163 7.62874 18.1288 7.12213 17.6411C7.6469 18.1212 8.16062 18.5979 8.68539 19.0851L8.86767 19.2677C8.93097 19.3307 8.99795 19.3867 9.06124 19.45L9.44813 19.8072C9.57841 19.9261 9.705 20.0454 9.83527 20.1752C9.96554 20.3049 10.0921 20.4244 10.2224 20.5432L10.2222 20.5437ZM3.40413 20.47C3.40413 20.47 5.27234 20.6633 6.18425 20.7936C7.02893 20.9128 9.67141 21.3184 9.67141 21.3184L3.40413 20.47ZM3.40405 20.4701C3.92882 20.5148 4.45359 20.5705 4.97836 20.6264C5.24626 20.6524 5.50313 20.6821 5.75999 20.7081L6.15424 20.753C6.28451 20.7714 6.4111 20.79 6.54138 20.8087L8.10464 21.0579L8.88603 21.1882C9.14289 21.2329 9.39976 21.2814 9.66766 21.3261C9.4108 21.3001 9.14289 21.2628 8.88603 21.2255L8.10464 21.1139L6.54138 20.8833C6.4111 20.8646 6.28451 20.8384 6.15424 20.82L5.75974 20.7746C5.50288 20.7486 5.23498 20.7113 4.97811 20.6813C4.45334 20.6183 3.92858 20.5511 3.40381 20.4694L3.40405 20.4701ZM9.48535 21.8052C9.48535 21.8052 7.49054 22.3115 6.81686 22.5051C6.15446 22.6874 4.14837 23.2978 4.14837 23.2978L9.4851 21.8054L9.48535 21.8052Z" fill="#CFB66C"/>
<path fill-rule="evenodd" clip-rule="evenodd" d="M9.48583 21.8052C9.04301 21.9354 8.60263 22.062 8.15343 22.1813L6.82102 22.5385C6.3782 22.6687 5.93782 22.7953 5.49622 22.9256L4.83382 23.1079C4.61425 23.1712 4.391 23.2269 4.16406 23.2904C4.38339 23.2168 4.60689 23.1415 4.82646 23.0782L5.48886 22.8662C5.93169 22.7284 6.37206 22.5981 6.81366 22.4605C7.26385 22.3488 7.70692 22.2296 8.15711 22.1217C8.58497 22.0137 9.0354 21.906 9.48583 21.8054V21.8054V21.8052ZM4.42822 24.526C4.64755 24.444 7.17841 23.2644 7.76647 22.9889C8.06087 22.8511 8.91659 22.5473 8.91659 22.5473L4.42822 24.526Z" fill="#CFB66C"/>
<path fill-rule="evenodd" clip-rule="evenodd" d="M4.42749 24.5259C4.62081 24.4523 4.80334 24.3622 4.9893 24.2766L5.54008 24.0198L6.64555 23.4876C7.01355 23.3127 7.37125 23.1196 7.75078 22.9552C7.94434 22.8736 8.13791 22.8066 8.33124 22.7433L8.62564 22.6503C8.72598 22.6243 8.8192 22.5944 8.92004 22.5684C8.55204 22.7433 8.16465 22.8922 7.79616 23.0632C7.42816 23.2457 7.05182 23.3946 6.67205 23.5583L5.54817 24.0531C5.17085 24.206 4.80285 24.3696 4.42725 24.5259V24.5259H4.42749ZM4.67288 25.5563C4.67288 25.5563 6.96527 24.2128 7.75426 23.781C8.16741 23.5504 9.50349 22.8878 9.50349 22.8878L4.67288 25.5563Z" fill="#CFB66C"/>
<path fill-rule="evenodd" clip-rule="evenodd" d="M4.67383 25.5567C5.06072 25.3185 5.45521 25.0766 5.84971 24.831L6.43851 24.4736C6.63944 24.3546 6.83301 24.2429 7.03786 24.124C7.23879 24.0047 7.43236 23.8857 7.63696 23.7741C7.73437 23.714 7.83642 23.6617 7.94216 23.6178L8.25471 23.4616C8.66785 23.2606 9.081 23.0558 9.51646 22.8809C9.12197 23.1304 8.71619 23.3426 8.31065 23.5619C8.10972 23.6735 7.90487 23.7741 7.70394 23.8857C7.50301 23.9974 7.30944 24.1166 7.10459 24.2245C6.90366 24.3435 6.71009 24.4552 6.50549 24.5631L5.89878 24.8943L4.67432 25.5567V25.5567H4.67383ZM9.48607 23.1822C9.48607 23.1822 8.06068 24.2764 7.59921 24.6263C7.13774 24.9761 5.77933 25.9587 5.77933 25.9587L9.48607 23.1822V23.1822Z" fill="#CFB66C"/>
<path fill-rule="evenodd" clip-rule="evenodd" d="M17.6659 32.0062L16.9365 30.6255L17.3607 28.8986L20.3864 27.7301L19.0986 25.0878L19.735 22.4193L20.9298 20.0298L24.6218 19.4493L27.3347 16.8628L33.1928 17.3056L34.3427 23.5692L32.1283 31.4555L30.8668 35.5383L25.7531 35.7319L23.3787 34.0869L20.5986 32.9255L17.6659 32.0062V32.0062Z" fill="#E2CC85"/>
<path fill-rule="evenodd" clip-rule="evenodd" d="M26.6355 31.9618C26.6355 31.9618 25.9282 32.2856 24.7219 32.2111C24.3728 31.7422 21.9278 31.5227 21.9278 31.5227C21.9278 31.5227 21.6226 31.4297 21.0829 31.6529C20.5397 31.8737 20.026 31.8465 19.5459 31.9655C19.0658 32.0845 18.5891 31.4594 18.2211 31.3291C17.8531 31.1915 17.3651 30.8603 17.3651 30.8603L16.3347 30.7597L14.2656 29.8851L10.9783 26.6101L10.0851 28.0085L9.80957 29.7391L10.8034 31.7898L13.4793 34.2275L18.697 35.5523L21.7897 34.6411L25.664 33.0035L26.6355 31.9616V31.9618Z" fill="#F1D789"/>
<path fill-rule="evenodd" clip-rule="evenodd" d="M8.09774 20.3874L8.76014 18.3816L9.54938 17.0862L12.091 16.874L11.328 19.0997L9.20321 22.881L10.0852 26.2566L8.52216 27.0379L8.0418 26.3012L7.65491 24.6116L7.62891 22.7134L8.09774 20.3874V20.3874Z" fill="#F4ECB4"/>
<path fill-rule="evenodd" clip-rule="evenodd" d="M10.9482 31.8242L10.4607 31.1431C10.4607 31.1431 10.3304 30.8193 10.405 30.5364C10.4786 30.2499 10.468 30.2312 10.431 30.1233C10.394 30.0153 10.0812 29.6431 10.0998 29.323C10.1182 28.9991 10.0738 28.8912 10.3118 28.6346C10.561 28.3853 10.4867 27.9535 10.4867 27.9535L10.8105 28.1545L10.8841 28.0428C10.8841 28.0428 11.0031 28.1358 11.0031 28.2811C11.0291 28.0801 10.9212 27.1496 11.1668 26.9376C11.4123 26.7256 11.8478 27.9312 11.8478 27.9312L11.5799 26.182L10.8912 24.3883L9.66678 22.7507L9.59318 20.9456V20.7893C9.59318 20.7893 9.03113 21.6529 8.87485 22.3349C8.76322 22.8037 9.03113 23.3732 8.97544 24.0468C8.93054 24.7168 8.87485 24.6646 9.03849 24.93C9.20212 25.1955 9.60054 25.7414 9.44427 26.1359C9.30664 26.4747 8.83756 26.2364 8.83756 26.2364C8.83756 26.2364 8.74458 26.5117 8.61798 26.6123C8.57333 26.4487 8.525 26.3444 8.4357 26.2443C8.4281 26.3076 8.4097 26.3932 8.4097 26.3932C8.4097 26.3932 8.32776 26.1363 8.24581 25.8125C8.13443 25.381 8.0152 24.8115 7.90725 24.5064C7.8626 24.6813 7.75098 25.2134 7.75098 25.2134L7.81427 26.0323L8.11947 27.1562L8.41387 27.8922L8.70042 28.7928L8.94943 29.3978L9.15036 29.8593L9.32528 30.8978L10.17 31.7908L10.6204 31.992L10.9477 31.8244V31.8244L10.9482 31.8242Z" fill="#F3E19D"/>
<path fill-rule="evenodd" clip-rule="evenodd" d="M8.5405 18.7499C8.5405 18.7499 7.93379 19.7803 7.75911 20.8191C7.58443 21.8578 7.42791 22.9554 7.53831 24.3695C7.64994 25.7952 7.86215 26.6695 8.03339 27.2949C8.32779 28.3334 9.09029 29.7774 9.09029 29.7774L9.11629 29.7215C8.98813 29.4785 8.88583 29.2228 8.8111 28.9585C8.71051 28.564 8.67322 28.0952 8.58024 27.8829C8.4983 27.671 8.36067 27.4884 8.29369 27.2279C8.23039 26.9786 8.22009 26.5841 8.02579 26.2902C7.94385 26.171 7.84326 25.8585 7.81357 25.5459C7.77628 25.0768 7.83222 24.5521 7.78757 24.1205C7.70563 23.4022 7.64994 22.9147 7.72427 22.5386C7.79861 22.1625 8.18599 21.0948 8.42421 20.2462C8.58049 19.7028 8.48726 19.245 8.77381 18.7722C9.06036 18.3034 9.23552 17.8903 9.29858 17.6037C9.37218 17.3432 8.53951 18.7499 8.53951 18.7499V18.7499H8.5405Z" fill="#F2E8B0"/>
<path fill-rule="evenodd" clip-rule="evenodd" d="M11.4172 18.3367C11.4172 18.3367 11.1047 18.4299 10.9558 18.5935C10.8068 18.7498 10.7435 18.8801 10.5426 19.1443C10.3417 19.4085 10.3304 19.6244 10.1665 19.9556C10.0029 20.2795 9.64175 20.7669 9.5971 20.9419C9.55245 21.1168 9.47811 21.9355 9.38513 22.3226C9.30319 22.7097 9.47811 23.1862 9.47811 23.1862L9.69008 23.1413C9.69008 23.1413 9.69008 23.4168 9.90229 23.603C10.1143 23.7853 10.1516 22.985 10.1516 22.985L10.9442 20.3091L12.1388 19.4978L12.269 18.8428L11.4167 18.3367V18.3367H11.4172Z" fill="#F5EEC0"/>
<path fill-rule="evenodd" clip-rule="evenodd" d="M11.9975 19.5501C11.9975 19.5501 11.4354 19.5872 11.1602 19.7884C11.0486 19.8701 11.0039 19.937 10.8849 20.0376C10.6653 20.2199 10.4418 20.3875 10.3341 20.6264C10.2149 20.8644 10.0846 21.2255 9.99534 21.9066C9.95805 22.1931 9.95805 22.4573 9.93204 22.6882C9.89475 23.0008 9.83906 23.25 9.86875 23.4242C9.90604 23.7814 10.2745 23.9676 10.3103 24.3731L11.0733 23.9863L11.7917 21.1539L13.3176 20.1971L12.4541 19.2295L11.9965 19.5484V19.5484L11.9975 19.5501Z" fill="#E6DB9D"/>
<path fill-rule="evenodd" clip-rule="evenodd" d="M7.97241 38.6226C7.9756 38.5947 7.97879 38.5667 7.98198 38.538C8.09336 37.5812 8.11225 36.856 8.19395 36.4019C8.31294 35.7581 8.39488 35.5187 8.37623 35.2778C8.35023 34.8909 8.32054 34.608 8.35783 34.3102C8.41352 33.9157 8.80066 33.4468 8.78962 33.123C8.78201 32.8661 8.65174 32.6988 8.54011 32.5425C8.42849 32.3863 8.33919 32.256 8.33919 32.256C8.33919 32.256 9.10217 31.7312 9.09481 29.6172C9.11039 29.6216 9.12539 29.6278 9.13946 29.6358L9.51531 30.7038L9.77218 31.0163L10.7584 32.8549L12.0275 34.0869L13.9031 35.3484L15.0792 36.6283L15.1982 40.0412L13.6612 42.036L13.4095 42.4918C11.4097 41.4879 9.57591 40.1829 7.97217 38.6224L7.97241 38.6226Z" fill="#E5CB7A"/>
<path fill-rule="evenodd" clip-rule="evenodd" d="M12.668 41.8875C12.668 41.8875 12.694 41.4634 13.0438 41.1878C13.0998 41.2808 13.1368 41.3704 13.1258 41.4371C13.1891 41.3257 13.6319 40.6111 14.6331 40.4249C15.6343 40.2426 15.8762 39.5132 15.8762 39.5132L18.001 37.5817L20.4313 35.345L23.3863 34.3065L24.7673 33.9677C24.7673 33.9677 24.7933 34.0683 24.7413 34.2915C24.9979 34.2731 25.5674 34.1429 26.1591 33.9343C26.3973 33.8413 26.6208 33.8041 26.7398 33.927C26.9147 34.0906 26.9407 34.4777 26.9518 34.7083C27.2383 34.6451 27.5695 34.3698 27.835 34.3958C28.2594 34.4404 28.6352 34.9392 29.067 34.9392C29.6364 34.9392 29.8931 34.5894 30.2915 34.3139C30.5297 34.1502 30.8719 33.9459 31.0655 33.8077C31.527 33.4689 36.4099 31.9766 36.4099 31.9766L38.1218 32.0882L38.3973 33.9267L38.2501 38.7328C38.2319 38.7502 38.2138 38.7684 38.1954 38.7858L30.4115 42.8512L19.6217 44.5052C17.2047 44.1104 14.8724 43.3081 12.7239 42.1326L12.6687 41.8873V41.8873L12.668 41.8875Z" fill="#D8C173"/>
<path fill-rule="evenodd" clip-rule="evenodd" d="M8.62695 39.2338C8.78029 38.9131 8.91816 38.645 8.94245 38.5491C8.96159 38.7424 8.99667 39.1666 9.06733 39.6175C8.91898 39.4914 8.77219 39.3634 8.62695 39.2336V39.2338Z" fill="#F1D789"/>
<path fill-rule="evenodd" clip-rule="evenodd" d="M16.5086 43.757L17.904 43.3689L18.023 43.4061C18.023 43.4061 18.0863 43.4434 18.0863 43.5698C18.2612 43.4694 18.4101 43.4878 18.5181 43.4211C18.5738 43.5401 18.6295 43.9346 18.8753 43.9829C19.1319 44.0389 19.4074 43.8713 19.6866 43.6593C19.9619 43.4398 20.2754 43.1642 20.5126 43.0526C20.5997 43.2127 20.6768 43.3779 20.7435 43.5475C21.0561 43.2982 21.5995 42.286 22.3735 42.3044C22.5972 41.7757 22.971 41.3241 23.4485 41.0056C24.1669 40.5181 24.6171 40.4808 25.1791 40.5254C25.4024 40.2355 25.6775 39.9894 25.9904 39.7997C26.0834 39.837 26.3403 39.9933 26.6604 39.8444C26.9843 39.6957 27.3489 39.1187 27.829 39.0444C28.0877 39.0088 28.3508 39.064 28.5733 39.2006C28.5733 39.2006 29.9717 37.8123 30.9366 37.3508C30.8993 37.2392 30.825 36.8187 31.9562 35.8882C32.0195 35.9441 31.9749 36.1004 32.0195 36.109C32.0379 36.109 32.3139 35.99 32.6633 35.7218C33.095 35.3982 33.6122 35.0594 33.9248 34.9664C34.5136 34.7915 35.1382 35.1487 35.1382 35.1487C35.1913 35.1115 35.2505 35.0837 35.3131 35.0668C35.4618 35.0408 35.5697 35.0221 35.6517 34.9932C35.6443 35.1867 35.7523 35.5179 35.6517 35.8045C35.7682 35.87 35.8916 35.9224 36.0197 35.9608C35.9566 36.0984 35.8187 36.4483 35.5881 36.6158C35.7814 36.7088 35.8075 36.8167 36.083 36.9102C35.9713 37.0665 35.7886 37.3346 35.7071 37.499C35.6252 37.6739 35.331 38.3996 35.2007 38.6749C35.0631 38.9504 34.8772 39.4565 34.7876 39.5581C34.6981 39.6597 34.3745 40.0902 34.1252 40.3022C34.346 40.2202 35.2493 39.945 35.6325 39.8407C35.5185 40.008 34.9402 40.866 34.3843 41.691C28.9996 44.9184 22.4865 45.6725 16.5068 43.7607L16.5086 43.757Z" fill="#E0CD81"/>
<path fill-rule="evenodd" clip-rule="evenodd" d="M12.0896 19.4495C12.0896 19.4495 11.766 19.4495 11.7027 19.4942C11.6394 19.5388 12.0266 19.6321 12.1456 19.6767C12.2646 19.7214 12.5214 19.926 12.5884 20.0899C12.6517 20.2461 14.9144 21.1578 14.9144 21.1578L16.5147 21.0759L17.0665 20.3136L16.0169 19.3943L16.7529 17.2246L15.778 17.3809L13.4333 18.7793L12.2572 19.2297L12.0896 19.4495V19.4495Z" fill="#DFC57C"/>
<path fill-rule="evenodd" clip-rule="evenodd" d="M15.604 20.1678C15.6511 20.2441 15.7353 20.2894 15.8248 20.2868C16.156 20.2868 16.461 20.3688 16.5876 20.5361C16.7998 20.8042 17.3878 21.6602 17.3878 21.6602L18.7946 22.1663L18.8854 20.5098L17.3483 19.4419L15.5991 20.0856V20.1676H15.603L15.604 20.1678Z" fill="#E5CC7C"/>
<path fill-rule="evenodd" clip-rule="evenodd" d="M15.3278 20.782C15.3278 20.782 15.5845 20.8007 15.9083 20.6814C16.2321 20.5622 16.7643 20.3056 16.9951 20.4062C17.3187 20.5438 17.2518 20.9756 17.6018 21.363C17.8138 21.6012 18.2009 21.5938 18.4205 21.8507C18.6401 22.1076 19.3955 21.9883 19.3955 21.9883L19.682 23.5339L18.5321 25.0079L18.1561 26.8388H16.6011L15.1806 26.2753L14.481 24.5825L14.8308 22.8706L15.3278 20.782V20.782Z" fill="#D2C281"/>
<path fill-rule="evenodd" clip-rule="evenodd" d="M18.3361 20.8563C18.3747 20.8682 18.4148 20.8745 18.4551 20.875C18.4105 20.9123 18.3172 20.994 18.3545 21.2062C18.3918 21.4184 18.5108 21.6863 18.4105 21.8499C18.4906 21.9375 18.5503 22.0417 18.5854 22.1551C18.6487 22.3376 18.6673 22.505 19.0802 22.5312C19.0206 22.5679 18.9657 22.6116 18.9166 22.6615C18.9166 22.6615 19.2031 22.9107 19.3484 23.1414C19.4971 23.135 19.8915 23.0123 19.8915 23.0123L19.9735 23.0683L20.1484 22.9947C20.1484 22.9947 19.9848 22.9314 20.1038 22.5332C20.2154 22.1833 20.316 22.202 20.3246 22.176C20.3331 22.15 20.4065 21.7815 20.4065 21.6326C20.4622 21.4392 20.5068 20.8512 20.5068 20.8512L20.3879 19.5524L19.7181 19.1466L19.1735 18.6208L18.6597 19.5884L18.3214 19.9258L18.2954 20.7631L18.3361 20.8563V20.8563Z" fill="#E2C270"/>
<path fill-rule="evenodd" clip-rule="evenodd" d="M19.9473 19.7697C19.9473 19.7697 20.0663 20.1083 20.1111 20.3689C20.127 20.3182 20.1357 20.2656 20.1372 20.2126C20.1372 20.2126 20.2301 20.7263 20.2485 20.9385C20.2858 20.9309 20.3221 20.9199 20.3305 20.9569C20.3388 20.994 20.4237 21.4073 20.4041 21.638C20.5591 21.3823 20.7735 21.1678 21.0292 21.0129C21.1781 20.9196 21.353 20.8193 21.5356 20.8117C21.8221 20.8043 22.0304 20.9942 22.3729 20.9942C23.1989 20.9942 23.9472 20.3875 24.498 20.2015C24.9035 20.0637 25.2533 19.9633 25.4989 19.7398C25.6181 19.6395 25.8304 19.4162 26.0237 19.0848C26.2805 18.6432 26.5484 18.2587 26.8166 18.2104C26.6953 18.2327 26.5718 18.2414 26.4486 18.2364C26.4486 18.2364 26.5305 18.1545 26.6694 18.0428C26.8083 17.9312 26.9746 17.7936 27.2126 17.7936C27.637 17.7936 27.849 17.8566 28.0872 17.8566C28.3254 17.8493 28.463 17.7936 28.463 17.7936C28.463 17.7936 28.7125 17.9685 29.2743 17.9685C29.8364 17.9759 30.2123 18.0242 30.5064 18.0505C30.8006 18.0767 31.7866 17.9685 32.0694 17.9769C32.2539 17.984 32.4349 18.0283 32.6018 18.1071L31.6899 15.4575L28.4142 12.5945L26.4641 13.9752L23.4641 16.9749L20.5613 18.0505L19.9546 18.7315V19.7697H19.9473Z" fill="#CCB360"/>
<path fill-rule="evenodd" clip-rule="evenodd" d="M26.4604 18.2512C26.4604 18.2512 26.5424 18.1695 26.6798 18.0579C26.8171 17.9463 26.9852 17.8084 27.2232 17.8084C27.6474 17.8084 27.8596 17.8717 28.0978 17.8717C28.336 17.8643 28.4736 17.8084 28.4736 17.8084C28.4736 17.8084 28.7234 17.9831 29.285 17.9831C29.847 17.9904 30.2229 18.0387 30.517 18.0647C30.8112 18.0908 31.7972 17.9831 32.08 17.9911C32.2644 17.9981 32.4454 18.0424 32.6122 18.1214L32.199 16.9266L31.7192 16.015L30.3495 14.515C30.3495 14.515 28.7057 13.5474 28.6932 13.5401C28.6859 13.5327 28.1238 13.3838 28.1238 13.3838L26.6351 14.2844L25.2843 17.7792L25.2583 18.5152L26.1327 18.9283C26.3522 18.5603 26.5944 18.2659 26.8213 18.2286C26.6165 18.251 26.4602 18.251 26.4602 18.251V18.251L26.4604 18.2512Z" fill="#D5B457"/>
<path fill-rule="evenodd" clip-rule="evenodd" d="M26.4416 18.5006C26.3114 18.5079 26.2037 18.4819 26.1737 18.3889C26.0621 18.0764 25.9728 18.0317 25.8793 18.0317C25.7859 18.0317 25.6598 18.2327 25.5849 18.2511C25.5101 18.2695 25.4213 18.0204 25.4213 18.0204L25.3394 17.9832C25.3394 17.9832 24.8592 18.2957 24.5207 18.6642C24.1821 19.0327 23.6274 19.658 23.3782 19.7694C23.1289 19.8808 22.2727 19.9183 21.9798 19.9816C21.6868 20.0449 21.362 20.2571 21.3174 20.3055C21.2727 20.3538 21.4479 20.4058 21.4739 20.4542C21.4999 20.4988 21.1871 20.4802 21.1611 20.5278C21.1427 20.565 21.2347 20.777 21.2803 20.885C21.3602 20.8453 21.4478 20.8236 21.5369 20.8217C21.8235 20.8143 22.032 21.0042 22.3743 21.0042C23.2005 21.0042 23.9486 20.3975 24.4993 20.2113C24.9051 20.0736 25.255 19.9731 25.5005 19.7498C25.6195 19.6495 25.8317 19.426 26.0253 19.0948C26.1666 18.8678 26.3045 18.6556 26.4424 18.4993V18.4993L26.4416 18.5006Z" fill="#D2B257"/>
<path fill-rule="evenodd" clip-rule="evenodd" d="M14.5923 36.9193C14.5923 36.9193 14.5187 36.6438 13.8366 35.933C13.6431 35.7321 13.5241 35.565 13.3938 35.4455C13.07 35.1401 12.8801 35.0584 12.6495 34.8835C12.1433 34.5076 11.5926 34.5076 11.1684 34.0462C10.7442 33.5847 10.2499 32.703 9.9064 31.8019C9.56784 30.9012 9.47461 30.6147 9.47461 30.5887C9.47461 30.5627 9.56784 30.3878 9.68682 30.4138C9.80581 30.4398 9.80581 30.6704 9.83574 30.7263C9.89502 30.8176 9.96226 30.9035 10.0367 30.9829C10.2116 31.1841 10.4608 31.4245 10.5874 31.7832C10.5614 31.478 10.4572 31.1395 10.4572 31.1395C10.4572 31.1395 11.1122 31.5526 11.6703 31.9841C12.2324 32.4159 12.463 32.5648 12.6271 32.8401C12.7913 33.1154 13.1779 33.8413 13.3631 34.0535C13.5484 34.2657 16.0863 35.0658 16.0863 35.0658L17.2936 35.9659L17.893 37.2797L17.4239 38.0157L16.5233 38.2092L15.0606 37.5542L14.5923 36.919V36.919V36.9193Z" fill="#D2B159"/>
<path fill-rule="evenodd" clip-rule="evenodd" d="M11.3428 32.3937C11.3428 32.3937 11.648 32.8811 12.3923 33.3426C13.0623 33.7484 14.1229 34.1169 15.0684 34.3365C15.6116 34.4667 16.155 34.5671 16.6425 34.5747C17.9562 34.5931 18.8605 34.2175 19.981 34.0946C20.5877 34.0313 21.332 33.9829 22.106 33.8002C23.0996 33.5619 23.6877 33.2938 24.488 32.917C25.0684 32.6491 25.6008 32.4481 26.0324 32.1913C26.6391 31.8341 27.0819 31.4359 27.5956 31.3169C27.5323 31.4918 27.4653 31.8044 26.9592 32.1282C27.2271 32.1206 27.5956 32.1022 27.5956 32.1022C27.5956 32.1022 27.2384 32.3142 26.6094 32.7906C26.2222 33.085 25.7088 33.5833 25.184 33.9145C24.8452 34.1267 24.4767 34.2825 24.2348 34.4096C23.646 34.7334 23.4085 34.897 23.0216 35.2928C23.1593 35.2854 23.1705 35.2928 23.1705 35.2928C23.1705 35.2928 22.6828 35.3561 22.3332 35.542C22.2596 35.542 22.132 35.516 21.9088 35.5793C21.7339 35.635 21.503 35.7618 21.265 35.8286C20.9262 35.9292 20.8148 35.8845 20.8148 35.8845L20.8705 35.9961C20.8705 35.9961 20.4289 35.9885 20.2817 36.0035C20.3077 36.0109 20.3004 36.0221 20.3004 36.0221C20.2745 36.0265 20.2496 36.0353 20.2268 36.0481C20.1559 36.094 20.078 36.1279 19.9962 36.1485C19.9515 36.1558 19.9142 36.1558 19.8583 36.1671C19.8769 36.2118 20.0222 36.4615 20.0892 36.6087C20.0335 36.646 19.1959 37.2787 19.1959 37.2787C19.2219 37.3196 19.2431 37.3633 19.2592 37.409C19.2852 37.4907 19.2965 37.6099 19.3225 37.6656C19.3855 37.7773 19.4228 37.7959 19.4228 37.7959C19.4228 37.7959 19.3225 37.8145 19.1473 37.8592C18.9986 37.8965 18.8161 37.9595 18.5585 37.9968C18.4795 38.0071 18.4 38.0133 18.3203 38.0155C18.3576 38.0974 18.5212 38.41 18.2197 38.7709C17.9182 39.1317 17.8252 39.1842 17.7322 39.4149C17.6854 39.3795 17.6356 39.3483 17.5833 39.3216C17.483 39.277 17.3451 39.2102 17.2968 39.1207C17.2686 39.24 17.2313 39.357 17.1851 39.4705C17.0922 39.7198 16.9545 39.9656 16.9285 40.1516C16.8279 40.04 16.642 39.8204 16.3851 39.865C16.1282 39.9097 15.9236 40.2595 15.879 40.3601C15.879 40.2968 15.8343 40.2485 15.8233 40.3228C15.8157 40.4048 15.6744 41.2605 14.8854 41.9528C14.878 41.7779 14.878 41.3908 14.8594 41.2644C14.7858 41.338 14.6957 41.4467 14.1597 41.6776C13.6349 41.9082 13.7181 42.139 13.7181 42.139C13.7181 42.139 13.6734 41.771 13.9563 41.3834C14.2429 40.9965 14.4178 40.814 14.4178 40.7843C14.4132 40.7541 14.4002 40.7257 14.3805 40.7024C14.3432 40.6651 14.2689 40.6204 14.2689 40.5907C14.3135 40.5723 14.7563 40.3601 14.7303 39.9207C14.7043 39.5265 14.537 39.3216 14.4178 39.1766C14.3994 39.158 14.5929 39.0204 14.5667 38.9757C14.5481 38.9497 14.3101 38.7745 14.2801 38.6813C14.2872 38.6257 14.2997 38.5709 14.3174 38.5177C14.3434 38.4357 14.3621 38.3798 14.3547 38.3241C14.3361 38.2311 14.2355 37.9743 14.2058 37.9483C14.2318 37.9556 14.4178 37.9483 14.4178 37.9483C14.4178 37.9483 14.2691 37.71 14.2429 37.5984C14.2166 37.4868 14.1609 37.1926 14.1312 37.1369C14.1945 37.1443 14.3508 37.1553 14.3508 37.1369C14.3584 37.081 14.2132 36.988 14.2772 36.9161C14.3219 36.9235 14.4075 36.9608 14.4892 37.0651C14.4445 36.9458 14.3702 36.7152 14.2137 36.6222C14.2873 36.5962 14.5375 36.529 14.7571 36.6593C14.9767 36.7895 15.0515 36.9718 15.0515 36.9718C15.0515 36.9718 15.1817 37.0724 15.3829 37.2213C15.6135 37.4036 15.9074 37.6629 16.3765 37.8464C16.4771 37.9024 16.7337 37.9024 16.9199 37.8651C17.001 37.8458 17.0787 37.8144 17.1505 37.7721C17.1765 37.7568 17.2039 37.7443 17.2325 37.7348C17.1925 37.6545 17.1465 37.5773 17.0949 37.504C17.1582 37.504 17.2325 37.5116 17.2325 37.5116C17.2325 37.5116 17.2771 37.411 17.0762 37.2172C17.1209 37.1725 17.1768 37.1436 17.1768 37.0682C17.1135 37.0609 17.0019 36.9679 16.9759 36.9306C17.0129 36.9046 17.0689 36.819 17.1321 36.793C17.0762 36.7483 16.9386 36.5621 16.8753 36.5437C16.9358 36.5213 16.9943 36.4939 17.0502 36.4618C17.0502 36.4618 16.7377 36.3798 16.6371 36.3129C16.5365 36.2393 16.3878 36.1119 16.2985 36.0746C16.2053 36.0374 16.0416 36.019 15.9747 35.9444C16.0377 35.963 16.1383 35.9444 16.2129 35.9444C16.2686 35.9444 16.2948 35.9517 16.3132 35.9517C16.3059 35.9257 16.3059 35.8698 16.4511 35.8514C16.521 35.8409 16.5888 35.8195 16.652 35.7881C16.652 35.7881 16.5142 35.7807 16.3576 35.6318C16.2011 35.4829 16.0711 35.3639 15.9818 35.3453C15.8888 35.3266 15.7139 35.4086 15.6059 35.401C15.457 35.3826 15.3937 35.308 15.3937 35.308C15.3937 35.308 14.8989 35.3526 13.801 34.6829C12.8518 34.1022 12.4387 33.5887 12.4387 33.5887C12.3498 33.5564 12.264 33.5165 12.1821 33.4694C11.8249 33.2835 11.3298 32.8964 11.3447 32.39V32.39L11.3428 32.3937Z" fill="#C2A44D"/>
<path fill-rule="evenodd" clip-rule="evenodd" d="M25.0348 10.056C25.1209 10.084 25.1974 10.1356 25.2556 10.205C25.4305 10.4059 25.5421 10.7854 25.144 11.1912C25.3002 11.2469 25.3648 11.2648 25.5012 11.2469C25.3635 11.4108 25.051 11.7606 25.0323 12.0658C25.0137 12.3151 25.17 12.3897 25.17 12.3897C25.17 12.3897 24.9318 12.6649 24.9207 13.1257C25.0332 12.9988 25.1563 12.8818 25.2887 12.7758C25.5642 12.5562 25.9438 12.307 26.2006 12.1507C26.1971 12.2162 26.206 12.2818 26.2266 12.344C26.2266 12.344 26.7065 11.9495 27.1098 12.1247C27.2921 12.2066 27.2102 12.4633 27.2102 12.4633C27.2102 12.4633 27.4597 12.3703 27.6346 12.5452C27.8095 12.7201 28.0568 13.1713 28.1836 13.3462C28.2393 13.4282 28.3846 13.5844 28.5332 13.8263C28.7364 14.165 28.906 14.5227 29.0396 14.8943C29.047 14.7007 29.0953 14.3994 29.6463 14.5891C30.1971 14.7826 30.8222 15.1884 31.347 15.9875C31.8717 16.7865 32.0018 17.6886 32.266 18.0321C32.5339 18.3633 32.8094 18.9141 32.8281 19.1449C32.8467 19.3758 32.7461 20.1199 33.2969 22.1333C33.4532 21.5082 33.6914 20.1199 33.6914 20.1199L33.8217 18.8954L33.9706 15.1067L30.0143 11.82L26.9217 9.57568L24.9082 9.76925L25.0345 10.0558V10.0558L25.0348 10.056Z" fill="#CAA13E"/>
<path fill-rule="evenodd" clip-rule="evenodd" d="M32.3854 15.6942C32.3854 15.6942 32.3295 15.3262 31.3992 14.7006C30.4686 14.0828 29.7429 14.0828 29.0732 13.558C28.5594 13.1449 28.0236 12.1957 27.6748 11.8832C27.336 11.5743 27.2803 10.681 27.2803 10.681L28.4228 9.72422L30.122 7.26819L31.5584 5.68652L32.2468 6.64332L33.2036 7.7672L33.7357 10.0225L33.9293 13.3238L32.3837 15.6944L32.3854 15.6942Z" fill="#B59544"/>
<path fill-rule="evenodd" clip-rule="evenodd" d="M33.5353 19.6511C33.5634 19.1505 33.5016 18.6489 33.3528 18.17C33.1074 17.4071 32.5714 16.0523 32.3224 15.545C32.2218 14.9829 32.2963 14.9383 32.4043 14.875C32.5122 14.8117 32.918 14.5806 33.1403 13.7698C33.3626 12.9589 34.0522 12.9324 34.0522 12.9324L34.4764 12.6199L35.1204 14.2312L35.6822 15.6865L35.8571 16.7994L35.9874 17.7483L35.6822 19.7544L34.1751 21.1165L33.535 19.6511V19.6511H33.5353Z" fill="#C89D3A"/>
<path fill-rule="evenodd" clip-rule="evenodd" d="M12.5039 42.0105V41.9692C12.5352 41.9497 12.5629 41.9248 12.5856 41.8956C12.6116 41.8583 12.6305 41.8137 12.6489 41.8027C12.6862 41.784 12.8611 41.7291 12.9541 41.7467C13.0471 41.7644 13.2929 41.8657 13.4232 41.8583C13.6911 41.851 14.0036 41.6461 14.4987 41.7394C15.2431 41.877 15.418 42.3831 15.8498 42.6697C16.1442 42.8708 16.4489 42.7813 16.4935 42.7813H16.5939C16.6125 42.7813 16.7501 42.625 16.8247 42.6326C16.9736 42.64 16.9884 42.7629 17.0813 42.7703C17.3009 42.7963 17.7253 42.6586 17.9375 42.7146C18.0653 42.7546 18.1653 42.8545 18.2055 42.9822C18.2501 43.1199 18.2128 43.2948 18.1049 43.3954C17.8743 43.6073 17.6547 43.8085 17.61 43.9842C17.6668 44.0275 17.7214 44.0736 17.7734 44.1225C15.932 43.6534 14.1603 42.944 12.5039 42.0127V42.0105Z" fill="#CEB052"/>
<path fill-rule="evenodd" clip-rule="evenodd" d="M32.3218 34.5747C32.3218 34.5747 32.9022 33.8007 33.1034 33.4172C33.3043 33.022 32.467 28.0172 32.467 28.0172L34.1493 22.5055L34.1044 20.7116C34.1044 20.7116 34.1863 19.0554 34.3799 18.3371C34.6107 18.7502 35.3291 19.249 35.4854 19.5132C35.559 19.0068 35.8089 17.9389 35.7719 16.8C35.9095 17.012 36.2407 19.1447 36.2407 19.1447L36.5719 20.5811L37.0037 22.1071L37.4838 23.7187L37.7704 24.8315L37.934 25.0994L38.0719 25.5683L38.2022 26.0746L38.578 27.2618L38.7988 28.2368L38.9737 30.0046C39.0118 30.14 39.0392 30.2781 39.0557 30.4178C39.063 30.6113 39.0297 30.723 39.0297 30.7566C39.0297 30.7902 39.093 31.1808 39.067 31.4749C39.0297 31.7693 39.0297 31.9997 38.7988 32.2109C38.568 32.4221 38.423 33.6846 38.423 33.6846L38.0098 33.4094C38.0098 33.4094 38.0918 33.0333 37.8982 32.691C37.7046 32.3488 37.3288 32.2779 37.1166 32.3338C36.9046 32.3785 36.4804 32.4452 36.3425 32.5644C36.2123 32.6834 35.8924 33.0519 35.5982 33.2195C35.2302 33.4403 34.6306 33.4577 34.3107 33.532C33.9869 33.6056 33.6296 33.8264 33.2536 34.0828C32.9587 34.2737 32.6473 34.4379 32.3232 34.5735V34.5735L32.3218 34.5747Z" fill="#CCA847"/>
<path fill-rule="evenodd" clip-rule="evenodd" d="M32.3218 42.7064C32.3218 42.7064 32.3463 42.7223 32.3937 42.7483C35.0378 41.5095 37.4069 39.7536 39.3611 37.5841C39.3398 36.8309 39.3121 36.0588 39.2816 35.7728C39.2186 35.1661 39.2632 34.5483 39.2446 34.1911C39.2259 33.8339 39.025 32.3786 38.932 32.0027C38.8315 31.6269 38.6376 31.4407 38.6082 31.4407C38.5822 31.4483 38.4257 32.148 38.4257 32.3239C38.4257 32.4998 38.3884 32.9232 38.3884 33.0312C38.3624 33.0236 38.3513 32.9576 38.3513 32.9306C38.314 33.0236 38.2694 33.1874 38.2507 33.2061C38.2321 33.2247 38.2768 33.0498 38.2507 33.0125C38.2247 32.9752 38.1771 32.9939 38.1875 32.9009C38.1919 32.8458 38.2006 32.791 38.2135 32.7373C38.2135 32.7373 38.1018 32.9009 38.0201 33.3177C37.9382 33.7309 37.9382 33.7421 37.9085 33.7792C37.8825 33.8241 37.7336 33.9728 37.726 34.0287C37.7186 34.129 37.8639 34.2296 37.8749 34.2853C37.8823 34.3785 37.7446 34.8101 37.7 35.0213C37.6553 35.2325 37.674 35.6464 37.6264 35.8586C37.5891 36.0522 37.5528 36.1638 37.4254 36.2455C37.5184 36.2642 37.6077 36.2902 37.6077 36.2902C37.6077 36.2902 37.738 36.841 37.4068 37.31C37.2878 37.4737 37.2581 37.5482 37.1315 37.6972C36.882 37.9724 36.6885 38.286 36.6698 38.4898C36.6569 38.4297 36.6483 38.3687 36.6438 38.3073C36.6438 38.3073 36.2569 38.7577 36.093 39.0146C35.8811 39.3458 35.5869 39.3272 35.5042 39.4091C35.4216 39.491 35.4037 39.6397 35.4306 39.7589C35.357 39.7773 35.2187 39.8036 35.1254 40.0901C35.0808 40.2388 34.9692 40.3845 34.7942 40.4846C34.6193 40.5847 34.4071 40.6149 34.2992 40.6409C34.3921 40.6669 34.4294 40.6669 34.4741 40.6966C34.4184 40.7896 34.1615 40.9348 33.875 41.121C33.5884 41.296 33.4506 41.5526 33.3799 41.7201C33.3063 41.8764 33.1976 41.977 33.0227 41.9956C33.0963 42.0403 33.2052 42.1443 33.2609 42.1779C33.179 42.1966 33.0401 42.1966 32.7921 42.4088C32.5315 42.6247 32.4422 42.688 32.323 42.7066V42.7066L32.3218 42.7064Z" fill="#C39D3C"/>
<path fill-rule="evenodd" clip-rule="evenodd" d="M27.1433 44.431C27.2858 44.3311 27.4402 44.2493 27.6028 44.1874C28.1833 43.9568 28.7974 43.9121 29.0393 43.8378C29.2701 43.7642 29.4524 43.6626 29.7389 43.6069C29.7313 43.6722 29.725 43.7335 29.7181 43.7914C28.8733 44.057 28.013 44.2706 27.1421 44.431H27.1433Z" fill="#D2BA6B"/>
<path fill-rule="evenodd" clip-rule="evenodd" d="M37.8494 29.1633C37.8494 29.1633 37.7304 29.8071 37.5182 30.2128C37.3059 30.6186 37.0766 31.1804 37.0766 31.1804C37.078 31.0538 37.0929 30.9277 37.1212 30.8043C36.8533 30.9606 36.2019 31.3367 36.0172 31.504C35.8423 31.6603 35.5481 31.9358 35.4738 32.0661C35.6487 31.5526 35.831 31.0911 35.8609 30.8789C35.593 31.0725 34.3423 32.1034 33.6912 32.7844L31.6628 34.4257C31.4287 34.552 31.1877 34.6648 30.9408 34.7638C30.5912 34.9124 30.178 35.039 29.8728 35.1583C29.9548 34.9387 30.0848 34.7449 30.2673 34.5589C30.4609 34.3766 31.0414 33.7476 31.1307 33.4549C31.2126 33.1497 31.2312 32.9674 31.1233 32.7106C31.0227 32.7366 30.7921 32.7479 30.6358 32.7925C30.4795 32.8372 30.312 33.0045 30.312 33.0045C30.312 33.0045 30.431 32.3234 30.6878 31.6797C30.4943 31.687 30.1631 31.7427 30.1631 31.7427C30.1631 31.7427 30.6245 30.9687 31.4143 30.4292C31.1724 30.4807 30.9357 30.5541 30.7072 30.6485C30.2457 30.8421 29.7396 31.1287 29.3638 31.2849C29.5757 30.9905 31.0644 28.866 31.9503 26.8859C32.8335 24.9097 33.1635 24.4036 33.3571 23.343C33.4574 22.8182 33.4307 22.0427 33.4574 21.3482C33.4834 20.6596 33.569 20.0418 33.5133 19.6287C33.744 19.9152 34.6075 20.7228 34.6372 22.528C34.6632 24.3329 33.8112 26.7708 32.9066 28.0843C33.1274 28.1476 33.6995 28.2222 34.2874 27.2011C34.8752 26.18 34.8681 25.895 35.0803 25.4705C35.1063 25.6828 35.0987 25.7571 35.0987 25.7571C35.0987 25.7571 35.9549 24.7188 36.3604 23.4124C36.4424 23.9745 36.6843 24.4696 36.3045 25.5005C35.9659 26.4308 35.5231 26.658 35.5231 26.658C35.5231 26.658 35.7427 26.6207 36.0663 26.4271C36.1222 26.5647 36.1112 26.7215 36.2042 26.7769C36.2971 26.8324 36.4237 26.9259 36.4424 27.0152C36.5427 26.8662 36.699 26.6764 36.7476 26.535C36.7103 26.8294 36.6843 28.1167 36.8212 28.7717C37.108 28.7457 37.4019 28.7271 37.6028 28.2097C37.4652 28.7161 37.4652 29.021 37.5582 29.4528C37.7107 29.3488 37.8484 29.1626 37.8484 29.1626V29.1626L37.8494 29.1633Z" fill="#C0993A"/>
<path fill-rule="evenodd" clip-rule="evenodd" d="M28.1795 8.64914C28.1795 8.64914 27.893 8.76813 27.4055 8.76813C26.9813 8.76813 27.1003 8.60449 26.4379 8.60449C25.4183 8.60449 21.8565 9.19329 21.2312 9.18495C20.8254 9.17759 22.6006 9.35987 22.6006 9.35987L27.1376 9.42317L28.0493 9.34957L28.3881 8.66018L28.1795 8.64914Z" fill="#A88F33"/>
<path fill-rule="evenodd" clip-rule="evenodd" d="M16.4154 17.5179C16.4154 17.5179 15.8347 17.9607 15.5891 18.2995C15.3435 18.6383 15.2133 18.8613 14.9341 19.1369C14.9996 19.1394 15.0651 19.1306 15.1276 19.1108C15.1276 19.1108 15.1276 19.1844 15.083 19.2038C15.1611 19.1951 15.2391 19.2221 15.295 19.2774C15.213 19.3221 14.9898 19.5456 15.1647 19.8098C15.295 20.0107 15.5705 20.0291 15.5705 20.0291C15.5705 20.0291 15.5072 20.2117 15.7714 20.193C16.3408 20.167 16.9772 19.9175 17.2711 19.9808C17.5655 20.0544 17.7328 20.0814 17.9411 20.4425C18.1619 20.7997 18.3543 20.8557 18.3543 20.8557C18.3543 20.8557 18.4845 20.5242 18.4549 20.0294C18.5617 19.7626 18.6209 19.4792 18.6298 19.1921L18.4362 17.7667L17.5915 16.6985L16.4973 17.3052L16.4154 17.5172V17.5179Z" fill="#E3C571"/>
<path fill-rule="evenodd" clip-rule="evenodd" d="M17.4536 17.3058C17.4536 17.3058 17.5356 17.4993 17.878 17.5177C17.8407 17.5997 17.8407 17.611 17.852 17.674C17.8594 17.7373 17.8704 17.8303 17.8704 17.8303C17.9081 17.812 17.9422 17.7871 17.971 17.7567C17.9897 17.8386 17.9524 17.9687 17.971 18.0619C17.9825 18.1186 18.0012 18.1736 18.0267 18.2255C18.0321 18.2128 18.0384 18.2004 18.0454 18.1885C18.0527 18.1698 18.119 18.3894 18.3022 18.5565C18.3021 18.5308 18.3084 18.5055 18.3206 18.4829C18.3234 18.5295 18.3389 18.5746 18.3653 18.6132C18.3516 18.6066 18.339 18.5978 18.3282 18.5871C18.3282 18.5871 18.3466 19.1759 18.4472 19.4804C18.464 19.4607 18.479 19.4395 18.4919 19.4171C18.4919 19.3987 18.4845 19.581 18.4659 19.7115C18.4399 19.8418 18.4585 20.0241 18.4585 20.0241C18.5256 19.9712 18.5993 19.9274 18.6778 19.8938C18.7895 19.8489 18.9722 19.7113 19.0836 19.4061C19.1482 19.2332 19.198 19.0552 19.2325 18.8739C19.2685 18.9432 19.2933 19.0177 19.3061 19.0947C19.3137 19.1877 19.4887 19.1394 19.4887 19.1394L19.5259 18.7336L19.7467 17.8143L19.9477 17.2449L20.9153 15.7378L22.6635 14.3915L24.1895 14.7413L25.477 12.9921L23.2589 11.6597L21.1599 11.8792L19.2549 14.5178L17.7291 16.911L17.4536 17.3055V17.3055L17.4536 17.3058Z" fill="#D8B65B"/>
<path fill-rule="evenodd" clip-rule="evenodd" d="M28.4476 13.4875C28.4476 13.4875 28.3173 13.5135 27.9415 13.7083C27.5656 13.9031 27.3051 13.9649 27.1598 14.2515C27.0146 14.538 27.0036 14.7652 27.0036 14.7652C27.0036 14.7652 27.2604 14.6536 27.4093 14.6163C27.5656 14.5793 27.7405 14.5903 27.7219 14.6536C27.704 14.697 27.6791 14.7372 27.6483 14.7726C27.6483 14.7726 27.9427 14.7652 27.9348 14.9105C27.927 15.0557 27.8792 15.2157 27.8235 15.2863C27.7675 15.3599 27.5369 15.4688 27.5109 15.5545C27.4476 15.7294 27.5369 15.7367 27.5033 15.8781C27.4773 16.0159 27.3546 16.2838 26.9525 16.7527C26.5394 17.2217 26.3637 17.5529 26.3637 17.5529C26.3637 17.5529 26.1628 17.1771 26.0585 16.8533C25.9849 16.8903 25.5897 17.1099 25.5897 17.1099L24.6741 13.9205L24.6925 13.7083C24.6925 13.7083 24.7745 13.608 24.7931 13.4218C24.6555 13.3771 24.6368 13.3398 24.4543 13.1652C24.2718 12.9905 24.1231 12.778 23.8182 12.6328C23.7735 12.5508 23.7176 12.4395 23.4943 12.3946C23.2711 12.3497 23.1371 12.3129 23.1371 12.3129C23.1371 12.3129 23.2561 12.268 23.312 12.175C23.1742 12.1936 23.0628 12.2383 22.7613 12.2309C22.4561 12.2233 22.4225 12.2123 22.2551 12.2383C22.0878 12.2643 21.8871 12.3389 21.8123 12.082C21.7304 12.0187 21.5554 12.0747 21.4065 12.294C21.2576 12.5133 21.2056 12.6885 20.919 12.7741C20.8989 12.9004 20.8547 13.0217 20.7888 13.1313C20.7068 13.2692 20.5766 13.4068 20.4016 13.6114C20.1261 13.9353 20.1708 14.4674 19.7316 14.8732C19.2888 15.2787 19.8052 13.7491 19.8052 13.7491L20.5123 12.0563L22.5257 10.0875L25.652 9.87549L25.9572 11.4947L27.4832 12.0195L28.4471 13.4895V13.4895L28.4476 13.4875Z" fill="#D3AE4D"/>
<path fill-rule="evenodd" clip-rule="evenodd" d="M28.9427 13.8447L27.6289 11.9505L26.7096 11.2432C26.7096 11.2432 26.0546 10.0376 26.0099 10.0003C25.9726 9.97433 25.3549 9.90735 24.9604 9.88135L25.034 10.0636C25.1201 10.0916 25.1966 10.1432 25.2548 10.2125C25.4297 10.4135 25.5414 10.793 25.1432 11.1988C25.2995 11.2545 25.364 11.2724 25.5004 11.2545C25.3627 11.4184 25.0502 11.7682 25.0315 12.0734C25.0129 12.3227 25.1692 12.397 25.1692 12.397C25.1692 12.397 24.931 12.6725 24.9199 13.133C25.0324 13.0061 25.1555 12.8891 25.2879 12.7832C25.5634 12.5624 25.943 12.3141 26.1998 12.1578C26.1963 12.2234 26.2051 12.289 26.2258 12.3514C26.2258 12.3514 26.7057 11.9569 27.109 12.1318C27.2913 12.2137 27.2094 12.4706 27.2094 12.4706C27.2094 12.4706 27.4589 12.3776 27.6338 12.5525C27.8087 12.7275 28.058 13.1776 28.1846 13.3528C28.2403 13.4348 28.3855 13.591 28.5342 13.8327C28.7373 14.1714 28.9069 14.5292 29.0405 14.9009C29.0479 14.752 29.0778 14.5437 29.3349 14.5437L28.9441 13.844L28.9427 13.8447Z" fill="#CAA13E"/>
<path fill-rule="evenodd" clip-rule="evenodd" d="M9.24738 19.2262C9.24738 19.2262 9.1544 18.9953 9.24738 18.5451C9.34036 18.0949 9.4856 17.8827 9.53393 17.2203C9.58226 16.5579 10.014 15.7316 10.014 15.7316L11.2086 15.1885L12.0535 15.4191L12.3028 16.5506L11.2346 17.1394C11.2346 17.1394 11.1789 17.3886 10.8774 17.5896C10.5759 17.7905 10.159 17.9468 10.0587 18.1516C9.99871 18.2771 9.95494 18.4096 9.92843 18.5461C9.92843 18.5461 9.62323 18.4828 9.44095 18.6837C9.24738 18.8886 9.25474 19.0709 9.24738 19.2272V19.2262Z" fill="#F4EFC8"/>
<path fill-rule="evenodd" clip-rule="evenodd" d="M11.6592 18.9247C11.6592 18.9247 11.5586 18.988 11.4843 19.1455C11.4107 19.0266 11.2348 18.3193 11.2274 17.6829C11.2201 17.0465 11.1821 16.8887 11.3293 16.6694C11.4765 16.4501 12.0537 16.219 11.9718 15.824C11.8898 15.4481 11.5474 15.2918 11.1269 15.3998C10.8325 15.4734 10.6134 16.0995 10.3082 16.412C10.0773 16.6503 9.80205 16.613 9.72772 16.7432C9.62713 16.9182 9.72011 17.0931 9.69042 17.2047C9.68282 17.242 9.58984 17.4429 9.42228 17.6848C9.08372 18.1723 8.51062 18.861 8.43604 19.4787C8.46204 19.1289 8.44364 19.1215 8.53662 18.7344L8.48069 18.6414L8.84869 17.4356L9.0869 16.442L9.61928 14.7781L10.5569 13.0775L11.4688 12.0576L12.4178 12.1209L12.5294 13.5463L13.0728 16.2224L14.2154 17.6291L12.3842 18.8614L11.6585 18.9247V18.9247H11.6592Z" fill="#EBCC73"/>
<path fill-rule="evenodd" clip-rule="evenodd" d="M12.2287 19.4303C12.2287 19.4303 12.0724 19.4676 12.0165 19.4379C11.9606 19.4082 11.9051 19.3746 11.9235 19.3373C11.9419 19.3 12.0425 19.237 12.0425 19.207C12.0468 19.1508 12.0056 19.1014 11.9495 19.0954C11.8639 19.0844 11.8379 19.1401 11.8379 19.1401C11.8379 19.1401 11.756 19.077 11.6892 19.0665C11.7287 19.0616 11.7684 19.0591 11.8082 19.0589C11.7054 19.0123 11.5963 18.981 11.4844 18.9659C11.5774 18.9102 11.7599 18.7463 11.8789 18.7463C11.9979 18.7463 12.0724 18.7279 12.0538 18.6646C12.0351 18.6013 11.9422 18.5083 11.8418 18.471C11.8789 18.4264 11.9051 18.3594 11.8158 18.1766C11.7226 17.9944 11.7599 17.8715 11.7898 17.827C11.8158 17.7711 11.9088 17.6708 11.9535 17.6075C11.9981 17.5442 12.0354 17.4586 12.1097 17.4139C12.147 17.3879 12.266 17.3403 12.3852 17.2949C12.5155 17.2503 12.6235 17.1943 12.6978 17.2503C12.7797 17.306 12.7424 17.3805 12.7424 17.3805C12.7424 17.3805 12.9993 17.2873 13.2299 17.4065C13.4608 17.5179 14.0228 17.5888 14.0228 17.5888L14.2243 17.9946L12.8919 19.1371L12.3411 19.4126L12.2295 19.431V19.431L12.2287 19.4303Z" fill="#E5C66B"/>
<path fill-rule="evenodd" clip-rule="evenodd" d="M14.0778 17.5625C14.0778 17.5625 13.6646 17.838 13.5717 17.9384C13.6274 17.946 13.7203 17.9833 13.683 18.0389C13.6384 18.0946 13.3705 18.2882 13.2216 18.4707C13.0653 18.653 12.9164 18.8839 12.8644 18.9955C12.8087 19.0958 12.3842 19.39 12.2393 19.427C12.5445 19.427 13.1585 19.0512 13.3891 19.0512C13.3818 19.1628 13.4524 19.2894 13.5827 19.3004C13.713 19.3115 14.0888 19.3824 14.5949 19.0698C15.1011 18.7646 14.9338 18.5375 15.1457 18.3888C15.5515 18.1206 15.7151 17.8824 15.9384 17.7337C16.1616 17.5851 16.2772 17.5512 16.2772 17.5512C16.2772 17.5512 16.2846 17.4396 16.3508 17.4509C16.3878 17.4551 16.4193 17.4795 16.4327 17.5142C16.4327 17.5142 16.8199 17.2387 17.3159 17.1643C17.3044 17.1592 17.2951 17.1499 17.2899 17.1383C17.2899 17.1383 17.327 17.1197 17.3346 17.101C17.3346 17.101 17.3606 17.0637 17.3792 17.0824C17.3979 17.101 17.4239 17.2387 17.4612 17.2946C17.5431 17.2573 17.6994 16.9075 17.6994 16.9075L18.0755 15.8319V14.8494L17.7811 14.9053L15.5731 15.843L14.2331 17.2313L14.0768 17.5625H14.0778Z" fill="#E6BD62"/>
<path fill-rule="evenodd" clip-rule="evenodd" d="M20.4344 12.7429C20.5539 12.714 20.6684 12.6675 20.7742 12.6051C20.7296 12.7243 20.7296 12.8546 20.536 13.1374C20.3424 13.4203 20.3351 13.4613 20.1788 13.7552C20.0225 14.0604 20.0039 14.4995 19.855 14.6928C19.9217 14.6604 19.9933 14.6391 20.0669 14.6298C20.0669 14.6298 19.9183 14.7601 19.855 14.8977C19.7917 15.0353 19.68 15.3219 19.4048 15.497C19.1295 15.6722 18.7794 15.7836 18.4036 16.1967C18.0275 16.6023 17.6406 17.116 17.4468 17.3007C17.5474 17.1258 17.685 16.776 17.7223 16.5454C17.7596 16.3147 17.7147 16.039 17.778 15.734C17.8413 15.4291 17.8413 15.2093 18.146 14.6769C18.4507 14.1445 18.9723 12.2949 18.9723 12.2949L20.0961 11.9377L20.4349 12.7417V12.7417L20.4344 12.7429Z" fill="#B6933F"/>
<path fill-rule="evenodd" clip-rule="evenodd" d="M19.6233 12.0622C19.6233 12.0622 19.2848 12.5497 19.1918 12.9815C19.0988 13.4133 19.1842 13.376 19.1285 13.5882C19.0952 13.7176 19.0952 13.8533 19.1285 13.9827C19.2458 13.7938 19.4063 13.6355 19.5968 13.521C19.917 13.3276 20.1775 13.1898 20.3328 13.0261C20.4891 12.8512 20.6194 12.5647 20.9579 12.3451C20.8203 12.3264 20.6267 12.2631 20.5899 12.2715C20.7278 12.1152 21.1407 11.877 21.5575 11.5904C21.9707 11.296 21.9447 11.1773 22.6147 10.8834C22.3951 10.9207 22.2908 10.8647 22.1083 10.8834C22.1819 10.7271 22.4395 10.6525 22.6971 10.3959C22.9547 10.1393 22.5335 9.75952 22.5335 9.75952L20.5708 10.9467L19.6219 12.0632L19.6233 12.0622Z" fill="#C49937"/>
<path fill-rule="evenodd" clip-rule="evenodd" d="M14.2979 11.1763L14.3425 10.8191L14.9046 9.91845L15.4926 8.33678V6.17441L15.448 4.92395L15.541 4.10503L15.6116 3.84473L15.6862 3.74414L16.1661 3.9934L16.8287 4.89402L16.892 6.63221L16.248 9.37503L14.4095 11.3811L14.2979 11.1763V11.1763Z" fill="#DFC068"/>
<path fill-rule="evenodd" clip-rule="evenodd" d="M15.7606 3.64326C15.7606 3.64326 15.4662 3.65086 15.4034 4.87532C15.3406 6.09978 15.3102 6.74353 15.2655 7.35024C15.2209 7.95695 15.1169 8.3252 15.0646 8.68265C15.0124 9.0401 14.9827 9.52733 14.8154 9.82517C14.7418 9.9628 14.5845 10.3946 14.216 10.7184C13.8029 11.0756 13.1856 11.3251 13.0921 11.3438C12.9283 11.3808 12.0983 11.4628 11.7597 11.649C11.6407 11.7123 11.4359 11.7866 11.209 11.9988C10.7585 12.4044 10.1594 13.1301 9.72763 14.0047C9.06523 15.3111 8.40283 18.9992 8.40283 18.9992L8.55175 18.7499C8.55175 18.7499 8.57039 18.4187 8.90159 17.838C9.22543 17.2575 9.13245 16.6062 9.58264 15.4933C9.75756 15.0692 9.97714 14.5184 10.245 14.0493C10.6695 13.2863 11.1829 12.6313 11.7004 12.2741C12.545 11.6936 13.4756 11.567 13.4756 11.567L14.4768 10.9046C14.4768 10.9046 14.6517 10.5661 14.8826 10.1789C15.2062 9.63577 15.6186 9.02906 15.7086 8.14709C15.8465 6.84069 15.515 5.98472 15.5337 5.21069C15.5523 4.43667 15.5597 3.86725 15.7162 3.72937C15.8727 3.59149 15.7609 3.64375 15.7609 3.64375V3.64375L15.7606 3.64326Z" fill="#A88F33"/>
<path fill-rule="evenodd" clip-rule="evenodd" d="M15.7603 9.48662C15.7603 9.48662 16.2019 8.39979 16.404 7.43588C16.4413 7.24231 16.5156 7.04899 16.5343 6.89271C16.6273 5.98081 16.6533 5.60495 16.5343 5.10619C16.4413 4.73819 16.0841 4.4065 15.8979 4.14939C15.7156 3.88124 15.63 3.78139 15.6673 3.72497C15.7046 3.66854 15.8496 3.57629 15.9909 3.58733C16.2944 3.59617 16.5811 3.7292 16.7838 3.95533C17.0703 4.28653 17.2973 5.41065 17.2973 5.41065L17.536 6.89394L18.1427 8.76215L15.7607 9.48809V9.48809L15.7603 9.48662Z" fill="#C99E3D"/>
<path fill-rule="evenodd" clip-rule="evenodd" d="M19.9101 8.35537C19.9101 8.35537 19.8282 8.39242 19.6795 8.35537C19.6924 8.47924 19.6349 8.59993 19.5306 8.66793C19.3743 8.60463 17.9114 8.73122 17.9114 8.73122C17.9114 8.73122 17.2304 8.61199 17.0181 7.71137C16.8695 7.11202 17.1298 6.28599 17.0441 5.74257C16.9139 4.94229 16.7316 4.78577 16.7129 4.53676C16.6943 4.28775 16.6757 4.2242 16.6757 4.06793C16.5937 4.04928 16.5454 4.02328 16.4637 4.02328C16.445 3.94968 16.4821 3.8854 16.4004 3.75513C16.445 3.77377 16.7502 3.81106 17.1074 4.14962C17.4018 4.42513 17.4018 4.52547 17.4462 4.58141C17.5019 4.6371 17.9524 5.02301 18.1459 5.40769C18.3395 5.79237 18.7154 7.01904 18.801 7.21997C18.827 7.30191 18.8829 7.38385 19.0218 7.56981C19.2377 7.83796 19.5539 8.28128 19.9111 8.35488V8.35488L19.9101 8.35537Z" fill="#B58634"/>
<path fill-rule="evenodd" clip-rule="evenodd" d="M17.4985 4.6001C17.724 4.9643 17.9265 5.34219 18.105 5.73157C18.3246 6.22641 18.4548 6.63219 18.7304 6.96339C18.5814 6.53185 18.3172 5.68324 18.1609 5.38173C17.986 5.0628 17.6288 4.71933 17.4985 4.60034V4.60034V4.6001Z" fill="#A88F33"/>
<path fill-rule="evenodd" clip-rule="evenodd" d="M14.9675 10.7185C14.9675 10.7185 14.5917 10.8115 13.892 11.18C13.6611 11.299 13.4418 11.3993 13.2296 11.4925C12.6783 11.7418 12.0871 11.9722 11.618 12.0992C11.6553 12.1439 11.6737 12.1623 11.6737 12.1623C11.6737 12.1623 11.6737 12.3448 11.7743 12.4488C11.7186 12.5048 10.974 13.0109 11.1938 14.7042C11.3425 14.6485 11.5174 14.5739 11.5434 14.5739C11.5883 14.5815 11.5993 14.7042 11.655 14.7042C11.7107 14.7042 11.8932 14.6306 12.0868 14.3804C12.0794 14.4809 11.9678 15.4932 12.5669 16.1742C12.6786 16.044 12.9614 15.6122 12.9614 15.6122L12.9688 15.4745C12.9688 15.4745 12.9948 14.9944 13.1513 14.5553C13.3078 14.1161 13.6128 13.7923 13.6128 13.7923L15.2052 11.5183L14.967 10.7183V10.7183L14.9675 10.7185Z" fill="#E6C367"/>
<path fill-rule="evenodd" clip-rule="evenodd" d="M13.4789 14.0577C13.406 14.1092 13.3257 14.1493 13.2407 14.1767C13.2147 14.0837 13.1774 13.7635 13.3969 13.451C13.6538 13.0749 14.2156 12.5874 14.3719 12.1998C14.4725 11.9503 14.4278 11.3251 15.3211 10.5249C16.2144 9.72459 16.564 9.44933 16.564 9.44933L18.008 8.72363L19.7832 9.42332L18.9012 12.8801L18.2165 14.4993L15.4933 13.9858L13.4786 14.0577V14.0577H13.4789Z" fill="#DCBA5A"/>
<path fill-rule="evenodd" clip-rule="evenodd" d="M14.5186 13.119L14.8574 12.6948V12.3933C14.8574 12.3933 15.2332 12.2927 15.6387 11.8796C16.0443 11.4664 16.6063 10.6738 17.1014 10.7221C17.5965 10.778 17.6448 11.7976 17.6635 12.0844C17.6821 12.3712 17.7454 13.0221 17.8458 13.3722C17.9574 13.722 16.64 15.0468 16.64 15.0468L15.7452 15.7279L14.5186 13.119V13.119Z" fill="#E9CE77"/>
<path fill-rule="evenodd" clip-rule="evenodd" d="M15.5669 16.6507C15.5669 16.6507 15.8424 16.219 15.6405 16.126C15.7595 15.8581 15.9791 15.5752 15.9791 15.5752C15.9791 15.5752 16.1353 15.1883 16.6415 14.7119C17.1476 14.2354 17.4604 13.919 17.5423 13.599C17.5928 13.3905 17.6203 13.1771 17.6243 12.9626C17.679 13.0073 17.7375 13.0472 17.7992 13.0816C17.8811 13.1189 18.268 13.4388 18.2123 14.0828C18.1566 14.7268 17.9179 14.9947 17.9179 14.9947C17.9179 14.9947 17.6873 15.2254 17.5237 15.3446C17.3485 15.4636 17.2855 15.6012 16.9913 15.6125C17.0215 15.5885 17.0555 15.5696 17.0919 15.5566C17.0919 15.5566 16.7867 15.5195 16.6228 15.6682C16.4589 15.8169 16.1106 16.2749 15.9356 16.4128C15.7607 16.5244 15.5676 16.651 15.5676 16.651V16.651L15.5669 16.6507Z" fill="#CDAE50"/>
<path fill-rule="evenodd" clip-rule="evenodd" d="M27.9414 9.412C27.5017 9.25175 27.0396 9.16135 26.5719 9.14409C25.7903 9.11809 24.6478 9.16274 23.5276 9.1701C22.3218 9.17746 21.2276 8.75696 19.7092 8.68262C19.46 8.5337 18.826 7.88234 16.8472 9.26308C16.9662 9.25572 18.2838 8.95788 18.7414 9.53123C19.2029 10.1006 19.0726 11.0682 19.0095 11.2989C18.8903 11.8126 18.5032 12.5606 18.3471 13.0854C18.1911 13.6101 18.2279 13.8859 18.1163 14.2539C18.0047 14.6219 17.7591 14.8047 17.9041 15.2288C18.0976 15.1099 18.1985 15.1099 18.5218 14.3842C18.8452 13.6585 18.7787 13.1411 19.3147 12.527C19.8395 11.9092 20.7131 11.0643 21.0453 10.8521C21.3775 10.6399 24.0151 9.27044 26.7768 10.5768C27.4429 10.5062 27.9416 9.41175 27.9416 9.41175V9.41175L27.9414 9.412Z" fill="#D2A83E"/>
<path fill-rule="evenodd" clip-rule="evenodd" d="M17.9598 8.90564C17.9571 8.87767 17.9509 8.85015 17.9414 8.8237C17.9156 8.76927 17.8817 8.71907 17.8408 8.67478C17.8408 8.67478 17.1858 8.5558 16.8546 8.59284C16.2739 8.65614 15.7491 9.37447 15.5035 9.74296C15.258 10.1115 14.9528 10.6806 14.6216 10.9748C14.6252 10.9461 14.6186 10.9171 14.6029 10.8928C14.6029 10.8928 14.6216 10.9188 14.5845 10.9561C14.5475 10.9934 14.5472 11.0118 14.5659 11.0297L14.6218 11.0854C14.6402 11.0854 15.1539 10.8546 15.8536 10.2022C16.598 9.52118 17.1674 9.17183 17.4652 9.05211C17.6241 8.98461 17.7901 8.93547 17.9601 8.90564V8.90564H17.9598Z" fill="#C29637"/>
<path fill-rule="evenodd" clip-rule="evenodd" d="M30.6658 6.10742C30.6658 6.10742 30.5466 6.25609 30.3977 6.41998C30.0665 6.76982 29.6347 7.16407 29.2662 7.56985C28.9166 7.95699 28.5221 8.2585 28.079 8.76463C27.6359 9.27075 27.1222 9.83256 26.9922 9.99645C26.8732 10.1603 26.7802 10.4282 26.7802 10.5659C26.7169 10.5212 26.6426 10.4729 26.6426 10.4729C26.6739 10.5313 26.7113 10.5862 26.7542 10.6368C26.8472 10.767 26.9922 10.9312 27.0668 11.0313C27.1583 11.1587 27.2239 11.3028 27.2601 11.4554C27.3047 11.4628 27.5913 11.5187 27.9487 10.9307C28.3062 10.3426 28.7748 9.69886 28.7748 9.69886L29.5191 8.59338L29.9882 7.65572L30.577 6.60618L30.6665 6.10742V6.10742H30.6658Z" fill="#AC8132"/>
<path fill-rule="evenodd" clip-rule="evenodd" d="M31.4285 5.35571C31.4285 5.35571 30.9781 5.72371 30.8032 5.94451C30.6282 6.16531 30.2144 6.74479 30.2144 6.74479L30.3633 6.72615L31.1189 6.05638L31.4133 5.53162L31.4283 5.35669L31.4285 5.35571Z" fill="#A88F33"/>
<path fill-rule="evenodd" clip-rule="evenodd" d="M31.291 34.9319C31.291 34.9319 31.2837 34.6267 31.4549 34.4444C31.6298 34.2619 32.0727 33.994 32.5044 32.9891C32.9362 31.9842 32.9843 31.7573 32.9843 31.7573C32.9843 31.7573 32.2103 32.4197 31.7331 32.576C31.8447 32.3451 31.908 32.1815 31.964 32.0622C31.9007 32.0065 31.6328 31.9432 31.6068 31.9136C31.7554 31.7646 31.8374 31.3998 32.1389 31.1579C32.526 30.8635 33.2331 30.3576 33.7826 29.9067C34.3322 29.4558 35.4126 28.407 35.5505 28.1018C35.6324 28.2208 35.6508 28.2951 35.6508 28.2951C35.6508 28.2951 35.1077 29.0024 34.8248 29.4526C34.5753 29.8397 34.5939 30.0593 34.5939 30.0593L35.1077 29.8385C35.1077 29.8385 35.2563 30.3893 34.5829 31.2269C34.8773 31.1152 34.996 31.1822 35.1634 31.089C34.8879 31.2642 34.5083 31.5024 34.1511 32.1572C33.8013 32.8122 33.3248 33.5752 32.5211 34.0514C31.7395 34.5538 31.2891 34.9297 31.2891 34.9297V34.9297L31.291 34.9319Z" fill="#A67A2E"/>
<path fill-rule="evenodd" clip-rule="evenodd" d="M29.2739 9.79939C29.2739 9.79939 28.9687 10.4355 28.9241 10.9306C28.9167 11.0498 28.8868 11.1428 28.8868 11.2805C28.8794 11.7233 28.9128 12.2184 28.8132 12.449C28.7759 12.356 28.7573 12.2927 28.72 12.2557C28.6643 12.4119 28.5637 12.8994 28.4817 13.0817C28.4447 12.9627 28.3628 12.5496 28.3704 12.0621C28.378 11.5746 28.3888 11.4814 28.3888 11.381C28.3704 11.5297 28.2698 11.7309 28.2325 11.8499C28.1768 11.7495 28.1135 11.6193 28.0389 11.5113C27.9943 11.5849 27.9386 11.6936 27.8902 11.7495C27.8826 11.7049 27.8642 11.5857 27.853 11.4183C27.8456 11.2248 27.8343 10.9755 27.8456 10.9233C27.864 10.8229 28.0205 10.4284 28.3517 10.0673C28.7462 9.6355 29.152 8.80579 29.271 8.54892C29.39 8.29206 29.8961 7.22412 29.8961 7.22412H30.2832L29.7212 8.50427C29.7212 8.50427 29.3826 9.20396 29.2077 9.46107C29.0328 9.71818 28.6643 10.4549 28.5004 10.7415C28.6194 10.5852 28.72 10.5032 28.8392 10.3543C28.9545 10.2501 29.2744 9.79988 29.2744 9.79988V9.79988L29.2739 9.79939Z" fill="#8C6228"/>
<path fill-rule="evenodd" clip-rule="evenodd" d="M31.4363 5.30713C31.3731 5.50176 31.2731 5.68247 31.1419 5.8395C30.9111 6.11501 30.416 6.48326 30.1743 6.77717C29.9535 7.06372 29.5119 7.84535 29.7126 8.77197C29.7862 8.57104 29.9248 8.17287 30.2933 7.72244C30.6618 7.272 31.0563 6.75484 31.2501 6.35298C31.4434 5.9472 31.4694 5.62729 31.4694 5.62729L31.543 5.53431L31.4984 5.32209L31.4351 5.30713L31.4363 5.30713Z" fill="#CBA94C"/>
<path fill-rule="evenodd" clip-rule="evenodd" d="M38.973 29.9929C38.973 29.9929 38.8241 29.5874 38.7794 29.2189C38.7348 28.8504 38.853 28.7773 38.7161 28.3556C38.6342 28.0987 38.4855 28.1348 38.4482 28.0987C38.4109 28.0627 38.3849 27.6745 38.3923 27.4623C38.3996 27.2501 38.3849 26.9749 38.3476 26.8556C38.2919 26.811 38.2547 26.7737 38.1727 26.4984C38.0797 26.2229 38.0351 26.0853 37.9904 26.0036C37.9458 25.9219 37.8153 25.8473 37.8153 25.7654C37.8153 25.6015 37.9642 25.5161 37.9642 25.471C37.9568 25.378 37.8452 25.4526 37.8153 25.4263C37.7782 25.3817 37.9085 25.1138 37.8602 25.0765C37.8415 25.0581 37.7112 25.2143 37.6776 25.1697C37.6403 25.1248 37.5957 24.682 37.5287 24.3881C37.4657 24.1015 37.3984 23.8932 37.3911 23.8076C37.3837 23.7257 36.8774 22.2816 36.7547 21.9318C36.6558 21.6362 36.5726 21.3355 36.5054 21.0312C36.4681 20.8562 36.4421 20.4988 36.4235 20.5361C36.4048 20.5734 36.4161 20.7557 36.3862 20.7483C36.3602 20.7407 36.2672 20.1045 36.2375 20.004C36.2115 19.9034 36.055 19.5624 36.0167 19.3156C35.9794 19.066 35.8977 18.4147 35.8418 17.9719C35.7859 17.529 35.7599 17.3468 35.7599 17.2359C35.769 16.9646 35.7541 16.6931 35.7152 16.4245C35.6416 15.9555 35.4944 15.386 35.3654 15.0551C35.1161 14.4297 34.4535 12.8294 34.335 12.4313C34.335 12.3307 34.4652 12.3866 34.4652 12.3866C34.4652 12.3866 34.7888 13.1979 35.027 13.823C35.2579 14.4484 35.4775 14.9992 35.5334 15.0551C35.5781 15.1108 35.9279 15.7249 36.0842 16.7297C36.2405 17.7346 36.2962 18.6612 36.3894 19.279C36.434 19.5734 36.4713 19.8857 36.5643 20.1983C36.6646 20.5371 36.8209 20.8869 37.0258 21.4227C37.2007 21.8732 37.331 22.249 37.4016 22.5728C37.4836 22.986 37.4836 23.2985 37.5319 23.5034C37.5768 23.6783 37.6435 24.0279 37.8 24.5338C37.9566 25.0397 38.1869 25.6913 38.3432 26.0968C38.6487 26.9081 38.7848 27.5855 38.8309 27.9466C38.8717 28.3188 39.0095 29.6065 38.9723 29.9934V29.9934L38.973 29.9929Z" fill="#A88F33"/>
<path fill-rule="evenodd" clip-rule="evenodd" d="M31.4549 5.26239L31.4363 5.30704C31.4363 5.30704 31.492 5.32568 31.481 5.40026C31.4817 5.5023 31.4755 5.60427 31.4623 5.70546C31.4439 5.83573 31.4066 5.93607 31.3993 6.01801C31.3993 6.19294 31.4253 6.39386 31.1785 6.89263C31.1049 7.03026 31.0595 7.14924 31.0222 7.23119C30.9292 7.43211 30.9106 7.46204 30.8286 7.55503C30.9589 7.48143 31.428 7.18703 31.6659 7.23119C31.5023 7.32417 31.2528 7.5067 31.0965 7.74491C31.1338 7.75227 31.2901 7.7822 31.5381 7.74491C31.9513 7.68162 32.4127 7.5327 32.8183 7.56239C33.2613 7.58839 33.0864 7.03026 33.0864 7.03026L32.5751 5.90639L31.6075 5.22559L31.4549 5.26263V5.26239Z" fill="#BE9C44"/>
<path fill-rule="evenodd" clip-rule="evenodd" d="M33.9781 13.681C33.9781 13.681 33.5463 13.2493 33.3714 11.7674C33.1964 10.2788 33.2337 8.08744 33.2337 8.08744L32.8839 7.23147C32.8839 7.23147 32.8103 6.66205 32.627 6.45009C32.4438 6.23812 32.0839 5.88067 31.92 5.70574C31.7561 5.53082 31.5701 5.2926 31.4585 5.25531C31.5142 5.16233 31.7637 4.63756 32.72 4.6302C33.6763 4.62284 33.9712 5.15497 34.0711 5.34854C34.1709 5.54211 34.6218 6.37894 34.7891 7.97361C34.9454 9.56631 34.953 9.68554 34.927 10.2363C34.9084 10.5415 34.8078 11.2486 34.6326 12.0039C34.4727 12.6443 34.2977 13.3589 33.9776 13.6825L33.9781 13.681Z" fill="#A17C34"/>
<path fill-rule="evenodd" clip-rule="evenodd" d="M32.6241 14.9501C32.768 14.9604 32.9118 14.928 33.0373 14.8568C33.1749 14.8495 33.6737 14.9128 34.0569 14.4253C34.0829 14.5367 34.1501 14.8384 33.9749 15.1063C34.0682 15.0131 34.2058 14.9761 34.2244 14.9501C34.2318 15.0877 34.3621 15.5119 33.8113 16.5428C33.96 16.3791 34.1349 16.3865 34.2912 16.3678C34.2988 16.5614 34.4028 17.2125 34.1275 17.5626C33.9453 17.8008 33.6474 17.7263 33.6474 17.7263C33.6518 17.6743 33.6518 17.622 33.6474 17.57C33.6401 17.4694 33.6028 17.369 33.629 17.3021C33.4851 17.2363 33.354 17.1455 33.2419 17.0339C32.918 16.7287 32.4975 16.2079 32.4679 15.8207C32.4306 15.389 32.8177 15.296 32.8177 15.296C32.7853 15.267 32.7576 15.233 32.7358 15.1954C32.7171 15.1323 32.6985 15.0318 32.6241 14.9501V14.9501V14.9501Z" fill="#8C6228"/>
<path fill-rule="evenodd" clip-rule="evenodd" d="M29.7538 10.2682C29.7538 10.2682 29.7351 10.2422 29.6348 10.3612C29.6534 10.2422 29.6721 10.1303 29.6794 10.0224C29.7269 9.92244 29.7884 9.82976 29.8619 9.74712C29.806 9.8585 29.7687 9.95908 29.7687 9.95908C29.7687 9.95908 29.9066 9.70222 30.1075 9.54594C30.2452 9.43432 30.4201 9.38231 30.4944 9.27804C30.5764 9.16641 30.5577 9.14777 30.5764 9.12912C30.5764 9.12912 30.7589 9.01013 31.0381 8.66004C31.0751 8.61539 31.1311 8.56706 31.1683 8.52241C31.2314 8.49641 31.3803 8.42943 31.5552 8.33988C31.7378 8.23954 31.9424 8.10191 32.069 8.04548C32.3182 7.93386 32.5827 7.94514 32.7054 7.76997C32.7983 7.74397 32.8987 7.46478 32.8803 7.22681C33.0179 7.2825 33.725 7.72164 33.9671 8.68188C34.142 9.36292 33.8292 10.4125 33.699 10.9188C33.5687 11.4252 33.5503 11.8008 33.3678 12.0314C33.1369 12.3369 32.3928 12.7674 32.2103 12.9806C32.054 13.1555 31.5852 13.5984 31.6036 13.9183C31.6222 14.1565 31.9161 14.2863 31.9797 14.3314C32.0432 14.3766 32.0427 14.432 32.1619 14.405C32.2812 14.378 32.3256 14.3231 32.3742 14.3231C32.4298 14.3304 32.4298 14.3417 32.4559 14.3417C32.4747 14.3412 32.4935 14.3386 32.5118 14.3341C32.5118 14.3341 32.4931 14.6729 31.7005 14.7757C31.6445 14.7833 31.5888 14.8017 31.5179 14.813C31.6112 14.7684 31.6669 14.7684 31.7674 14.6307C31.6558 14.6121 31.3357 14.5934 31.2537 14.5674C31.2797 14.5228 31.3653 14.4035 31.436 14.3479C31.4993 14.2922 31.4286 14.2743 31.373 14.3032C31.2771 14.3684 31.1851 14.4392 31.0974 14.5152C31.0045 14.5971 30.9225 14.7087 30.7736 14.8096C30.729 14.6607 30.7363 14.3778 30.9115 14.1732C30.8666 14.1805 30.781 14.3108 30.6993 14.2848C30.6845 14.1491 30.6933 14.0118 30.7253 13.879C30.7699 13.7115 31.0118 13.4175 31.0118 13.4175L32.1803 11.3295L32.4296 9.74785L29.7538 10.2677V10.2677V10.2682Z" fill="#92723A"/>
<path fill-rule="evenodd" clip-rule="evenodd" d="M29.6907 10.3575C29.6907 10.3575 29.6274 10.4021 29.754 10.4877C29.7354 10.5137 29.6907 10.6067 29.6348 10.67C29.5717 10.7436 29.5045 10.7892 29.4785 10.8525C29.4228 10.9828 29.3781 11.0721 29.3781 11.1281C29.3781 11.184 29.3595 11.5412 29.2032 11.7718C29.1473 11.8538 29.084 11.9914 29.0393 12.0844C28.9464 12.248 28.8644 12.3788 28.8458 12.4524C28.8087 12.5826 28.7827 12.9398 28.7827 12.9398C28.7827 12.9398 28.8647 12.8393 28.8944 12.8022C28.8495 12.8952 28.8011 12.9955 28.7305 13.0701C28.7751 13.0328 28.9054 12.9398 29.125 12.7463C29.4302 12.4897 29.9066 12.0579 30.4873 11.7159C30.3121 11.7792 30.1635 11.7792 30.0445 11.7978C30.1375 11.7048 30.9748 10.7223 31.4139 10.6293C31.4406 10.5955 31.4539 10.553 31.4512 10.5101L31.0751 10.473L30.3121 10.6367L30.2008 10.0479L29.6907 10.3567V10.3575Z" fill="#B18E3E"/>
<path fill-rule="evenodd" clip-rule="evenodd" d="M30.904 13.7071C30.904 13.7071 30.8034 13.8074 30.7105 14.0569C30.6389 13.9822 30.5775 13.8983 30.5279 13.8074C30.3903 13.5768 30.1783 13.2827 29.6833 13.4502C29.6759 13.2939 29.6646 13.212 29.6833 13.1004C29.7652 13.082 30.0145 12.881 30.2637 12.5869C30.4389 12.386 30.6025 12.1551 30.7141 11.8612C30.7877 11.8053 30.9151 11.7123 31.0821 11.6043C31.3204 11.4407 31.6069 11.2172 31.6516 10.9679C31.5399 11.0126 31.3017 11.1242 30.9443 11.1058C31.0821 11.0425 31.2941 10.9755 31.2681 10.7C31.324 10.6627 31.3687 10.6367 31.3687 10.6367C31.3267 10.6227 31.2826 10.6164 31.2384 10.6181C31.2308 10.5921 31.2198 10.555 31.1565 10.5734C31.0932 10.5918 31.0829 10.5921 31.0745 10.6181C31.0485 10.6257 30.9629 10.6181 30.8996 10.663C30.8363 10.7079 30.6614 10.8563 30.5944 10.8823C30.6204 10.8377 30.6575 10.7709 30.6575 10.7709C30.6575 10.7709 30.4752 10.7893 30.3449 10.8445C30.1067 10.9265 29.8314 11.0754 29.5522 11.2204C29.5783 11.1757 29.5895 11.1468 29.6079 11.1384C29.6263 11.1301 29.6712 11.12 29.6712 11.1124C29.6712 11.1048 29.6528 11.0388 29.6639 11.0121C29.7473 10.8353 29.8458 10.6659 29.9583 10.506C30.0885 10.3308 30.1145 10.0816 30.1145 10.0816L30.684 9.795L32.2843 9.427L33.3228 9.4903L33.1925 10.2086L32.5792 11.4628L32.0544 12.6053L31.4551 13.3052L30.9043 13.7071V13.7071H30.904Z" fill="#543E26"/>
<path fill-rule="evenodd" clip-rule="evenodd" d="M33.4982 10.5983C33.4982 10.5983 32.8728 11.3723 32.6979 11.4916C32.8095 11.2534 33.4982 9.83533 33.7474 9.44083C33.6917 9.39618 33.6172 9.39618 33.7921 8.70483C33.6434 9.05443 33.5912 9.23696 33.4685 9.32994C33.3458 9.42292 33.3306 9.39324 33.2477 9.39324C33.2633 9.36491 33.2698 9.33241 33.2661 9.30026C33.2661 9.30026 32.7413 9.23696 32.3829 9.23696C32.0245 9.23696 31.315 9.43053 30.9202 9.58681C30.6077 9.71708 30.4327 9.71708 30.3211 9.79878C30.2095 9.89176 30.1462 9.99234 30.0903 10.0183C30.0456 10.0444 29.8336 10.1113 29.7851 10.182C29.7404 10.2556 29.6661 10.3383 29.6661 10.3569C29.6661 10.3756 29.6474 10.4018 29.7034 10.3829C29.7218 10.3756 29.8596 10.301 30.0159 10.208C30.2279 10.089 30.4847 9.95137 30.671 9.86943C31.2031 9.65722 31.3706 9.69451 31.6086 9.64986C31.8579 9.60521 32.2153 9.50094 32.4533 9.50094C32.6915 9.49358 33.142 9.50094 33.2462 9.51959C33.2016 9.55688 33.1643 9.60153 33.1829 9.7578C33.1829 9.80246 33.1456 9.85079 33.1093 9.95873C32.9979 10.2639 32.7857 10.7701 32.6677 11.0269C32.5041 11.3765 32.3181 11.6707 32.2261 11.853C32.1341 12.0352 31.9317 12.5154 31.7313 12.7722C31.5308 13.0291 31.4261 13.1854 31.3633 13.2413C31.3005 13.2972 30.8496 13.6282 30.8832 13.7474C30.9651 13.7214 31.4825 13.5266 31.8581 13.1037C32.2337 12.6807 32.3086 12.4226 32.6025 12.1918C32.8964 11.9609 33.1272 11.574 33.2649 11.2541C33.3802 10.9563 33.3542 10.8633 33.4992 10.5991V10.5991L33.4982 10.5983Z" fill="#806031"/>
<path fill-rule="evenodd" clip-rule="evenodd" d="M20.0221 16.3756C20.0221 16.3756 19.9402 16.7141 19.754 16.8817C19.5717 17.0456 19.2478 17.1869 19.2108 17.4624C19.1661 17.7377 19.5346 17.8755 19.5346 17.8755C19.5346 17.8755 19.3335 18.2067 19.3335 18.456C19.3335 18.7129 19.3261 18.7612 19.3521 19.0068C19.3226 19.0258 19.2975 19.0509 19.2785 19.0804C19.2785 19.0804 19.2969 19.3186 19.4794 19.4673C19.662 19.6159 19.818 19.7055 19.911 19.6682C19.9252 19.6985 19.9376 19.7297 19.9483 19.7614C19.9483 19.7614 20.0861 19.4116 20.1791 19.1064C20.2721 18.7938 20.354 18.8382 20.3911 18.4177C20.4281 17.9972 20.8327 17.2752 20.8327 17.2752L21.1087 16.6582L20.6585 16.3083L20.0221 16.3753V16.3756Z" fill="#B6903C"/>
<path fill-rule="evenodd" clip-rule="evenodd" d="M20.859 16.9819C20.7661 17.0772 20.6805 17.1792 20.6026 17.2871C20.4836 17.451 20.3906 17.5997 20.2157 17.6632C20.0408 17.7268 19.9292 17.7263 19.9402 17.9014C19.9512 18.0766 20.1151 18.1507 20.2081 18.24C20.3087 18.333 20.3906 18.4893 20.346 18.6644C20.4017 18.6384 20.5023 18.6085 20.5952 18.4076C20.6882 18.2066 21.3386 16.9822 21.3386 16.9822H20.859V16.9819Z" fill="#685026"/>
<path fill-rule="evenodd" clip-rule="evenodd" d="M23.4241 14.1571C23.4241 14.1571 23.4798 14.0085 23.4241 13.9005C23.3682 13.7889 23.0297 13.7516 22.8621 13.625C22.6872 13.4947 22.475 13.4042 22.3 13.4614C22.326 13.3981 22.4303 13.2602 22.3447 13.2305C22.2627 13.2045 21.9578 13.3422 21.8758 13.4054C21.7939 13.4687 21.6077 13.5431 21.5707 13.588C21.5336 13.6329 21.4701 13.7182 21.4328 13.681C21.3955 13.655 21.3771 13.588 21.3138 13.625C21.2505 13.6621 20.9458 13.9116 20.8896 14.0568C20.8334 14.202 20.7071 14.5259 20.3276 14.8941C19.948 15.2624 19.7841 15.5008 19.8958 15.6385C20.0074 15.7761 20.0596 15.6758 20.0783 15.7948C20.0926 15.9116 20.0863 16.03 20.0596 16.1446C20.015 16.3382 19.9407 16.5204 20.041 16.5577C20.2979 16.6397 20.5474 16.4841 20.6031 16.5317C20.7147 16.6321 20.5398 16.9932 20.804 17.0639C21.0721 17.1375 21.3364 17.0006 21.3364 17.0006L22.3113 16.4758L23.2492 15.981L23.7291 15.0318L23.4717 14.2391L23.4227 14.1571H23.4241Z" fill="#D4B968"/>
<path fill-rule="evenodd" clip-rule="evenodd" d="M22.5043 16.4237C22.5043 16.4237 22.3405 16.1745 22.5416 15.9547C22.7428 15.7349 23.0291 15.6421 23.1407 15.5045C23.1195 15.4783 23.091 15.4589 23.0588 15.4488C23.1329 15.3162 23.2459 15.2096 23.3826 15.1434C23.3269 15.0877 23.2524 15.043 23.1707 15.043C22.9881 15.043 22.8763 15.1546 22.7089 15.1546C22.5453 15.1546 22.5267 15.0727 22.5267 15.0727C22.5267 15.0727 22.8022 15.0467 22.7759 14.9238C22.7499 14.7935 22.7023 14.7935 22.7023 14.7935C22.7023 14.7935 23.2344 14.5727 23.3274 14.4549C23.4204 14.3372 23.4094 14.1981 23.428 14.1424C23.4911 14.1424 23.8596 13.9488 24.0085 14.0308C24.1574 14.1127 24.0531 14.336 24.0531 14.336C24.0531 14.336 24.5038 13.9972 24.7334 13.665C24.9344 13.6836 25.0278 13.5273 25.175 13.5273C25.3576 13.5273 25.6441 13.7766 25.6998 14.3087C25.7371 14.6139 25.7928 14.7888 25.7371 15.3286C25.7111 15.6338 25.7184 16.2854 25.8107 16.6087C25.8737 16.8656 26.0227 16.8396 26.0227 16.8396C25.9998 16.9179 25.9545 16.9877 25.8924 17.0405C25.7918 17.1335 25.7808 17.3793 25.7918 17.4723C25.8066 17.5403 25.8253 17.6074 25.8477 17.6732C25.8477 17.6732 25.7288 17.8109 25.6988 17.9041C25.6728 17.9971 25.5501 18.0604 25.4606 18.0604C25.3711 18.0604 25.416 18.0528 25.297 18.0604C25.178 18.068 25.1407 18.0864 25.0661 18.0604C24.9915 18.0344 24.9358 18.0044 24.9658 17.766C24.9918 17.5277 24.0465 16.9733 24.0465 16.9733L22.5009 16.4225V16.4225L22.5043 16.4237Z" fill="#CCA849"/>
<path fill-rule="evenodd" clip-rule="evenodd" d="M20.7288 18.7759C20.7288 18.7759 21.0673 19.2263 22.4593 19.2263C23.1217 19.2263 23.3526 19.163 23.4897 19.1257C23.6387 19.0884 24.1968 18.8691 24.7589 18.2065C25.265 17.6074 25.1534 17.3618 25.1534 17.3618L24.859 17.3171L23.9022 17.4474L21.071 18.6532L20.7275 18.7759H20.7288Z" fill="#585136"/>
<path fill-rule="evenodd" clip-rule="evenodd" d="M21.7668 18.8874C21.7668 18.8874 20.561 19.1556 20.561 18.3926C20.561 17.6482 21.3054 16.8666 21.4916 16.729C21.6852 16.5911 22.1466 16.4346 22.1466 16.4346H23.2595L23.4714 16.9966L23.3784 18.2098L21.7668 18.8872V18.8874Z" fill="#252211"/>
<path fill-rule="evenodd" clip-rule="evenodd" d="M22.8802 16.662C22.8802 16.662 22.6495 16.4498 22.1248 16.7356C21.6 17.0214 21.1756 17.6188 21.1496 18.1612C21.1236 18.6411 21.5441 18.9985 22.1991 19.0172C22.6866 19.0356 22.9807 18.9799 23.1297 18.9436C23.0924 18.8989 22.8988 18.657 22.8988 18.657L22.8804 16.6622V16.6622L22.8802 16.662Z" fill="#C3B378"/>
<path fill-rule="evenodd" clip-rule="evenodd" d="M22.6532 16.7807C22.6532 16.7807 22.5975 16.736 22.4324 16.8253C22.2948 16.8989 22.0938 17.0935 21.9376 17.2311C21.837 17.3131 21.7737 17.3501 21.7168 17.4134C21.4859 17.6889 21.2923 18.1394 21.4042 18.3626C21.5161 18.5859 21.8843 18.8427 22.8222 18.6678L22.6505 16.7809V16.7809L22.6532 16.7807Z" fill="#E6D89C"/>
<path fill-rule="evenodd" clip-rule="evenodd" d="M22.3477 17.2426C22.3477 17.2426 22.1988 17.4734 22.1988 17.8419C22.1988 18.2178 22.411 18.8169 23.1927 18.8615C23.7918 18.8988 24.1936 17.9982 24.6291 17.6484C24.9603 17.3805 25.1612 17.3729 25.1612 17.3729C25.1612 17.3729 24.8226 17.0049 23.9183 16.5282C23.0251 16.0481 22.0239 15.9848 21.4805 16.7217C21.7373 16.7031 22.5673 16.4909 22.5673 16.4909L22.9731 16.6212L22.3477 17.2428V17.2428V17.2426Z" fill="#252211"/>
<path fill-rule="evenodd" clip-rule="evenodd" d="M23.5165 17.73C23.4905 17.6743 23.4718 17.5997 23.5798 17.5813C23.6877 17.5629 23.7361 17.5737 23.7733 17.6549C23.8106 17.7361 23.8469 17.8038 23.7917 17.8374C23.7361 17.8671 23.5908 17.8374 23.5162 17.7295L23.5165 17.73ZM23.3417 17.2052C23.3417 17.2052 23.3044 17.2312 23.3231 17.1792C23.3305 17.1162 23.379 17.0043 23.498 17.0305C23.617 17.0568 23.5912 17.1868 23.5716 17.2241C23.552 17.2614 23.4526 17.3244 23.378 17.2977C23.3589 17.2928 23.3432 17.279 23.3358 17.2607C23.3284 17.2423 23.3303 17.2215 23.3408 17.2047L23.3417 17.2052Z" fill="#6F674D"/>
<path fill-rule="evenodd" clip-rule="evenodd" d="M13.2676 17.4431C13.2676 17.4431 13.562 17.6639 13.904 17.6553C14.2425 17.6477 14.678 17.2981 14.8789 17.0746C14.9979 16.9443 15.0997 16.8067 15.2101 16.6988C15.3034 16.6058 15.3664 16.5611 15.4111 16.4978C15.4744 16.4242 15.5413 16.2859 15.5749 16.241C15.493 16.3043 15.374 16.4161 15.2511 16.4905C15.1321 16.5641 14.8752 16.7024 14.771 16.7397C14.6706 16.777 13.6285 17.3285 13.6285 17.3285L13.2676 17.4431V17.4431Z" fill="#AC924C"/>
<path fill-rule="evenodd" clip-rule="evenodd" d="M13.7173 14.6932C13.7173 14.6932 13.8809 14.5815 14.1974 14.5106C14.5026 14.437 15.1167 14.3804 15.1167 14.3804L15.6228 14.6012L15.8237 15.3642L15.4557 16.1571L14.9869 16.4515L14.4545 15.5955L13.7185 14.6946V14.6946L13.7173 14.6932Z" fill="#9F8E57"/>
<path fill-rule="evenodd" clip-rule="evenodd" d="M13.0546 15.3742L12.8794 15.505C12.8794 15.505 12.9243 15.423 12.9613 15.1738C12.9984 14.9245 13.1922 14.3178 13.4751 13.9679C13.7579 13.6181 13.7506 13.6367 13.7506 13.6367C13.6979 13.6271 13.6437 13.6406 13.6017 13.6738C13.6389 13.5914 13.8772 13.297 14.1154 13.1498C14.3536 13.0026 14.4466 12.9562 14.6958 13.0762C14.9451 13.1961 15.0084 13.2584 15.1909 13.2511C15.3735 13.2437 15.5295 13.0502 15.5295 13.0502C15.5295 13.0502 15.5668 13.1691 15.4291 13.4447C15.2915 13.7202 14.7481 14.282 14.7481 14.282L13.6166 15.056L13.0546 15.3749V15.3749V15.3742Z" fill="#EAC970"/>
<path fill-rule="evenodd" clip-rule="evenodd" d="M13.8916 14.6003C13.8916 14.6003 14.7105 14.7119 14.9598 14.4813C14.9671 14.5073 14.9971 14.5073 14.9971 14.5259C14.9951 14.54 14.9885 14.553 14.9784 14.563C15.0055 14.5587 15.0329 14.5562 15.0604 14.5556C15.0931 14.5654 15.1269 14.5716 15.161 14.5743C15.1884 14.5737 15.2158 14.5711 15.2429 14.5667C15.2377 14.6041 15.2175 14.6377 15.187 14.6599C15.2243 14.6599 15.2606 14.6673 15.2606 14.6969C15.2606 14.7266 15.2679 14.8162 15.2233 14.8348C15.1863 14.8451 15.1469 14.8424 15.1116 14.8272C15.1146 14.8977 15.1337 14.9665 15.1676 15.0284C15.2412 15.166 15.3982 15.3228 15.6092 15.2777C15.6092 15.2777 15.7206 15.5456 15.2517 16.141C15.1887 16.2229 15.1215 16.3345 15.0398 16.4275C15.0075 16.4979 14.9828 16.5715 14.9662 16.6471C14.9662 16.6471 15.7591 16.3419 15.986 15.6459C16.2169 14.9462 16.2615 14.2578 16.2169 13.614C16.2093 13.4315 16.1796 13.3015 16.1349 13.2083C16.0233 12.9774 15.7105 13.0147 15.5842 13.145C15.4016 13.3275 15.0964 13.7814 14.6723 14.0939C14.2405 14.4065 14.2221 14.4619 13.8906 14.6003V14.6003H13.8916Z" fill="#D7BC6B"/>
<path fill-rule="evenodd" clip-rule="evenodd" d="M12.9098 15.6052C12.9098 15.6052 12.7535 15.6982 12.6715 16.0468C12.5896 16.404 12.7451 16.8395 12.8352 16.9771C12.9252 17.1148 13.1296 17.4908 13.5535 17.5095C13.6584 17.5089 13.7622 17.4874 13.8587 17.4462C14.0067 17.3783 14.1455 17.292 14.2718 17.1893C14.4544 17.0517 14.603 16.9327 14.5844 16.9214C14.5397 16.9028 13.4605 16.0095 13.4605 16.0095L13.0547 15.5566L12.9095 15.6057L12.9098 15.6052Z" fill="#585136"/>
<path fill-rule="evenodd" clip-rule="evenodd" d="M13.9297 17.0862C13.9297 17.0862 14.1493 17.0678 14.2796 16.9859C14.4099 16.904 13.5166 16.0183 13.5166 16.0183L13.5799 16.9751L13.9297 17.0862Z" fill="#453A25"/>
<path fill-rule="evenodd" clip-rule="evenodd" d="M12.9801 15.5378C12.9801 15.5378 12.8684 15.75 12.8684 15.806C12.8498 15.9883 12.9057 16.5614 12.9504 16.7436C12.995 16.9372 13.2369 17.2311 13.5497 17.2311C13.743 17.2311 14.0112 17.1121 14.0112 17.0824C14.0112 17.0452 13.7357 17.0088 13.6613 16.8702C13.6167 16.7966 13.5981 16.6136 13.5877 16.4286C13.5804 16.3096 13.5804 16.1794 13.625 16.1342C13.7256 16.0226 13.744 15.7024 13.744 15.7024L14.1012 15.0388H13.6314L13.0694 15.3887L12.9801 15.5378Z" fill="#84754B"/>
<path fill-rule="evenodd" clip-rule="evenodd" d="M12.8423 15.7428C12.8423 15.7428 13.2103 15.2553 13.542 15.1434C13.8737 15.0315 14.0221 15.0988 14.0221 15.0988L13.8285 15.5938L13.553 15.899L13.5717 16.0553C13.5717 16.0553 13.5268 16.4684 13.8023 16.755C14.0778 17.0415 14.2824 17.0305 14.4016 17.0305C14.5209 17.0305 14.8631 16.9299 15.038 16.5168C15.1943 16.1299 15.3246 15.6336 15.012 15.136C14.7066 14.641 14.1671 14.6218 14.0628 14.6218C13.9586 14.6218 13.1399 14.6628 12.8423 15.742V15.742V15.7428Z" fill="#252211"/>
<path fill-rule="evenodd" clip-rule="evenodd" d="M22.292 17.3989C22.1543 17.3356 22.2846 16.9487 22.4222 16.8295C22.5599 16.7103 22.7348 16.5729 23.0402 16.554C23.1516 16.5466 23.2596 16.6173 23.2412 16.6919C23.2152 16.8295 23.0216 17.0231 22.8467 17.1607C22.6048 17.3506 22.4482 17.4696 22.292 17.3989Z" fill="#F7F7E7"/>
<path fill-rule="evenodd" clip-rule="evenodd" d="M14.8486 15.2886C14.9492 15.2812 15.0794 15.3622 15.1054 15.4711C15.1314 15.5901 15.0421 15.8283 14.8486 15.8283C14.6923 15.8283 14.6104 15.6347 14.6104 15.579C14.6121 15.5332 14.6249 15.4885 14.6476 15.4488C14.655 15.4375 14.6736 15.3072 14.8486 15.2886V15.2886Z" fill="#F8F6DE"/>
<path fill-rule="evenodd" clip-rule="evenodd" d="M13.3972 15.3743C13.3972 15.3743 13.1403 15.4933 13.0213 15.7423C12.9363 15.9261 12.9106 16.1319 12.9477 16.3311C12.9663 16.424 13.0593 16.6547 13.1226 16.7366C13.1859 16.8185 13.2715 16.8745 13.3348 16.8669C13.3981 16.8593 13.5282 16.692 13.5282 16.5916C13.5282 16.4913 13.5358 16.0668 13.6584 15.836C13.7664 15.6054 13.3979 15.3745 13.3979 15.3745V15.3745L13.3972 15.3743Z" fill="#D4C38B"/>
<path fill-rule="evenodd" clip-rule="evenodd" d="M13.4345 15.3557C13.3899 15.3817 13.3155 15.419 13.3339 15.4673C13.3526 15.512 13.5088 15.5409 13.5648 15.6499C13.6281 15.7615 13.6281 15.8805 13.6094 15.9364C13.658 15.9133 13.7022 15.8818 13.7397 15.8432C13.8216 15.7502 13.922 15.6239 14.0076 15.6239C14.0635 15.6239 14.1192 15.6499 14.1715 15.6499C14.2534 15.6499 14.3351 15.6239 14.3464 15.5382C14.3648 15.4266 14.1901 15.326 14.0896 15.3447C14.1082 15.2711 14.1342 15.1624 14.0523 15.0878C13.9703 15.0132 13.7137 15.1437 13.6578 15.181C13.6018 15.2183 13.4345 15.356 13.4345 15.356V15.356V15.3557Z" fill="#E2D59D"/>
<path fill-rule="evenodd" clip-rule="evenodd" d="M19.348 23.1749L19.8988 23.0122L20.0551 23.1238C20.0551 23.1238 20.1664 23.3621 20.3416 23.3917C20.2857 23.5107 20.1404 23.6125 20.148 23.6969C20.1557 23.7813 20.23 23.8458 20.23 23.8458C20.23 23.8458 19.7349 24.6645 20.7101 25.4896C20.4792 25.5826 20.1853 25.7104 20.0291 25.784C20.1404 25.81 20.3787 25.8576 20.4792 25.9479C20.5798 26.0381 20.5798 26.0669 20.6728 26.1228C20.7658 26.1787 20.8215 26.2531 20.8031 26.2864C20.7398 26.2491 20.5276 26.1378 20.4905 26.2418C20.4535 26.3458 19.5713 26.3051 19.5713 26.3051L18.0826 26.5916C18.0826 26.5916 18.1383 26.4427 17.982 26.3051C17.7997 26.1414 17.5765 26.3124 17.3382 26.1301C17.0257 25.8919 17.0144 25.6164 16.9141 25.5124C17.0144 25.4491 17.2193 25.3561 17.7067 25.2916C17.6881 25.2543 17.6248 25.1427 17.6621 25.0423C17.7067 24.9121 17.8927 24.8301 17.837 24.6743C17.9189 24.6557 17.956 24.6557 18.1608 24.3988C18.3544 24.142 18.4734 24.0863 18.6223 24.0676C18.7712 24.049 18.8605 24.0676 19.136 23.8108C19.3294 23.6285 19.2663 23.4722 19.2663 23.4722C19.2663 23.4722 19.3927 23.4312 19.3483 23.1744V23.1744L19.348 23.1749Z" fill="#CBAC5A"/>
<path fill-rule="evenodd" clip-rule="evenodd" d="M17.7221 23.2576C17.7294 23.2203 17.7593 23.2017 17.9603 23.2203C18.1612 23.239 19.434 23.1013 19.7802 23.0827C20.13 23.0567 21.3618 23.0751 21.9612 23.2017C22.5605 23.3283 23.167 23.4772 23.4609 23.5515C23.7553 23.6335 23.848 23.6629 23.8367 23.7002C23.8294 23.7375 23.7631 23.7738 23.7251 23.7635C23.6881 23.7561 22.7129 23.4583 22.4116 23.3955C22.1103 23.3327 21.0679 23.1646 20.498 23.1747C19.9659 23.1823 19.7537 23.1673 19.3035 23.2193C18.853 23.2753 18.1087 23.3496 17.8854 23.3199C17.6646 23.2939 17.7103 23.2939 17.7216 23.2566V23.2566L17.7221 23.2576Z" fill="#D6BC6F"/>
<path fill-rule="evenodd" clip-rule="evenodd" d="M20.7176 26.1746C20.7176 26.1746 21.4806 26.5878 21.7561 27.0939C21.957 27.4697 21.6371 27.6559 21.6371 27.6559C21.6371 27.6559 22.0689 27.6559 22.013 27.8942C21.987 28.0428 21.2686 28.4447 20.7885 28.6569C20.301 28.8691 20.3197 28.8581 20.0815 28.8951C19.8506 28.9324 19.2179 28.8215 19.0876 29.0068C18.9573 29.192 19.014 29.3828 19.0503 29.4125C19.0876 29.4385 19.3891 29.4758 19.3891 29.4758C19.3891 29.4758 19.3258 29.6508 18.7007 29.6694C18.0756 29.688 17.9191 29.7324 17.8818 29.7997C17.8445 29.8627 18.0008 29.8257 18.2876 29.8733C18.5741 29.9179 18.976 29.9469 18.976 29.9469C18.976 29.9469 18.8457 30.0585 18.5072 30.1478C18.12 30.2481 17.5133 30.3414 17.331 30.453C17.424 30.5163 17.5619 30.6093 17.6254 30.6166C17.4691 30.6539 17.2493 30.7359 17.2123 30.7655C17.268 30.8028 17.3426 30.8475 17.3426 30.8475C17.3426 30.8475 17.0298 31.2233 16.8475 31.3166C16.6652 31.4098 15.6157 31.897 15.2545 31.804C14.3539 31.5658 14.2423 30.5796 14.0227 30.5052C13.6915 30.3936 13.5352 30.6166 13.2411 30.4604C13.3713 30.3674 13.4422 30.3117 13.5799 30.2484C13.431 30.1748 12.6606 29.6863 12.6606 29.6863C12.5801 29.5107 12.4906 29.3394 12.3927 29.1728C12.2438 28.916 12.0247 28.5735 11.8603 28.272C11.5031 27.6096 11.4845 27.3044 11.1606 26.9285C11.2166 26.8549 11.4099 26.8652 11.4099 26.8652L14.1233 27.7585L18.9345 27.8978L20.1857 26.1116L20.7179 26.1749L20.7176 26.1746Z" fill="#DFC677"/>
<path fill-rule="evenodd" clip-rule="evenodd" d="M13.5908 28.899C13.6199 28.9313 13.6537 28.9589 13.6912 28.9809C13.7844 29.0442 13.922 29.1188 14.015 29.2302C14.0523 29.1745 14.1453 29.0739 14.3094 29.2302C14.4735 29.3865 14.6774 29.2751 14.8042 29.3121C14.9345 29.357 14.9419 29.3754 14.9419 29.3754C14.9419 29.3754 15.0155 29.3121 15.1801 29.2451C15.2807 29.2079 15.3997 29.1819 15.5299 29.1448C15.6489 29.1188 15.7792 29.0815 15.8687 29.0815C15.9507 29.1372 16.2446 29.4495 17.4244 28.9885C18.5372 28.5567 18.7938 28.5084 18.9801 28.5751C18.9987 28.5305 19.0173 28.4449 19.3039 28.4562C19.3039 28.3372 19.0657 27.9314 19.0657 27.9314L17.7519 27.4812H17.0333L14.8786 27.8757L13.6845 28.557L13.5916 28.9005L13.5908 28.899Z" fill="#C4A859"/>
<path fill-rule="evenodd" clip-rule="evenodd" d="M12.8721 28.1435C12.8721 28.1435 12.8981 28.3444 13.1959 28.5566C13.4903 28.7686 13.5828 28.8952 13.5828 28.8952C13.5828 28.8952 13.6387 28.8216 13.6834 28.7465C13.728 28.6646 13.7653 28.5716 13.8397 28.5456C13.9886 28.4823 14.3271 28.6013 14.4017 28.5826C14.465 28.5642 14.4464 28.434 14.5134 28.434C14.6696 28.4263 14.77 28.5343 14.8259 28.5343C14.8818 28.5343 15.0192 28.5269 15.0379 28.4972C15.0565 28.4676 15.0639 28.1584 15.2761 28.0095C15.507 27.8459 15.7898 27.9165 15.8649 27.9538C15.8649 28.0095 15.8723 28.1474 16.0212 28.1548C16.1701 28.1621 16.1848 28.1361 16.3156 28.1808C16.4463 28.2254 16.6021 28.1734 16.6728 28.3927C16.7361 28.3743 16.885 28.3557 16.8477 28.1435C16.9213 28.0878 16.9856 28.0505 17.1421 27.8309C17.1794 27.7752 17.2424 27.7119 17.291 27.63C17.4213 27.63 17.5776 27.604 17.7859 27.7863C17.7226 27.8309 17.6853 27.8599 17.6669 27.9053C17.7213 27.9592 17.7711 28.0177 17.8155 28.0802C17.8715 28.1538 17.9088 28.2441 17.9794 28.2627C18.1357 28.3074 18.3926 28.2441 18.6791 28.2627C18.9546 28.2814 19.1852 28.3817 19.2858 28.445C19.3231 28.4266 19.3231 28.419 19.4161 28.4376C19.5091 28.4563 19.5797 28.4636 19.4794 28.3447C19.5351 28.3707 19.5984 28.4266 19.6543 28.3707C19.7102 28.3147 19.7547 28.233 19.9109 28.2144C20.0672 28.1957 20.1231 28.2217 20.1864 28.0581C20.2684 27.8572 19.9855 27.8572 19.9855 27.8572C19.9855 27.8572 20.1158 27.7379 20.261 27.5817C20.4359 27.418 20.6369 27.2058 20.6852 26.9453C20.7671 26.4652 20.2983 26.4021 20.2983 26.4021L18.0243 27.1018L15.2442 26.9639L12.8735 28.1437V28.1437L12.8721 28.1435Z" fill="#927D49"/>
<path fill-rule="evenodd" clip-rule="evenodd" d="M10.8294 21.5747C10.8294 21.5747 10.7558 21.6677 10.7104 21.8873C10.665 22.1069 10.6844 22.0809 10.6471 22.2371C10.6098 22.3934 10.1518 23.9491 10.3235 24.4738C10.4953 24.9986 10.7926 25.1922 10.9786 25.6164C11.0159 25.7093 11.0522 25.7653 11.0716 25.8472C11.1349 26.1225 11.0792 26.3347 11.1535 26.6102C11.1795 26.7032 11.2467 26.8111 11.3471 26.9228C11.5679 27.1534 11.9278 27.3729 12.0831 27.5292C12.3024 27.7601 12.6152 28.2292 13.0134 28.2736C13.2256 28.2996 13.5271 28.2103 13.7764 28.0616C13.9972 27.9237 14.1336 27.7304 14.3652 27.62C14.5288 27.5381 14.7037 27.5084 14.86 27.4711C15.1838 27.4078 15.478 27.3975 15.6529 27.4338C15.9208 27.4897 16.5535 27.6833 16.9041 27.6833C17.1781 27.6789 17.4505 27.6414 17.7154 27.5717C18.2476 27.4154 18.8913 27.1472 19.3157 27.0283C19.565 26.9547 19.7659 26.9353 19.9708 26.8906C20.3206 26.8087 20.6145 26.6971 20.7821 26.4848C20.6705 26.3546 20.5328 26.1536 19.7883 26.161C18.9436 26.1796 17.9684 26.6485 17.4883 26.7231C17.0081 26.7976 16.7998 26.8607 16.2638 26.6671C15.7383 26.4716 15.7209 26.3423 15.7209 26.3423C15.7209 26.3423 15.1691 25.9564 14.9383 24.9726C14.7074 23.9888 14.9383 23.272 15.5376 22.5907C15.6939 22.4157 15.6566 22.2595 15.6566 22.2595C15.6566 22.2595 16.0511 21.7273 15.9431 21.2291C15.8242 20.734 15.0612 20.8346 15.0612 20.8346L10.8297 21.5747V21.5747H10.8294Z" fill="#6E6342"/>
<path fill-rule="evenodd" clip-rule="evenodd" d="M11.4656 23.2307C11.4328 23.2924 11.4173 23.3619 11.4209 23.4316C11.4283 23.532 11.4582 23.6623 11.7595 23.9564C12.0163 24.213 11.9604 24.4996 11.9604 24.4996C11.9604 24.4996 12.0897 24.5256 12.4405 24.3615C12.716 24.2312 12.8085 24.462 12.8085 24.462C12.8887 24.42 12.9757 24.3923 13.0654 24.3801C13.1467 24.3726 13.2254 24.3475 13.296 24.3065C13.296 24.3065 13.6198 24.6377 13.9027 24.794C14.1596 24.9319 14.3085 25.0248 14.4351 24.9319C14.5541 24.8499 14.5541 24.6824 14.5465 24.608C14.5169 24.5394 14.4796 24.4744 14.4351 24.4144C14.3531 24.2955 14.2229 24.1576 14.2143 24.0464C14.1956 23.7898 14.4079 23.4844 14.363 23.4101C14.3181 23.3357 14.151 23.3171 13.7378 23.466C13.31 23.6073 11.4639 23.2314 11.4639 23.2314V23.2314L11.4656 23.2307Z" fill="#39331F"/>
<path fill-rule="evenodd" clip-rule="evenodd" d="M12.4405 24.8945C12.4405 24.8945 12.2286 24.6936 12.3029 23.7184C12.3929 23.7171 12.4828 23.7258 12.5708 23.7444C12.5708 23.7444 12.6864 24.5 12.4405 24.8945Z" fill="#292311"/>
<path fill-rule="evenodd" clip-rule="evenodd" d="M10.9301 20.8304C10.9596 20.8085 10.9871 20.7839 11.012 20.7568C10.9384 20.8944 10.5986 21.4452 10.8741 22.3125C11.1496 23.1758 11.8417 23.8195 12.694 23.8495C13.5463 23.8794 13.9943 23.4623 14.5065 22.8372C14.7075 22.588 14.9383 22.2752 15.1429 22.0632C15.4481 21.7318 15.6863 21.6388 15.6863 21.3189C15.6863 20.6638 15.0163 20.3697 14.0301 20.0758C13.0439 19.7819 12.1543 19.8182 11.6928 20.0193C11.2426 20.2387 11.049 20.4695 10.9298 20.8307V20.8307L10.9301 20.8304Z" fill="#252211"/>
<path fill-rule="evenodd" clip-rule="evenodd" d="M14.0964 25.1885L14.17 25.1512C14.17 25.1512 14.1884 24.8568 14.3077 24.8647C14.4267 24.8833 14.4826 25.0398 14.4713 25.0955C14.4639 25.1512 14.4343 25.2444 14.315 25.2331C14.1588 25.2368 14.0957 25.1885 14.0957 25.1885H14.0964Z" fill="#3F3824"/>
<path fill-rule="evenodd" clip-rule="evenodd" d="M13.7656 23.9381C13.7656 23.9381 13.8392 23.9121 13.9293 24.0014C14.0029 24.0014 14.3238 23.9641 14.4243 24.0274C14.5249 24.0907 14.5546 24.1464 14.5546 24.1464C14.5546 24.1464 14.1788 24.2283 13.9739 24.1464C13.7656 24.0757 13.7656 23.9381 13.7656 23.9381H13.7656Z" fill="#2D2815"/>
<path fill-rule="evenodd" clip-rule="evenodd" d="M15.4217 23.9936C15.4217 23.975 15.2207 23.8373 15.0085 23.7925C14.9712 23.7851 14.9636 23.8111 14.9349 23.8111C14.9163 23.8037 14.9089 23.7478 14.9089 23.7478L14.7882 23.8113C14.7882 23.8113 14.7696 23.8373 14.8329 23.8849C14.8885 23.9296 14.9818 23.9669 15.0078 24.0412C15.0338 24.1156 15.0338 24.1416 15.0451 24.1528C15.0524 24.1602 15.1827 24.1528 15.246 24.1156C15.3093 24.0783 15.4285 24.0174 15.4209 23.9929V23.9929L15.4217 23.9936Z" fill="#82764F"/>
<path fill-rule="evenodd" clip-rule="evenodd" d="M13.5425 24.7491C13.5425 24.7491 13.5795 24.4925 13.829 24.4812C14.0856 24.4626 14.1342 24.7118 14.1342 24.7118L13.9853 24.8608C13.9853 24.8571 13.8737 24.7008 13.5437 24.7491H13.5425Z" fill="#2D2816"/>
<path fill-rule="evenodd" clip-rule="evenodd" d="M15.1615 23.6436C15.1615 23.6436 15.0236 23.7926 14.7187 23.8372C14.6927 23.7999 14.6368 23.7256 14.7187 23.6066C14.8006 23.4876 14.8936 23.4503 14.9866 23.4874C15.0704 23.5009 15.1386 23.5619 15.1615 23.6436Z" fill="#574F35"/>
<path fill-rule="evenodd" clip-rule="evenodd" d="M15.7227 23.8261C15.7303 23.7888 15.7043 23.7815 15.7227 23.7628C15.7411 23.7442 15.842 23.7072 15.8606 23.7256C15.868 23.7332 15.8606 23.7628 15.8606 23.7992C15.8606 23.8355 15.8606 23.8728 15.842 23.8995C15.8159 23.9368 15.7416 23.9554 15.7043 23.9444C15.667 23.9334 15.6597 23.8811 15.6597 23.8708C15.6781 23.8634 15.7227 23.8448 15.7227 23.8261ZM16.3582 23.4243C16.3582 23.4057 16.4215 23.3684 16.4588 23.3684C16.5145 23.3684 16.5145 23.4131 16.5221 23.4243C16.5405 23.4317 16.5405 23.4167 16.5592 23.4503C16.5778 23.484 16.6041 23.5433 16.5852 23.5806C16.5663 23.6179 16.4922 23.6437 16.4738 23.6363C16.4478 23.6177 16.3658 23.4503 16.3582 23.4243V23.4243Z" fill="#82764F"/>
<path fill-rule="evenodd" clip-rule="evenodd" d="M15.0796 23.9119C15.0796 23.9119 15.1615 23.9303 15.2732 24.0235C15.2359 24.0495 15.1799 24.0792 15.1799 24.0792C15.1799 24.0792 15.1726 23.9936 15.0796 23.9116V23.9119Z" fill="#6E6342"/>
<path fill-rule="evenodd" clip-rule="evenodd" d="M14.897 23.0927C14.8783 23.0743 14.9527 23.0297 14.9973 23.037C15.042 23.0444 15.0606 23.0743 15.109 23.0817C15.1573 23.089 15.1649 23.063 15.1826 23.0444C15.2002 23.0257 15.2645 23.037 15.2755 23.0444C15.2824 23.0526 15.2886 23.0612 15.2942 23.0704C15.2958 23.0418 15.3092 23.0151 15.3312 22.9968C15.3601 22.9755 15.3972 22.9687 15.4318 22.9781C15.4392 23.0041 15.4765 23.0971 15.4691 23.1158C15.4617 23.1344 15.3501 23.1607 15.3312 23.1418C15.3499 23.1867 15.4318 23.2797 15.4429 23.2981C15.4539 23.3165 15.3609 23.3613 15.3239 23.354C15.2719 23.3503 14.9517 23.1641 14.896 23.0934L14.897 23.0927ZM15.3844 22.475C15.3775 22.4562 15.3643 22.4404 15.3471 22.4303C15.3211 22.4229 15.2355 22.4303 15.2355 22.475C15.2355 22.5196 15.3091 22.7694 15.3918 22.8994C15.485 23.0297 15.5481 23.1374 15.6113 23.1673C15.6526 23.1861 15.7013 23.1698 15.723 23.13C15.7303 23.1114 15.749 22.9737 15.7416 22.6499C15.7343 22.326 15.723 22.0135 15.7043 21.9948C15.6857 21.9762 15.6113 21.9764 15.5853 22.0135C15.5593 22.0505 15.3918 22.4193 15.3842 22.475V22.475H15.3844Z" fill="#585136"/>
<path fill-rule="evenodd" clip-rule="evenodd" d="M15.0536 24.3808C15.0536 24.3808 14.9234 24.2988 14.7968 24.3547C14.6778 24.4107 14.6851 24.6303 14.6851 24.6303C14.7395 24.6515 14.8009 24.6446 14.849 24.6116C14.931 24.5559 15.035 24.4629 15.0536 24.381V24.3808Z" fill="#574F35"/>
<path fill-rule="evenodd" clip-rule="evenodd" d="M15.2992 24.6748C15.2918 24.6012 15.2256 24.6012 15.2256 24.5632C15.235 24.5258 15.2687 24.4996 15.3073 24.4999C15.3446 24.4999 15.3809 24.5445 15.4265 24.5735C15.4712 24.5995 15.5381 24.6471 15.5455 24.7038C15.5529 24.7604 15.4719 24.9157 15.3819 24.9157C15.2918 24.9157 15.3186 24.7482 15.2999 24.6738L15.2992 24.6748ZM16.0176 24.5743C16.0176 24.5743 15.8687 24.6189 15.8797 24.5743C15.8907 24.5296 15.9246 24.5186 15.9729 24.5186C15.9975 24.4929 16.0305 24.4769 16.0659 24.4737C16.0861 24.4727 16.106 24.4793 16.1216 24.4923C16.1216 24.4923 16.2222 24.4477 16.2519 24.4737C16.2816 24.4997 16.2595 24.4997 16.2779 24.5296C16.3013 24.5628 16.3167 24.6011 16.3228 24.6412C16.3228 24.6709 16.2111 24.7342 16.1216 24.7232C16.0176 24.7009 16.036 24.5929 16.0176 24.5743V24.5743ZM16.8844 24.4068C16.8844 24.4068 16.9291 24.4328 16.892 24.4627C16.866 24.4887 16.7357 24.5363 16.6239 24.5446C16.5122 24.5446 16.4119 24.563 16.4119 24.526C16.4119 24.4889 16.5049 24.4144 16.5606 24.3957C16.5832 24.3674 16.6175 24.3509 16.6538 24.3511C16.6984 24.3511 16.8731 24.3324 16.9217 24.3251C16.9663 24.3174 17.0036 24.3435 16.9774 24.3807C16.9663 24.4068 16.8844 24.4068 16.8844 24.4068V24.4068ZM17.1416 23.2576C17.1416 23.2576 17.0856 23.3766 17.0226 23.3766C16.9593 23.3692 16.9593 23.3506 16.9593 23.332C16.9593 23.3059 17.0226 23.239 17.015 23.2203C16.9966 23.2203 16.9517 23.2203 16.9593 23.1757C16.9593 23.1384 17.0226 23.0937 17.0783 23.1021C17.1203 23.0675 17.1727 23.0479 17.2272 23.0464C17.2905 23.0464 17.3462 23.0648 17.3462 23.1021C17.3462 23.1394 17.2726 23.2211 17.2456 23.24C17.2159 23.2696 17.1786 23.289 17.1416 23.2584V23.2576ZM16.2929 25.457C16.2929 25.457 16.2193 25.4646 16.2193 25.5016C16.2193 25.5203 16.2377 25.5203 16.2639 25.5092C16.2791 25.5084 16.294 25.5058 16.3086 25.5016C16.3159 25.5092 16.3159 25.5463 16.3719 25.5463C16.4178 25.5401 16.4621 25.5249 16.5022 25.5016C16.5468 25.4832 16.5841 25.4644 16.5841 25.428C16.5655 25.3647 16.5282 25.3348 16.4725 25.3348C16.4439 25.333 16.4155 25.3395 16.3905 25.3535C16.3905 25.3535 16.3719 25.3162 16.3086 25.3535C16.2453 25.3908 16.2527 25.3908 16.2713 25.4094C16.3047 25.4391 16.2936 25.4585 16.2936 25.4585L16.2929 25.457ZM15.8722 25.8441C15.8722 25.8254 15.9652 25.7882 15.9912 25.7994C16.0172 25.8068 16.0915 25.9481 16.0915 25.9631C16.0915 25.9817 15.9985 26.0264 15.9612 26.0264C15.924 26.0264 15.8609 25.9631 15.8609 25.9528C15.8609 25.9454 15.9056 25.9344 15.9056 25.9268C15.9166 25.9084 15.8722 25.8635 15.8722 25.8448V25.8441ZM15.5778 25.3007C15.5964 25.2934 15.5964 25.2747 15.6224 25.2561C15.6389 25.2451 15.6596 25.2424 15.6784 25.2487C15.6917 25.225 15.7149 25.2085 15.7417 25.2038C15.7863 25.1965 15.8236 25.2038 15.8153 25.2225C15.8153 25.2784 15.8526 25.3154 15.8526 25.3601C15.8526 25.4047 15.8265 25.4607 15.7336 25.498C15.6406 25.524 15.514 25.524 15.4953 25.5166C15.4767 25.5093 15.4581 25.4347 15.4767 25.3974C15.4953 25.3601 15.5474 25.3194 15.5773 25.3007V25.3007H15.5778Z" fill="#82764F"/>
<path fill-rule="evenodd" clip-rule="evenodd" d="M15.6963 25.3259C15.6963 25.3259 15.633 25.3632 15.633 25.3819C15.6274 25.3999 15.6249 25.4187 15.6256 25.4376C15.6256 25.4486 15.7076 25.4302 15.7186 25.4189C15.7223 25.4115 15.6963 25.3453 15.6963 25.3259Z" fill="#6E6342"/>
<path fill-rule="evenodd" clip-rule="evenodd" d="M15.1428 25.1511C15.1798 25.1587 15.2431 25.1511 15.2915 25.1697C15.3288 25.1883 15.3548 25.2256 15.3175 25.2703C15.2802 25.3149 15.2439 25.3819 15.1612 25.3706C15.0682 25.3633 14.9789 25.3149 14.9789 25.2776C14.9757 25.23 14.9918 25.1831 15.0236 25.1474C15.0608 25.1177 15.0792 25.1363 15.1425 25.1511V25.1511H15.1428Z" fill="#585136"/>
<path fill-rule="evenodd" clip-rule="evenodd" d="M15.0981 25.1882C15.0981 25.1882 14.9791 25.2812 14.9492 25.3261C14.9119 25.3708 14.7296 25.6014 14.6739 25.6497C14.6924 25.6171 14.7135 25.586 14.737 25.5567C14.6634 25.6038 14.6082 25.6747 14.5807 25.7577C14.5361 25.8955 14.8302 25.9699 15.0235 26.0258C15.2169 26.0817 15.2917 26.0994 15.2917 26.0994C15.2205 25.9924 15.1594 25.8791 15.1092 25.7608C15.0356 25.5859 14.9975 25.5673 15.0459 25.4853C15.0832 25.4034 15.1391 25.3477 15.1391 25.2844C15.1168 25.2255 15.0981 25.1882 15.0981 25.1882Z" fill="#574F35"/>
<path fill-rule="evenodd" clip-rule="evenodd" d="M10.8555 25.4825C10.8826 25.4875 10.9103 25.4875 10.9374 25.4825C10.9931 25.4749 11.5738 25.2617 12.1805 25.3C12.6347 25.3274 13.0849 25.4014 13.524 25.5208C14.2869 25.7217 15.2359 26.1199 15.85 26.3471C16.0136 26.4101 16.1738 26.522 16.2916 26.5664C16.7606 26.7489 16.779 26.7489 17.0546 26.7973C17.3784 26.8419 17.7096 26.734 18.0558 26.6596C18.4799 26.5664 19.2056 26.5218 19.842 26.4288C20.0478 26.4003 20.2508 26.3542 20.4487 26.2912C20.4487 26.2912 19.9426 26.7973 18.7292 26.9796C18.2387 27.054 17.7403 27.0603 17.2481 26.9982C16.861 26.9609 16.6044 26.905 16.4108 26.8493C16.1912 26.786 15.7408 26.6184 15.1863 26.4813C14.7992 26.3807 14.3674 26.3064 13.8726 26.2134C12.6518 25.9899 11.327 25.7333 10.855 25.484L10.8555 25.4825Z" fill="#252211"/>
<path fill-rule="evenodd" clip-rule="evenodd" d="M9.48536 23.1826C9.19096 23.4319 8.87865 23.6701 8.5737 23.9007L7.65444 24.607C7.34188 24.8376 7.03669 25.0759 6.72389 25.3067C6.41109 25.5376 6.09878 25.7569 5.76709 25.9691C6.06149 25.7199 6.3738 25.489 6.68635 25.2621C6.99891 25.0351 7.32299 24.8126 7.62451 24.5825L8.54377 23.8752C8.86001 23.6446 9.1652 23.4064 9.48536 23.1831V23.1826ZM7.85919 25.7878C7.85919 25.7878 8.19039 25.5123 8.60353 25.1254C9.11701 24.6455 9.74605 24.0312 9.94697 23.9198L7.85894 25.788L7.85919 25.7878Z" fill="#CFB66C"/>
<path fill-rule="evenodd" clip-rule="evenodd" d="M7.85889 25.7874C8.02277 25.6238 8.19769 25.4638 8.37261 25.3073L8.64052 25.0767C8.72246 25.0031 8.81569 24.9204 8.89738 24.8385C9.06102 24.6749 9.22122 24.4997 9.38486 24.3324C9.46597 24.2482 9.55172 24.1687 9.64172 24.0941C9.68672 24.0543 9.73669 24.0205 9.7904 23.9936C9.83529 23.9676 9.88362 23.92 9.94667 23.9116C9.90963 23.9676 9.86498 23.9936 9.82769 24.0419C9.78304 24.0792 9.74575 24.1238 9.7087 24.1609C9.62676 24.2428 9.53378 24.3172 9.45184 24.3917C9.27691 24.5407 9.09463 24.6861 8.91971 24.8419C8.74479 24.9977 8.58115 25.1658 8.40598 25.322C8.21634 25.4822 8.04141 25.6385 7.85889 25.7882V25.7874ZM10.0846 24.2988C10.0846 24.2988 8.87148 25.4862 8.62197 25.6795L10.0846 24.2988Z" fill="#CFB66C"/>
<path fill-rule="evenodd" clip-rule="evenodd" d="M10.0847 24.2986C9.97561 24.4249 9.8586 24.5442 9.73441 24.6558L9.36641 25.0056C9.24742 25.1246 9.13555 25.2439 9.00921 25.3628C8.87893 25.4745 8.75995 25.5836 8.62207 25.6867L8.97928 25.3368C9.09851 25.2178 9.22878 25.1175 9.35537 24.9983L9.71258 24.6484C9.83524 24.5258 9.95448 24.4065 10.0847 24.2986V24.2986ZM10.1402 24.9424C10.0283 25.2545 9.89656 25.5591 9.74566 25.8543C9.4331 26.4796 8.96427 27.261 8.75942 27.6594L10.1402 24.9424Z" fill="#CFB66C"/>
<path fill-rule="evenodd" clip-rule="evenodd" d="M10.1407 24.9429C10.1407 25.0805 10.1034 25.1997 10.0588 25.3187C10.0153 25.4378 9.96564 25.5546 9.91011 25.6686C9.85418 25.7802 9.79088 25.8994 9.72759 26.0074C9.66429 26.1153 9.58995 26.2267 9.53402 26.3386L9.15817 27.001C9.0279 27.2218 8.9013 27.4438 8.76367 27.656C8.85665 27.4178 8.98325 27.1945 9.10248 26.975C9.23275 26.7542 9.35174 26.5334 9.47048 26.305C9.52845 26.1911 9.58061 26.0745 9.62675 25.9554C9.68245 25.8361 9.73814 25.7245 9.78303 25.6166C9.83872 25.4976 9.88337 25.3857 9.93931 25.278C10.0024 25.1624 10.0546 25.0508 10.1402 24.9429L10.1407 24.9429Z" fill="#CFB66C"/>
<path fill-rule="evenodd" clip-rule="evenodd" d="M11.4651 27.9944C11.4651 27.9944 11.0971 28.4819 11.1339 29.0996C11.2343 28.776 11.3609 28.2809 11.4651 27.9944ZM11.8152 28.4831C11.8152 28.4831 11.6849 29.8079 11.5769 30.4593C11.7295 29.7063 11.7592 29.7696 11.8152 28.4831ZM14.2529 30.5375C14.2529 30.5375 13.7021 32.1567 13.6908 32.6067C13.8101 32.144 14.0407 31.1987 14.2529 30.5363V30.5375Z" fill="#DEC270"/>
<path fill-rule="evenodd" clip-rule="evenodd" d="M15.541 27.8945C15.541 27.8945 16.4343 29.3682 17.1043 30.6261C16.923 29.9931 16.5059 28.8322 15.541 27.8945Z" fill="#CBAF59"/>
<path fill-rule="evenodd" clip-rule="evenodd" d="M17.9414 30.064C18.4318 30.9309 18.8741 31.8242 19.2662 32.7398C19.1919 32.1071 18.9907 31.0242 17.9414 30.064Z" fill="#E3C677"/>
<path fill-rule="evenodd" clip-rule="evenodd" d="M24.9978 32.2369C25.1464 32.1439 25.4406 31.6376 25.6974 31.5112C25.9541 31.3809 26.1476 31.3549 26.3785 31.0981C26.6091 30.8299 26.6729 30.6663 27.1785 30.4543C27.8858 30.1489 27.3993 29.7544 27.3993 29.7544C27.4772 29.6779 27.5605 29.607 27.6486 29.5424C27.8311 29.4048 28.0431 29.2372 28.0247 28.9431C27.9987 28.4482 27.9057 27.7299 27.4999 27.3131C27.8944 27.2311 28.6498 27.1754 29.1191 27.0564C29.6623 26.9186 29.9118 26.725 29.9118 26.725C29.9118 26.725 29.5992 26.1929 30.1053 25.6571C30.6115 25.1213 31.0246 24.8011 31.3298 24.2017C30.98 24.1571 30.4466 23.9711 29.0855 24.4883C29.159 24.5229 29.2299 24.5626 29.2977 24.6073C29.2977 24.6073 28.4604 24.8381 28.1552 25.095C27.6228 25.5452 27.5558 25.9137 26.9791 26.1892C26.4023 26.4647 25.8216 26.3901 25.3417 26.6134C24.8618 26.8366 24.7909 27.0265 24.6158 27.1085C24.6531 27.1531 24.6084 27.2274 24.6791 27.2907C24.6344 27.354 24.3739 27.7782 24.1096 27.7782C24.1357 27.8788 24.3589 27.9531 24.3589 27.9531C24.3589 27.9531 24.1953 28.0724 23.7784 28.1021C23.9904 28.3229 24.1916 28.5635 24.746 28.9134C24.7014 29.0064 24.5152 29.1442 24.5898 29.3192C24.6717 29.4941 24.8842 29.7323 25.7323 29.9259C25.3005 29.9443 24.7946 30.0449 24.1131 29.9519C23.432 29.8699 23.3204 29.8216 22.8999 29.9259C22.9446 29.9705 23.0635 29.9705 23.1678 30.0895C23.0562 30.0969 22.3565 30.0076 22.1183 30.3204C21.869 30.644 21.7611 31.1763 21.7797 31.5335C21.6494 31.5968 21.5229 31.7085 21.5861 31.9393C21.6494 32.1702 21.9806 32.2445 22.1929 32.3895C22.4048 32.5458 22.4235 32.6015 22.6246 32.5644C22.8366 32.5198 23.1492 32.3078 23.3317 32.3078C23.5142 32.3078 23.6443 32.4454 23.6443 32.4454C23.6443 32.4454 24.1393 32.2072 24.1877 32.2519C24.2323 32.2965 24.195 32.5831 24.2434 32.6277C24.2924 32.6613 24.8501 32.3301 24.999 32.2369H24.9978Z" fill="#ECD592"/>
</svg>
