<svg width="52" height="53" viewBox="0 0 52 53" fill="none" xmlns="http://www.w3.org/2000/svg">
<rect x="0.75" y="1.44043" width="50.5" height="50.5" rx="7.25" stroke="url(#paint0_linear_221_3134)" stroke-opacity="0.05" stroke-width="1.5"/>
<path d="M25.9999 31.0002L21.9999 27.0002M25.9999 31.0002C27.8624 30.2918 29.6491 29.3985 31.3333 28.3335M25.9999 31.0002V37.6668C25.9999 37.6668 30.0399 36.9335 31.3333 35.0002C32.7733 32.8402 31.3333 28.3335 31.3333 28.3335M21.9999 27.0002C22.7094 25.1594 23.6029 23.3949 24.6666 21.7335C26.2202 19.2495 28.3834 17.2042 30.9506 15.7923C33.5178 14.3803 36.4035 13.6487 39.3333 13.6668C39.3333 17.2935 38.2933 23.6668 31.3333 28.3335M21.9999 27.0002H15.3333C15.3333 27.0002 16.0666 22.9602 17.9999 21.6668C20.1599 20.2268 24.6666 21.6668 24.6666 21.6668M15.9999 33.0002C13.9999 34.6802 13.3333 39.6668 13.3333 39.6668C13.3333 39.6668 18.3199 39.0002 19.9999 37.0002C20.9466 35.8802 20.9333 34.1602 19.8799 33.1202C19.3617 32.6255 18.679 32.3397 17.9629 32.3175C17.2468 32.2954 16.5478 32.5385 15.9999 33.0002Z" stroke="url(#paint1_linear_221_3134)" stroke-width="2.1" stroke-linecap="round" stroke-linejoin="round"/>
<defs>
<linearGradient id="paint0_linear_221_3134" x1="0" y1="26.6904" x2="52" y2="26.6904" gradientUnits="userSpaceOnUse">
<stop stop-color="#4CD5D9"/>
<stop offset="0.38" stop-color="#7EE92F"/>
</linearGradient>
<linearGradient id="paint1_linear_221_3134" x1="13.3333" y1="26.6667" x2="39.3333" y2="26.6667" gradientUnits="userSpaceOnUse">
<stop stop-color="#4CD5D9"/>
<stop offset="1" stop-color="#5FE44B"/>
</linearGradient>
</defs>
</svg>
