<svg width="22" height="22" viewBox="0 0 22 22" fill="none" xmlns="http://www.w3.org/2000/svg">
<g clip-path="url(#clip0_134_3730)">
<path d="M11 22C17.0751 22 22 17.0751 22 11C22 4.92487 17.0751 0 11 0C4.92487 0 0 4.92487 0 11C0 17.0751 4.92487 22 11 22Z" fill="#627EEA"/>
<path d="M11.3423 2.75V8.84812L16.4965 11.1512L11.3423 2.75Z" fill="white" fill-opacity="0.602"/>
<path d="M11.3424 2.75L6.1875 11.1512L11.3424 8.84812V2.75Z" fill="white"/>
<path d="M11.3423 15.1028V19.2464L16.4999 12.1108L11.3423 15.1028Z" fill="white" fill-opacity="0.602"/>
<path d="M11.3424 19.2464V15.1022L6.1875 12.1108L11.3424 19.2464Z" fill="white"/>
<path d="M11.3423 14.144L16.4965 11.1514L11.3423 8.84961V14.144Z" fill="white" fill-opacity="0.2"/>
<path d="M6.1875 11.1514L11.3424 14.144V8.84961L6.1875 11.1514Z" fill="white" fill-opacity="0.602"/>
</g>
<defs>
<clipPath id="clip0_134_3730">
<rect width="22" height="22" fill="white"/>
</clipPath>
</defs>
</svg>
