<svg width="56" height="56" viewBox="0 0 56 56" fill="none" xmlns="http://www.w3.org/2000/svg">
<rect width="56" height="56" rx="28" fill="url(#paint0_linear_221_8437)"/>
<rect width="56" height="56" rx="28" fill="url(#paint1_radial_221_8437)"/>
<g clip-path="url(#clip0_221_8437)">
<path d="M18.2542 23.5453C17.9155 23.2875 17.6775 22.9323 17.568 22.5373H38.4317C38.3222 22.9315 38.0844 23.2868 37.7455 23.5455C37.7454 23.5456 37.7456 23.5454 37.7455 23.5455L32.1003 27.8335C31.9758 27.928 31.9028 28.0753 31.9028 28.2316V35.6636C31.9028 36.3802 31.4909 37.0425 30.8312 37.3656L26.9143 39.2936C25.6103 39.9365 24.0986 38.9968 24.0986 37.5912V28.2316C24.0986 28.0753 24.0255 27.928 23.901 27.8334L18.2542 23.5453C18.2542 23.5453 18.2542 23.5453 18.2542 23.5453ZM38.5 18.4068V21.5373H17.5V18.4068C17.5 17.361 18.3632 16.5 19.4448 16.5H36.5553C37.6368 16.5 38.5 17.361 38.5 18.4068Z" fill="url(#paint2_linear_221_8437)" fill-opacity="0.1"/>
<path d="M18.2542 23.5453C17.9155 23.2875 17.6775 22.9323 17.568 22.5373H38.4317C38.3222 22.9315 38.0844 23.2868 37.7455 23.5455M18.2542 23.5453L23.901 27.8334C24.0255 27.928 24.0986 28.0753 24.0986 28.2316V37.5912C24.0986 38.9968 25.6103 39.9365 26.9143 39.2936L30.8312 37.3656C31.4909 37.0425 31.9028 36.3802 31.9028 35.6636V28.2316C31.9028 28.0753 31.9758 27.928 32.1003 27.8335L37.7455 23.5455M18.2542 23.5453C18.2542 23.5453 18.2542 23.5453 18.2542 23.5453ZM37.7455 23.5455C37.7454 23.5456 37.7456 23.5454 37.7455 23.5455ZM38.5 18.4068V21.5373H17.5V18.4068C17.5 17.361 18.3632 16.5 19.4448 16.5H36.5553C37.6368 16.5 38.5 17.361 38.5 18.4068Z" stroke="url(#paint3_linear_221_8437)" stroke-linecap="round" stroke-linejoin="round"/>
</g>
<mask id="mask0_221_8437" style="mask-type:alpha" maskUnits="userSpaceOnUse" x="0" y="0" width="56" height="56">
<rect width="56" height="56" fill="white"/>
</mask>
<g mask="url(#mask0_221_8437)">
<rect width="56" height="56" rx="28" fill="url(#paint4_linear_221_8437)"/>
</g>
<g clip-path="url(#clip1_221_8437)">
<path d="M8.55994 11.0004C5.99994 11.0004 5.99994 8.44043 5.99994 8.44043C5.99994 11.0004 3.43994 11.0004 3.43994 11.0004C5.99994 11.0004 5.99994 13.5604 5.99994 13.5604C5.99994 11.0004 8.55994 11.0004 8.55994 11.0004Z" fill="white"/>
<path d="M6.00005 8.4398C6.00005 8.4398 6.00005 10.9998 8.56005 10.9998M6.00005 8.4398C6.00005 10.9998 3.44005 10.9998 3.44005 10.9998M6.00005 8.4398V7.7998M8.56005 10.9998C8.56005 10.9998 6.00005 10.9998 6.00005 13.5598M8.56005 10.9998H9.20005M3.44005 10.9998C6.00005 10.9998 6.00005 13.5598 6.00005 13.5598M3.44005 10.9998H2.80005M6.00005 13.5598V14.1998" stroke="white" stroke-width="0.8" stroke-linecap="round" stroke-linejoin="round"/>
</g>
<g clip-path="url(#clip2_221_8437)">
<path d="M44.92 5.00008C43 5.00008 43 3.08008 43 3.08008C43 5.00008 41.08 5.00008 41.08 5.00008C43 5.00008 43 6.92008 43 6.92008C43 5.00008 44.92 5.00008 44.92 5.00008Z" fill="#B3FFB6"/>
<path d="M43 3.07961C43 3.07961 43 4.99961 44.92 4.99961M43 3.07961C43 4.99961 41.08 4.99961 41.08 4.99961M43 3.07961V2.59961M44.92 4.99961C44.92 4.99961 43 4.99961 43 6.91961M44.92 4.99961H45.4M41.08 4.99961C43 4.99961 43 6.91961 43 6.91961M41.08 4.99961H40.6M43 6.91961V7.39961" stroke="#B3FFB6" stroke-width="0.6" stroke-linecap="round" stroke-linejoin="round"/>
</g>
<g clip-path="url(#clip3_221_8437)">
<path d="M53.28 40.9997C52 40.9997 52 39.7197 52 39.7197C52 40.9997 50.72 40.9997 50.72 40.9997C52 40.9997 52 42.2797 52 42.2797C52 40.9997 53.28 40.9997 53.28 40.9997Z" fill="white"/>
<path d="M52 39.7204C52 39.7204 52 41.0004 53.28 41.0004M52 39.7204C52 41.0004 50.72 41.0004 50.72 41.0004M52 39.7204V39.4004M53.28 41.0004C53.28 41.0004 52 41.0004 52 42.2804M53.28 41.0004H53.6M50.72 41.0004C52 41.0004 52 42.2804 52 42.2804M50.72 41.0004H50.4M52 42.2804V42.6004" stroke="white" stroke-width="0.4" stroke-linecap="round" stroke-linejoin="round"/>
</g>
<defs>
<linearGradient id="paint0_linear_221_8437" x1="-9.59939e-07" y1="56" x2="57.648" y2="1.75123" gradientUnits="userSpaceOnUse">
<stop offset="0.2596" stop-color="#66FF88" stop-opacity="0"/>
<stop offset="0.8902" stop-color="#66FF88" stop-opacity="0.32"/>
</linearGradient>
<radialGradient id="paint1_radial_221_8437" cx="0" cy="0" r="1" gradientUnits="userSpaceOnUse" gradientTransform="translate(28 28) rotate(45) scale(39.598)">
<stop stop-color="#66FF88" stop-opacity="0.32"/>
<stop offset="1" stop-color="#66FF88" stop-opacity="0"/>
</radialGradient>
<linearGradient id="paint2_linear_221_8437" x1="27.6667" y1="16" x2="27.6667" y2="38.1538" gradientUnits="userSpaceOnUse">
<stop stop-color="white" stop-opacity="0"/>
<stop offset="1" stop-color="white"/>
</linearGradient>
<linearGradient id="paint3_linear_221_8437" x1="27.6667" y1="16" x2="27.6667" y2="40" gradientUnits="userSpaceOnUse">
<stop stop-color="white"/>
<stop offset="1" stop-color="white" stop-opacity="0.2"/>
</linearGradient>
<linearGradient id="paint4_linear_221_8437" x1="-9.59939e-07" y1="56" x2="57.648" y2="1.75123" gradientUnits="userSpaceOnUse">
<stop offset="0.2596" stop-color="#66FF88" stop-opacity="0"/>
<stop offset="0.8902" stop-color="#66FF88" stop-opacity="0.32"/>
</linearGradient>
<clipPath id="clip0_221_8437">
<rect width="22" height="24" fill="white" transform="translate(17 16)"/>
</clipPath>
<clipPath id="clip1_221_8437">
<rect width="8" height="8" fill="white" transform="translate(2 7)"/>
</clipPath>
<clipPath id="clip2_221_8437">
<rect width="6" height="6" fill="white" transform="translate(40 2)"/>
</clipPath>
<clipPath id="clip3_221_8437">
<rect width="4" height="4" fill="white" transform="translate(50 39)"/>
</clipPath>
</defs>
</svg>
