<svg width="92" height="88" viewBox="0 0 92 88" fill="none" xmlns="http://www.w3.org/2000/svg">
<path fill-rule="evenodd" clip-rule="evenodd" d="M23.55 0.432129C10.5437 0.432129 0 10.9758 0 23.9821V48.4573C0 60.8037 9.50085 70.931 21.5902 71.9269C24.8398 81.0427 33.5475 87.5676 43.7791 87.5676H68.2543C81.2606 87.5676 91.8043 77.0239 91.8043 64.0176V39.5424C91.8043 27.1961 82.3035 17.0688 70.2141 16.0728C66.9645 6.95705 58.2568 0.432129 48.0252 0.432129H23.55ZM70.2141 16.0728C69.5679 16.0196 68.9143 15.9924 68.2543 15.9924H43.7791C30.7728 15.9924 20.2291 26.5361 20.2291 39.5424V64.0176C20.2291 66.7923 20.709 69.4549 21.5902 71.9269C22.2364 71.9802 22.89 72.0073 23.55 72.0073H48.0252C61.0315 72.0073 71.5752 61.4636 71.5752 48.4573V23.9821C71.5752 21.2075 71.0953 18.5449 70.2141 16.0728Z" fill="#7F6CFB"/>
</svg>
