<svg width="257" height="151" viewBox="0 0 257 151" fill="none" xmlns="http://www.w3.org/2000/svg">
<g filter="url(#filter0_b_590_5178)">
<g clip-path="url(#clip0_590_5178)">
<rect x="0.602051" width="255.699" height="151" rx="20" fill="url(#paint0_linear_590_5178)"/>
<path d="M23.2371 48V46.3H26.6541C27.2547 46.3 27.7194 46.113 28.0481 45.739C28.3767 45.365 28.5411 44.9343 28.5411 44.447C28.5411 44.1183 28.4674 43.8123 28.3201 43.529C28.1727 43.2457 27.9574 43.019 27.6741 42.849C27.3907 42.679 27.0507 42.594 26.6541 42.594H23.2371V40.894H26.3651C26.8751 40.894 27.2831 40.7637 27.5891 40.503C27.8951 40.2423 28.0481 39.857 28.0481 39.347C28.0481 38.837 27.8951 38.4517 27.5891 38.191C27.2831 37.9303 26.8751 37.8 26.3651 37.8H23.2371V36.1H26.4161C27.2207 36.1 27.8894 36.2473 28.4221 36.542C28.9547 36.8367 29.3514 37.2163 29.6121 37.681C29.8727 38.1457 30.0031 38.6443 30.0031 39.177C30.0031 39.8003 29.8274 40.35 29.4761 40.826C29.1361 41.302 28.6317 41.6873 27.9631 41.982L28.1161 41.37C28.8641 41.676 29.4477 42.1067 29.8671 42.662C30.2864 43.2173 30.4961 43.869 30.4961 44.617C30.4961 45.229 30.3431 45.79 30.0371 46.3C29.7424 46.81 29.3004 47.2237 28.7111 47.541C28.1331 47.847 27.4191 48 26.5691 48H23.2371ZM21.8941 48V36.1H23.8491V48H21.8941ZM35.6312 48.17C34.8946 48.17 34.2259 47.983 33.6252 47.609C33.0359 47.235 32.5656 46.7307 32.2142 46.096C31.8742 45.45 31.7042 44.7303 31.7042 43.937C31.7042 43.1323 31.8742 42.4127 32.2142 41.778C32.5656 41.132 33.0359 40.622 33.6252 40.248C34.2259 39.8627 34.8946 39.67 35.6312 39.67C36.2546 39.67 36.8042 39.806 37.2802 40.078C37.7676 40.3387 38.1529 40.7013 38.4362 41.166C38.7196 41.6307 38.8612 42.1577 38.8612 42.747V45.093C38.8612 45.6823 38.7196 46.2093 38.4362 46.674C38.1642 47.1387 37.7846 47.507 37.2972 47.779C36.8099 48.0397 36.2546 48.17 35.6312 48.17ZM35.9372 46.402C36.6286 46.402 37.1839 46.1697 37.6032 45.705C38.0339 45.2403 38.2492 44.6453 38.2492 43.92C38.2492 43.4327 38.1529 43.002 37.9602 42.628C37.7676 42.254 37.4956 41.965 37.1442 41.761C36.8042 41.5457 36.4019 41.438 35.9372 41.438C35.4839 41.438 35.0816 41.5457 34.7302 41.761C34.3902 41.965 34.1182 42.254 33.9142 42.628C33.7216 43.002 33.6252 43.4327 33.6252 43.92C33.6252 44.4073 33.7216 44.838 33.9142 45.212C34.1182 45.586 34.3902 45.8807 34.7302 46.096C35.0816 46.3 35.4839 46.402 35.9372 46.402ZM38.1302 48V45.807L38.4532 43.818L38.1302 41.846V39.84H40.0002V48H38.1302ZM42.0756 48V35.76H43.9456V48H42.0756ZM49.4437 48.17C48.7071 48.17 48.0384 47.983 47.4377 47.609C46.8484 47.235 46.3781 46.7307 46.0267 46.096C45.6867 45.45 45.5167 44.7303 45.5167 43.937C45.5167 43.1323 45.6867 42.4127 46.0267 41.778C46.3781 41.132 46.8484 40.622 47.4377 40.248C48.0384 39.8627 48.7071 39.67 49.4437 39.67C50.0671 39.67 50.6167 39.806 51.0927 40.078C51.5801 40.3387 51.9654 40.7013 52.2487 41.166C52.5321 41.6307 52.6737 42.1577 52.6737 42.747V45.093C52.6737 45.6823 52.5321 46.2093 52.2487 46.674C51.9767 47.1387 51.5971 47.507 51.1097 47.779C50.6224 48.0397 50.0671 48.17 49.4437 48.17ZM49.7497 46.402C50.4411 46.402 50.9964 46.1697 51.4157 45.705C51.8464 45.2403 52.0617 44.6453 52.0617 43.92C52.0617 43.4327 51.9654 43.002 51.7727 42.628C51.5801 42.254 51.3081 41.965 50.9567 41.761C50.6167 41.5457 50.2144 41.438 49.7497 41.438C49.2964 41.438 48.8941 41.5457 48.5427 41.761C48.2027 41.965 47.9307 42.254 47.7267 42.628C47.5341 43.002 47.4377 43.4327 47.4377 43.92C47.4377 44.4073 47.5341 44.838 47.7267 45.212C47.9307 45.586 48.2027 45.8807 48.5427 46.096C48.8941 46.3 49.2964 46.402 49.7497 46.402ZM51.9427 48V45.807L52.2657 43.818L51.9427 41.846V39.84H53.8127V48H51.9427ZM61.4811 48V43.291C61.4811 42.747 61.3054 42.2993 60.9541 41.948C60.6141 41.5967 60.1721 41.421 59.6281 41.421C59.2654 41.421 58.9424 41.5003 58.6591 41.659C58.3757 41.8177 58.1547 42.0387 57.9961 42.322C57.8374 42.6053 57.7581 42.9283 57.7581 43.291L57.0271 42.883C57.0271 42.2597 57.1631 41.71 57.4351 41.234C57.7071 40.7467 58.0811 40.367 58.5571 40.095C59.0444 39.8117 59.5884 39.67 60.1891 39.67C60.8011 39.67 61.3451 39.8287 61.8211 40.146C62.2971 40.452 62.6711 40.8543 62.9431 41.353C63.2151 41.8403 63.3511 42.3503 63.3511 42.883V48H61.4811ZM55.8881 48V39.84H57.7581V48H55.8881ZM69.0084 48.17C68.2037 48.17 67.4727 47.983 66.8154 47.609C66.1694 47.235 65.6594 46.725 65.2854 46.079C64.9114 45.433 64.7244 44.7133 64.7244 43.92C64.7244 43.1153 64.9114 42.3957 65.2854 41.761C65.6594 41.115 66.1694 40.605 66.8154 40.231C67.4727 39.857 68.2037 39.67 69.0084 39.67C69.643 39.67 70.2324 39.7947 70.7764 40.044C71.3317 40.282 71.802 40.6277 72.1874 41.081L70.9634 42.322C70.7254 42.0387 70.4364 41.829 70.0964 41.693C69.7677 41.5457 69.405 41.472 69.0084 41.472C68.5437 41.472 68.13 41.5797 67.7674 41.795C67.416 41.999 67.1384 42.2823 66.9344 42.645C66.7417 43.0077 66.6454 43.4327 66.6454 43.92C66.6454 44.396 66.7417 44.821 66.9344 45.195C67.1384 45.5577 67.416 45.8467 67.7674 46.062C68.13 46.266 68.5437 46.368 69.0084 46.368C69.405 46.368 69.7677 46.3 70.0964 46.164C70.4364 46.0167 70.7254 45.8013 70.9634 45.518L72.1874 46.759C71.802 47.2123 71.3317 47.5637 70.7764 47.813C70.2324 48.051 69.643 48.17 69.0084 48.17ZM77.1605 48.17C76.3445 48.17 75.6079 47.9887 74.9505 47.626C74.3045 47.252 73.7889 46.742 73.4035 46.096C73.0295 45.45 72.8425 44.7247 72.8425 43.92C72.8425 43.1153 73.0295 42.3957 73.4035 41.761C73.7775 41.115 74.2819 40.605 74.9165 40.231C75.5625 39.857 76.2765 39.67 77.0585 39.67C77.8179 39.67 78.4865 39.8457 79.0645 40.197C79.6539 40.5483 80.1129 41.03 80.4415 41.642C80.7815 42.254 80.9515 42.951 80.9515 43.733C80.9515 43.869 80.9402 44.0107 80.9175 44.158C80.9062 44.294 80.8835 44.447 80.8495 44.617H74.1515V43.087H79.8805L79.1835 43.699C79.1609 43.2003 79.0645 42.781 78.8945 42.441C78.7245 42.101 78.4809 41.8403 78.1635 41.659C77.8575 41.4777 77.4779 41.387 77.0245 41.387C76.5485 41.387 76.1349 41.489 75.7835 41.693C75.4322 41.897 75.1602 42.186 74.9675 42.56C74.7749 42.9227 74.6785 43.359 74.6785 43.869C74.6785 44.379 74.7805 44.8267 74.9845 45.212C75.1885 45.5973 75.4775 45.8977 75.8515 46.113C76.2255 46.317 76.6562 46.419 77.1435 46.419C77.5629 46.419 77.9482 46.3453 78.2995 46.198C78.6622 46.0507 78.9682 45.8353 79.2175 45.552L80.4075 46.759C80.0109 47.2237 79.5292 47.575 78.9625 47.813C78.3959 48.051 77.7952 48.17 77.1605 48.17Z" fill="white"/>
<g opacity="0.6">
<rect x="192.301" y="20" width="44" height="44" rx="22" fill="white" fill-opacity="0.05"/>
<g clip-path="url(#clip1_590_5178)">
<path d="M220.968 39.9167V38C220.968 37.0666 220.968 36.5999 220.786 36.2434C220.626 35.9298 220.371 35.6748 220.058 35.515C219.701 35.3334 219.235 35.3334 218.301 35.3334H208.634C207.701 35.3334 207.234 35.3334 206.878 35.515C206.564 35.6748 206.309 35.9298 206.149 36.2434C205.968 36.5999 205.968 37.0666 205.968 38V46C205.968 46.9335 205.968 47.4002 206.149 47.7567C206.309 48.0703 206.564 48.3253 206.878 48.485C207.234 48.6667 207.701 48.6667 208.634 48.6667L218.301 48.6667C219.235 48.6667 219.701 48.6667 220.058 48.4851C220.371 48.3253 220.626 48.0703 220.786 47.7567C220.968 47.4002 220.968 46.9335 220.968 46V44.0834M216.801 42C216.801 41.6128 216.801 41.4192 216.833 41.2582C216.965 40.5971 217.481 40.0802 218.143 39.9487C218.304 39.9167 218.497 39.9167 218.884 39.9167H220.551C220.938 39.9167 221.132 39.9167 221.293 39.9487C221.954 40.0802 222.471 40.5971 222.602 41.2582C222.634 41.4192 222.634 41.6128 222.634 42C222.634 42.3873 222.634 42.5809 222.602 42.7419C222.471 43.403 221.954 43.9198 221.293 44.0513C221.132 44.0834 220.938 44.0834 220.551 44.0834H218.884C218.497 44.0834 218.304 44.0834 218.143 44.0513C217.481 43.9198 216.965 43.403 216.833 42.7419C216.801 42.5809 216.801 42.3873 216.801 42Z" stroke="white" stroke-width="2" stroke-linecap="round" stroke-linejoin="round"/>
</g>
</g>
<path d="M25.2501 95V75.4H28.4141V95H25.2501ZM21.3301 78.284V75.4H28.1341V78.284H21.3301ZM31.3392 93.096L38.5632 85.424C39.1605 84.7893 39.6458 84.22 40.0192 83.716C40.3925 83.212 40.6632 82.736 40.8312 82.288C40.9992 81.84 41.0832 81.3827 41.0832 80.916C41.0832 80.0387 40.7938 79.3573 40.2152 78.872C39.6552 78.368 38.9365 78.116 38.0592 78.116C37.1258 78.116 36.3045 78.3493 35.5952 78.816C34.8858 79.2827 34.2512 80.0107 33.6912 81L31.4512 79.152C32.2165 77.8267 33.1592 76.828 34.2792 76.156C35.3992 75.4653 36.6965 75.12 38.1712 75.12C39.3845 75.12 40.4485 75.3627 41.3632 75.848C42.2778 76.3333 42.9872 77.0147 43.4912 77.892C43.9952 78.7507 44.2472 79.7493 44.2472 80.888C44.2472 81.7093 44.1445 82.4467 43.9392 83.1C43.7525 83.7347 43.4258 84.3787 42.9592 85.032C42.4925 85.6667 41.8485 86.4133 41.0272 87.272L35.4832 93.012L31.3392 93.096ZM31.3392 95V93.096L34.1112 92.116H44.6392V95H31.3392ZM54.9156 95.28C53.4409 95.28 52.0876 94.8693 50.8556 94.048C49.6423 93.208 48.6716 92.032 47.9436 90.52C47.2156 89.008 46.8516 87.2253 46.8516 85.172C46.8516 83.1187 47.2063 81.3453 47.9156 79.852C48.6436 78.34 49.6143 77.1733 50.8276 76.352C52.0409 75.5307 53.3849 75.12 54.8596 75.12C56.3529 75.12 57.7063 75.5307 58.9196 76.352C60.1329 77.1733 61.0943 78.34 61.8036 79.852C62.5316 81.3453 62.8956 83.128 62.8956 85.2C62.8956 87.2533 62.5316 89.036 61.8036 90.548C61.0943 92.06 60.1329 93.2267 58.9196 94.048C57.7249 94.8693 56.3903 95.28 54.9156 95.28ZM54.8596 92.256C55.8303 92.256 56.6703 91.9947 57.3796 91.472C58.0889 90.9493 58.6396 90.1653 59.0316 89.12C59.4423 88.0747 59.6476 86.7587 59.6476 85.172C59.6476 83.604 59.4423 82.2973 59.0316 81.252C58.6396 80.2067 58.0796 79.432 57.3516 78.928C56.6423 78.4053 55.8116 78.144 54.8596 78.144C53.9076 78.144 53.0676 78.4053 52.3396 78.928C51.6303 79.432 51.0796 80.2067 50.6876 81.252C50.2956 82.2787 50.0996 83.5853 50.0996 85.172C50.0996 86.7587 50.2956 88.0747 50.6876 89.12C51.0796 90.1653 51.6303 90.9493 52.3396 91.472C53.0676 91.9947 53.9076 92.256 54.8596 92.256ZM75.1927 95.16C74.3501 95.16 73.5927 94.968 72.9207 94.584C72.2487 94.2 71.7154 93.6773 71.3207 93.016C70.9367 92.344 70.7447 91.5867 70.7447 90.744V83.8H72.5847V90.728C72.5847 91.272 72.6967 91.7467 72.9207 92.152C73.1554 92.5467 73.4701 92.856 73.8647 93.08C74.2594 93.2933 74.7021 93.4 75.1927 93.4C75.6941 93.4 76.1367 93.2933 76.5207 93.08C76.9047 92.856 77.2087 92.5467 77.4327 92.152C77.6567 91.7467 77.7687 91.2773 77.7687 90.744V83.8H79.6087V90.76C79.6087 91.6027 79.4167 92.3547 79.0327 93.016C78.6487 93.6773 78.1261 94.2 77.4647 94.584C76.8034 94.968 76.0461 95.16 75.1927 95.16ZM84.9146 95.16C84.0293 95.16 83.2773 95 82.6586 94.68C82.0399 94.36 81.4853 93.8907 80.9946 93.272L82.2426 92.024C82.5519 92.472 82.9199 92.824 83.3466 93.08C83.7733 93.3253 84.3173 93.448 84.9786 93.448C85.5973 93.448 86.0879 93.32 86.4506 93.064C86.8239 92.808 87.0106 92.456 87.0106 92.008C87.0106 91.6347 86.9146 91.3307 86.7226 91.096C86.5306 90.8613 86.2746 90.6693 85.9546 90.52C85.6453 90.36 85.2986 90.2213 84.9146 90.104C84.5413 89.976 84.1626 89.8373 83.7786 89.688C83.4053 89.528 83.0586 89.3307 82.7386 89.096C82.4293 88.8613 82.1786 88.5573 81.9866 88.184C81.7946 87.8107 81.6986 87.336 81.6986 86.76C81.6986 86.0987 81.8586 85.5387 82.1786 85.08C82.5093 84.6107 82.9519 84.2533 83.5066 84.008C84.0613 83.7627 84.6799 83.64 85.3626 83.64C86.0986 83.64 86.7546 83.784 87.3306 84.072C87.9173 84.36 88.3919 84.728 88.7546 85.176L87.5066 86.424C87.1866 86.0613 86.8506 85.7947 86.4986 85.624C86.1573 85.4427 85.7626 85.352 85.3146 85.352C84.7599 85.352 84.3226 85.464 84.0026 85.688C83.6933 85.912 83.5386 86.2267 83.5386 86.632C83.5386 86.9733 83.6346 87.2507 83.8266 87.464C84.0186 87.6667 84.2693 87.8427 84.5786 87.992C84.8986 88.1307 85.2453 88.264 85.6186 88.392C86.0026 88.52 86.3813 88.664 86.7546 88.824C87.1386 88.984 87.4853 89.192 87.7946 89.448C88.1146 89.6933 88.3706 90.0133 88.5626 90.408C88.7546 90.8027 88.8506 91.2987 88.8506 91.896C88.8506 92.8987 88.4933 93.6933 87.7786 94.28C87.0746 94.8667 86.1199 95.16 84.9146 95.16ZM91.9492 95V93.32H94.8932C95.6612 93.32 96.3332 93.1547 96.9092 92.824C97.4959 92.4933 97.9492 92.0347 98.2692 91.448C98.5999 90.8507 98.7652 90.1627 98.7652 89.384C98.7652 88.616 98.5999 87.9387 98.2692 87.352C97.9386 86.7653 97.4799 86.3067 96.8932 85.976C96.3172 85.6453 95.6506 85.48 94.8932 85.48H91.9492V83.8H94.9412C95.7519 83.8 96.5039 83.944 97.1972 84.232C97.8906 84.5093 98.4932 84.904 99.0052 85.416C99.5279 85.9173 99.9332 86.5093 100.221 87.192C100.509 87.864 100.653 88.6 100.653 89.4C100.653 90.1893 100.509 90.9253 100.221 91.608C99.9332 92.2907 99.5332 92.888 99.0212 93.4C98.5092 93.9013 97.9066 94.296 97.2132 94.584C96.5199 94.8613 95.7732 95 94.9732 95H91.9492ZM90.6852 95V83.8H92.5252V95H90.6852ZM105.345 95V84.12H107.185V95H105.345ZM101.697 85.48V83.8H110.833V85.48H101.697Z" fill="url(#paint1_linear_590_5178)"/>
<path d="M20.9741 123L24.3821 114.672H25.1981L28.5941 123H27.3701L24.5741 115.956H24.9941L22.1741 123H20.9741ZM22.5941 121.116V120.132H26.9741V121.116H22.5941ZM32.7495 123.12C32.3175 123.12 31.9255 123.032 31.5735 122.856C31.2295 122.672 30.9535 122.42 30.7455 122.1C30.5375 121.78 30.4215 121.416 30.3975 121.008V119.292C30.4215 118.876 30.5375 118.512 30.7455 118.2C30.9615 117.88 31.2415 117.632 31.5855 117.456C31.9375 117.272 32.3255 117.18 32.7495 117.18C33.2695 117.18 33.7375 117.312 34.1535 117.576C34.5775 117.84 34.9095 118.196 35.1495 118.644C35.3895 119.092 35.5095 119.596 35.5095 120.156C35.5095 120.716 35.3895 121.22 35.1495 121.668C34.9095 122.116 34.5775 122.472 34.1535 122.736C33.7375 122.992 33.2695 123.12 32.7495 123.12ZM29.7495 125.388V117.3H30.8295V118.8L30.6255 120.18L30.8295 121.572V125.388H29.7495ZM32.5695 122.1C32.9295 122.1 33.2455 122.016 33.5175 121.848C33.7895 121.68 34.0055 121.452 34.1655 121.164C34.3255 120.868 34.4055 120.528 34.4055 120.144C34.4055 119.768 34.3255 119.432 34.1655 119.136C34.0055 118.84 33.7895 118.612 33.5175 118.452C33.2455 118.284 32.9335 118.2 32.5815 118.2C32.2215 118.2 31.9055 118.284 31.6335 118.452C31.3615 118.612 31.1495 118.84 30.9975 119.136C30.8455 119.432 30.7695 119.772 30.7695 120.156C30.7695 120.532 30.8415 120.868 30.9855 121.164C31.1375 121.452 31.3495 121.68 31.6215 121.848C31.9015 122.016 32.2175 122.1 32.5695 122.1ZM39.7339 123.12C39.3019 123.12 38.9099 123.032 38.5579 122.856C38.2139 122.672 37.9379 122.42 37.7299 122.1C37.5219 121.78 37.4059 121.416 37.3819 121.008V119.292C37.4059 118.876 37.5219 118.512 37.7299 118.2C37.9459 117.88 38.2259 117.632 38.5699 117.456C38.9219 117.272 39.3099 117.18 39.7339 117.18C40.2539 117.18 40.7219 117.312 41.1379 117.576C41.5619 117.84 41.8939 118.196 42.1339 118.644C42.3739 119.092 42.4939 119.596 42.4939 120.156C42.4939 120.716 42.3739 121.22 42.1339 121.668C41.8939 122.116 41.5619 122.472 41.1379 122.736C40.7219 122.992 40.2539 123.12 39.7339 123.12ZM36.7339 125.388V117.3H37.8139V118.8L37.6099 120.18L37.8139 121.572V125.388H36.7339ZM39.5539 122.1C39.9139 122.1 40.2299 122.016 40.5019 121.848C40.7739 121.68 40.9899 121.452 41.1499 121.164C41.3099 120.868 41.3899 120.528 41.3899 120.144C41.3899 119.768 41.3099 119.432 41.1499 119.136C40.9899 118.84 40.7739 118.612 40.5019 118.452C40.2299 118.284 39.9179 118.2 39.5659 118.2C39.2059 118.2 38.8899 118.284 38.6179 118.452C38.3459 118.612 38.1339 118.84 37.9819 119.136C37.8299 119.432 37.7539 119.772 37.7539 120.156C37.7539 120.532 37.8259 120.868 37.9699 121.164C38.1219 121.452 38.3339 121.68 38.6059 121.848C38.8859 122.016 39.2019 122.1 39.5539 122.1ZM43.7183 123V114.432H44.7983V123H43.7183ZM46.3904 123V117.3H47.4704V123H46.3904ZM46.9304 116.16C46.7304 116.16 46.5664 116.096 46.4384 115.968C46.3104 115.832 46.2464 115.664 46.2464 115.464C46.2464 115.272 46.3104 115.112 46.4384 114.984C46.5664 114.848 46.7304 114.78 46.9304 114.78C47.1304 114.78 47.2944 114.848 47.4224 114.984C47.5504 115.112 47.6144 115.272 47.6144 115.464C47.6144 115.664 47.5504 115.832 47.4224 115.968C47.2944 116.096 47.1304 116.16 46.9304 116.16ZM51.666 123.12C51.106 123.12 50.598 122.988 50.142 122.724C49.694 122.46 49.338 122.104 49.074 121.656C48.818 121.2 48.69 120.696 48.69 120.144C48.69 119.584 48.818 119.08 49.074 118.632C49.338 118.184 49.694 117.832 50.142 117.576C50.598 117.312 51.106 117.18 51.666 117.18C52.106 117.18 52.514 117.264 52.89 117.432C53.266 117.592 53.59 117.828 53.862 118.14L53.142 118.86C52.966 118.652 52.75 118.496 52.494 118.392C52.246 118.28 51.97 118.224 51.666 118.224C51.306 118.224 50.986 118.308 50.706 118.476C50.426 118.636 50.206 118.86 50.046 119.148C49.886 119.436 49.806 119.768 49.806 120.144C49.806 120.52 49.886 120.852 50.046 121.14C50.206 121.428 50.426 121.656 50.706 121.824C50.986 121.992 51.306 122.076 51.666 122.076C51.97 122.076 52.246 122.024 52.494 121.92C52.75 121.808 52.97 121.648 53.154 121.44L53.862 122.16C53.598 122.464 53.274 122.7 52.89 122.868C52.514 123.036 52.106 123.12 51.666 123.12ZM57.2399 123.12C56.7199 123.12 56.2479 122.992 55.8239 122.736C55.3999 122.472 55.0639 122.116 54.8159 121.668C54.5759 121.22 54.4559 120.716 54.4559 120.156C54.4559 119.596 54.5759 119.092 54.8159 118.644C55.0639 118.196 55.3959 117.84 55.8119 117.576C56.2359 117.312 56.7119 117.18 57.2399 117.18C57.6719 117.18 58.0559 117.272 58.3919 117.456C58.7359 117.632 59.0119 117.88 59.2199 118.2C59.4279 118.512 59.5439 118.876 59.5679 119.292V121.008C59.5439 121.416 59.4279 121.78 59.2199 122.1C59.0199 122.42 58.7479 122.672 58.4039 122.856C58.0679 123.032 57.6799 123.12 57.2399 123.12ZM57.4199 122.1C57.9559 122.1 58.3879 121.92 58.7159 121.56C59.0439 121.192 59.2079 120.724 59.2079 120.156C59.2079 119.764 59.1319 119.424 58.9799 119.136C58.8359 118.84 58.6279 118.612 58.3559 118.452C58.0839 118.284 57.7679 118.2 57.4079 118.2C57.0479 118.2 56.7279 118.284 56.4479 118.452C56.1759 118.62 55.9599 118.852 55.7999 119.148C55.6479 119.436 55.5719 119.768 55.5719 120.144C55.5719 120.528 55.6479 120.868 55.7999 121.164C55.9599 121.452 56.1799 121.68 56.4599 121.848C56.7399 122.016 57.0599 122.1 57.4199 122.1ZM59.1359 123V121.464L59.3399 120.072L59.1359 118.692V117.3H60.2279V123H59.1359ZM62.6529 123V114.912H63.7329V123H62.6529ZM61.2489 118.284V117.3H65.1369V118.284H61.2489ZM66.2068 123V117.3H67.2868V123H66.2068ZM66.7468 116.16C66.5468 116.16 66.3828 116.096 66.2548 115.968C66.1268 115.832 66.0628 115.664 66.0628 115.464C66.0628 115.272 66.1268 115.112 66.2548 114.984C66.3828 114.848 66.5468 114.78 66.7468 114.78C66.9468 114.78 67.1108 114.848 67.2388 114.984C67.3668 115.112 67.4308 115.272 67.4308 115.464C67.4308 115.664 67.3668 115.832 67.2388 115.968C67.1108 116.096 66.9468 116.16 66.7468 116.16ZM71.4824 123.12C70.9224 123.12 70.4184 122.988 69.9704 122.724C69.5224 122.46 69.1664 122.104 68.9024 121.656C68.6384 121.2 68.5064 120.692 68.5064 120.132C68.5064 119.58 68.6384 119.084 68.9024 118.644C69.1664 118.196 69.5224 117.84 69.9704 117.576C70.4184 117.312 70.9224 117.18 71.4824 117.18C72.0344 117.18 72.5344 117.312 72.9824 117.576C73.4384 117.832 73.7984 118.184 74.0624 118.632C74.3264 119.08 74.4584 119.58 74.4584 120.132C74.4584 120.692 74.3264 121.2 74.0624 121.656C73.7984 122.104 73.4384 122.46 72.9824 122.724C72.5344 122.988 72.0344 123.12 71.4824 123.12ZM71.4824 122.076C71.8424 122.076 72.1624 121.992 72.4424 121.824C72.7224 121.656 72.9424 121.428 73.1024 121.14C73.2624 120.844 73.3424 120.508 73.3424 120.132C73.3424 119.764 73.2584 119.436 73.0904 119.148C72.9304 118.86 72.7104 118.636 72.4304 118.476C72.1584 118.308 71.8424 118.224 71.4824 118.224C71.1224 118.224 70.8024 118.308 70.5224 118.476C70.2424 118.636 70.0224 118.86 69.8624 119.148C69.7024 119.436 69.6224 119.764 69.6224 120.132C69.6224 120.508 69.7024 120.844 69.8624 121.14C70.0224 121.428 70.2424 121.656 70.5224 121.824C70.8024 121.992 71.1224 122.076 71.4824 122.076ZM79.7073 123V119.676C79.7073 119.244 79.5713 118.888 79.2993 118.608C79.0273 118.328 78.6753 118.188 78.2433 118.188C77.9553 118.188 77.6993 118.252 77.4753 118.38C77.2513 118.508 77.0753 118.684 76.9473 118.908C76.8193 119.132 76.7553 119.388 76.7553 119.676L76.3113 119.424C76.3113 118.992 76.4073 118.608 76.5993 118.272C76.7913 117.936 77.0593 117.672 77.4033 117.48C77.7473 117.28 78.1353 117.18 78.5673 117.18C78.9993 117.18 79.3793 117.288 79.7073 117.504C80.0433 117.72 80.3073 118.004 80.4993 118.356C80.6913 118.7 80.7873 119.068 80.7873 119.46V123H79.7073ZM75.6753 123V117.3H76.7553V123H75.6753ZM87.0616 123L84.3376 114.672H85.4656L87.6256 121.464H87.3016L89.4256 114.672H90.2416L92.3656 121.464H92.0536L94.2136 114.672H95.3296L92.6176 123H91.8136L89.6776 116.22H89.9896L87.8656 123H87.0616ZM98.0681 123.12C97.5481 123.12 97.0761 122.992 96.6521 122.736C96.2281 122.472 95.8921 122.116 95.6441 121.668C95.4041 121.22 95.2841 120.716 95.2841 120.156C95.2841 119.596 95.4041 119.092 95.6441 118.644C95.8921 118.196 96.2241 117.84 96.6401 117.576C97.0641 117.312 97.5401 117.18 98.0681 117.18C98.5001 117.18 98.8841 117.272 99.2201 117.456C99.5641 117.632 99.8401 117.88 100.048 118.2C100.256 118.512 100.372 118.876 100.396 119.292V121.008C100.372 121.416 100.256 121.78 100.048 122.1C99.8481 122.42 99.5761 122.672 99.2321 122.856C98.8961 123.032 98.5081 123.12 98.0681 123.12ZM98.2481 122.1C98.7841 122.1 99.2161 121.92 99.5441 121.56C99.8721 121.192 100.036 120.724 100.036 120.156C100.036 119.764 99.9601 119.424 99.8081 119.136C99.6641 118.84 99.4561 118.612 99.1841 118.452C98.9121 118.284 98.5961 118.2 98.2361 118.2C97.8761 118.2 97.5561 118.284 97.2761 118.452C97.0041 118.62 96.7881 118.852 96.6281 119.148C96.4761 119.436 96.4001 119.768 96.4001 120.144C96.4001 120.528 96.4761 120.868 96.6281 121.164C96.7881 121.452 97.0081 121.68 97.2881 121.848C97.5681 122.016 97.8881 122.1 98.2481 122.1ZM99.9641 123V121.464L100.168 120.072L99.9641 118.692V117.3H101.056V123H99.9641ZM102.628 123V114.432H103.708V123H102.628ZM105.289 123V114.432H106.369V123H105.289ZM110.589 123.12C110.021 123.12 109.509 122.992 109.053 122.736C108.597 122.472 108.237 122.116 107.973 121.668C107.709 121.22 107.577 120.712 107.577 120.144C107.577 119.584 107.705 119.08 107.961 118.632C108.225 118.184 108.577 117.832 109.017 117.576C109.465 117.312 109.965 117.18 110.517 117.18C111.045 117.18 111.509 117.3 111.909 117.54C112.317 117.78 112.633 118.112 112.857 118.536C113.089 118.96 113.205 119.44 113.205 119.976C113.205 120.056 113.201 120.144 113.193 120.24C113.185 120.328 113.169 120.432 113.145 120.552H108.333V119.652H112.569L112.173 120C112.173 119.616 112.105 119.292 111.969 119.028C111.833 118.756 111.641 118.548 111.393 118.404C111.145 118.252 110.845 118.176 110.493 118.176C110.125 118.176 109.801 118.256 109.521 118.416C109.241 118.576 109.025 118.8 108.873 119.088C108.721 119.376 108.645 119.716 108.645 120.108C108.645 120.508 108.725 120.86 108.885 121.164C109.045 121.46 109.273 121.692 109.569 121.86C109.865 122.02 110.205 122.1 110.589 122.1C110.909 122.1 111.201 122.044 111.465 121.932C111.737 121.82 111.969 121.652 112.161 121.428L112.857 122.136C112.585 122.456 112.249 122.7 111.849 122.868C111.457 123.036 111.037 123.12 110.589 123.12ZM115.083 123V114.912H116.163V123H115.083ZM113.679 118.284V117.3H117.567V118.284H113.679ZM122.069 123V122.016H124.589C125.069 122.016 125.445 121.876 125.717 121.596C125.989 121.308 126.125 120.964 126.125 120.564C126.125 120.292 126.065 120.048 125.945 119.832C125.825 119.608 125.649 119.432 125.417 119.304C125.193 119.176 124.929 119.112 124.625 119.112H122.069V118.128H124.457C124.857 118.128 125.173 118.024 125.405 117.816C125.645 117.6 125.765 117.292 125.765 116.892C125.765 116.492 125.641 116.188 125.393 115.98C125.145 115.764 124.817 115.656 124.409 115.656H122.069V114.672H124.433C124.977 114.672 125.429 114.772 125.789 114.972C126.157 115.164 126.433 115.42 126.617 115.74C126.809 116.06 126.905 116.412 126.905 116.796C126.905 117.244 126.781 117.636 126.533 117.972C126.293 118.308 125.937 118.572 125.465 118.764L125.561 118.404C126.097 118.596 126.513 118.888 126.809 119.28C127.113 119.664 127.265 120.12 127.265 120.648C127.265 121.088 127.157 121.484 126.941 121.836C126.725 122.188 126.413 122.472 126.005 122.688C125.605 122.896 125.113 123 124.529 123H122.069ZM121.313 123V114.672H122.441V123H121.313ZM131.021 123.12C130.501 123.12 130.029 122.992 129.605 122.736C129.181 122.472 128.845 122.116 128.597 121.668C128.357 121.22 128.237 120.716 128.237 120.156C128.237 119.596 128.357 119.092 128.597 118.644C128.845 118.196 129.177 117.84 129.593 117.576C130.017 117.312 130.493 117.18 131.021 117.18C131.453 117.18 131.837 117.272 132.173 117.456C132.517 117.632 132.793 117.88 133.001 118.2C133.209 118.512 133.325 118.876 133.349 119.292V121.008C133.325 121.416 133.209 121.78 133.001 122.1C132.801 122.42 132.529 122.672 132.185 122.856C131.849 123.032 131.461 123.12 131.021 123.12ZM131.201 122.1C131.737 122.1 132.169 121.92 132.497 121.56C132.825 121.192 132.989 120.724 132.989 120.156C132.989 119.764 132.913 119.424 132.761 119.136C132.617 118.84 132.409 118.612 132.137 118.452C131.865 118.284 131.549 118.2 131.189 118.2C130.829 118.2 130.509 118.284 130.229 118.452C129.957 118.62 129.741 118.852 129.581 119.148C129.429 119.436 129.353 119.768 129.353 120.144C129.353 120.528 129.429 120.868 129.581 121.164C129.741 121.452 129.961 121.68 130.241 121.848C130.521 122.016 130.841 122.1 131.201 122.1ZM132.917 123V121.464L133.121 120.072L132.917 118.692V117.3H134.009V123H132.917ZM135.582 123V114.432H136.662V123H135.582ZM140.666 123.12C140.146 123.12 139.674 122.992 139.25 122.736C138.826 122.472 138.49 122.116 138.242 121.668C138.002 121.22 137.882 120.716 137.882 120.156C137.882 119.596 138.002 119.092 138.242 118.644C138.49 118.196 138.822 117.84 139.238 117.576C139.662 117.312 140.138 117.18 140.666 117.18C141.098 117.18 141.482 117.272 141.818 117.456C142.162 117.632 142.438 117.88 142.646 118.2C142.854 118.512 142.97 118.876 142.994 119.292V121.008C142.97 121.416 142.854 121.78 142.646 122.1C142.446 122.42 142.174 122.672 141.83 122.856C141.494 123.032 141.106 123.12 140.666 123.12ZM140.846 122.1C141.382 122.1 141.814 121.92 142.142 121.56C142.47 121.192 142.634 120.724 142.634 120.156C142.634 119.764 142.558 119.424 142.406 119.136C142.262 118.84 142.054 118.612 141.782 118.452C141.51 118.284 141.194 118.2 140.834 118.2C140.474 118.2 140.154 118.284 139.874 118.452C139.602 118.62 139.386 118.852 139.226 119.148C139.074 119.436 138.998 119.768 138.998 120.144C138.998 120.528 139.074 120.868 139.226 121.164C139.386 121.452 139.606 121.68 139.886 121.848C140.166 122.016 140.486 122.1 140.846 122.1ZM142.562 123V121.464L142.766 120.072L142.562 118.692V117.3H143.654V123H142.562ZM149.258 123V119.676C149.258 119.244 149.122 118.888 148.85 118.608C148.578 118.328 148.226 118.188 147.794 118.188C147.506 118.188 147.25 118.252 147.026 118.38C146.802 118.508 146.626 118.684 146.498 118.908C146.37 119.132 146.306 119.388 146.306 119.676L145.862 119.424C145.862 118.992 145.958 118.608 146.15 118.272C146.342 117.936 146.61 117.672 146.954 117.48C147.298 117.28 147.686 117.18 148.118 117.18C148.55 117.18 148.93 117.288 149.258 117.504C149.594 117.72 149.858 118.004 150.05 118.356C150.242 118.7 150.338 119.068 150.338 119.46V123H149.258ZM145.226 123V117.3H146.306V123H145.226ZM154.404 123.12C153.844 123.12 153.336 122.988 152.88 122.724C152.432 122.46 152.076 122.104 151.812 121.656C151.556 121.2 151.428 120.696 151.428 120.144C151.428 119.584 151.556 119.08 151.812 118.632C152.076 118.184 152.432 117.832 152.88 117.576C153.336 117.312 153.844 117.18 154.404 117.18C154.844 117.18 155.252 117.264 155.628 117.432C156.004 117.592 156.328 117.828 156.6 118.14L155.88 118.86C155.704 118.652 155.488 118.496 155.232 118.392C154.984 118.28 154.708 118.224 154.404 118.224C154.044 118.224 153.724 118.308 153.444 118.476C153.164 118.636 152.944 118.86 152.784 119.148C152.624 119.436 152.544 119.768 152.544 120.144C152.544 120.52 152.624 120.852 152.784 121.14C152.944 121.428 153.164 121.656 153.444 121.824C153.724 121.992 154.044 122.076 154.404 122.076C154.708 122.076 154.984 122.024 155.232 121.92C155.488 121.808 155.708 121.648 155.892 121.44L156.6 122.16C156.336 122.464 156.012 122.7 155.628 122.868C155.252 123.036 154.844 123.12 154.404 123.12ZM160.194 123.12C159.626 123.12 159.114 122.992 158.658 122.736C158.202 122.472 157.842 122.116 157.578 121.668C157.314 121.22 157.182 120.712 157.182 120.144C157.182 119.584 157.31 119.08 157.566 118.632C157.83 118.184 158.182 117.832 158.622 117.576C159.07 117.312 159.57 117.18 160.122 117.18C160.65 117.18 161.114 117.3 161.514 117.54C161.922 117.78 162.238 118.112 162.462 118.536C162.694 118.96 162.81 119.44 162.81 119.976C162.81 120.056 162.806 120.144 162.798 120.24C162.79 120.328 162.774 120.432 162.75 120.552H157.938V119.652H162.174L161.778 120C161.778 119.616 161.71 119.292 161.574 119.028C161.438 118.756 161.246 118.548 160.998 118.404C160.75 118.252 160.45 118.176 160.098 118.176C159.73 118.176 159.406 118.256 159.126 118.416C158.846 118.576 158.63 118.8 158.478 119.088C158.326 119.376 158.25 119.716 158.25 120.108C158.25 120.508 158.33 120.86 158.49 121.164C158.65 121.46 158.878 121.692 159.174 121.86C159.47 122.02 159.81 122.1 160.194 122.1C160.514 122.1 160.806 122.044 161.07 121.932C161.342 121.82 161.574 121.652 161.766 121.428L162.462 122.136C162.19 122.456 161.854 122.7 161.454 122.868C161.062 123.036 160.642 123.12 160.194 123.12Z" fill="white" fill-opacity="0.6"/>
</g>
<rect x="1.10205" y="0.5" width="254.699" height="150" rx="19.5" stroke="url(#paint2_linear_590_5178)"/>
</g>
<defs>
<filter id="filter0_b_590_5178" x="-19.3979" y="-20" width="295.699" height="191" filterUnits="userSpaceOnUse" color-interpolation-filters="sRGB">
<feFlood flood-opacity="0" result="BackgroundImageFix"/>
<feGaussianBlur in="BackgroundImageFix" stdDeviation="10"/>
<feComposite in2="SourceAlpha" operator="in" result="effect1_backgroundBlur_590_5178"/>
<feBlend mode="normal" in="SourceGraphic" in2="effect1_backgroundBlur_590_5178" result="shape"/>
</filter>
<linearGradient id="paint0_linear_590_5178" x1="19.602" y1="12.5" x2="226.602" y2="145" gradientUnits="userSpaceOnUse">
<stop stop-color="#191919"/>
<stop offset="1" stop-color="#101010"/>
</linearGradient>
<linearGradient id="paint1_linear_590_5178" x1="20.6021" y1="85" x2="236.301" y2="85" gradientUnits="userSpaceOnUse">
<stop stop-color="#806DFF"/>
<stop offset="1" stop-color="#4A33E7"/>
</linearGradient>
<linearGradient id="paint2_linear_590_5178" x1="86.602" y1="65" x2="14.102" y2="4.00001" gradientUnits="userSpaceOnUse">
<stop/>
<stop offset="1" stop-color="#313131"/>
</linearGradient>
<clipPath id="clip0_590_5178">
<rect x="0.602051" width="255.699" height="151" rx="20" fill="white"/>
</clipPath>
<clipPath id="clip1_590_5178">
<rect width="20" height="20" fill="white" transform="translate(204.301 32)"/>
</clipPath>
</defs>
</svg>
