<svg xmlns="http://www.w3.org/2000/svg" width="16" height="10" viewBox="0 0 16 10" fill="none">
  <path fill-rule="evenodd" clip-rule="evenodd" d="M0 0.833336C0 0.612319 0.0936534 0.40036 0.260347 0.244076C0.427049 0.0878004 0.653138 0 0.888889 0H15.1111C15.3468 0 15.573 0.0878004 15.7396 0.244076C15.9063 0.40036 16 0.612319 16 0.833336C16 1.05435 15.9063 1.26631 15.7396 1.4226C15.573 1.57887 15.3468 1.66667 15.1111 1.66667H0.888889C0.653138 1.66667 0.427049 1.57887 0.260347 1.4226C0.0936534 1.26631 0 1.05435 0 0.833336ZM2.66667 4.99998C2.66667 4.77898 2.76032 4.56706 2.92701 4.41073C3.09372 4.25448 3.3198 4.16665 3.55556 4.16665H12.4444C12.6802 4.16665 12.9063 4.25448 13.073 4.41073C13.2396 4.56706 13.3333 4.77898 13.3333 4.99998C13.3333 5.22107 13.2396 5.43298 13.073 5.58923C12.9063 5.74557 12.6802 5.83332 12.4444 5.83332H3.55556C3.3198 5.83332 3.09372 5.74557 2.92701 5.58923C2.76032 5.43298 2.66667 5.22107 2.66667 4.99998ZM5.33333 9.16666C5.33333 8.94566 5.42699 8.73375 5.59368 8.57741C5.76038 8.42116 5.98647 8.33333 6.22222 8.33333H9.77778C10.0135 8.33333 10.2396 8.42116 10.4063 8.57741C10.573 8.73375 10.6667 8.94566 10.6667 9.16666C10.6667 9.38775 10.573 9.59967 10.4063 9.75592C10.2396 9.91225 10.0135 10 9.77778 10H6.22222C5.98647 10 5.76038 9.91225 5.59368 9.75592C5.42699 9.59967 5.33333 9.38775 5.33333 9.16666Z" fill="url(#paint0_linear_608_6564)"/>
  <defs>
    <linearGradient id="paint0_linear_608_6564" x1="0.993199" y1="1.04585" x2="16.3949" y2="2.57289" gradientUnits="userSpaceOnUse">
      <stop stop-color="#81E396"/>
      <stop offset="1" stop-color="#BEF856"/>
    </linearGradient>
  </defs>
</svg>