<svg width="121" height="36" viewBox="0 0 121 36" fill="none" xmlns="http://www.w3.org/2000/svg">
<g clip-path="url(#clip0_34_10586)">
<path d="M118.061 0.493164H2.469C1.37805 0.493164 0.493652 1.37652 0.493652 2.4662V33.0482C0.493652 34.1379 1.37805 35.0212 2.469 35.0212H118.061C119.152 35.0212 120.036 34.1379 120.036 33.0482V2.4662C120.036 1.37652 119.152 0.493164 118.061 0.493164Z" stroke="white" stroke-width="1.20388"/>
<path d="M43.2685 9.3004C43.2685 9.98001 43.0984 10.5747 42.6732 10.9994C42.1628 11.5091 41.5675 11.764 40.8021 11.764C40.0366 11.764 39.4413 11.5091 38.931 10.9994C38.4207 10.4897 38.1655 9.89507 38.1655 9.13052C38.1655 8.36598 38.4207 7.77135 38.931 7.26162C39.4413 6.75194 40.0366 6.49707 40.8021 6.49707C41.1423 6.49707 41.4825 6.58201 41.8226 6.75194C42.1628 6.92181 42.418 7.09174 42.5881 7.34656L42.1628 7.7713C41.8226 7.34656 41.3974 7.17668 40.8021 7.17668C40.2917 7.17668 39.7815 7.34656 39.4413 7.7713C39.016 8.11111 38.8459 8.62084 38.8459 9.21546C38.8459 9.81014 39.016 10.3198 39.4413 10.6596C39.8665 10.9994 40.2917 11.2542 40.8021 11.2542C41.3974 11.2542 41.8226 11.0844 42.2479 10.6596C42.5031 10.4048 42.6732 10.065 42.6732 9.64021H40.8021V9.04559H43.2685C43.2685 9.04559 43.2685 9.13052 43.2685 9.3004Z" fill="white" stroke="white" stroke-width="0.120388" stroke-miterlimit="10"/>
<path d="M47.1809 7.17668H44.8845V8.79072H47.0107V9.38539H44.8845V10.9994H47.1809V11.5941H44.2041V6.49707H47.1809V7.17668Z" fill="white" stroke="white" stroke-width="0.120388" stroke-miterlimit="10"/>
<path d="M49.9878 11.5941H49.3072V7.09174H47.8613V6.49707H51.4333V7.09174H49.9878V11.5941Z" fill="white" stroke="white" stroke-width="0.120388" stroke-miterlimit="10"/>
<path d="M53.8999 11.5941V6.49707H54.5799V11.5941H53.8999Z" fill="white" stroke="white" stroke-width="0.120388" stroke-miterlimit="10"/>
<path d="M57.4722 11.5941H56.7921V7.09174H55.3462V6.49707H58.8332V7.09174H57.3872V11.5941H57.4722Z" fill="white" stroke="white" stroke-width="0.120388" stroke-miterlimit="10"/>
<path d="M65.5517 10.9994C65.0416 11.5091 64.446 11.764 63.6805 11.764C62.9151 11.764 62.32 11.5091 61.8094 10.9994C61.2993 10.4897 61.0439 9.89507 61.0439 9.13052C61.0439 8.36598 61.2993 7.77135 61.8094 7.26162C62.32 6.75194 62.9151 6.49707 63.6805 6.49707C64.446 6.49707 65.0416 6.75194 65.5517 7.26162C66.0618 7.77135 66.3171 8.36598 66.3171 9.13052C66.3171 9.81014 66.0618 10.4897 65.5517 10.9994ZM62.32 10.5747C62.6603 10.9145 63.1704 11.1693 63.6805 11.1693C64.1912 11.1693 64.7013 10.9994 65.0416 10.5747C65.3818 10.2349 65.6366 9.7252 65.6366 9.13052C65.6366 8.53585 65.4668 8.02617 65.0416 7.68636C64.7013 7.34656 64.1912 7.09174 63.6805 7.09174C63.1704 7.09174 62.6603 7.26162 62.32 7.68636C61.9798 8.02617 61.7245 8.53585 61.7245 9.13052C61.7245 9.64021 61.8948 10.1499 62.32 10.5747Z" fill="white" stroke="white" stroke-width="0.120388" stroke-miterlimit="10"/>
<path d="M67.2529 11.5941V6.49707H68.0184L70.4846 10.4897V9.47033V6.49707H71.1651V11.5941H70.4846L67.848 7.43155V8.45091V11.5941H67.2529Z" fill="white" stroke="white" stroke-width="0.120388" stroke-miterlimit="10"/>
<path d="M60.8736 19.0698C58.8325 19.0698 57.2167 20.5989 57.2167 22.7226C57.2167 24.7614 58.8325 26.3755 60.8736 26.3755C62.9146 26.3755 64.5309 24.8464 64.5309 22.7226C64.5309 20.5989 62.9146 19.0698 60.8736 19.0698ZM60.8736 24.8464C59.7679 24.8464 58.8325 23.9119 58.8325 22.6377C58.8325 21.3634 59.7679 20.429 60.8736 20.429C61.9793 20.429 62.9146 21.2785 62.9146 22.6377C62.9146 23.9969 61.9793 24.8464 60.8736 24.8464ZM52.9638 19.0698C50.9227 19.0698 49.3069 20.5989 49.3069 22.7226C49.3069 24.7614 50.9227 26.3755 52.9638 26.3755C55.0053 26.3755 56.6211 24.8464 56.6211 22.7226C56.6211 20.5989 55.0053 19.0698 52.9638 19.0698ZM52.9638 24.8464C51.8586 24.8464 50.9227 23.9119 50.9227 22.6377C50.9227 21.3634 51.8586 20.429 52.9638 20.429C54.0695 20.429 55.0053 21.2785 55.0053 22.6377C55.0053 23.9969 54.0695 24.8464 52.9638 24.8464ZM43.5235 20.1741V21.7032H47.1806C47.0955 22.5528 46.7553 23.2323 46.3301 23.6571C45.8198 24.1668 44.9693 24.7614 43.5235 24.7614C41.2271 24.7614 39.5261 22.9775 39.5261 20.6839C39.5261 18.3902 41.3122 16.6062 43.5235 16.6062C44.7142 16.6062 45.6497 17.1159 46.3301 17.7106L47.4357 16.6062C46.5002 15.7568 45.3095 15.0771 43.6085 15.0771C40.5467 15.0771 37.9102 17.6257 37.9102 20.6839C37.9102 23.742 40.5467 26.2905 43.6085 26.2905C45.3095 26.2905 46.5002 25.7808 47.5208 24.6765C48.5414 23.6571 48.8816 22.2129 48.8816 21.1086C48.8816 20.7688 48.8816 20.429 48.7965 20.1741H43.5235ZM82.1363 21.3634C81.796 20.5139 80.9451 19.0698 79.0745 19.0698C77.2033 19.0698 75.6724 20.5139 75.6724 22.7226C75.6724 24.7614 77.2033 26.3755 79.2443 26.3755C80.8602 26.3755 81.8809 25.3561 82.2212 24.7614L81.0306 23.9119C80.6054 24.5066 80.0947 24.9313 79.2443 24.9313C78.394 24.9313 77.8833 24.5915 77.4581 23.827L82.3061 21.7882L82.1363 21.3634ZM77.2033 22.5528C77.2033 21.1935 78.309 20.429 79.0745 20.429C79.6695 20.429 80.2651 20.7688 80.435 21.1935L77.2033 22.5528ZM73.2057 26.0357H74.8215V15.417H73.2057V26.0357ZM70.6545 19.8343C70.2288 19.4096 69.5488 18.9848 68.6979 18.9848C66.9122 18.9848 65.2109 20.5989 65.2109 22.6377C65.2109 24.6765 66.8273 26.2056 68.6979 26.2056C69.5488 26.2056 70.2288 25.7808 70.5691 25.3561H70.6545V25.8658C70.6545 27.225 69.8891 27.9895 68.6979 27.9895C67.7626 27.9895 67.0821 27.3099 66.9122 26.7153L65.5512 27.3099C65.9764 28.2444 66.9972 29.4337 68.7834 29.4337C70.6545 29.4337 72.1854 28.3293 72.1854 25.6959V19.2397H70.6545V19.8343ZM68.7834 24.8464C67.6777 24.8464 66.7418 23.9119 66.7418 22.6377C66.7418 21.3634 67.6777 20.429 68.7834 20.429C69.8891 20.429 70.7395 21.3634 70.7395 22.6377C70.7395 23.9119 69.8891 24.8464 68.7834 24.8464ZM89.5354 15.417H85.7082V26.0357H87.324V22.043H89.5354C91.3211 22.043 93.0224 20.7688 93.0224 18.73C93.0224 16.6912 91.3211 15.417 89.5354 15.417ZM89.6204 20.5989H87.324V16.9461H89.6204C90.811 16.9461 91.4915 17.9655 91.4915 18.73C91.4066 19.5795 90.7261 20.5989 89.6204 20.5989ZM99.4013 19.0698C98.2102 19.0698 97.0195 19.5795 96.5944 20.6839L98.0403 21.2785C98.3806 20.6839 98.8907 20.5139 99.4863 20.5139C100.337 20.5139 101.102 21.0237 101.187 21.8732V21.9581C100.932 21.7882 100.252 21.5333 99.5712 21.5333C98.0403 21.5333 96.5094 22.3828 96.5094 23.9119C96.5094 25.3561 97.785 26.2905 99.146 26.2905C100.252 26.2905 100.762 25.7808 101.187 25.2712H101.272V26.1206H102.803V22.043C102.633 20.0892 101.187 19.0698 99.4013 19.0698ZM99.231 24.8464C98.7208 24.8464 97.9554 24.5915 97.9554 23.9119C97.9554 23.0624 98.8907 22.8076 99.6561 22.8076C100.337 22.8076 100.677 22.9775 101.102 23.1474C100.932 24.1668 100.081 24.8464 99.231 24.8464ZM108.161 19.2397L106.375 23.827H106.29L104.419 19.2397H102.718L105.525 25.6959L103.909 29.2638H105.525L109.862 19.2397H108.161ZM93.8728 26.0357H95.4887V15.417H93.8728V26.0357Z" fill="white"/>
<path d="M11.3745 28.1593C11.0343 27.9894 10.8643 27.5646 10.8643 27.1399C10.8643 27.0549 10.8643 26.885 10.8643 26.8001C10.8643 20.5138 10.8643 14.2275 10.8643 8.02614C10.8643 7.68634 10.9493 7.43152 11.0343 7.09171C11.1194 6.92179 11.2895 6.75191 11.4596 6.58203C15.1167 10.2349 18.6888 13.8877 22.2609 17.5405C18.6038 20.9385 15.0317 24.5064 11.3745 28.1593Z" fill="white"/>
<path d="M25.8329 13.8027C24.8123 14.8222 23.7066 15.8415 22.6861 16.9459C19.2841 13.4629 15.797 9.97999 12.395 6.49705C12.395 6.49705 12.395 6.41211 12.4801 6.41211C16.9027 8.87564 21.3252 11.3392 25.8329 13.8027Z" fill="white"/>
<path d="M12.395 28.1588C15.797 24.7608 19.2841 21.3628 22.6861 17.9648C23.6216 18.8993 24.6422 19.8337 25.7479 20.8531C21.3252 23.3167 16.9027 25.7802 12.4801 28.1588H12.395Z" fill="white"/>
<path d="M26.3437 20.5138C25.238 19.4944 24.2175 18.475 23.1118 17.4556C24.2175 16.3513 25.3231 15.2469 26.4287 14.1426C26.7689 14.3125 27.1091 14.4824 27.4493 14.7372C28.2998 15.2469 29.2354 15.6717 30.0859 16.1814C30.3411 16.2663 30.5111 16.4362 30.6812 16.691C31.0214 17.1158 31.0214 17.5406 30.6812 17.9653C30.5111 18.1352 30.3411 18.3051 30.0859 18.3901C28.8952 19.1546 27.6195 19.8342 26.3437 20.5138Z" fill="white"/>
</g>
<defs>
<clipPath id="clip0_34_10586">
<rect width="120.99" height="35.5146" fill="white"/>
</clipPath>
</defs>
</svg>
