<svg width="383" height="245" viewBox="0 0 383 245" fill="none" xmlns="http://www.w3.org/2000/svg">
<path d="M157.201 107.586H164.198L178.969 124.077L171.972 131.537H157.201V107.586Z" fill="url(#paint0_radial_212_1622)"/>
<path d="M204.236 133.893L191.797 168.838L158.756 133.893H204.236Z" fill="url(#paint1_radial_212_1622)"/>
<path d="M204.624 131.537V99.7335L175.47 131.537H204.624Z" fill="url(#paint2_radial_212_1622)"/>
<path d="M155.257 115.832V109.157L148.26 115.832H155.257Z" fill="url(#paint3_radial_212_1622)"/>
<path d="M236.887 103.664L225.226 115.047L241.552 105.625L236.887 103.664Z" fill="url(#paint4_radial_212_1622)"/>
<path d="M206.568 98.9482V130.36L238.831 98.9482L206.568 98.9482Z" fill="url(#paint5_radial_212_1622)"/>
<path d="M204.624 188.078V139.39L189.853 179.44L204.624 188.078Z" fill="url(#paint6_radial_212_1622)"/>
<path d="M0.122559 179.429L3.47763 162.506L21.3324 166.118L23.2069 156.663L5.35206 153.052L8.72289 136.049L61.1861 146.662L57.8153 163.664L38.3874 159.734L36.5129 169.188L55.9408 173.118L52.5858 190.041L0.122559 179.429ZM48.278 178.758L28.3782 174.732L33.0091 151.374L52.909 155.399L53.3185 153.334L13.4402 145.267L13.0306 147.333L31.1214 150.992L26.4904 174.35L8.39969 170.691L7.99015 172.757L47.8685 180.823L48.278 178.758Z" fill="#D9D9D9"/>
<path d="M0.122559 179.429L3.47763 162.506L21.3324 166.118L23.2069 156.663L5.35206 153.052L8.72289 136.049L61.1861 146.662L57.8153 163.664L38.3874 159.734L36.5129 169.188L55.9408 173.118L52.5858 190.041L0.122559 179.429ZM48.278 178.758L28.3782 174.732L33.0091 151.374L52.909 155.399L53.3185 153.334L13.4402 145.267L13.0306 147.333L31.1214 150.992L26.4904 174.35L8.39969 170.691L7.99015 172.757L47.8685 180.823L48.278 178.758Z" fill="url(#paint7_radial_212_1622)"/>
<path d="M30.3315 92.2358L37.5602 81.5233L93.2023 95.0227L83.7146 109.083L78.7436 107.818L69.6174 121.342L72.6005 125.554L63.1129 139.614L30.3315 92.2358ZM66.4698 104.859L56.6814 102.532L62.4036 110.885L66.4698 104.859ZM64.5418 125.987L62.086 122.433L76.9952 100.338L81.1678 101.348L82.4328 99.4733L40.107 89.2582L38.3902 91.8025L63.2768 127.862L64.5418 125.987ZM40.8394 91.6256L74.9977 99.8457L60.9018 120.735L40.8394 91.6256Z" fill="#D9D9D9"/>
<path d="M30.3315 92.2358L37.5602 81.5233L93.2023 95.0227L83.7146 109.083L78.7436 107.818L69.6174 121.342L72.6005 125.554L63.1129 139.614L30.3315 92.2358ZM66.4698 104.859L56.6814 102.532L62.4036 110.885L66.4698 104.859ZM64.5418 125.987L62.086 122.433L76.9952 100.338L81.1678 101.348L82.4328 99.4733L40.107 89.2582L38.3902 91.8025L63.2768 127.862L64.5418 125.987ZM40.8394 91.6256L74.9977 99.8457L60.9018 120.735L40.8394 91.6256Z" fill="url(#paint8_radial_212_1622)"/>
<path d="M69.6423 45.4664L83.938 36.0139L93.9111 51.403L101.898 46.122L91.9248 30.7329L106.288 21.236L135.592 66.4542L121.229 75.9511L110.377 59.2062L102.39 64.4872L113.242 81.2321L98.9466 90.6846L69.6423 45.4664ZM103.888 79.6695L92.773 62.5178L112.505 49.4707L123.621 66.6224L125.366 65.4686L103.091 31.0973L101.346 32.2511L111.451 47.8436L91.7186 60.8908L81.6136 45.2983L79.8686 46.4521L102.143 80.8234L103.888 79.6695Z" fill="#D9D9D9"/>
<path d="M69.6423 45.4664L83.938 36.0139L93.9111 51.403L101.898 46.122L91.9248 30.7329L106.288 21.236L135.592 66.4542L121.229 75.9511L110.377 59.2062L102.39 64.4872L113.242 81.2321L98.9466 90.6846L69.6423 45.4664ZM103.888 79.6695L92.773 62.5178L112.505 49.4707L123.621 66.6224L125.366 65.4686L103.091 31.0973L101.346 32.2511L111.451 47.8436L91.7186 60.8908L81.6136 45.2983L79.8686 46.4521L102.143 80.8234L103.888 79.6695Z" fill="url(#paint9_radial_212_1622)"/>
<path d="M150.512 6.34156L163.074 3.68381L193.907 52.3783L177.419 55.8666L174.705 51.4737L158.845 54.8291L158.105 59.9529L141.617 63.4412L150.512 6.34156ZM167.891 40.7459L162.434 32.2146L160.824 42.2409L167.891 40.7459ZM152 54.6217L152.669 50.3408L178.579 44.8592L180.893 48.5089L183.091 48.0438L159.6 11.0416L156.617 11.6728L149.801 55.0868L152 54.6217ZM158.503 13.2605L177.477 43.1054L152.981 48.288L158.503 13.2605Z" fill="#D9D9D9"/>
<path d="M150.512 6.34156L163.074 3.68381L193.907 52.3783L177.419 55.8666L174.705 51.4737L158.845 54.8291L158.105 59.9529L141.617 63.4412L150.512 6.34156ZM167.891 40.7459L162.434 32.2146L160.824 42.2409L167.891 40.7459ZM152 54.6217L152.669 50.3408L178.579 44.8592L180.893 48.5089L183.091 48.0438L159.6 11.0416L156.617 11.6728L149.801 55.0868L152 54.6217ZM158.503 13.2605L177.477 43.1054L152.981 48.288L158.503 13.2605Z" fill="url(#paint10_radial_212_1622)"/>
<path d="M216.797 2.54441L222.644 27.0618L234.84 5.02329L253.36 7.5677L225.483 58.2803L211.732 56.3911L198.277 0L216.797 2.54441ZM220.307 51.0274L241.527 12.4837L239.301 12.178L219.93 47.214L210.607 8.23577L208.381 7.93L218.638 50.7981L220.307 51.0274Z" fill="#D9D9D9"/>
<path d="M216.797 2.54441L222.644 27.0618L234.84 5.02329L253.36 7.5677L225.483 58.2803L211.732 56.3911L198.277 0L216.797 2.54441ZM220.307 51.0274L241.527 12.4837L239.301 12.178L219.93 47.214L210.607 8.23577L208.381 7.93L218.638 50.7981L220.307 51.0274Z" fill="url(#paint11_radial_212_1622)"/>
<path d="M281.254 21.7608L292.628 27.7669L285.826 85.1593L270.898 77.2764L271.563 72.1421L257.203 64.5594L253.41 68.042L238.481 60.159L281.254 21.7608ZM273.045 59.4843L274.194 49.3937L266.647 56.1059L273.045 59.4843ZM252.046 60.0076L255.255 57.1305L278.715 69.518L278.207 73.8216L280.198 74.8727L285.319 31.2216L282.618 29.7952L250.056 58.9566L252.046 60.0076ZM283.076 32.2318L278.967 67.4568L256.787 55.745L283.076 32.2318Z" fill="#D9D9D9"/>
<path d="M281.254 21.7608L292.628 27.7669L285.826 85.1593L270.898 77.2764L271.563 72.1421L257.203 64.5594L253.41 68.042L238.481 60.159L281.254 21.7608ZM273.045 59.4843L274.194 49.3937L266.647 56.1059L273.045 59.4843ZM252.046 60.0076L255.255 57.1305L278.715 69.518L278.207 73.8216L280.198 74.8727L285.319 31.2216L282.618 29.7952L250.056 58.9566L252.046 60.0076ZM283.076 32.2318L278.967 67.4568L256.787 55.745L283.076 32.2318Z" fill="url(#paint12_radial_212_1622)"/>
<path d="M331.951 57.8688L340.499 69.2191L332.604 92.9984L357.35 91.5971L365.898 102.947L323.313 135.667L312.969 121.931L328.292 110.158L308.918 111.198L315.033 92.5517L299.71 104.325L289.366 90.5886L331.951 57.8688ZM300.593 94.7899L329.898 72.2736L319.963 102.711L351.606 101.101L322.301 123.617L323.564 125.294L355.934 100.423L354.671 98.746L322.836 100.504L332.963 69.919L331.7 68.2423L299.33 93.1132L300.593 94.7899Z" fill="#D9D9D9"/>
<path d="M331.951 57.8688L340.499 69.2191L332.604 92.9984L357.35 91.5971L365.898 102.947L323.313 135.667L312.969 121.931L328.292 110.158L308.918 111.198L315.033 92.5517L299.71 104.325L289.366 90.5886L331.951 57.8688ZM300.593 94.7899L329.898 72.2736L319.963 102.711L351.606 101.101L322.301 123.617L323.564 125.294L355.934 100.423L354.671 98.746L322.836 100.504L332.963 69.919L331.7 68.2423L299.33 93.1132L300.593 94.7899Z" fill="url(#paint13_radial_212_1622)"/>
<path d="M364.436 164.162C365.126 163.063 365.565 161.759 365.755 160.25C365.997 158.732 366.006 157.28 365.782 155.894C365.532 154.348 365.014 152.983 364.226 151.799C363.492 150.607 362.546 149.613 361.388 148.819C360.291 148.069 359.014 147.541 357.555 147.234C356.097 146.928 354.576 146.905 352.992 147.166C351.409 147.427 349.979 147.964 348.701 148.777C347.424 149.589 346.365 150.585 345.526 151.763C344.74 152.933 344.164 154.232 343.799 155.66C343.495 157.133 343.468 158.643 343.718 160.189C344.011 162.002 344.648 163.593 345.628 164.964C346.661 166.326 347.923 167.432 349.415 168.281L348.64 163.482L359.723 161.655L363.045 182.207L345.469 185.105C343.107 184.236 340.891 183.096 338.821 181.686C336.803 180.267 334.989 178.596 333.378 176.672C331.775 174.802 330.432 172.697 329.35 170.358C328.267 168.019 327.515 165.543 327.093 162.931C326.472 159.092 326.599 155.349 327.473 151.702C328.346 148.056 329.816 144.748 331.883 141.78C333.959 138.865 336.565 136.383 339.702 134.333C342.847 132.337 346.373 131.016 350.278 130.372C354.078 129.746 357.779 129.847 361.381 130.676C364.983 131.505 368.218 132.915 371.087 134.905C374.016 136.939 376.461 139.492 378.42 142.562C380.441 145.677 381.761 149.154 382.382 152.992C382.864 155.978 382.992 158.611 382.765 160.893C382.537 163.174 382.175 165.122 381.677 166.737C381.117 168.636 380.43 170.254 379.617 171.592L364.436 164.162ZM374.778 163.277C374.983 162.532 375.122 161.715 375.195 160.827C375.286 160.046 375.328 159.136 375.323 158.097C375.318 157.058 375.216 155.925 375.018 154.699C374.561 151.874 373.633 149.317 372.234 147.03C370.835 144.743 369.091 142.842 367.004 141.325C364.969 139.8 362.625 138.708 359.972 138.051C357.328 137.447 354.502 137.393 351.493 137.889C348.485 138.386 345.826 139.371 343.518 140.847C341.21 142.322 339.309 144.14 337.816 146.302C336.376 148.455 335.353 150.841 334.746 153.459C334.149 156.13 334.078 158.878 334.535 161.703C335.129 165.382 336.512 168.575 338.684 171.282C340.908 173.98 343.596 176.027 346.747 177.423L357.119 175.713L355.749 167.236L353.849 167.549L354.883 173.947L346.966 175.252C344.271 174 341.995 172.159 340.139 169.728C338.292 167.351 337.11 164.563 336.593 161.364C336.179 158.805 336.214 156.336 336.697 153.958C337.24 151.624 338.166 149.474 339.474 147.507C340.843 145.584 342.558 143.96 344.62 142.635C346.734 141.301 349.137 140.413 351.829 139.969C354.521 139.525 357.048 139.573 359.412 140.114C361.836 140.699 363.97 141.661 365.811 142.999C367.715 144.382 369.265 146.097 370.463 148.143C371.713 150.181 372.546 152.48 372.959 155.039C373.114 155.998 373.182 156.918 373.161 157.797C373.141 158.676 373.103 159.448 373.048 160.114C372.957 160.895 372.858 161.623 372.751 162.298L374.778 163.277Z" fill="#D9D9D9"/>
<path d="M364.436 164.162C365.126 163.063 365.565 161.759 365.755 160.25C365.997 158.732 366.006 157.28 365.782 155.894C365.532 154.348 365.014 152.983 364.226 151.799C363.492 150.607 362.546 149.613 361.388 148.819C360.291 148.069 359.014 147.541 357.555 147.234C356.097 146.928 354.576 146.905 352.992 147.166C351.409 147.427 349.979 147.964 348.701 148.777C347.424 149.589 346.365 150.585 345.526 151.763C344.74 152.933 344.164 154.232 343.799 155.66C343.495 157.133 343.468 158.643 343.718 160.189C344.011 162.002 344.648 163.593 345.628 164.964C346.661 166.326 347.923 167.432 349.415 168.281L348.64 163.482L359.723 161.655L363.045 182.207L345.469 185.105C343.107 184.236 340.891 183.096 338.821 181.686C336.803 180.267 334.989 178.596 333.378 176.672C331.775 174.802 330.432 172.697 329.35 170.358C328.267 168.019 327.515 165.543 327.093 162.931C326.472 159.092 326.599 155.349 327.473 151.702C328.346 148.056 329.816 144.748 331.883 141.78C333.959 138.865 336.565 136.383 339.702 134.333C342.847 132.337 346.373 131.016 350.278 130.372C354.078 129.746 357.779 129.847 361.381 130.676C364.983 131.505 368.218 132.915 371.087 134.905C374.016 136.939 376.461 139.492 378.42 142.562C380.441 145.677 381.761 149.154 382.382 152.992C382.864 155.978 382.992 158.611 382.765 160.893C382.537 163.174 382.175 165.122 381.677 166.737C381.117 168.636 380.43 170.254 379.617 171.592L364.436 164.162ZM374.778 163.277C374.983 162.532 375.122 161.715 375.195 160.827C375.286 160.046 375.328 159.136 375.323 158.097C375.318 157.058 375.216 155.925 375.018 154.699C374.561 151.874 373.633 149.317 372.234 147.03C370.835 144.743 369.091 142.842 367.004 141.325C364.969 139.8 362.625 138.708 359.972 138.051C357.328 137.447 354.502 137.393 351.493 137.889C348.485 138.386 345.826 139.371 343.518 140.847C341.21 142.322 339.309 144.14 337.816 146.302C336.376 148.455 335.353 150.841 334.746 153.459C334.149 156.13 334.078 158.878 334.535 161.703C335.129 165.382 336.512 168.575 338.684 171.282C340.908 173.98 343.596 176.027 346.747 177.423L357.119 175.713L355.749 167.236L353.849 167.549L354.883 173.947L346.966 175.252C344.271 174 341.995 172.159 340.139 169.728C338.292 167.351 337.11 164.563 336.593 161.364C336.179 158.805 336.214 156.336 336.697 153.958C337.24 151.624 338.166 149.474 339.474 147.507C340.843 145.584 342.558 143.96 344.62 142.635C346.734 141.301 349.137 140.413 351.829 139.969C354.521 139.525 357.048 139.573 359.412 140.114C361.836 140.699 363.97 141.661 365.811 142.999C367.715 144.382 369.265 146.097 370.463 148.143C371.713 150.181 372.546 152.48 372.959 155.039C373.114 155.998 373.182 156.918 373.161 157.797C373.141 158.676 373.103 159.448 373.048 160.114C372.957 160.895 372.858 161.623 372.751 162.298L374.778 163.277Z" fill="url(#paint14_radial_212_1622)"/>
<path d="M29.493 234.668V215.856H36.6951C38.218 215.856 39.4228 216.134 40.3096 216.689C41.1965 217.236 41.828 217.943 42.2042 218.812C42.5805 219.672 42.7686 220.568 42.7686 221.5C42.7686 222.144 42.6566 222.798 42.4327 223.461C42.2177 224.115 41.8683 224.72 41.3846 225.275C40.9009 225.831 40.2738 226.279 39.5034 226.619C38.7331 226.95 37.797 227.116 36.6951 227.116H31.831V234.668H29.493ZM31.831 224.939H36.8564C37.7432 224.939 38.4464 224.765 38.966 224.415C39.4945 224.066 39.8707 223.627 40.0947 223.098C40.3186 222.57 40.4306 222.037 40.4306 221.5C40.4306 221.007 40.3276 220.492 40.1215 219.954C39.9245 219.417 39.5661 218.964 39.0466 218.597C38.527 218.221 37.797 218.033 36.8564 218.033H31.831V224.939ZM57.6266 234.99C56.1485 234.99 54.8989 234.708 53.8777 234.144C52.8565 233.57 52.0369 232.813 51.4188 231.873C50.8007 230.923 50.3483 229.875 50.0616 228.729C49.7839 227.582 49.6451 226.426 49.6451 225.262C49.6451 224.097 49.7839 222.942 50.0616 221.795C50.3483 220.649 50.8007 219.605 51.4188 218.664C52.0369 217.715 52.8565 216.958 53.8777 216.394C54.8989 215.82 56.1485 215.534 57.6266 215.534C59.1136 215.534 60.3677 215.82 61.3889 216.394C62.4101 216.958 63.2297 217.715 63.8478 218.664C64.4659 219.605 64.9138 220.649 65.1915 221.795C65.4692 222.942 65.6081 224.097 65.6081 225.262C65.6081 226.426 65.4692 227.582 65.1915 228.729C64.9138 229.875 64.4659 230.923 63.8478 231.873C63.2297 232.813 62.4101 233.57 61.3889 234.144C60.3677 234.708 59.1136 234.99 57.6266 234.99ZM57.6266 232.786C58.6657 232.786 59.5391 232.558 60.2468 232.101C60.9544 231.644 61.5233 231.044 61.9532 230.301C62.3922 229.548 62.7057 228.733 62.8938 227.855C63.0909 226.968 63.1894 226.104 63.1894 225.262C63.1894 224.339 63.0909 223.434 62.8938 222.548C62.7057 221.652 62.3922 220.841 61.9532 220.116C61.5233 219.381 60.9544 218.799 60.2468 218.369C59.5391 217.93 58.6657 217.71 57.6266 217.71C56.5964 217.71 55.7275 217.939 55.0198 218.396C54.3122 218.852 53.7389 219.457 53.2999 220.21C52.8699 220.953 52.5564 221.768 52.3593 222.655C52.1623 223.542 52.0637 224.411 52.0637 225.262C52.0637 226.184 52.1623 227.094 52.3593 227.989C52.5564 228.876 52.8699 229.683 53.2999 230.408C53.7389 231.134 54.3122 231.711 55.0198 232.141C55.7275 232.571 56.5964 232.786 57.6266 232.786ZM75.8522 234.668L72.0092 215.856H74.4547L76.7659 228.11C76.8465 228.522 76.9137 228.89 76.9674 229.212C77.0301 229.535 77.0794 229.839 77.1152 230.126C77.169 229.839 77.2407 229.53 77.3302 229.199C77.4198 228.867 77.5183 228.514 77.6258 228.137L80.9582 215.856H82.8125L86.1717 228.11C86.2792 228.496 86.3687 228.832 86.4404 229.118C86.5121 229.405 86.5658 229.678 86.6017 229.938C86.6464 229.678 86.6957 229.4 86.7495 229.105C86.8032 228.809 86.8704 228.469 86.951 228.084L89.504 215.856H91.8958L87.811 234.668H85.9567L82.3287 221.822C82.2212 221.446 82.1272 221.11 82.0466 220.814C81.9659 220.519 81.8988 220.236 81.845 219.968C81.7913 220.236 81.7286 220.514 81.6569 220.801C81.5852 221.087 81.4957 221.428 81.3882 221.822L77.7602 234.668H75.8522ZM99.6375 234.668V215.856H110.817V218.06H101.975V223.838H107.807V226.041H101.975V232.437H111.408V234.668H99.6375ZM119.572 234.668V215.856H126.989C128.494 215.856 129.677 216.116 130.537 216.635C131.406 217.155 132.019 217.827 132.378 218.651C132.745 219.466 132.929 220.317 132.929 221.204C132.929 221.947 132.781 222.682 132.485 223.408C132.198 224.124 131.733 224.756 131.088 225.302C130.443 225.849 129.596 226.229 128.548 226.444L132.579 234.668H129.946L126.076 226.606H121.91V234.668H119.572ZM121.91 224.429H127.043C127.921 224.429 128.615 224.272 129.126 223.958C129.645 223.645 130.013 223.246 130.228 222.763C130.452 222.279 130.564 221.777 130.564 221.258C130.564 220.792 130.461 220.313 130.255 219.82C130.057 219.318 129.704 218.897 129.193 218.557C128.682 218.207 127.966 218.033 127.043 218.033H121.91V224.429ZM139.53 234.668L146.195 215.856H148.371L155.036 234.668H152.644L151.032 230.072H143.561L141.975 234.668H139.53ZM144.26 228.003H150.306L147.888 221.043C147.825 220.863 147.753 220.657 147.673 220.425C147.601 220.183 147.529 219.95 147.458 219.726C147.386 219.493 147.332 219.296 147.296 219.135C147.252 219.296 147.193 219.493 147.122 219.726C147.059 219.95 146.987 220.183 146.907 220.425C146.835 220.657 146.768 220.863 146.705 221.043L144.26 228.003ZM162.539 234.668V215.856H164.877V234.668H162.539ZM179.663 234.99C178.57 234.99 177.58 234.811 176.693 234.453C175.806 234.085 175.054 233.588 174.436 232.961C173.827 232.325 173.383 231.604 173.105 230.798L175.309 229.992C175.685 230.825 176.254 231.501 177.016 232.021C177.786 232.531 178.686 232.786 179.716 232.786C180.845 232.786 181.745 232.518 182.417 231.98C183.089 231.434 183.425 230.646 183.425 229.615C183.425 228.89 183.223 228.281 182.82 227.788C182.417 227.295 181.893 226.883 181.248 226.552C180.603 226.211 179.913 225.907 179.179 225.638C178.525 225.396 177.871 225.127 177.217 224.832C176.563 224.536 175.968 224.187 175.43 223.784C174.902 223.372 174.476 222.875 174.154 222.292C173.831 221.701 173.67 220.998 173.67 220.183C173.67 219.341 173.898 218.57 174.355 217.872C174.812 217.164 175.47 216.6 176.33 216.179C177.19 215.749 178.229 215.534 179.448 215.534C180.442 215.534 181.315 215.681 182.068 215.977C182.829 216.264 183.452 216.662 183.936 217.173C184.428 217.674 184.769 218.248 184.957 218.893L182.807 219.618C182.583 219.09 182.171 218.642 181.571 218.275C180.979 217.898 180.218 217.71 179.286 217.71C178.292 217.71 177.508 217.93 176.935 218.369C176.371 218.808 176.088 219.412 176.088 220.183C176.088 220.765 176.277 221.253 176.653 221.647C177.038 222.032 177.54 222.368 178.158 222.655C178.776 222.942 179.439 223.219 180.146 223.488C180.809 223.739 181.472 224.026 182.135 224.348C182.807 224.662 183.42 225.047 183.976 225.504C184.54 225.961 184.993 226.52 185.333 227.183C185.673 227.837 185.844 228.63 185.844 229.562C185.844 230.717 185.575 231.698 185.037 232.504C184.5 233.31 183.765 233.929 182.834 234.359C181.902 234.78 180.845 234.99 179.663 234.99ZM194.299 234.668V215.856H196.637V234.668H194.299ZM205.836 234.668V215.856H208.201L216.531 229.239C216.666 229.463 216.796 229.687 216.921 229.911C217.047 230.135 217.176 230.377 217.311 230.637C217.302 230.404 217.288 230.171 217.27 229.938C217.262 229.705 217.257 229.481 217.257 229.266V215.856H219.595V234.668H217.338L208.872 221.231C208.756 221.025 208.631 220.81 208.496 220.586C208.371 220.362 208.245 220.138 208.12 219.914C208.138 220.111 208.151 220.326 208.16 220.559C208.169 220.792 208.174 221.016 208.174 221.231V234.668H205.836ZM236.069 234.99C234.645 234.99 233.426 234.721 232.414 234.184C231.402 233.637 230.578 232.903 229.942 231.98C229.306 231.049 228.835 230.005 228.531 228.849C228.235 227.685 228.087 226.489 228.087 225.262C228.087 224.044 228.244 222.857 228.558 221.701C228.88 220.545 229.364 219.506 230.009 218.584C230.663 217.652 231.491 216.913 232.495 216.367C233.498 215.811 234.689 215.534 236.069 215.534C237.233 215.534 238.201 215.69 238.971 216.004C239.751 216.317 240.391 216.729 240.893 217.24C241.394 217.742 241.82 218.275 242.169 218.839L240.073 220.048C239.643 219.43 239.128 218.893 238.528 218.436C237.928 217.97 237.108 217.737 236.069 217.737C235.021 217.737 234.138 217.966 233.422 218.422C232.714 218.87 232.145 219.466 231.715 220.21C231.285 220.953 230.976 221.768 230.788 222.655C230.6 223.533 230.506 224.402 230.506 225.262C230.506 226.229 230.613 227.161 230.828 228.057C231.043 228.952 231.375 229.754 231.823 230.462C232.271 231.17 232.844 231.729 233.543 232.141C234.25 232.554 235.092 232.76 236.069 232.76C236.92 232.76 237.659 232.576 238.286 232.209C238.922 231.841 239.415 231.335 239.764 230.69C240.113 230.036 240.288 229.284 240.288 228.433V227.68H236.875V225.531H242.733V227.788C242.733 229.347 242.438 230.663 241.847 231.738C241.264 232.804 240.467 233.615 239.455 234.17C238.452 234.717 237.323 234.99 236.069 234.99ZM265.33 234.99C263.977 234.99 262.853 234.699 261.957 234.117C261.061 233.525 260.376 232.688 259.901 231.604L261.836 230.61C262.203 231.335 262.638 231.882 263.139 232.249C263.65 232.607 264.389 232.786 265.357 232.786C265.804 232.786 266.239 232.728 266.66 232.612C267.081 232.486 267.462 232.271 267.802 231.967C268.151 231.662 268.425 231.237 268.622 230.69C268.828 230.135 268.931 229.427 268.931 228.567V215.856H271.269V228.487C271.269 229.786 271.085 230.856 270.718 231.698C270.359 232.54 269.88 233.203 269.28 233.687C268.689 234.161 268.048 234.497 267.359 234.694C266.669 234.892 265.993 234.99 265.33 234.99ZM280.484 234.668V215.856H291.663V218.06H282.822V223.838H288.653V226.041H282.822V232.437H292.254V234.668H280.484ZM305.822 234.99C304.729 234.99 303.739 234.811 302.852 234.453C301.966 234.085 301.213 233.588 300.595 232.961C299.986 232.325 299.542 231.604 299.265 230.798L301.468 229.992C301.845 230.825 302.413 231.501 303.175 232.021C303.945 232.531 304.846 232.786 305.876 232.786C307.004 232.786 307.905 232.518 308.576 231.98C309.248 231.434 309.584 230.646 309.584 229.615C309.584 228.89 309.383 228.281 308.98 227.788C308.576 227.295 308.052 226.883 307.407 226.552C306.763 226.211 306.073 225.907 305.338 225.638C304.684 225.396 304.03 225.127 303.376 224.832C302.723 224.536 302.127 224.187 301.589 223.784C301.061 223.372 300.635 222.875 300.313 222.292C299.99 221.701 299.829 220.998 299.829 220.183C299.829 219.341 300.058 218.57 300.514 217.872C300.971 217.164 301.63 216.6 302.49 216.179C303.35 215.749 304.389 215.534 305.607 215.534C306.601 215.534 307.475 215.681 308.227 215.977C308.989 216.264 309.611 216.662 310.095 217.173C310.588 217.674 310.928 218.248 311.116 218.893L308.966 219.618C308.742 219.09 308.33 218.642 307.73 218.275C307.139 217.898 306.377 217.71 305.446 217.71C304.451 217.71 303.668 217.93 303.094 218.369C302.53 218.808 302.248 219.412 302.248 220.183C302.248 220.765 302.436 221.253 302.812 221.647C303.197 222.032 303.699 222.368 304.317 222.655C304.935 222.942 305.598 223.219 306.306 223.488C306.969 223.739 307.631 224.026 308.294 224.348C308.966 224.662 309.58 225.047 310.135 225.504C310.7 225.961 311.152 226.52 311.492 227.183C311.833 227.837 312.003 228.63 312.003 229.562C312.003 230.717 311.734 231.698 311.197 232.504C310.659 233.31 309.925 233.929 308.993 234.359C308.061 234.78 307.004 234.99 305.822 234.99ZM327.069 234.99C325.528 234.99 324.261 234.703 323.267 234.13C322.272 233.557 321.533 232.719 321.049 231.617C320.566 230.516 320.324 229.176 320.324 227.6V215.856H322.662V227.6C322.662 229.23 323.002 230.502 323.683 231.416C324.373 232.33 325.502 232.786 327.069 232.786C328.063 232.786 328.888 232.598 329.542 232.222C330.204 231.837 330.697 231.264 331.02 230.502C331.342 229.732 331.503 228.764 331.503 227.6V215.856H333.841V227.6C333.841 228.818 333.698 229.889 333.411 230.811C333.125 231.734 332.699 232.509 332.135 233.136C331.571 233.754 330.863 234.22 330.012 234.533C329.17 234.838 328.189 234.99 327.069 234.99ZM348.5 234.99C347.407 234.99 346.417 234.811 345.53 234.453C344.643 234.085 343.891 233.588 343.273 232.961C342.664 232.325 342.22 231.604 341.942 230.798L344.146 229.992C344.522 230.825 345.091 231.501 345.853 232.021C346.623 232.531 347.523 232.786 348.553 232.786C349.682 232.786 350.582 232.518 351.254 231.98C351.926 231.434 352.262 230.646 352.262 229.615C352.262 228.89 352.06 228.281 351.657 227.788C351.254 227.295 350.73 226.883 350.085 226.552C349.44 226.211 348.75 225.907 348.016 225.638C347.362 225.396 346.708 225.127 346.054 224.832C345.4 224.536 344.805 224.187 344.267 223.784C343.739 223.372 343.313 222.875 342.991 222.292C342.668 221.701 342.507 220.998 342.507 220.183C342.507 219.341 342.735 218.57 343.192 217.872C343.649 217.164 344.307 216.6 345.167 216.179C346.027 215.749 347.066 215.534 348.285 215.534C349.279 215.534 350.152 215.681 350.905 215.977C351.666 216.264 352.289 216.662 352.773 217.173C353.265 217.674 353.606 218.248 353.794 218.893L351.644 219.618C351.42 219.09 351.008 218.642 350.408 218.275C349.816 217.898 349.055 217.71 348.123 217.71C347.129 217.71 346.345 217.93 345.772 218.369C345.208 218.808 344.925 219.412 344.925 220.183C344.925 220.765 345.114 221.253 345.49 221.647C345.875 222.032 346.377 222.368 346.995 222.655C347.613 222.942 348.276 223.219 348.983 223.488C349.646 223.739 350.309 224.026 350.972 224.348C351.644 224.662 352.257 225.047 352.813 225.504C353.377 225.961 353.83 226.52 354.17 227.183C354.51 227.837 354.681 228.63 354.681 229.562C354.681 230.717 354.412 231.698 353.874 232.504C353.337 233.31 352.602 233.929 351.671 234.359C350.739 234.78 349.682 234.99 348.5 234.99Z" fill="white"/>
<path d="M29.493 234.668V215.856H36.6951C38.218 215.856 39.4228 216.134 40.3096 216.689C41.1965 217.236 41.828 217.943 42.2042 218.812C42.5805 219.672 42.7686 220.568 42.7686 221.5C42.7686 222.144 42.6566 222.798 42.4327 223.461C42.2177 224.115 41.8683 224.72 41.3846 225.275C40.9009 225.831 40.2738 226.279 39.5034 226.619C38.7331 226.95 37.797 227.116 36.6951 227.116H31.831V234.668H29.493ZM31.831 224.939H36.8564C37.7432 224.939 38.4464 224.765 38.966 224.415C39.4945 224.066 39.8707 223.627 40.0947 223.098C40.3186 222.57 40.4306 222.037 40.4306 221.5C40.4306 221.007 40.3276 220.492 40.1215 219.954C39.9245 219.417 39.5661 218.964 39.0466 218.597C38.527 218.221 37.797 218.033 36.8564 218.033H31.831V224.939ZM57.6266 234.99C56.1485 234.99 54.8989 234.708 53.8777 234.144C52.8565 233.57 52.0369 232.813 51.4188 231.873C50.8007 230.923 50.3483 229.875 50.0616 228.729C49.7839 227.582 49.6451 226.426 49.6451 225.262C49.6451 224.097 49.7839 222.942 50.0616 221.795C50.3483 220.649 50.8007 219.605 51.4188 218.664C52.0369 217.715 52.8565 216.958 53.8777 216.394C54.8989 215.82 56.1485 215.534 57.6266 215.534C59.1136 215.534 60.3677 215.82 61.3889 216.394C62.4101 216.958 63.2297 217.715 63.8478 218.664C64.4659 219.605 64.9138 220.649 65.1915 221.795C65.4692 222.942 65.6081 224.097 65.6081 225.262C65.6081 226.426 65.4692 227.582 65.1915 228.729C64.9138 229.875 64.4659 230.923 63.8478 231.873C63.2297 232.813 62.4101 233.57 61.3889 234.144C60.3677 234.708 59.1136 234.99 57.6266 234.99ZM57.6266 232.786C58.6657 232.786 59.5391 232.558 60.2468 232.101C60.9544 231.644 61.5233 231.044 61.9532 230.301C62.3922 229.548 62.7057 228.733 62.8938 227.855C63.0909 226.968 63.1894 226.104 63.1894 225.262C63.1894 224.339 63.0909 223.434 62.8938 222.548C62.7057 221.652 62.3922 220.841 61.9532 220.116C61.5233 219.381 60.9544 218.799 60.2468 218.369C59.5391 217.93 58.6657 217.71 57.6266 217.71C56.5964 217.71 55.7275 217.939 55.0198 218.396C54.3122 218.852 53.7389 219.457 53.2999 220.21C52.8699 220.953 52.5564 221.768 52.3593 222.655C52.1623 223.542 52.0637 224.411 52.0637 225.262C52.0637 226.184 52.1623 227.094 52.3593 227.989C52.5564 228.876 52.8699 229.683 53.2999 230.408C53.7389 231.134 54.3122 231.711 55.0198 232.141C55.7275 232.571 56.5964 232.786 57.6266 232.786ZM75.8522 234.668L72.0092 215.856H74.4547L76.7659 228.11C76.8465 228.522 76.9137 228.89 76.9674 229.212C77.0301 229.535 77.0794 229.839 77.1152 230.126C77.169 229.839 77.2407 229.53 77.3302 229.199C77.4198 228.867 77.5183 228.514 77.6258 228.137L80.9582 215.856H82.8125L86.1717 228.11C86.2792 228.496 86.3687 228.832 86.4404 229.118C86.5121 229.405 86.5658 229.678 86.6017 229.938C86.6464 229.678 86.6957 229.4 86.7495 229.105C86.8032 228.809 86.8704 228.469 86.951 228.084L89.504 215.856H91.8958L87.811 234.668H85.9567L82.3287 221.822C82.2212 221.446 82.1272 221.11 82.0466 220.814C81.9659 220.519 81.8988 220.236 81.845 219.968C81.7913 220.236 81.7286 220.514 81.6569 220.801C81.5852 221.087 81.4957 221.428 81.3882 221.822L77.7602 234.668H75.8522ZM99.6375 234.668V215.856H110.817V218.06H101.975V223.838H107.807V226.041H101.975V232.437H111.408V234.668H99.6375ZM119.572 234.668V215.856H126.989C128.494 215.856 129.677 216.116 130.537 216.635C131.406 217.155 132.019 217.827 132.378 218.651C132.745 219.466 132.929 220.317 132.929 221.204C132.929 221.947 132.781 222.682 132.485 223.408C132.198 224.124 131.733 224.756 131.088 225.302C130.443 225.849 129.596 226.229 128.548 226.444L132.579 234.668H129.946L126.076 226.606H121.91V234.668H119.572ZM121.91 224.429H127.043C127.921 224.429 128.615 224.272 129.126 223.958C129.645 223.645 130.013 223.246 130.228 222.763C130.452 222.279 130.564 221.777 130.564 221.258C130.564 220.792 130.461 220.313 130.255 219.82C130.057 219.318 129.704 218.897 129.193 218.557C128.682 218.207 127.966 218.033 127.043 218.033H121.91V224.429ZM139.53 234.668L146.195 215.856H148.371L155.036 234.668H152.644L151.032 230.072H143.561L141.975 234.668H139.53ZM144.26 228.003H150.306L147.888 221.043C147.825 220.863 147.753 220.657 147.673 220.425C147.601 220.183 147.529 219.95 147.458 219.726C147.386 219.493 147.332 219.296 147.296 219.135C147.252 219.296 147.193 219.493 147.122 219.726C147.059 219.95 146.987 220.183 146.907 220.425C146.835 220.657 146.768 220.863 146.705 221.043L144.26 228.003ZM162.539 234.668V215.856H164.877V234.668H162.539ZM179.663 234.99C178.57 234.99 177.58 234.811 176.693 234.453C175.806 234.085 175.054 233.588 174.436 232.961C173.827 232.325 173.383 231.604 173.105 230.798L175.309 229.992C175.685 230.825 176.254 231.501 177.016 232.021C177.786 232.531 178.686 232.786 179.716 232.786C180.845 232.786 181.745 232.518 182.417 231.98C183.089 231.434 183.425 230.646 183.425 229.615C183.425 228.89 183.223 228.281 182.82 227.788C182.417 227.295 181.893 226.883 181.248 226.552C180.603 226.211 179.913 225.907 179.179 225.638C178.525 225.396 177.871 225.127 177.217 224.832C176.563 224.536 175.968 224.187 175.43 223.784C174.902 223.372 174.476 222.875 174.154 222.292C173.831 221.701 173.67 220.998 173.67 220.183C173.67 219.341 173.898 218.57 174.355 217.872C174.812 217.164 175.47 216.6 176.33 216.179C177.19 215.749 178.229 215.534 179.448 215.534C180.442 215.534 181.315 215.681 182.068 215.977C182.829 216.264 183.452 216.662 183.936 217.173C184.428 217.674 184.769 218.248 184.957 218.893L182.807 219.618C182.583 219.09 182.171 218.642 181.571 218.275C180.979 217.898 180.218 217.71 179.286 217.71C178.292 217.71 177.508 217.93 176.935 218.369C176.371 218.808 176.088 219.412 176.088 220.183C176.088 220.765 176.277 221.253 176.653 221.647C177.038 222.032 177.54 222.368 178.158 222.655C178.776 222.942 179.439 223.219 180.146 223.488C180.809 223.739 181.472 224.026 182.135 224.348C182.807 224.662 183.42 225.047 183.976 225.504C184.54 225.961 184.993 226.52 185.333 227.183C185.673 227.837 185.844 228.63 185.844 229.562C185.844 230.717 185.575 231.698 185.037 232.504C184.5 233.31 183.765 233.929 182.834 234.359C181.902 234.78 180.845 234.99 179.663 234.99ZM194.299 234.668V215.856H196.637V234.668H194.299ZM205.836 234.668V215.856H208.201L216.531 229.239C216.666 229.463 216.796 229.687 216.921 229.911C217.047 230.135 217.176 230.377 217.311 230.637C217.302 230.404 217.288 230.171 217.27 229.938C217.262 229.705 217.257 229.481 217.257 229.266V215.856H219.595V234.668H217.338L208.872 221.231C208.756 221.025 208.631 220.81 208.496 220.586C208.371 220.362 208.245 220.138 208.12 219.914C208.138 220.111 208.151 220.326 208.16 220.559C208.169 220.792 208.174 221.016 208.174 221.231V234.668H205.836ZM236.069 234.99C234.645 234.99 233.426 234.721 232.414 234.184C231.402 233.637 230.578 232.903 229.942 231.98C229.306 231.049 228.835 230.005 228.531 228.849C228.235 227.685 228.087 226.489 228.087 225.262C228.087 224.044 228.244 222.857 228.558 221.701C228.88 220.545 229.364 219.506 230.009 218.584C230.663 217.652 231.491 216.913 232.495 216.367C233.498 215.811 234.689 215.534 236.069 215.534C237.233 215.534 238.201 215.69 238.971 216.004C239.751 216.317 240.391 216.729 240.893 217.24C241.394 217.742 241.82 218.275 242.169 218.839L240.073 220.048C239.643 219.43 239.128 218.893 238.528 218.436C237.928 217.97 237.108 217.737 236.069 217.737C235.021 217.737 234.138 217.966 233.422 218.422C232.714 218.87 232.145 219.466 231.715 220.21C231.285 220.953 230.976 221.768 230.788 222.655C230.6 223.533 230.506 224.402 230.506 225.262C230.506 226.229 230.613 227.161 230.828 228.057C231.043 228.952 231.375 229.754 231.823 230.462C232.271 231.17 232.844 231.729 233.543 232.141C234.25 232.554 235.092 232.76 236.069 232.76C236.92 232.76 237.659 232.576 238.286 232.209C238.922 231.841 239.415 231.335 239.764 230.69C240.113 230.036 240.288 229.284 240.288 228.433V227.68H236.875V225.531H242.733V227.788C242.733 229.347 242.438 230.663 241.847 231.738C241.264 232.804 240.467 233.615 239.455 234.17C238.452 234.717 237.323 234.99 236.069 234.99ZM265.33 234.99C263.977 234.99 262.853 234.699 261.957 234.117C261.061 233.525 260.376 232.688 259.901 231.604L261.836 230.61C262.203 231.335 262.638 231.882 263.139 232.249C263.65 232.607 264.389 232.786 265.357 232.786C265.804 232.786 266.239 232.728 266.66 232.612C267.081 232.486 267.462 232.271 267.802 231.967C268.151 231.662 268.425 231.237 268.622 230.69C268.828 230.135 268.931 229.427 268.931 228.567V215.856H271.269V228.487C271.269 229.786 271.085 230.856 270.718 231.698C270.359 232.54 269.88 233.203 269.28 233.687C268.689 234.161 268.048 234.497 267.359 234.694C266.669 234.892 265.993 234.99 265.33 234.99ZM280.484 234.668V215.856H291.663V218.06H282.822V223.838H288.653V226.041H282.822V232.437H292.254V234.668H280.484ZM305.822 234.99C304.729 234.99 303.739 234.811 302.852 234.453C301.966 234.085 301.213 233.588 300.595 232.961C299.986 232.325 299.542 231.604 299.265 230.798L301.468 229.992C301.845 230.825 302.413 231.501 303.175 232.021C303.945 232.531 304.846 232.786 305.876 232.786C307.004 232.786 307.905 232.518 308.576 231.98C309.248 231.434 309.584 230.646 309.584 229.615C309.584 228.89 309.383 228.281 308.98 227.788C308.576 227.295 308.052 226.883 307.407 226.552C306.763 226.211 306.073 225.907 305.338 225.638C304.684 225.396 304.03 225.127 303.376 224.832C302.723 224.536 302.127 224.187 301.589 223.784C301.061 223.372 300.635 222.875 300.313 222.292C299.99 221.701 299.829 220.998 299.829 220.183C299.829 219.341 300.058 218.57 300.514 217.872C300.971 217.164 301.63 216.6 302.49 216.179C303.35 215.749 304.389 215.534 305.607 215.534C306.601 215.534 307.475 215.681 308.227 215.977C308.989 216.264 309.611 216.662 310.095 217.173C310.588 217.674 310.928 218.248 311.116 218.893L308.966 219.618C308.742 219.09 308.33 218.642 307.73 218.275C307.139 217.898 306.377 217.71 305.446 217.71C304.451 217.71 303.668 217.93 303.094 218.369C302.53 218.808 302.248 219.412 302.248 220.183C302.248 220.765 302.436 221.253 302.812 221.647C303.197 222.032 303.699 222.368 304.317 222.655C304.935 222.942 305.598 223.219 306.306 223.488C306.969 223.739 307.631 224.026 308.294 224.348C308.966 224.662 309.58 225.047 310.135 225.504C310.7 225.961 311.152 226.52 311.492 227.183C311.833 227.837 312.003 228.63 312.003 229.562C312.003 230.717 311.734 231.698 311.197 232.504C310.659 233.31 309.925 233.929 308.993 234.359C308.061 234.78 307.004 234.99 305.822 234.99ZM327.069 234.99C325.528 234.99 324.261 234.703 323.267 234.13C322.272 233.557 321.533 232.719 321.049 231.617C320.566 230.516 320.324 229.176 320.324 227.6V215.856H322.662V227.6C322.662 229.23 323.002 230.502 323.683 231.416C324.373 232.33 325.502 232.786 327.069 232.786C328.063 232.786 328.888 232.598 329.542 232.222C330.204 231.837 330.697 231.264 331.02 230.502C331.342 229.732 331.503 228.764 331.503 227.6V215.856H333.841V227.6C333.841 228.818 333.698 229.889 333.411 230.811C333.125 231.734 332.699 232.509 332.135 233.136C331.571 233.754 330.863 234.22 330.012 234.533C329.17 234.838 328.189 234.99 327.069 234.99ZM348.5 234.99C347.407 234.99 346.417 234.811 345.53 234.453C344.643 234.085 343.891 233.588 343.273 232.961C342.664 232.325 342.22 231.604 341.942 230.798L344.146 229.992C344.522 230.825 345.091 231.501 345.853 232.021C346.623 232.531 347.523 232.786 348.553 232.786C349.682 232.786 350.582 232.518 351.254 231.98C351.926 231.434 352.262 230.646 352.262 229.615C352.262 228.89 352.06 228.281 351.657 227.788C351.254 227.295 350.73 226.883 350.085 226.552C349.44 226.211 348.75 225.907 348.016 225.638C347.362 225.396 346.708 225.127 346.054 224.832C345.4 224.536 344.805 224.187 344.267 223.784C343.739 223.372 343.313 222.875 342.991 222.292C342.668 221.701 342.507 220.998 342.507 220.183C342.507 219.341 342.735 218.57 343.192 217.872C343.649 217.164 344.307 216.6 345.167 216.179C346.027 215.749 347.066 215.534 348.285 215.534C349.279 215.534 350.152 215.681 350.905 215.977C351.666 216.264 352.289 216.662 352.773 217.173C353.265 217.674 353.606 218.248 353.794 218.893L351.644 219.618C351.42 219.09 351.008 218.642 350.408 218.275C349.816 217.898 349.055 217.71 348.123 217.71C347.129 217.71 346.345 217.93 345.772 218.369C345.208 218.808 344.925 219.412 344.925 220.183C344.925 220.765 345.114 221.253 345.49 221.647C345.875 222.032 346.377 222.368 346.995 222.655C347.613 222.942 348.276 223.219 348.983 223.488C349.646 223.739 350.309 224.026 350.972 224.348C351.644 224.662 352.257 225.047 352.813 225.504C353.377 225.961 353.83 226.52 354.17 227.183C354.51 227.837 354.681 228.63 354.681 229.562C354.681 230.717 354.412 231.698 353.874 232.504C353.337 233.31 352.602 233.929 351.671 234.359C350.739 234.78 349.682 234.99 348.5 234.99Z" fill="url(#paint15_radial_212_1622)"/>
<defs>
<radialGradient id="paint0_radial_212_1622" cx="0" cy="0" r="1" gradientUnits="userSpaceOnUse" gradientTransform="translate(194.906 143.513) scale(46.646 44.5648)">
<stop stop-color="#EFE6A1"/>
<stop offset="1" stop-color="#A1A348"/>
</radialGradient>
<radialGradient id="paint1_radial_212_1622" cx="0" cy="0" r="1" gradientUnits="userSpaceOnUse" gradientTransform="translate(194.906 143.513) scale(46.646 44.5648)">
<stop stop-color="#EFE6A1"/>
<stop offset="1" stop-color="#A1A348"/>
</radialGradient>
<radialGradient id="paint2_radial_212_1622" cx="0" cy="0" r="1" gradientUnits="userSpaceOnUse" gradientTransform="translate(194.906 143.513) scale(46.646 44.5648)">
<stop stop-color="#EFE6A1"/>
<stop offset="1" stop-color="#A1A348"/>
</radialGradient>
<radialGradient id="paint3_radial_212_1622" cx="0" cy="0" r="1" gradientUnits="userSpaceOnUse" gradientTransform="translate(194.906 143.513) scale(46.646 44.5648)">
<stop stop-color="#EFE6A1"/>
<stop offset="1" stop-color="#A1A348"/>
</radialGradient>
<radialGradient id="paint4_radial_212_1622" cx="0" cy="0" r="1" gradientUnits="userSpaceOnUse" gradientTransform="translate(194.906 143.513) scale(46.646 44.5648)">
<stop stop-color="#EFE6A1"/>
<stop offset="1" stop-color="#A1A348"/>
</radialGradient>
<radialGradient id="paint5_radial_212_1622" cx="0" cy="0" r="1" gradientUnits="userSpaceOnUse" gradientTransform="translate(194.906 143.513) scale(46.646 44.5648)">
<stop stop-color="#EFE6A1"/>
<stop offset="1" stop-color="#A1A348"/>
</radialGradient>
<radialGradient id="paint6_radial_212_1622" cx="0" cy="0" r="1" gradientUnits="userSpaceOnUse" gradientTransform="translate(194.906 143.513) scale(46.646 44.5648)">
<stop stop-color="#EFE6A1"/>
<stop offset="1" stop-color="#A1A348"/>
</radialGradient>
<radialGradient id="paint7_radial_212_1622" cx="0" cy="0" r="1" gradientUnits="userSpaceOnUse" gradientTransform="translate(191.498 95.0205) scale(191.376 95.0205)">
<stop stop-color="#EFE6A1"/>
<stop offset="1" stop-color="#A1A348"/>
</radialGradient>
<radialGradient id="paint8_radial_212_1622" cx="0" cy="0" r="1" gradientUnits="userSpaceOnUse" gradientTransform="translate(191.498 95.0205) scale(191.376 95.0205)">
<stop stop-color="#EFE6A1"/>
<stop offset="1" stop-color="#A1A348"/>
</radialGradient>
<radialGradient id="paint9_radial_212_1622" cx="0" cy="0" r="1" gradientUnits="userSpaceOnUse" gradientTransform="translate(191.498 95.0205) scale(191.376 95.0205)">
<stop stop-color="#EFE6A1"/>
<stop offset="1" stop-color="#A1A348"/>
</radialGradient>
<radialGradient id="paint10_radial_212_1622" cx="0" cy="0" r="1" gradientUnits="userSpaceOnUse" gradientTransform="translate(191.498 95.0205) scale(191.376 95.0205)">
<stop stop-color="#EFE6A1"/>
<stop offset="1" stop-color="#A1A348"/>
</radialGradient>
<radialGradient id="paint11_radial_212_1622" cx="0" cy="0" r="1" gradientUnits="userSpaceOnUse" gradientTransform="translate(191.498 95.0205) scale(191.376 95.0205)">
<stop stop-color="#EFE6A1"/>
<stop offset="1" stop-color="#A1A348"/>
</radialGradient>
<radialGradient id="paint12_radial_212_1622" cx="0" cy="0" r="1" gradientUnits="userSpaceOnUse" gradientTransform="translate(191.498 95.0205) scale(191.376 95.0205)">
<stop stop-color="#EFE6A1"/>
<stop offset="1" stop-color="#A1A348"/>
</radialGradient>
<radialGradient id="paint13_radial_212_1622" cx="0" cy="0" r="1" gradientUnits="userSpaceOnUse" gradientTransform="translate(191.498 95.0205) scale(191.376 95.0205)">
<stop stop-color="#EFE6A1"/>
<stop offset="1" stop-color="#A1A348"/>
</radialGradient>
<radialGradient id="paint14_radial_212_1622" cx="0" cy="0" r="1" gradientUnits="userSpaceOnUse" gradientTransform="translate(191.498 95.0205) scale(191.376 95.0205)">
<stop stop-color="#EFE6A1"/>
<stop offset="1" stop-color="#A1A348"/>
</radialGradient>
<radialGradient id="paint15_radial_212_1622" cx="0" cy="0" r="1" gradientUnits="userSpaceOnUse" gradientTransform="translate(191.859 227.668) scale(165 17)">
<stop stop-color="#EFE6A1"/>
<stop offset="1" stop-color="#A1A348"/>
</radialGradient>
</defs>
</svg>
