<svg width="173" height="182" viewBox="0 0 173 182" fill="none" xmlns="http://www.w3.org/2000/svg">
<g filter="url(#filter0_i_193_3123)">
<path fill-rule="evenodd" clip-rule="evenodd" d="M99.9081 9.10418C115.36 10.7055 130.635 18.8024 143.969 26.3456C145.098 27.9385 146.161 30.1546 146.913 31.9071C149.044 36.8929 150.296 42.2964 150.722 47.6915C151.131 52.8369 151.283 58.0502 151.383 63.2024C151.541 71.2076 151.564 79.2602 151.451 87.2654L151.442 87.9107L152.717 88.0465L152.846 87.4182C153.568 83.8283 154.122 80.1093 154.607 76.4905C155.647 68.6501 156.314 60.6297 156.268 52.7231C156.261 51.6295 156.246 50.5376 156.209 49.4372C156.025 43.8825 155.45 37.9406 154.03 32.4759C160.366 36.8844 165.041 42.4475 167.924 49.7853C170.672 56.797 171.453 64.5219 171.81 71.9904C172.197 80.1331 172.107 88.2605 172.774 96.3879C171.864 96.5085 170.915 96.5696 170.02 96.6307C166.824 96.8192 163.599 96.7971 160.412 96.6443C148.513 96.0601 136.478 93.5876 125.117 90.0877C118.827 88.1467 112.71 85.8389 106.64 83.3188C101.199 81.0654 95.8189 78.6608 90.3627 76.4515C84.679 74.1454 78.9643 72.1042 73.0301 70.5487C66.1852 68.7656 59.2568 67.6788 52.2071 67.1863L51.5469 67.1405L51.3723 68.4532L52.0249 68.5822C66.1624 71.3061 77.8488 77.1206 90.4222 83.7757C96.2655 86.8629 102.094 89.9756 108.127 92.6757C114.19 95.386 120.359 97.6309 126.795 99.2255C124.351 101.676 121.536 104.074 118.88 106.185C112.634 111.147 105.502 115.699 98.0112 118.515C95.4928 119.464 92.8896 120.23 90.2336 120.716C84.3597 121.801 78.7594 121.816 73.0529 119.882C68.2114 118.241 63.8327 115.389 59.697 112.422C54.2333 108.506 48.9667 104.332 43.4575 100.455C33.4861 93.4348 18.9919 85.4976 6.27358 88.5628C3.04079 89.3371 2.75244 92.2138 3.4278 94.9224C1.95567 93.1461 0.566916 91.0675 0.225586 89.3983C0.271097 88.4643 4.70278 85.5876 5.46916 85.1036C9.36202 82.6362 13.513 80.4065 17.5957 78.2736C23.841 75.0098 30.2231 71.8529 36.6202 68.8794L36.9464 68.7198L37.0149 68.3632C37.5233 65.4797 38.2138 62.5351 38.9272 59.7042C40.4676 53.5722 42.3722 47.4181 44.8082 41.59C47.2442 35.7466 50.8715 28.6823 55.8116 24.5693C67.9078 14.4839 81.393 7.9732 97.4271 8.90549L98.1641 8.94456L98.1709 8.20756C98.1709 8.04793 98.1794 7.89001 98.1861 7.73038C98.5054 3.17762 102.489 -0.298515 107.042 0.0207367C111.42 0.316216 114.804 4.0199 114.775 8.3519C110.995 7.10036 105.259 5.61276 101.715 6.73524C100.934 6.97808 100.175 7.3347 99.5362 7.85944L98.232 8.92928L99.9081 9.10418Z" fill="url(#paint0_linear_193_3123)"/>
</g>
<path d="M50.2929 145.946V173.447H44.4643V154.566L36.6245 173.447H32.8893L25.0905 154.648V173.447H19.2619V145.946H27.348L34.8185 164.253L42.2889 145.946H50.2929ZM63.9251 152.39C70.7388 152.39 75.0897 157.85 74.3509 165.074H58.9175C59.2458 167.167 61.0519 168.932 63.8841 169.055C65.7722 169.137 67.6193 168.275 68.3581 166.962H74.1457C72.7912 171.518 68.7276 174.063 63.8841 174.063C56.9883 174.063 53.2531 168.973 53.2531 163.227C53.2531 157.152 57.645 152.39 63.9251 152.39ZM63.8841 157.357C61.4624 157.357 59.5332 158.712 58.9585 160.764H68.7276C68.1119 158.63 66.2648 157.357 63.8841 157.357ZM98.8332 162.324H104.867C104.005 168.973 98.669 174.022 90.9522 174.022C82.3325 174.022 76.7502 167.619 76.7502 159.738C76.7502 151.857 82.3325 145.331 90.9522 145.331C98.4637 145.331 103.841 150.338 104.785 156.782H98.71C97.807 153.458 94.9748 151.036 90.9112 151.077C85.8215 151.118 82.7019 155.058 82.7019 159.697C82.7019 164.294 85.7804 168.316 90.9933 168.316C95.0569 168.316 98.0122 165.854 98.8332 162.324ZM123.509 155.633V153.006H129.009V173.447H123.509V170.738H123.304C122.031 172.626 119.691 174.022 116.695 174.063C111.154 174.063 106.967 169.712 106.967 163.268C106.967 156.947 110.949 152.349 116.736 152.39C119.691 152.39 122.031 153.786 123.304 155.633H123.509ZM118.05 168.809C121.333 168.809 123.509 166.264 123.509 163.227C123.509 160.066 121.251 157.644 118.05 157.644C114.807 157.644 112.549 160.025 112.549 163.227C112.549 166.428 114.807 168.809 118.05 168.809ZM145.642 152.39C151.43 152.349 155.411 156.947 155.411 163.268C155.411 169.712 151.225 174.063 145.683 174.063C142.687 174.022 140.347 172.626 139.075 170.738H138.87V181.657H133.369V153.006H138.87V155.633H139.075C140.347 153.786 142.728 152.39 145.642 152.39ZM144.329 168.809C147.572 168.809 149.829 166.428 149.829 163.227C149.829 160.025 147.572 157.644 144.329 157.644C141.127 157.644 138.87 160.066 138.87 163.227C138.87 166.264 141.045 168.809 144.329 168.809Z" fill="white"/>
<defs>
<filter id="filter0_i_193_3123" x="0.225586" y="0" width="172.549" height="122.801" filterUnits="userSpaceOnUse" color-interpolation-filters="sRGB">
<feFlood flood-opacity="0" result="BackgroundImageFix"/>
<feBlend mode="normal" in="SourceGraphic" in2="BackgroundImageFix" result="shape"/>
<feColorMatrix in="SourceAlpha" type="matrix" values="0 0 0 0 0 0 0 0 0 0 0 0 0 0 0 0 0 0 127 0" result="hardAlpha"/>
<feOffset dy="1.3485"/>
<feGaussianBlur stdDeviation="7.3587"/>
<feComposite in2="hardAlpha" operator="arithmetic" k2="-1" k3="1"/>
<feColorMatrix type="matrix" values="0 0 0 0 1 0 0 0 0 1 0 0 0 0 1 0 0 0 0.43 0"/>
<feBlend mode="normal" in2="shape" result="effect1_innerShadow_193_3123"/>
</filter>
<linearGradient id="paint0_linear_193_3123" x1="91.9979" y1="98.5392" x2="100.456" y2="11.419" gradientUnits="userSpaceOnUse">
<stop stop-color="#624BFB"/>
<stop offset="1" stop-color="#4A33E7"/>
</linearGradient>
</defs>
</svg>
