<svg width="204" height="144" viewBox="0 0 204 144" fill="none" xmlns="http://www.w3.org/2000/svg">
<g filter="url(#filter0_i_275_2097)">
<path fill-rule="evenodd" clip-rule="evenodd" d="M117.852 10.7633C136.12 12.6565 154.179 22.2292 169.944 31.1473C171.279 33.0305 172.535 35.6506 173.425 37.7225C175.945 43.6171 177.424 50.0056 177.928 56.384C178.412 62.4673 178.591 68.6309 178.709 74.7222C178.896 84.1865 178.924 93.707 178.789 103.171L178.779 103.934L180.287 104.095L180.44 103.352C181.293 99.1076 181.948 94.7108 182.522 90.4324C183.75 81.1629 184.539 71.6806 184.485 62.3328C184.477 61.0398 184.459 59.7489 184.415 58.4479C184.198 51.8808 183.518 44.8558 181.839 38.3951C189.33 43.6071 194.857 50.1843 198.266 58.8595C201.514 67.1492 202.438 76.2822 202.86 85.112C203.317 94.7389 203.211 104.348 204 113.957C202.924 114.099 201.802 114.171 200.744 114.244C196.965 114.466 193.152 114.44 189.384 114.26C175.316 113.569 161.088 110.646 147.656 106.508C140.22 104.213 132.988 101.485 125.811 98.5053C119.378 95.8411 113.018 92.9982 106.567 90.3862C99.8471 87.6598 93.0908 85.2465 86.0749 83.4075C77.9823 81.2994 69.7911 80.0145 61.4564 79.4323L60.6758 79.3781L60.4694 80.93L61.241 81.0826C77.9554 84.3029 91.7719 91.1773 106.637 99.0454C113.546 102.695 120.436 106.375 127.569 109.568C134.737 112.772 142.031 115.426 149.64 117.311C146.751 120.208 143.422 123.043 140.282 125.539C132.898 131.405 124.465 136.788 115.609 140.117C112.632 141.239 109.554 142.144 106.414 142.719C99.4696 144.002 92.8484 144.02 86.1018 141.733C80.3779 139.793 75.201 136.421 70.3115 132.913C63.852 128.283 57.6253 123.348 51.112 118.765C39.323 110.465 22.187 101.081 7.15039 104.705C3.32835 105.621 2.98744 109.022 3.7859 112.224C2.04543 110.124 0.403546 107.666 0 105.693C0.0538061 104.589 5.29327 101.188 6.19934 100.615C10.8018 97.6982 15.7094 95.0622 20.5363 92.5405C27.9199 88.6817 35.4652 84.9494 43.0284 81.4339L43.4141 81.2452L43.495 80.8236C44.0961 77.4146 44.9124 73.9332 45.7559 70.5864C47.577 63.3366 49.8289 56.0608 52.7089 49.1704C55.5889 42.2619 59.8774 33.9099 65.7179 29.0473C80.0189 17.1236 95.9622 9.42613 114.919 10.5284L115.79 10.5745L115.798 9.7032C115.798 9.51448 115.808 9.32777 115.816 9.13905C116.194 3.75644 120.904 -0.353302 126.286 0.0241394C131.462 0.373474 135.463 4.75224 135.429 9.87386C130.96 8.3942 124.178 6.63544 119.988 7.96252C119.065 8.24962 118.167 8.67125 117.412 9.29163L115.87 10.5565L117.852 10.7633Z" fill="url(#paint0_linear_275_2097)"/>
</g>
<path d="M106.077 59.158L100.581 81.2442L95.9 80.0794L99.6732 64.9158L89.6037 78.5127L86.604 77.7662L84.0976 61.11L80.3407 76.2077L75.6598 75.043L81.1556 52.9568L87.6496 54.5727L89.9907 70.7677L99.6486 57.5585L106.077 59.158Z" fill="#C0BCF4"/>
<path d="M117.105 68.6591C122.376 70.6622 124.137 76.1646 121.442 81.5362L109.503 76.9989C109.141 78.7149 110.019 80.6113 112.174 81.5392C113.611 82.1578 115.293 82.034 116.251 81.2351L120.728 82.9365C118.341 86.063 114.449 86.8371 110.702 85.4132C105.367 83.3859 103.974 78.3503 105.664 73.9048C107.449 69.2051 112.247 66.8128 117.105 68.6591ZM115.613 72.4893C113.74 71.7773 111.849 72.2581 110.801 73.6768L118.359 76.5488C118.51 74.7166 117.455 73.1892 115.613 72.4893Z" fill="#C0BCF4"/>
<defs>
<filter id="filter0_i_275_2097" x="0" y="6.10352e-05" width="204" height="145.184" filterUnits="userSpaceOnUse" color-interpolation-filters="sRGB">
<feFlood flood-opacity="0" result="BackgroundImageFix"/>
<feBlend mode="normal" in="SourceGraphic" in2="BackgroundImageFix" result="shape"/>
<feColorMatrix in="SourceAlpha" type="matrix" values="0 0 0 0 0 0 0 0 0 0 0 0 0 0 0 0 0 0 127 0" result="hardAlpha"/>
<feOffset dy="1.5943"/>
<feGaussianBlur stdDeviation="8.7"/>
<feComposite in2="hardAlpha" operator="arithmetic" k2="-1" k3="1"/>
<feColorMatrix type="matrix" values="0 0 0 0 1 0 0 0 0 1 0 0 0 0 1 0 0 0 0.43 0"/>
<feBlend mode="normal" in2="shape" result="effect1_innerShadow_275_2097"/>
</filter>
<linearGradient id="paint0_linear_275_2097" x1="108.5" y1="116.5" x2="118.5" y2="13.5" gradientUnits="userSpaceOnUse">
<stop stop-color="#624BFB"/>
<stop offset="1" stop-color="#4A33E7"/>
</linearGradient>
</defs>
</svg>
