<svg xmlns="http://www.w3.org/2000/svg" width="76" height="35" viewBox="0 0 76 35" fill="none">
  <path d="M23.5 17.7424L23.9654 17.925L23.5 17.7424ZM52.5 24.7427L52.6804 24.2764L52.5 24.7427ZM75.3002 9.7009C75.5533 9.81125 75.848 9.6955 75.9583 9.44236C76.0687 9.18922 75.9529 8.89456 75.6998 8.78421L75.3002 9.7009ZM0.506309 5.32128C1.2147 9.73831 2.09571 14.9914 3.24024 19.8202C4.38076 24.6321 5.79718 29.0887 7.60177 31.8731C8.50294 33.2636 9.54607 34.3087 10.7676 34.7207C12.0265 35.1453 13.3593 34.8614 14.7284 33.8444C16.0815 32.8393 17.5077 31.0953 19.0294 28.5069C20.5552 25.9116 22.1962 22.4338 23.9654 17.925L23.0346 17.5598C21.2764 22.0403 19.6572 25.4659 18.1673 28.0001C16.6734 30.5413 15.3285 32.153 14.1321 33.0416C12.9518 33.9184 11.957 34.0665 11.0872 33.7731C10.18 33.4672 9.29333 32.6445 8.44094 31.3292C6.73841 28.7023 5.35249 24.396 4.21328 19.5896C3.07807 14.8 2.20197 9.57923 1.49369 5.16293L0.506309 5.32128ZM23.9654 17.925C25.8975 13.0015 27.6382 9.37881 29.2204 6.80913C30.8088 4.22933 32.2082 2.75961 33.4363 2.07636C34.622 1.41665 35.6634 1.47897 36.6612 2.03663C37.7005 2.61743 38.7131 3.75037 39.7224 5.28442C41.7457 8.35972 43.5775 12.7494 45.5701 16.7205C46.5569 18.687 47.5807 20.5424 48.6752 22.0306C49.7635 23.5102 50.9624 24.6841 52.3196 25.2091L52.6804 24.2764C51.5894 23.8544 50.5302 22.8649 49.4808 21.4381C48.4376 20.0197 47.444 18.2253 46.4639 16.272C44.5228 12.4035 42.6229 7.87361 40.5578 4.73479C39.5229 3.16178 38.4022 1.86403 37.1491 1.1637C35.8546 0.440245 34.4446 0.371007 32.9501 1.20251C31.4979 2.01046 29.9882 3.65472 28.3689 6.28483C26.7432 8.92508 24.9775 12.6083 23.0346 17.5598L23.9654 17.925ZM52.3196 25.2091C53.6926 25.7401 54.855 25.7644 55.8464 25.3298C56.823 24.9016 57.5467 24.0651 58.1297 23.0563C58.7133 22.0464 59.1863 20.8098 59.6347 19.5109C60.0894 18.1935 60.5142 16.827 61.0185 15.4735C62.028 12.7637 63.2795 10.3369 65.3863 9.06675C67.4559 7.81901 70.4995 7.60815 75.3002 9.7009L75.6998 8.78421C70.7505 6.62673 67.3316 6.72625 64.8699 8.21035C62.4454 9.67208 61.0969 12.3986 60.0814 15.1244C59.5731 16.4886 59.1292 17.9105 58.6894 19.1846C58.2432 20.4773 57.7959 21.6354 57.2639 22.556C56.7313 23.4776 56.144 24.1074 55.4449 24.4139C54.7605 24.714 53.8824 24.7413 52.6804 24.2764L52.3196 25.2091Z" fill="#FFB000"/>
</svg>