<svg width="180" height="179" viewBox="0 0 180 179" fill="none" xmlns="http://www.w3.org/2000/svg">
<g clip-path="url(#clip0_93_3541)">
<path d="M112.375 64.3281H106.781V78.3125H112.375V64.3281Z" fill="white"/>
<path d="M123.562 64.3281H117.969V78.3125H123.562V64.3281Z" fill="white"/>
<path d="M112.375 83.9062H106.781V89.5H112.375V83.9062Z" fill="white"/>
<path d="M123.562 83.9062H117.969V89.5H123.562V83.9062Z" fill="white"/>
<path d="M92.7969 95.0938H87.2031V100.688H92.7969V95.0938Z" fill="white"/>
<path d="M78.8125 151.031H73.2188V156.625H78.8125V151.031Z" fill="white"/>
<path d="M123.562 95.0938H117.969V100.688H123.562V95.0938Z" fill="white"/>
<path d="M112.375 106.281H106.781V111.875H112.375V106.281Z" fill="white"/>
<path d="M123.562 106.281H117.969V111.875H123.562V106.281Z" fill="white"/>
<path d="M6.09375 5.59375H14.4844V0H3.29688C1.753 0 0.5 1.253 0.5 2.79688V13.9844H6.09375V5.59375Z" fill="white"/>
<path d="M176.703 0H165.516V5.59375H173.906V13.9844H179.5V2.79688C179.5 1.253 178.247 0 176.703 0Z" fill="white"/>
<path d="M6.09375 165.016H0.5V176.203C0.5 177.747 1.753 179 3.29688 179H14.4844V173.406H6.09375V165.016Z" fill="white"/>
<path d="M173.906 173.406H165.516V179H176.703C178.247 179 179.5 177.747 179.5 176.203V165.016H173.906V173.406Z" fill="white"/>
<path d="M11.6875 13.9844V47.5469C11.6875 49.0908 12.9405 50.3438 14.4844 50.3438H48.0469C49.5908 50.3438 50.8438 49.0908 50.8438 47.5469V13.9844C50.8438 12.4405 49.5908 11.1875 48.0469 11.1875H14.4844C12.9405 11.1875 11.6875 12.4405 11.6875 13.9844ZM17.2812 16.7812H45.25V44.75H17.2812V16.7812Z" fill="white"/>
<path d="M36.8594 22.375H25.6719C24.128 22.375 22.875 23.628 22.875 25.1719V36.3594C22.875 37.9032 24.128 39.1562 25.6719 39.1562H36.8594C38.4032 39.1562 39.6562 37.9032 39.6562 36.3594V25.1719C39.6562 23.628 38.4032 22.375 36.8594 22.375ZM34.0625 33.5625H28.4688V27.9688H34.0625V33.5625Z" fill="white"/>
<path d="M131.953 50.3438H165.516C167.06 50.3438 168.312 49.0908 168.312 47.5469V13.9844C168.312 12.4405 167.06 11.1875 165.516 11.1875H131.953C130.409 11.1875 129.156 12.4405 129.156 13.9844V47.5469C129.156 49.0908 130.409 50.3438 131.953 50.3438ZM134.75 16.7812H162.719V44.75H134.75V16.7812Z" fill="white"/>
<path d="M154.328 22.375H143.141C141.597 22.375 140.344 23.628 140.344 25.1719V36.3594C140.344 37.9032 141.597 39.1562 143.141 39.1562H154.328C155.872 39.1562 157.125 37.9032 157.125 36.3594V25.1719C157.125 23.628 155.872 22.375 154.328 22.375ZM151.531 33.5625H145.938V27.9688H151.531V33.5625Z" fill="white"/>
<path d="M48.0469 128.656H14.4844C12.9405 128.656 11.6875 129.909 11.6875 131.453V165.016C11.6875 166.56 12.9405 167.812 14.4844 167.812H48.0469C49.5908 167.812 50.8438 166.56 50.8438 165.016V131.453C50.8438 129.909 49.5908 128.656 48.0469 128.656ZM45.25 162.219H17.2812V134.25H45.25V162.219Z" fill="white"/>
<path d="M25.6719 156.625H36.8594C38.4032 156.625 39.6562 155.372 39.6562 153.828V142.641C39.6562 141.097 38.4032 139.844 36.8594 139.844H25.6719C24.128 139.844 22.875 141.097 22.875 142.641V153.828C22.875 155.372 24.128 156.625 25.6719 156.625ZM28.4688 145.438H34.0625V151.031H28.4688V145.438Z" fill="white"/>
<path d="M123.562 53.1406H103.984V19.5781H98.3906V55.9375C98.3906 57.4814 99.6436 58.7344 101.188 58.7344H123.562V53.1406Z" fill="white"/>
<path d="M81.6094 33.5625H62.0312V39.1562H81.6094V33.5625Z" fill="white"/>
<path d="M92.7969 22.375H73.2188V27.9688H92.7969V22.375Z" fill="white"/>
<path d="M17.2812 53.1406H11.6875V78.3125H17.2812V53.1406Z" fill="white"/>
<path d="M50.8438 69.9219H22.875V75.5156H48.0469V86.7031H53.6406V72.7188C53.6406 71.1749 52.3876 69.9219 50.8438 69.9219Z" fill="white"/>
<path d="M31.2656 55.9375H25.6719V61.5312H31.2656V55.9375Z" fill="white"/>
<path d="M64.8281 50.3438H59.2344V72.7188H64.8281V50.3438Z" fill="white"/>
<path d="M84.4062 78.3125H59.2344V83.9062H84.4062V78.3125Z" fill="white"/>
<path d="M171.109 81.1094H165.516V109.078H157.125V114.672H168.312C169.856 114.672 171.109 113.419 171.109 111.875V81.1094Z" fill="white"/>
<path d="M78.8125 50.3438H73.2188V55.9375H78.8125V50.3438Z" fill="white"/>
<path d="M17.2812 92.2969H11.6875V114.672H17.2812V92.2969Z" fill="white"/>
<path d="M36.8594 117.469H11.6875V123.062H36.8594V117.469Z" fill="white"/>
<path d="M140.344 78.3125H145.938V67.125C145.938 65.5811 144.684 64.3281 143.141 64.3281H129.156V69.9219H140.344V78.3125Z" fill="white"/>
<path d="M31.2656 92.2969H25.6719V97.8906H31.2656V92.2969Z" fill="white"/>
<path d="M62.0312 89.5H56.4375V111.875H62.0312V89.5Z" fill="white"/>
<path d="M81.6094 117.469H56.4375V123.062H81.6094V117.469Z" fill="white"/>
<path d="M48.0469 106.281H22.875V111.875H48.0469V106.281Z" fill="white"/>
<path d="M64.8281 145.438H59.2344V156.625H64.8281V145.438Z" fill="white"/>
<path d="M81.6094 134.25H56.4375V139.844H81.6094V134.25Z" fill="white"/>
<path d="M101.188 123.062V109.078C101.188 107.534 99.9345 106.281 98.3906 106.281H70.4219V111.875H95.5938V123.062H101.188Z" fill="white"/>
<path d="M78.8125 89.5H73.2188V95.0938H78.8125V89.5Z" fill="white"/>
<path d="M48.0469 95.0938H42.4531V100.688H48.0469V95.0938Z" fill="white"/>
<path d="M171.109 148.234H165.516V167.812H171.109V148.234Z" fill="white"/>
<path d="M159.922 162.219H151.531V167.812H159.922V162.219Z" fill="white"/>
<path d="M157.125 145.438H151.531V156.625H157.125V145.438Z" fill="white"/>
<path d="M171.109 123.062C171.109 121.519 169.856 120.266 168.312 120.266H137.547V125.859H165.516V142.641H171.109V123.062Z" fill="white"/>
<path d="M134.75 156.625V142.641C134.75 141.097 133.497 139.844 131.953 139.844H101.188V145.438H129.156V156.625H134.75Z" fill="white"/>
<path d="M159.922 131.453H140.344V137.047H159.922V131.453Z" fill="white"/>
<path d="M76.0156 162.219H56.4375V167.812H76.0156V162.219Z" fill="white"/>
<path d="M90 142.641H84.4062V167.812H90V142.641Z" fill="white"/>
<path d="M101.188 128.656H90V134.25H101.188V128.656Z" fill="white"/>
<path d="M131.953 100.688H145.938V95.0938H134.75V78.3125H129.156V97.8906C129.156 99.4345 130.409 100.688 131.953 100.688Z" fill="white"/>
<path d="M154.328 83.9062H140.344V89.5H154.328V83.9062Z" fill="white"/>
<path d="M159.922 55.9375H151.531V61.5312H159.922V55.9375Z" fill="white"/>
<path d="M171.109 55.9375H165.516V69.9219H171.109V55.9375Z" fill="white"/>
<path d="M157.125 69.9219H151.531V75.5156H157.125V69.9219Z" fill="white"/>
<path d="M109.578 47.5469H120.766C122.309 47.5469 123.562 46.2939 123.562 44.75V8.39062H117.969V41.9531H109.578V47.5469Z" fill="white"/>
<path d="M67.625 13.9844H109.578V8.39062H64.8281C63.2843 8.39062 62.0312 9.64363 62.0312 11.1875V25.1719H67.625V13.9844Z" fill="white"/>
<path d="M70.4219 67.125H90C91.5439 67.125 92.7969 65.872 92.7969 64.3281V41.9531H87.2031V61.5312H70.4219V67.125Z" fill="white"/>
<path d="M101.188 64.3281H95.5938V75.5156H101.188V64.3281Z" fill="white"/>
<path d="M120.766 151.031H101.188V156.625H120.766V151.031Z" fill="white"/>
<path d="M126.359 162.219H101.188V167.812H126.359V162.219Z" fill="white"/>
<path d="M140.344 162.219H134.75V167.812H143.141C144.684 167.812 145.938 166.559 145.938 165.016V142.641H140.344V162.219Z" fill="white"/>
<path d="M50.8438 117.469H45.25V123.062H50.8438V117.469Z" fill="white"/>
<path d="M120.766 117.469H109.578V123.062H120.766V117.469Z" fill="white"/>
<path d="M134.75 106.281H129.156V114.672H134.75V106.281Z" fill="white"/>
<path d="M131.953 120.266H126.359V125.859H131.953V120.266Z" fill="white"/>
<path d="M117.969 128.656H109.578V134.25H117.969V128.656Z" fill="white"/>
<path d="M145.938 106.281H140.344V111.875H145.938V106.281Z" fill="white"/>
<path d="M159.922 95.0938H151.531V100.688H159.922V95.0938Z" fill="white"/>
<path d="M112.375 95.0938H98.3906V100.688H112.375V95.0938Z" fill="white"/>
<path d="M101.188 81.1094H95.5938V89.5H101.188V81.1094Z" fill="white"/>
</g>
<defs>
<clipPath id="clip0_93_3541">
<rect width="179" height="179" fill="white" transform="translate(0.5)"/>
</clipPath>
</defs>
</svg>
