<svg width="289" height="298" viewBox="0 0 289 298" fill="none" xmlns="http://www.w3.org/2000/svg">
<path d="M60.6797 206.053H60.5537C55.8517 206.053 52.0037 209.9 52.0037 214.603C52.0037 219.305 55.8507 223.153 60.5537 223.153H60.6797C65.3827 223.153 69.2297 219.306 69.2297 214.603C69.2297 209.901 65.3817 206.053 60.6797 206.053Z" fill="#45503C"/>
<path d="M150.641 171.854H47.2016C42.4996 171.854 38.6516 175.701 38.6516 180.404C38.6516 185.106 42.4996 188.954 47.2016 188.954H92.9726C97.6746 188.954 101.523 192.802 101.523 197.504C101.523 202.206 97.6756 206.054 92.9726 206.054H86.2866C81.5846 206.054 77.7366 209.901 77.7366 214.604C77.7366 219.307 81.5846 223.154 86.2866 223.154H132.984C137.686 223.154 141.534 219.307 141.534 214.604C141.534 209.902 137.687 206.054 132.984 206.054H129.175C124.473 206.054 120.625 202.206 120.625 197.504C120.625 192.802 124.472 188.954 129.175 188.954H150.642C155.344 188.954 159.192 185.107 159.192 180.404C159.191 175.701 155.344 171.854 150.641 171.854Z" fill="#45503C"/>
<path d="M47.6047 56.208H47.7307C52.4327 56.208 56.2807 60.055 56.2807 64.758C56.2807 69.46 52.4337 73.308 47.7307 73.308H47.6047C42.9027 73.308 39.0547 69.46 39.0547 64.758C39.0547 60.056 42.9027 56.208 47.6047 56.208Z" fill="#45503C"/>
<path d="M9.46164 0.0078125H112.901C117.603 0.0078125 121.451 3.85481 121.451 8.55781C121.451 13.2598 117.603 17.1078 112.901 17.1078H67.1296C62.4276 17.1078 58.5796 20.9548 58.5796 25.6578C58.5796 30.3608 62.4276 34.2078 67.1296 34.2078H73.8156C78.5176 34.2078 82.3656 38.0548 82.3656 42.7578C82.3656 47.4598 78.5176 51.3078 73.8156 51.3078H27.1186C22.4156 51.3078 18.5686 47.4608 18.5686 42.7578C18.5686 38.0558 22.4156 34.2078 27.1186 34.2078H30.9276C35.6296 34.2078 39.4776 30.3598 39.4776 25.6578C39.4776 20.9558 35.6306 17.1078 30.9276 17.1078H9.46164C4.75964 17.1078 0.911621 13.2608 0.911621 8.55781C0.911621 3.85581 4.75864 0.0078125 9.46164 0.0078125Z" fill="#45503C"/>
<path d="M148.177 42.593C148.177 37.891 144.33 34.043 139.627 34.043H108.701C103.999 34.043 100.151 37.89 100.151 42.593C100.151 47.295 103.998 51.143 108.701 51.143H139.627C144.329 51.143 148.177 47.296 148.177 42.593Z" fill="#45503C"/>
<path d="M255.557 68.0781H238.205C233.503 68.0781 229.655 71.9251 229.655 76.6281C229.655 81.3301 233.503 85.1781 238.205 85.1781H255.557C260.259 85.1781 264.107 81.3311 264.107 76.6281C264.107 71.9251 260.26 68.0781 255.557 68.0781Z" fill="#45503C"/>
<path d="M279.54 33.8788H254.711C251.126 32.8618 248.477 29.5578 248.477 25.6578C248.477 20.9558 252.324 17.1078 257.027 17.1078H269.664C274.367 17.1078 278.214 13.2608 278.214 8.55781C278.214 3.85481 274.367 0.0078125 269.664 0.0078125H143.442C138.74 0.0078125 134.892 3.85481 134.892 8.55781C134.892 13.2598 138.739 17.1078 143.442 17.1078H210.248C214.95 17.1078 218.798 20.9548 218.798 25.6578C218.798 29.5568 216.149 32.8608 212.564 33.8788H164.764C160.062 33.8788 156.214 37.7258 156.214 42.4288C156.214 47.1308 160.061 50.9788 164.764 50.9788H170.722C175.424 50.9788 179.272 54.8258 179.272 59.5288C179.272 64.2308 175.425 68.0788 170.722 68.0788H143.442C138.74 68.0788 134.892 71.9258 134.892 76.6288C134.892 81.3308 138.74 85.1788 143.442 85.1788H210.733C215.435 85.1788 219.283 81.3318 219.283 76.6288C219.283 71.9268 215.436 68.0788 210.733 68.0788H206.924C202.222 68.0788 198.374 64.2318 198.374 59.5288C198.374 54.8268 202.221 50.9788 206.924 50.9788H279.539C284.241 50.9788 288.089 47.1318 288.089 42.4288C288.09 37.7258 284.242 33.8788 279.54 33.8788Z" fill="#45503C"/>
<path d="M203.882 278.304C196.947 278.304 191.326 272.682 191.326 265.748C191.326 258.813 185.704 253.192 178.77 253.192C171.835 253.192 166.214 258.814 166.214 265.748C166.214 272.683 160.592 278.304 153.658 278.304C146.723 278.304 141.102 272.682 141.102 265.748C141.102 258.813 135.48 253.192 128.546 253.192C121.611 253.192 115.99 258.814 115.99 265.748C115.99 272.683 110.368 278.304 103.434 278.304C96.4994 278.304 90.8784 283.926 90.8784 290.86V293.58H115.991H141.104H166.217H191.33H216.443V290.86C216.439 283.926 210.817 278.304 203.882 278.304Z" fill="#895B19"/>
<path d="M133.198 253.191H128.544V256.344H133.198V253.191Z" fill="#895B19"/>
<path d="M182.672 253.191H178.77V255.88H182.672V253.191Z" fill="#895B19"/>
<path d="M207.857 278.304C200.922 278.304 195.301 272.682 195.301 265.748C195.301 258.813 189.679 253.192 182.744 253.192C175.809 253.192 170.188 258.814 170.188 265.748C170.188 272.683 164.566 278.304 157.632 278.304C150.697 278.304 145.076 272.682 145.076 265.748C145.076 258.813 139.454 253.192 132.52 253.192C125.585 253.192 119.964 258.814 119.964 265.748C119.964 272.683 114.342 278.304 107.407 278.304C100.472 278.304 94.8506 283.926 94.8506 290.86V293.58H119.964H145.077H170.19H195.303H220.416V290.86C220.414 283.926 214.792 278.304 207.857 278.304Z" fill="#A57323"/>
<path d="M259.251 165.352H139.532V180.849H259.251C262.031 180.849 264.284 178.596 264.284 175.816V170.385C264.284 167.605 262.031 165.352 259.251 165.352Z" fill="#FBB040"/>
<path d="M139.532 173.1V180.849H259.251C262.031 180.849 264.284 178.596 264.284 175.816V173.101L139.532 173.1Z" fill="#F58220"/>
<path d="M173.994 180.848H141.267V295.726H173.994V180.848Z" fill="#FBB040"/>
<path d="M156.117 180.848H141.267V295.726H156.117V180.848Z" fill="#F58220"/>
<path d="M208.591 56.8721H109.948V165.351H163.59H208.591H253.592V101.873C253.592 77.0191 233.445 56.8721 208.591 56.8721Z" fill="#7EE92F"/>
<path d="M112.63 56.8721C87.7774 56.8721 67.6294 78.4351 67.6294 105.035V172.974H157.63V105.035C157.63 78.4351 137.483 56.8721 112.63 56.8721Z" fill="#59AE1B"/>
<path d="M75.5764 165.026V105.035C75.5764 82.8603 92.1984 64.8193 112.629 64.8193C133.06 64.8193 149.682 82.8603 149.682 105.035V165.026H75.5764Z" fill="#00692B"/>
<path d="M157.63 165.352H40.2114C40.2114 173.911 47.1494 180.849 55.7084 180.849H140.791C142.531 182.976 145.176 184.334 148.139 184.334C153.381 184.334 157.63 180.085 157.63 174.843C157.63 173.358 157.63 167.232 157.63 165.352Z" fill="#7EE92F"/>
<path d="M148.14 179.004C150.439 179.004 152.303 177.14 152.303 174.841C152.303 172.542 150.439 170.678 148.14 170.678C145.84 170.678 143.977 172.542 143.977 174.841C143.977 177.14 145.84 179.004 148.14 179.004Z" fill="#C7C8CA"/>
<path d="M88.2415 180.848C88.2415 186.307 92.6665 190.732 98.1255 190.732H115.909C121.368 190.732 125.793 186.307 125.793 180.848H88.2415Z" fill="#939598"/>
<path d="M77.0825 180.848C77.0825 186.307 81.5075 190.732 86.9665 190.732H104.751C110.21 190.732 114.634 186.307 114.634 180.848H77.0825Z" fill="#C7C8CA"/>
<path d="M199.298 68.6501H215.582C217.295 68.6501 218.347 66.7731 217.452 65.3121L213.56 58.9561C213.219 58.3991 213.153 57.7281 213.353 57.1231C211.788 56.9581 210.2 56.8721 208.592 56.8721H184.73V97.1391C180.907 98.9661 178.265 102.868 178.265 107.387C178.265 113.657 183.348 118.739 189.617 118.739C189.854 118.739 190.088 118.729 190.321 118.715C190.343 118.714 190.365 118.711 190.387 118.71C196.297 118.314 200.969 113.397 200.969 107.387C200.969 102.867 198.327 98.9651 194.504 97.1391V68.6491H199.298V68.6501Z" fill="#59AE1B"/>
<path d="M210.779 57.3658C210.349 56.6628 210.349 55.7778 210.779 55.0758L214.67 48.7198C215.565 47.2588 214.513 45.3818 212.8 45.3818H190.798C189.587 45.3818 188.605 46.3638 188.605 47.5748V64.8668C188.605 66.0778 189.587 67.0598 190.798 67.0598H212.8C214.513 67.0598 215.565 65.1828 214.67 63.7218L210.779 57.3658Z" fill="#FFD400"/>
<path d="M191.723 95.5502V45.2122C191.723 42.5132 189.535 40.3252 186.836 40.3252C184.137 40.3252 181.949 42.5132 181.949 45.2122V95.5502C178.126 97.3772 175.484 101.279 175.484 105.798C175.484 112.068 180.567 117.15 186.836 117.15C193.106 117.15 198.188 112.067 198.188 105.798C198.188 101.278 195.546 97.3772 191.723 95.5502Z" fill="#C7C8CA"/>
<path d="M178.364 105.798C178.364 101.278 181.006 97.3762 184.829 95.5502V45.2122C184.829 43.0142 186.28 41.1562 188.276 40.5412C187.821 40.4012 187.337 40.3252 186.836 40.3252C184.137 40.3252 181.949 42.5132 181.949 45.2122V95.5502C178.126 97.3772 175.484 101.279 175.484 105.798C175.484 112.068 180.567 117.15 186.836 117.15C187.324 117.15 187.804 117.116 188.276 117.056C182.687 116.348 178.364 111.58 178.364 105.798Z" fill="#DCDDDE"/>
<path d="M191.723 105.798C191.723 108.497 189.535 110.685 186.836 110.685C184.137 110.685 181.949 108.497 181.949 105.798C181.949 103.099 184.137 100.911 186.836 100.911C189.534 100.911 191.723 103.099 191.723 105.798Z" fill="#939598"/>
<path d="M196.516 45.3818H191.723V67.0598H196.516V45.3818Z" fill="#FFC20E"/>
<path d="M228.996 282.717C222.061 282.717 216.44 277.095 216.44 270.161C216.44 263.226 210.818 257.605 203.884 257.605C196.949 257.605 191.328 263.227 191.328 270.161C191.328 277.096 185.706 282.717 178.772 282.717C171.837 282.717 166.216 277.095 166.216 270.161C166.216 263.226 160.594 257.605 153.66 257.605C146.725 257.605 141.104 263.227 141.104 270.161C141.104 277.096 135.482 282.717 128.548 282.717C121.613 282.717 115.991 277.095 115.991 270.161C115.991 263.226 110.369 257.605 103.435 257.605C96.4997 257.605 90.8777 263.227 90.8777 270.161C90.8777 277.096 85.2556 282.717 78.3216 282.717C71.3866 282.717 65.7656 288.339 65.7656 295.273V297.993H90.8786H115.992H141.105H166.218H191.331H216.444H241.557V295.273C241.553 288.339 235.931 282.717 228.996 282.717Z" fill="#C69130"/>
<path d="M108.163 257.604H103.431V259.92H108.163V257.604Z" fill="#C69130"/>
<path d="M158.233 257.604H153.657V260.45H158.233V257.604Z" fill="#C69130"/>
<path d="M208.832 257.632H203.068V260.914H208.832V257.632Z" fill="#C69130"/>
<path d="M125.311 94.875H44.0655C39.2305 94.875 35.3115 98.794 35.3115 103.629V147.205C35.3115 152.04 39.2305 155.959 44.0655 155.959H125.311C130.146 155.959 134.066 152.04 134.066 147.205V103.629C134.066 98.794 130.146 94.875 125.311 94.875Z" fill="#FCAF17"/>
<path d="M128.436 94.875H47.1895C42.3545 94.875 38.4355 98.794 38.4355 103.629V147.205C38.4355 152.04 42.3555 155.959 47.1895 155.959H128.436C133.271 155.959 137.19 152.04 137.19 147.205V103.629C137.19 98.794 133.271 94.875 128.436 94.875Z" fill="#FFC20E"/>
<path d="M93.1205 115.097C90.0855 112.428 85.5404 112.428 82.5064 115.097L40.1274 152.375C41.7204 154.548 44.2905 155.959 47.1905 155.959H128.436C131.336 155.959 133.906 154.547 135.499 152.375L93.1205 115.097Z" fill="#FFCB05"/>
<path d="M128.435 94.875H47.1895C44.2885 94.875 41.7195 96.287 40.1265 98.459L82.5055 135.737C85.5395 138.406 90.0855 138.406 93.1195 135.737L135.498 98.459C133.906 96.286 131.336 94.875 128.435 94.875Z" fill="#FFD400"/>
<path d="M232.97 282.717C226.035 282.717 220.413 277.095 220.413 270.161C220.413 263.226 214.791 257.605 207.857 257.605C200.922 257.605 195.301 263.227 195.301 270.161C195.301 277.096 189.678 282.717 182.743 282.717C175.809 282.717 170.188 277.095 170.188 270.161C170.188 263.226 164.565 257.605 157.632 257.605C150.697 257.605 145.076 263.227 145.076 270.161C145.076 277.096 139.453 282.717 132.52 282.717C125.584 282.717 119.964 277.095 119.964 270.161C119.964 263.226 114.341 257.605 107.408 257.605C100.473 257.605 94.8515 263.227 94.8515 270.161C94.8515 277.096 89.2295 282.717 82.2955 282.717C75.3605 282.717 69.7395 288.339 69.7395 295.273V297.993H94.8525H119.965H145.079H170.191H195.305H220.418H245.53V295.273C245.525 288.339 239.905 282.717 232.97 282.717Z" fill="#DCAF27"/>
</svg>
