<svg width="204" height="12" viewBox="0 0 204 12" fill="none" xmlns="http://www.w3.org/2000/svg">
<path d="M5.06866 11.224C3.71066 11.224 2.60466 10.762 1.75066 9.81C0.882656 8.872 0.462656 7.612 0.462656 6.016C0.462656 4.434 0.882656 3.174 1.75066 2.222C2.60466 1.284 3.71066 0.808001 5.06866 0.808001C6.13266 0.808001 7.05666 1.102 7.81266 1.69C8.56866 2.278 9.05866 3.118 9.31066 4.238H8.12066C7.70066 2.67 6.67866 1.886 5.06866 1.886C4.04666 1.886 3.23466 2.25 2.61866 2.978C2.00266 3.72 1.69466 4.728 1.69466 6.016C1.69466 7.304 2.00266 8.312 2.61866 9.04C3.23466 9.782 4.04666 10.146 5.06866 10.146C5.82466 10.146 6.51066 9.908 7.11266 9.432C7.70066 8.984 8.05066 8.298 8.19066 7.374H9.36666C9.22666 8.62 8.76466 9.572 7.95266 10.216C7.12666 10.888 6.16066 11.224 5.06866 11.224ZM21.4331 5.316V1.032H22.6091V11H21.4331V6.408H15.8751V11H14.6991V1.032H15.8751V5.316H21.4331ZM36.784 11H35.538L34.376 8.102H29.84L28.692 11H27.46L31.436 1.032H32.752L36.784 11ZM30.302 6.926L30.26 7.038H33.956L33.9 6.912C33.662 6.352 33.06 4.812 32.08 2.306C31.408 4.084 30.82 5.624 30.302 6.926ZM42.8106 11H41.6346V1.032H42.8106V11ZM55.3907 4.392V1.032H56.5527V11H55.1247L51.8207 5.862C50.8687 4.35 50.1687 3.23 49.7487 2.488C49.7767 3.804 49.7907 5.512 49.7907 7.64V11H48.6287V1.032H50.0567L53.3607 6.17C54.3127 7.682 54.9987 8.816 55.4327 9.544C55.4047 8.242 55.3907 6.52 55.3907 4.392ZM66.0308 11.224C64.7288 11.224 63.7208 10.93 62.9928 10.342C62.2648 9.754 61.8868 8.886 61.8868 7.71H63.1048C63.1328 9.348 64.0988 10.16 66.0308 10.16C66.8428 10.16 67.4588 10.006 67.8928 9.684C68.3268 9.376 68.5508 8.914 68.5508 8.298C68.5508 7.822 68.3688 7.458 68.0048 7.192C67.6408 6.926 67.0248 6.688 66.1288 6.492L65.2468 6.296C64.2388 6.072 63.4828 5.736 62.9788 5.288C62.4748 4.84 62.2228 4.224 62.2228 3.412C62.2228 2.628 62.5308 1.998 63.1468 1.522C63.7628 1.046 64.5888 0.808001 65.6248 0.808001C66.3248 0.808001 66.9268 0.892001 67.4448 1.06C67.9628 1.228 68.3688 1.466 68.6628 1.774C68.9428 2.082 69.1528 2.404 69.2928 2.754C69.4328 3.118 69.5028 3.51 69.5168 3.93H68.3128C68.2568 3.23 68.0188 2.712 67.6128 2.376C67.2068 2.04 66.5488 1.872 65.6248 1.872C64.9248 1.872 64.3788 2.012 64.0008 2.278C63.6228 2.558 63.4408 2.936 63.4408 3.412C63.4408 3.902 63.5948 4.28 63.9308 4.546C64.2388 4.826 64.8548 5.064 65.7788 5.26L66.6608 5.456C67.7528 5.708 68.5508 6.058 69.0408 6.506C69.5168 6.954 69.7688 7.556 69.7688 8.298C69.7688 9.208 69.4328 9.922 68.7748 10.44C68.1028 10.972 67.1928 11.224 66.0308 11.224ZM91.3851 5.946L92.7431 1.032H93.9611L91.1331 11H89.8171L88.3891 5.918C87.9831 4.49 87.6751 3.356 87.4791 2.544C87.2691 3.356 86.9611 4.49 86.5691 5.918L85.1411 11H83.8251L80.9971 1.032H82.2151L83.5731 5.946C83.9931 7.472 84.3151 8.662 84.5111 9.516C84.8331 8.27 85.1551 7.066 85.4631 5.918L86.8211 1.032H88.1371L89.4951 5.918C89.8031 7.066 90.1251 8.27 90.4471 9.516C90.6431 8.662 90.9511 7.472 91.3851 5.946ZM106.012 1.032V2.096H100.258V5.274H105.452V6.338H100.258V9.936H105.956V11H99.0819V1.032H106.012ZM121.591 11.224C120.289 11.224 119.281 10.93 118.553 10.342C117.825 9.754 117.447 8.886 117.447 7.71H118.665C118.693 9.348 119.659 10.16 121.591 10.16C122.403 10.16 123.019 10.006 123.453 9.684C123.887 9.376 124.111 8.914 124.111 8.298C124.111 7.822 123.929 7.458 123.565 7.192C123.201 6.926 122.585 6.688 121.689 6.492L120.807 6.296C119.799 6.072 119.043 5.736 118.539 5.288C118.035 4.84 117.783 4.224 117.783 3.412C117.783 2.628 118.091 1.998 118.707 1.522C119.323 1.046 120.149 0.808001 121.185 0.808001C121.885 0.808001 122.487 0.892001 123.005 1.06C123.523 1.228 123.929 1.466 124.223 1.774C124.503 2.082 124.713 2.404 124.853 2.754C124.993 3.118 125.063 3.51 125.077 3.93H123.873C123.817 3.23 123.579 2.712 123.173 2.376C122.767 2.04 122.109 1.872 121.185 1.872C120.485 1.872 119.939 2.012 119.561 2.278C119.183 2.558 119.001 2.936 119.001 3.412C119.001 3.902 119.155 4.28 119.491 4.546C119.799 4.826 120.415 5.064 121.339 5.26L122.221 5.456C123.313 5.708 124.111 6.058 124.601 6.506C125.077 6.954 125.329 7.556 125.329 8.298C125.329 9.208 124.993 9.922 124.335 10.44C123.663 10.972 122.753 11.224 121.591 11.224ZM137.27 10.188C136.584 10.874 135.618 11.21 134.372 11.21C133.112 11.21 132.146 10.874 131.474 10.188C130.788 9.516 130.452 8.55 130.452 7.304V1.032H131.628V7.304C131.628 9.208 132.538 10.146 134.372 10.146C136.192 10.146 137.116 9.208 137.116 7.304V1.032H138.292V7.304C138.292 8.55 137.942 9.516 137.27 10.188ZM143.971 1.032H148.115C149.165 1.032 149.977 1.312 150.551 1.858C151.125 2.418 151.419 3.16 151.419 4.098C151.419 5.05 151.125 5.792 150.551 6.338C149.977 6.898 149.165 7.164 148.115 7.164H145.147V11H143.971V1.032ZM145.147 6.1H148.115C148.801 6.1 149.319 5.932 149.669 5.596C150.019 5.26 150.201 4.756 150.201 4.098C150.201 3.454 150.019 2.95 149.669 2.614C149.319 2.278 148.801 2.096 148.115 2.096H145.147V6.1ZM156.734 1.032H160.878C161.928 1.032 162.74 1.312 163.314 1.858C163.888 2.418 164.182 3.16 164.182 4.098C164.182 5.05 163.888 5.792 163.314 6.338C162.74 6.898 161.928 7.164 160.878 7.164H157.91V11H156.734V1.032ZM157.91 6.1H160.878C161.564 6.1 162.082 5.932 162.432 5.596C162.782 5.26 162.964 4.756 162.964 4.098C162.964 3.454 162.782 2.95 162.432 2.614C162.082 2.278 161.564 2.096 160.878 2.096H157.91V6.1ZM177.324 9.782C176.442 10.748 175.28 11.224 173.852 11.224C172.41 11.224 171.262 10.748 170.394 9.782C169.512 8.844 169.078 7.584 169.078 6.016C169.078 4.462 169.512 3.202 170.394 2.236C171.262 1.284 172.41 0.808001 173.852 0.808001C175.28 0.808001 176.442 1.284 177.324 2.236C178.192 3.216 178.626 4.476 178.626 6.016C178.626 7.584 178.192 8.83 177.324 9.782ZM171.276 9.026C171.92 9.782 172.774 10.146 173.852 10.146C174.916 10.146 175.784 9.782 176.428 9.026C177.072 8.298 177.394 7.29 177.394 6.016C177.394 4.756 177.072 3.748 176.428 3.006C175.784 2.264 174.916 1.886 173.852 1.886C172.774 1.886 171.92 2.264 171.276 3.006C170.632 3.748 170.31 4.756 170.31 6.016C170.31 7.29 170.632 8.298 171.276 9.026ZM191.347 8.116L191.445 9.726C191.487 10.286 191.613 10.72 191.809 11H190.591C190.381 10.706 190.269 10.258 190.269 9.67L190.227 8.606C190.199 7.934 190.045 7.458 189.779 7.178C189.499 6.898 189.065 6.744 188.449 6.744H185.201V11H184.025V1.032H188.239C189.261 1.032 190.073 1.27 190.689 1.746C191.305 2.222 191.613 2.894 191.613 3.748C191.613 4.364 191.459 4.868 191.165 5.288C190.871 5.708 190.479 5.988 189.975 6.156C190.815 6.422 191.263 7.08 191.347 8.116ZM185.201 5.68H188.379C188.995 5.68 189.485 5.526 189.849 5.204C190.213 4.882 190.395 4.42 190.395 3.818C190.395 3.258 190.199 2.824 189.821 2.53C189.443 2.25 188.911 2.096 188.239 2.096H185.201V5.68ZM195.749 1.032H203.743V2.096H200.355V11H199.137V2.096H195.749V1.032Z" fill="white"/>
</svg>
