<svg xmlns="http://www.w3.org/2000/svg" width="24" height="24" viewBox="0 0 24 24" fill="none">
  <path fill-rule="evenodd" clip-rule="evenodd" d="M11 22.453V18.9291C7.93431 18.4906 5.5094 16.0657 5.07089 13H1.547C2.01946 18.0008 5.99921 21.9805 11 22.453ZM1.547 11H5.07089C5.5094 7.93431 7.93431 5.5094 11 5.07089V1.547C5.99921 2.01946 2.01946 5.99921 1.547 11ZM18.9291 13H22.453C21.9805 18.0008 18.0008 21.9805 13 22.453V18.9291C16.0657 18.4906 18.4906 16.0657 18.9291 13ZM18.9291 11H22.453C21.9805 5.99921 18.0008 2.01946 13 1.547V5.07089C16.0657 5.5094 18.4906 7.93431 18.9291 11ZM24 12C24 18.6274 18.6274 24 12 24C5.37258 24 0 18.6274 0 12C0 5.37258 5.37258 0 12 0C18.6274 0 24 5.37258 24 12ZM17.5 12C17.5 15.0376 15.0376 17.5 12 17.5C8.96243 17.5 6.5 15.0376 6.5 12C6.5 8.96243 8.96243 6.5 12 6.5C15.0376 6.5 17.5 8.96243 17.5 12Z" fill="url(#paint0_linear_581_18726)"/>
  <defs>
    <linearGradient id="paint0_linear_581_18726" x1="1.4898" y1="2.51004" x2="24.7302" y2="3.95019" gradientUnits="userSpaceOnUse">
      <stop stop-color="#81E396"/>
      <stop offset="1" stop-color="#BEF856"/>
    </linearGradient>
  </defs>
</svg>