<svg width="62" height="62" viewBox="0 0 62 62" fill="none" xmlns="http://www.w3.org/2000/svg">
<rect width="62" height="62" rx="8.85714" fill="white" fill-opacity="0.22"/>
<path d="M36.9048 25.0953V19.9296C36.9048 18.7018 36.9048 18.0879 36.6461 17.7106C36.4202 17.381 36.0702 17.157 35.6762 17.09C35.2253 17.0133 34.6679 17.2705 33.5531 17.7851L20.4586 23.8287C19.4643 24.2876 18.9672 24.517 18.6031 24.8728C18.2812 25.1874 18.0355 25.5714 17.8848 25.9955C17.7143 26.4752 17.7143 27.0227 17.7143 28.1177V35.4286M37.6429 34.6905H37.6576M17.7143 29.8191L17.7143 39.5619C17.7143 41.2154 17.7143 42.0422 18.0361 42.6737C18.3191 43.2292 18.7708 43.6809 19.3263 43.9639C19.9579 44.2857 20.7846 44.2857 22.4381 44.2857H39.5619C41.2154 44.2857 42.0421 44.2857 42.6737 43.964C43.2292 43.6809 43.6809 43.2292 43.9639 42.6737C44.2857 42.0422 44.2857 41.2154 44.2857 39.5619V29.8191C44.2857 28.1656 44.2857 27.3388 43.9639 26.7073C43.6809 26.1518 43.2292 25.7001 42.6737 25.4171C42.0421 25.0953 41.2154 25.0953 39.5619 25.0953L22.4381 25.0953C20.7846 25.0953 19.9579 25.0953 19.3263 25.4171C18.7708 25.7001 18.3191 26.1518 18.0361 26.7073C17.7143 27.3388 17.7143 28.1656 17.7143 29.8191ZM38.381 34.6905C38.381 35.0981 38.0505 35.4286 37.6429 35.4286C37.2352 35.4286 36.9048 35.0981 36.9048 34.6905C36.9048 34.2829 37.2352 33.9524 37.6429 33.9524C38.0505 33.9524 38.381 34.2829 38.381 34.6905Z" stroke="white" stroke-width="2.21429" stroke-linecap="round" stroke-linejoin="round"/>
</svg>
