<svg width="63" height="62" viewBox="0 0 63 62" fill="none" xmlns="http://www.w3.org/2000/svg">
<rect x="0.666626" width="62" height="62" rx="8.85714" fill="white" fill-opacity="0.22"/>
<path d="M37.5715 39.8572L42 35.4286M42 35.4286L46.4286 39.8572M42 35.4286V44.2857M46.4286 28.0476H16.9048M46.4286 31V25.3905C46.4286 23.737 46.4286 22.9103 46.1068 22.2787C45.8238 21.7232 45.3721 21.2715 44.8166 20.9885C44.185 20.6667 43.3583 20.6667 41.7048 20.6667H21.6286C19.9751 20.6667 19.1484 20.6667 18.5168 20.9885C17.9613 21.2715 17.5096 21.7232 17.2266 22.2787C16.9048 22.9103 16.9048 23.737 16.9048 25.3905V36.6095C16.9048 38.263 16.9048 39.0898 17.2266 39.7213C17.5096 40.2769 17.9613 40.7285 18.5168 41.0116C19.1484 41.3334 19.9751 41.3334 21.6286 41.3334H31.6667" stroke="white" stroke-width="2.21429" stroke-linecap="round" stroke-linejoin="round"/>
</svg>
