<svg width="63" height="62" viewBox="0 0 63 62" fill="none" xmlns="http://www.w3.org/2000/svg">
<rect x="0.666748" width="62" height="62" rx="8.85714" fill="white" fill-opacity="0.22"/>
<path d="M33.9246 25.6146C33.0796 26.217 32.0456 26.5714 30.9287 26.5714C28.0752 26.5714 25.7621 24.2582 25.7621 21.4047C25.7621 18.5512 28.0752 16.238 30.9287 16.238C32.7784 16.238 34.401 17.21 35.3138 18.671M22.8097 42.9381H26.663C27.1654 42.9381 27.6647 42.9979 28.1517 43.1175L32.2232 44.1069C33.1066 44.3221 34.0269 44.343 34.9196 44.1696L39.4212 43.2938C40.6104 43.0622 41.7043 42.4927 42.5616 41.6588L45.7466 38.5606C46.6561 37.6773 46.6561 36.244 45.7466 35.3592C44.9277 34.5626 43.6309 34.473 42.7045 35.1485L38.9926 37.8566C38.461 38.2452 37.8141 38.4545 37.1489 38.4545H33.5645L35.846 38.4544C37.132 38.4544 38.1736 37.441 38.1736 36.1901V35.7373C38.1736 34.6985 37.4469 33.7928 36.4114 33.5418L32.89 32.6854C32.3169 32.5464 31.73 32.4761 31.14 32.4761C29.7158 32.4761 27.1377 33.6553 27.1377 33.6553L22.8097 35.4652M43.4763 22.8809C43.4763 25.7344 41.1631 28.0476 38.3097 28.0476C35.4562 28.0476 33.143 25.7344 33.143 22.8809C33.143 20.0274 35.4562 17.7142 38.3097 17.7142C41.1631 17.7142 43.4763 20.0274 43.4763 22.8809ZM16.9049 34.838L16.9049 43.3999C16.9049 44.2267 16.9049 44.6401 17.0658 44.9558C17.2073 45.2336 17.4332 45.4594 17.7109 45.601C18.0267 45.7618 18.4401 45.7618 19.2668 45.7618H20.4478C21.2745 45.7618 21.6879 45.7618 22.0037 45.601C22.2814 45.4594 22.5072 45.2336 22.6488 44.9558C22.8097 44.6401 22.8097 44.2267 22.8097 43.3999V34.838C22.8097 34.0113 22.8097 33.5979 22.6488 33.2821C22.5072 33.0044 22.2814 32.7786 22.0037 32.637C21.6879 32.4761 21.2745 32.4761 20.4478 32.4761L19.2668 32.4761C18.4401 32.4761 18.0267 32.4761 17.7109 32.637C17.4332 32.7786 17.2073 33.0044 17.0658 33.2821C16.9049 33.5979 16.9049 34.0113 16.9049 34.838Z" stroke="white" stroke-width="2.21429" stroke-linecap="round" stroke-linejoin="round"/>
</svg>
