<svg xmlns="http://www.w3.org/2000/svg" width="461" height="541" viewBox="0 0 461 541" fill="none">
  <path d="M290.543 0.729492L290.631 0.753856C314.422 9.40858 337.023 21.3381 357.788 36.2207C376.408 49.5634 393.289 65.1039 407.991 82.3987C422.255 99.2063 434.516 117.715 444.408 137.431C450.646 149.819 455.967 162.777 460.27 175.959L460.309 176.051L458.984 176.47L458.974 176.392C454.676 163.244 449.369 150.37 443.18 138.05C423.22 98.2901 393.401 63.4763 356.984 37.3464C336.356 22.5661 313.9 10.7048 290.217 2.09397L289.895 2.54718L290.543 0.729492ZM1.27734 462.305L2.22762 461.311L2.29582 461.36C12.1396 470.906 22.8216 479.858 34.0932 487.933L34.1858 487.997L33.3768 489.122L33.2842 489.059C22.0126 480.979 11.2624 471.983 1.32606 462.369L1.27734 462.305ZM216.223 539.043L216.301 539.033C230.043 537.995 243.79 535.905 257.206 532.854L257.186 532.742L257.323 532.839C323.315 517.786 381.364 479.162 420.832 424.085C422.562 421.673 424.267 419.241 425.89 416.79L425.954 416.697L427.099 417.482L427.05 417.55C425.388 420.011 423.688 422.482 421.962 424.894C401.802 453.032 377.027 476.837 348.329 495.647C320.596 513.824 290.08 526.792 257.61 534.204L257.493 534.223C244.043 537.279 230.218 539.384 216.413 540.412L216.335 540.427L216.223 539.043Z" stroke="white" stroke-width="0.487316" stroke-miterlimit="10"/>
</svg>