<svg xmlns="http://www.w3.org/2000/svg" width="260" height="260" fill="none">
  <path fill="#57BAE5" fill-rule="evenodd" d="m94 61.3-12.2 46.3L0 118l94-56.8Z" clip-rule="evenodd"/>
  <path fill="#005472" fill-rule="evenodd" d="m116.3 248 20.4-84-26.5-11 6 95Z" clip-rule="evenodd"/>
  <path fill="#34AFE4" fill-rule="evenodd" d="m81.8 107.6-21.5 43.8L0 118l81.8-10.5Z" clip-rule="evenodd"/>
  <path fill="#0076A7" fill-rule="evenodd" d="m116.3 248-6.1-95-50-1.6 56 96.6Z" clip-rule="evenodd"/>
  <path fill="#009DE2" fill-rule="evenodd" d="m81.8 107.6 28.4 45.5-50-1.7 21.6-43.8Z" clip-rule="evenodd"/>
  <path fill="#7ACDF2" fill-rule="evenodd" d="m94 61.3 68 8.4-80.2 37.9 12.3-46.3Zm142.3-21.1-42.7 49.3 3-45.6 39.7-3.7ZM260 12l-23.7 28.2 18.5 2.3L260 12Z" clip-rule="evenodd"/>
  <path fill="#00ABE7" fill-rule="evenodd" d="m213.3 65.8 41.5-23.3-18.5-2.3-23 25.6Z" clip-rule="evenodd"/>
  <path fill="#0076A7" fill-rule="evenodd" d="m136.7 164 2-56.6-28.5 45.7 26.5 10.8Z" clip-rule="evenodd"/>
  <path fill="#008DBE" fill-rule="evenodd" d="m138.7 107.4-28.5 45.7-28.4-45.5 56.9-.2Z" clip-rule="evenodd"/>
  <path fill="#57BAE5" fill-rule="evenodd" d="m162 69.7-23.3 37.7-56.9.2L162 69.7Z" clip-rule="evenodd"/>
  <path fill="#00698D" fill-rule="evenodd" d="m138.7 107.4-2 56.5 52 53-50-109.5Z" clip-rule="evenodd"/>
  <path fill="#09A1CB" fill-rule="evenodd" d="m216 187.3-27.5-67.8.3 97.3 27.2-29.5Zm-22.4-97.8-5 30-50-12.1 55-18Z" clip-rule="evenodd"/>
  <path fill="#8BDAFF" fill-rule="evenodd" d="m218.8 130.2-30.3-10.7 5-30 25.3 40.7Z" clip-rule="evenodd"/>
  <path fill="#7ACDF2" fill-rule="evenodd" d="m229.7 185.4-33-52.5h18.8l14.2 52.5Z" clip-rule="evenodd"/>
  <path fill="#57BAE5" fill-rule="evenodd" d="m168.2 58.6 25.4 30.9 3-45.6-28.4 14.7Z" clip-rule="evenodd"/>
  <path fill="#008DBE" fill-rule="evenodd" d="m188.5 119.5-49.8-12.1 50 109.4-.2-97.3Z" clip-rule="evenodd"/>
  <path fill="#0076A7" fill-rule="evenodd" d="m216 187.3 11 6-38 23.5 27-29.5Z" clip-rule="evenodd"/>
  <path fill="#57BAE5" fill-rule="evenodd" d="m229.7 184.8-41.2-65.3 27.5 67.8 13.7-2.5Z" clip-rule="evenodd"/>
  <path fill="#7ACDF2" fill-rule="evenodd" d="m168.2 58.6-29.5 48.8 54.9-18-25.4-30.8Z" clip-rule="evenodd"/>
</svg>
